<svg width="16" height="16" viewBox="0 0 16 16" fill="none" xmlns="http://www.w3.org/2000/svg">
<path d="M5.47735 1.50464H4.63414C4.0356 1.50462 3.53646 1.50461 3.14023 1.55788C2.72201 1.61411 2.34441 1.7378 2.04098 2.04122C1.73756 2.34466 1.61386 2.72225 1.55764 3.14048C1.50436 3.53671 1.50438 4.03582 1.5044 4.63436V10.0351C1.50438 10.9462 1.50437 11.6805 1.58202 12.2581C1.66264 12.8577 1.83511 13.3626 2.2361 13.7635C2.63709 14.1646 3.14198 14.337 3.74162 14.4176C4.31917 14.4953 5.05353 14.4953 5.9646 14.4953H10.0348C10.9459 14.4953 11.6802 14.4953 12.2578 14.4176C12.8575 14.337 13.3623 14.1646 13.7633 13.7635C14.1643 13.3626 14.3368 12.8577 14.4174 12.2581C14.495 11.6805 14.495 10.9462 14.495 10.0351V8.2965C14.495 7.38542 14.495 6.65107 14.4174 6.07351C14.3368 5.47387 14.1643 4.96899 13.7633 4.56799C13.3623 4.16701 12.8575 3.99454 12.2578 3.91392C11.6802 3.83627 10.9459 3.83628 10.0348 3.83629H9.106C8.90761 3.83629 8.79488 3.83573 8.71138 3.82747C8.67399 3.82377 8.65407 3.81942 8.64426 3.81668C8.63964 3.8154 8.63668 3.81422 8.63668 3.81422L8.63582 3.8138L8.63502 3.81323C8.63502 3.81323 8.6325 3.81125 8.6291 3.8079C8.62189 3.80074 8.60825 3.78561 8.58645 3.75495C8.53788 3.68658 8.48144 3.58896 8.383 3.41671L8.18988 3.07879C8.01263 2.76848 7.86181 2.50459 7.71504 2.29803C7.5587 2.078 7.38516 1.89048 7.14676 1.75213C6.90837 1.61378 6.65945 1.55615 6.39083 1.52957C6.13868 1.50462 5.83472 1.50463 5.47735 1.50464Z" fill="#E6EDFE" stroke="#5587FC" stroke-width="0.997361"/>
<path d="M7.91797 6.65723H12.2627" stroke="#5587FC" stroke-width="1.2" stroke-linecap="round"/>
</svg>
