<svg width="16" height="16" viewBox="0 0 16 16" fill="none" xmlns="http://www.w3.org/2000/svg">
    <path d="M14 7.333v-.666c0-2.514 0-3.771-.827-4.552-.827-.782-2.158-.782-4.82-.782h-.706c-2.662 0-3.993 0-4.82.782C2 2.895 2 4.153 2 6.667v2.667c0 2.514 0 3.77.827 4.552.827.78 2.158.78 4.82.78H8M5.334 4.667h5.333M5.334 8h3.333" stroke="#8C949E" stroke-width="1.2" stroke-linecap="round"/>
    <path d="M14 13.765v-2.431c0-.954-.895-2-2-2s-2 1.046-2 2v2.333c0 .52.488 1 1.09 1 .603 0 1.092-.48 1.092-1v-1.824" stroke="#8C949E" stroke-width="1.2" stroke-linecap="round"/>
</svg>
