<svg width="20" height="20" viewBox="0 0 20 20" fill="none" xmlns="http://www.w3.org/2000/svg">
<path d="M13.3002 6C13.2825 7.82316 11.8234 9.28986 10.0002 9.27217C8.19469 9.25466 6.7277 7.80539 6.71018 6C6.6925 4.17684 8.17692 2.51783 10.0002 2.50014C11.841 2.48229 13.318 4.15924 13.3002 6ZM12.4689 11.684H7.46891C6.36384 11.684 5.30404 12.1231 4.52263 12.9044C3.74123 13.6858 3.30225 15.5617 3.30225 16.6667C3.30225 16.8877 3.39004 17.0997 3.54632 17.2559C3.7026 17.4122 3.91457 17.5 4.13558 17.5H15.8022C16.0233 17.5 16.2352 17.4122 16.3915 17.2559C16.5478 17.0997 16.6356 16.8877 16.6356 16.6667C16.6356 15.5617 16.1966 13.6858 15.4152 12.9044C14.6338 12.1231 13.574 11.684 12.4689 11.684Z" fill="#E6EDFE" stroke="#2968F9" stroke-linecap="round" stroke-linejoin="round"/>
</svg>
