<svg width="16" height="16" viewBox="0 0 16 16" fill="none" xmlns="http://www.w3.org/2000/svg">
    <path d="M5.212 11.6c-1.273 0-1.91 0-2.364-.272a1.825 1.825 0 0 1-.69-.734c-.235-.461-.172-1.072-.045-2.293.106-1.02.159-1.529.42-1.903.17-.246.401-.447.672-.586.412-.212.944-.212 2.007-.212h5.576c1.063 0 1.595 0 2.007.212.271.139.502.34.673.586.26.374.313.884.419 1.903.127 1.221.19 1.832-.046 2.293a1.825 1.825 0 0 1-.69.734c-.453.272-1.09.272-2.363.272" stroke="#333" stroke-width="1.2"/>
    <path d="M11 5.6V4.4c0-1.131 0-1.697-.351-2.049C10.296 2 9.73 2 8.6 2H7.4c-1.131 0-1.697 0-2.049.351C5 2.703 5 3.27 5 4.4v1.2M9.193 10.4H6.807c-.411 0-.617 0-.792.065a1.125 1.125 0 0 0-.567.48c-.101.169-.151.385-.25.818-.157.676-.234 1.014-.181 1.285.07.362.29.668.597.83.23.121.55.121 1.193.121h2.386c.643 0 .964 0 1.194-.121a1.19 1.19 0 0 0 .596-.83c.053-.27-.024-.609-.18-1.285-.1-.433-.15-.65-.25-.818a1.125 1.125 0 0 0-.568-.48c-.175-.066-.38-.066-.792-.066z" stroke="#333" stroke-width="1.2" stroke-linejoin="round"/>
    <path d="M11.602 8h.005" stroke="#333" stroke-width="1.6" stroke-linecap="round" stroke-linejoin="round"/>
</svg>
