<svg width="16" height="16" viewBox="0 0 16 16" fill="none" xmlns="http://www.w3.org/2000/svg">
<path d="M5.17102 1.44824H4.32049C3.71675 1.44822 3.21328 1.44821 2.81362 1.50195C2.39176 1.55866 2.01089 1.68343 1.70482 1.98949C1.39876 2.29555 1.27399 2.67643 1.21728 3.09828C1.16354 3.49795 1.16356 4.0014 1.16357 4.60514V10.0527C1.16356 10.9717 1.16355 11.7124 1.24188 12.295C1.3232 12.8999 1.49717 13.4091 1.90163 13.8136C2.30611 14.2181 2.81538 14.392 3.42022 14.4733C4.00279 14.5517 4.74352 14.5517 5.6625 14.5517H8.51618C9.43516 14.5517 10.1759 14.5517 10.7585 14.4733C11.3633 14.392 11.8725 14.2181 12.277 13.8136C12.6815 13.4091 12.8554 12.8999 12.9368 12.295C13.0151 11.7124 13.0151 10.9717 13.0151 10.0527V8.29907C13.0151 7.38009 13.0151 6.63936 12.9368 6.05678C12.8554 5.45194 12.6815 4.94267 12.277 4.5382C11.8725 4.13373 11.3633 3.95976 10.7585 3.87844C10.1759 3.80012 9.90649 3.77786 8.9875 3.77788C8.9875 3.77788 8.4079 3.79928 8.35779 3.77788C8.30767 3.75648 8.2012 3.55066 8.10191 3.37691L7.9071 3.03606C7.72831 2.72306 7.57619 2.45688 7.42814 2.24853C7.27044 2.02658 7.0954 1.83743 6.85493 1.69788C6.61447 1.55833 6.36339 1.5002 6.09244 1.47339C5.8381 1.44822 5.5315 1.44823 5.17102 1.44824Z" fill="white" stroke="#5587FC" stroke-width="0.935932"/>
<path d="M2.30169 10.8085L2.30175 10.8081C2.46053 9.90297 2.58849 9.1735 2.76252 8.59967C2.9432 8.00389 3.19413 7.50233 3.64285 7.10395C4.09159 6.7055 4.59864 6.5342 5.1792 6.45411C5.73839 6.37695 6.43217 6.37695 7.29291 6.37695H11.1383C11.999 6.37695 12.6928 6.37695 13.2249 6.45411C13.7774 6.5342 14.2243 6.7055 14.5332 7.10395C14.8423 7.50233 14.9172 8.00389 14.8888 8.59967C14.8615 9.17351 14.7335 9.90296 14.5747 10.8081C14.4159 11.7133 14.4087 11.7548 14.2346 12.3286C14.054 12.9244 13.8031 13.4259 13.3543 13.8243C12.9056 14.2228 12.3986 14.3941 11.818 14.4742C11.2588 14.5513 10.5651 14.5513 9.70432 14.5513H9.70429H5.8589H5.85887C4.99815 14.5513 4.30437 14.5513 3.77226 14.4742C3.2198 14.3941 2.77285 14.2228 2.46391 13.8243C2.15497 13.4259 2.08001 12.9244 2.10836 12.3286C2.13566 11.7548 2.14294 11.7133 2.30169 10.8085Z" fill="#D7E3FE" stroke="#5587FC" stroke-width="0.935932"/>
</svg>
