<svg width="80" height="16" viewBox="0 0 80 16" fill="none" xmlns="http://www.w3.org/2000/svg">
<g clip-path="url(#clip0_944_20203)">
<path d="M4.66667 5.71333C4.84498 6.42719 5.14736 7.10415 5.56 7.71333L6.77333 6.86C6.96498 6.7206 7.09642 6.51351 7.14099 6.28076C7.18556 6.048 7.13992 5.80701 7.01333 5.60667C6.92 5.45333 6.82667 5.29333 6.74 5.12667C6.6796 5.01189 6.59578 4.91107 6.49396 4.83073C6.39214 4.75039 6.27459 4.69231 6.14892 4.66026C6.02324 4.62822 5.89223 4.62291 5.76437 4.64468C5.63652 4.66646 5.51465 4.71483 5.40667 4.78667L4.96667 5.07333C4.84899 5.12723 4.75425 5.22113 4.69932 5.33833C4.64438 5.45552 4.63281 5.58841 4.66667 5.71333Z" fill="#64748B"/>
<path d="M10.8933 11.02L11.18 10.58C11.2518 10.472 11.3002 10.3502 11.322 10.2223C11.3438 10.0944 11.3385 9.96343 11.3064 9.83775C11.2744 9.71207 11.2163 9.59452 11.1359 9.4927C11.0556 9.39088 10.9548 9.30707 10.84 9.24667C10.6733 9.16 10.5133 9.06667 10.36 8.97333C10.1597 8.84674 9.91866 8.80111 9.68591 8.84568C9.45315 8.89025 9.24607 9.02169 9.10667 9.21333L8.25333 10.4267C8.86252 10.8393 9.53948 11.1417 10.2533 11.32C10.3783 11.3539 10.5111 11.3423 10.6283 11.2873C10.7455 11.2324 10.8394 11.1377 10.8933 11.02Z" fill="#64748B"/>
<path d="M4.66667 5.71333C4.84498 6.42719 5.14736 7.10415 5.56 7.71333L6.77333 6.86C6.96498 6.7206 7.09642 6.51351 7.14099 6.28076C7.18556 6.048 7.13992 5.80701 7.01333 5.60667C6.92 5.45333 6.82667 5.29333 6.74 5.12667C6.6796 5.01189 6.59578 4.91107 6.49396 4.83073C6.39214 4.75039 6.27459 4.69231 6.14892 4.66026C6.02324 4.62822 5.89223 4.62291 5.76437 4.64468C5.63652 4.66646 5.51465 4.71483 5.40667 4.78667L4.96667 5.07333C4.84899 5.12723 4.75425 5.22113 4.69932 5.33833C4.64438 5.45552 4.63281 5.58841 4.66667 5.71333Z" stroke="#64748B" stroke-width="1.2" stroke-linecap="round" stroke-linejoin="round"/>
<path d="M10.8933 11.02L11.18 10.58C11.2518 10.472 11.3002 10.3502 11.322 10.2223C11.3438 10.0944 11.3385 9.96343 11.3064 9.83775C11.2744 9.71207 11.2163 9.59452 11.1359 9.4927C11.0556 9.39088 10.9548 9.30707 10.84 9.24667C10.6733 9.16 10.5133 9.06667 10.36 8.97333C10.1597 8.84674 9.91866 8.80111 9.68591 8.84568C9.45315 8.89025 9.24607 9.02169 9.10667 9.21333L8.25333 10.4267C8.86252 10.8393 9.53948 11.1417 10.2533 11.32C10.3783 11.3539 10.5111 11.3423 10.6283 11.2873C10.7455 11.2324 10.8394 11.1377 10.8933 11.02Z" stroke="#64748B" stroke-width="1.2" stroke-linecap="round" stroke-linejoin="round"/>
<path d="M8.25324 10.4266C7.71869 10.0803 7.22256 9.67801 6.77324 9.22658C6.32181 8.77727 5.91954 8.28113 5.57324 7.74658" stroke="#64748B" stroke-width="1.2" stroke-linecap="round" stroke-linejoin="round"/>
</g>
<g clip-path="url(#clip1_944_20203)">
<path d="M20.6667 5.71333C20.845 6.42719 21.1474 7.10415 21.56 7.71333L22.7733 6.86C22.965 6.7206 23.0964 6.51351 23.141 6.28076C23.1856 6.048 23.1399 5.80701 23.0133 5.60667C22.92 5.45333 22.8267 5.29333 22.74 5.12667C22.6796 5.01189 22.5958 4.91107 22.494 4.83073C22.3921 4.75039 22.2746 4.69231 22.1489 4.66026C22.0232 4.62822 21.8922 4.62291 21.7644 4.64468C21.6365 4.66646 21.5147 4.71483 21.4067 4.78667L20.9667 5.07333C20.849 5.12723 20.7543 5.22113 20.6993 5.33833C20.6444 5.45552 20.6328 5.58841 20.6667 5.71333Z" fill="#CBD5E1"/>
<path d="M26.8933 11.02L27.18 10.58C27.2518 10.472 27.3002 10.3502 27.322 10.2223C27.3438 10.0944 27.3385 9.96343 27.3064 9.83775C27.2744 9.71207 27.2163 9.59452 27.1359 9.4927C27.0556 9.39088 26.9548 9.30707 26.84 9.24667C26.6733 9.16 26.5133 9.06667 26.36 8.97333C26.1597 8.84674 25.9187 8.80111 25.6859 8.84568C25.4532 8.89025 25.2461 9.02169 25.1067 9.21333L24.2533 10.4267C24.8625 10.8393 25.5395 11.1417 26.2533 11.32C26.3783 11.3539 26.5111 11.3423 26.6283 11.2873C26.7455 11.2324 26.8394 11.1377 26.8933 11.02Z" fill="#CBD5E1"/>
<path d="M20.6667 5.71333C20.845 6.42719 21.1474 7.10415 21.56 7.71333L22.7733 6.86C22.965 6.7206 23.0964 6.51351 23.141 6.28076C23.1856 6.048 23.1399 5.80701 23.0133 5.60667C22.92 5.45333 22.8267 5.29333 22.74 5.12667C22.6796 5.01189 22.5958 4.91107 22.494 4.83073C22.3921 4.75039 22.2746 4.69231 22.1489 4.66026C22.0232 4.62822 21.8922 4.62291 21.7644 4.64468C21.6365 4.66646 21.5147 4.71483 21.4067 4.78667L20.9667 5.07333C20.849 5.12723 20.7543 5.22113 20.6993 5.33833C20.6444 5.45552 20.6328 5.58841 20.6667 5.71333Z" stroke="#CBD5E1" stroke-width="1.2" stroke-linecap="round" stroke-linejoin="round"/>
<path d="M26.8933 11.02L27.18 10.58C27.2518 10.472 27.3002 10.3502 27.322 10.2223C27.3438 10.0944 27.3385 9.96343 27.3064 9.83775C27.2744 9.71207 27.2163 9.59452 27.1359 9.4927C27.0556 9.39088 26.9548 9.30707 26.84 9.24667C26.6733 9.16 26.5133 9.06667 26.36 8.97333C26.1597 8.84674 25.9187 8.80111 25.6859 8.84568C25.4532 8.89025 25.2461 9.02169 25.1067 9.21333L24.2533 10.4267C24.8625 10.8393 25.5395 11.1417 26.2533 11.32C26.3783 11.3539 26.5111 11.3423 26.6283 11.2873C26.7455 11.2324 26.8394 11.1377 26.8933 11.02Z" stroke="#CBD5E1" stroke-width="1.2" stroke-linecap="round" stroke-linejoin="round"/>
<path d="M24.2532 10.4266C23.7187 10.0803 23.2226 9.67801 22.7732 9.22658C22.3218 8.77727 21.9195 8.28113 21.5732 7.74658" stroke="#CBD5E1" stroke-width="1.2" stroke-linecap="round" stroke-linejoin="round"/>
</g>
<g clip-path="url(#clip2_944_20203)">
<path d="M36.6667 5.71333C36.845 6.42719 37.1474 7.10415 37.56 7.71333L38.7733 6.86C38.965 6.7206 39.0964 6.51351 39.141 6.28076C39.1856 6.048 39.1399 5.80701 39.0133 5.60667C38.92 5.45333 38.8267 5.29333 38.74 5.12667C38.6796 5.01189 38.5958 4.91107 38.494 4.83073C38.3921 4.75039 38.2746 4.69231 38.1489 4.66026C38.0232 4.62822 37.8922 4.62291 37.7644 4.64468C37.6365 4.66646 37.5147 4.71483 37.4067 4.78667L36.9667 5.07333C36.849 5.12723 36.7543 5.22113 36.6993 5.33833C36.6444 5.45552 36.6328 5.58841 36.6667 5.71333Z" fill="#2968F9"/>
<path d="M42.8933 11.02L43.18 10.58C43.2518 10.472 43.3002 10.3502 43.322 10.2223C43.3438 10.0944 43.3385 9.96343 43.3064 9.83775C43.2744 9.71207 43.2163 9.59452 43.1359 9.4927C43.0556 9.39088 42.9548 9.30707 42.84 9.24667C42.6733 9.16 42.5133 9.06667 42.36 8.97333C42.1597 8.84674 41.9187 8.80111 41.6859 8.84568C41.4532 8.89025 41.2461 9.02169 41.1067 9.21333L40.2533 10.4267C40.8625 10.8393 41.5395 11.1417 42.2533 11.32C42.3783 11.3539 42.5111 11.3423 42.6283 11.2873C42.7455 11.2324 42.8394 11.1377 42.8933 11.02Z" fill="#2968F9"/>
<path d="M36.6667 5.71333C36.845 6.42719 37.1474 7.10415 37.56 7.71333L38.7733 6.86C38.965 6.7206 39.0964 6.51351 39.141 6.28076C39.1856 6.048 39.1399 5.80701 39.0133 5.60667C38.92 5.45333 38.8267 5.29333 38.74 5.12667C38.6796 5.01189 38.5958 4.91107 38.494 4.83073C38.3921 4.75039 38.2746 4.69231 38.1489 4.66026C38.0232 4.62822 37.8922 4.62291 37.7644 4.64468C37.6365 4.66646 37.5147 4.71483 37.4067 4.78667L36.9667 5.07333C36.849 5.12723 36.7543 5.22113 36.6993 5.33833C36.6444 5.45552 36.6328 5.58841 36.6667 5.71333Z" stroke="#2968F9" stroke-width="1.2" stroke-linecap="round" stroke-linejoin="round"/>
<path d="M42.8933 11.02L43.18 10.58C43.2518 10.472 43.3002 10.3502 43.322 10.2223C43.3438 10.0944 43.3385 9.96343 43.3064 9.83775C43.2744 9.71207 43.2163 9.59452 43.1359 9.4927C43.0556 9.39088 42.9548 9.30707 42.84 9.24667C42.6733 9.16 42.5133 9.06667 42.36 8.97333C42.1597 8.84674 41.9187 8.80111 41.6859 8.84568C41.4532 8.89025 41.2461 9.02169 41.1067 9.21333L40.2533 10.4267C40.8625 10.8393 41.5395 11.1417 42.2533 11.32C42.3783 11.3539 42.5111 11.3423 42.6283 11.2873C42.7455 11.2324 42.8394 11.1377 42.8933 11.02Z" stroke="#2968F9" stroke-width="1.2" stroke-linecap="round" stroke-linejoin="round"/>
<path d="M40.2532 10.4266C39.7187 10.0803 39.2226 9.67801 38.7732 9.22658C38.3218 8.77727 37.9195 8.28113 37.5732 7.74658" stroke="#2968F9" stroke-width="1.2" stroke-linecap="round" stroke-linejoin="round"/>
</g>
<g clip-path="url(#clip3_944_20203)">
<path d="M52.6667 5.71333C52.845 6.42719 53.1474 7.10415 53.56 7.71333L54.7733 6.86C54.965 6.7206 55.0964 6.51351 55.141 6.28076C55.1856 6.048 55.1399 5.80701 55.0133 5.60667C54.92 5.45333 54.8267 5.29333 54.74 5.12667C54.6796 5.01189 54.5958 4.91107 54.494 4.83073C54.3921 4.75039 54.2746 4.69231 54.1489 4.66026C54.0232 4.62822 53.8922 4.62291 53.7644 4.64468C53.6365 4.66646 53.5147 4.71483 53.4067 4.78667L52.9667 5.07333C52.849 5.12723 52.7543 5.22113 52.6993 5.33833C52.6444 5.45552 52.6328 5.58841 52.6667 5.71333Z" fill="white"/>
<path d="M58.8933 11.02L59.18 10.58C59.2518 10.472 59.3002 10.3502 59.322 10.2223C59.3438 10.0944 59.3385 9.96343 59.3064 9.83775C59.2744 9.71207 59.2163 9.59452 59.1359 9.4927C59.0556 9.39088 58.9548 9.30707 58.84 9.24667C58.6733 9.16 58.5133 9.06667 58.36 8.97333C58.1597 8.84674 57.9187 8.80111 57.6859 8.84568C57.4532 8.89025 57.2461 9.02169 57.1067 9.21333L56.2533 10.4267C56.8625 10.8393 57.5395 11.1417 58.2533 11.32C58.3783 11.3539 58.5111 11.3423 58.6283 11.2873C58.7455 11.2324 58.8394 11.1377 58.8933 11.02Z" fill="white"/>
<path d="M52.6667 5.71333C52.845 6.42719 53.1474 7.10415 53.56 7.71333L54.7733 6.86C54.965 6.7206 55.0964 6.51351 55.141 6.28076C55.1856 6.048 55.1399 5.80701 55.0133 5.60667C54.92 5.45333 54.8267 5.29333 54.74 5.12667C54.6796 5.01189 54.5958 4.91107 54.494 4.83073C54.3921 4.75039 54.2746 4.69231 54.1489 4.66026C54.0232 4.62822 53.8922 4.62291 53.7644 4.64468C53.6365 4.66646 53.5147 4.71483 53.4067 4.78667L52.9667 5.07333C52.849 5.12723 52.7543 5.22113 52.6993 5.33833C52.6444 5.45552 52.6328 5.58841 52.6667 5.71333Z" stroke="white" stroke-width="1.2" stroke-linecap="round" stroke-linejoin="round"/>
<path d="M58.8933 11.02L59.18 10.58C59.2518 10.472 59.3002 10.3502 59.322 10.2223C59.3438 10.0944 59.3385 9.96343 59.3064 9.83775C59.2744 9.71207 59.2163 9.59452 59.1359 9.4927C59.0556 9.39088 58.9548 9.30707 58.84 9.24667C58.6733 9.16 58.5133 9.06667 58.36 8.97333C58.1597 8.84674 57.9187 8.80111 57.6859 8.84568C57.4532 8.89025 57.2461 9.02169 57.1067 9.21333L56.2533 10.4267C56.8625 10.8393 57.5395 11.1417 58.2533 11.32C58.3783 11.3539 58.5111 11.3423 58.6283 11.2873C58.7455 11.2324 58.8394 11.1377 58.8933 11.02Z" stroke="white" stroke-width="1.2" stroke-linecap="round" stroke-linejoin="round"/>
<path d="M56.2532 10.4266C55.7187 10.0803 55.2226 9.67801 54.7732 9.22658C54.3218 8.77727 53.9195 8.28113 53.5732 7.74658" stroke="white" stroke-width="1.2" stroke-linecap="round" stroke-linejoin="round"/>
</g>
<defs>
<clipPath id="clip0_944_20203">
<rect width="16" height="16" fill="white"/>
</clipPath>
<clipPath id="clip1_944_20203">
<rect width="16" height="16" fill="white" transform="translate(16)"/>
</clipPath>
<clipPath id="clip2_944_20203">
<rect width="16" height="16" fill="white" transform="translate(32)"/>
</clipPath>
<clipPath id="clip3_944_20203">
<rect width="16" height="16" fill="white" transform="translate(48)"/>
</clipPath>
</defs>
</svg>
