<svg width="80" height="16" viewBox="0 0 80 16" fill="none" xmlns="http://www.w3.org/2000/svg">
<g clip-path="url(#clip0_944_20185)">
<path d="M8 14C11.3137 14 14 11.3137 14 8C14 4.68629 11.3137 2 8 2C4.68629 2 2 4.68629 2 8C2 11.3137 4.68629 14 8 14Z" stroke="#64748B" stroke-width="1.2" stroke-linecap="round" stroke-linejoin="round"/>
<path d="M8.66667 5.33325L6 7.99992L8.66667 10.6666M14 7.99992H6H14Z" stroke="#64748B" stroke-width="1.2" stroke-linecap="round" stroke-linejoin="round"/>
</g>
<g clip-path="url(#clip1_944_20185)">
<path d="M24 14C27.3137 14 30 11.3137 30 8C30 4.68629 27.3137 2 24 2C20.6863 2 18 4.68629 18 8C18 11.3137 20.6863 14 24 14Z" stroke="#CBD5E1" stroke-width="1.2" stroke-linecap="round" stroke-linejoin="round"/>
<path d="M24.6667 5.33325L22 7.99992L24.6667 10.6666M30 7.99992H22H30Z" stroke="#CBD5E1" stroke-width="1.2" stroke-linecap="round" stroke-linejoin="round"/>
</g>
<g clip-path="url(#clip2_944_20185)">
<path d="M40 14C43.3137 14 46 11.3137 46 8C46 4.68629 43.3137 2 40 2C36.6863 2 34 4.68629 34 8C34 11.3137 36.6863 14 40 14Z" stroke="#2968F9" stroke-width="1.2" stroke-linecap="round" stroke-linejoin="round"/>
<path d="M40.6667 5.33325L38 7.99992L40.6667 10.6666M46 7.99992H38H46Z" stroke="#2968F9" stroke-width="1.2" stroke-linecap="round" stroke-linejoin="round"/>
</g>
<g clip-path="url(#clip3_944_20185)">
<path d="M56 14C59.3137 14 62 11.3137 62 8C62 4.68629 59.3137 2 56 2C52.6863 2 50 4.68629 50 8C50 11.3137 52.6863 14 56 14Z" stroke="white" stroke-width="1.2" stroke-linecap="round" stroke-linejoin="round"/>
<path d="M56.6667 5.33325L54 7.99992L56.6667 10.6666M62 7.99992H54H62Z" stroke="white" stroke-width="1.2" stroke-linecap="round" stroke-linejoin="round"/>
</g>
<defs>
<clipPath id="clip0_944_20185">
<rect width="16" height="16" fill="white"/>
</clipPath>
<clipPath id="clip1_944_20185">
<rect width="16" height="16" fill="white" transform="translate(16)"/>
</clipPath>
<clipPath id="clip2_944_20185">
<rect width="16" height="16" fill="white" transform="translate(32)"/>
</clipPath>
<clipPath id="clip3_944_20185">
<rect width="16" height="16" fill="white" transform="translate(48)"/>
</clipPath>
</defs>
</svg>
