<svg width="80" height="16" viewBox="0 0 80 16" fill="none" xmlns="http://www.w3.org/2000/svg">
<g clip-path="url(#clip0_944_20755)">
<path d="M7.10345 3.15013C7.47029 2.40696 8.53003 2.40696 8.89687 3.15013L9.82772 5.03592C9.97326 5.33077 10.2544 5.53523 10.5798 5.58278L12.663 5.88728C13.483 6.00712 13.8097 7.01496 13.2162 7.59312L11.7103 9.05984C11.4744 9.28958 11.3667 9.62071 11.4224 9.94524L11.7776 12.0161C11.9177 12.8331 11.0602 13.4561 10.3265 13.0702L8.46561 12.0916C8.17423 11.9384 7.82609 11.9384 7.53471 12.0916L5.67379 13.0702C4.94016 13.4561 4.08262 12.8331 4.22273 12.0161L4.57792 9.94524C4.63358 9.62071 4.52591 9.28958 4.29004 9.05984L2.78417 7.59312C2.19058 7.01496 2.51736 6.00712 3.33728 5.88728L5.42053 5.58278C5.74588 5.53523 6.02707 5.33077 6.17261 5.03592L7.10345 3.15013Z" fill="#64748B" stroke="#64748B" stroke-width="1.2" stroke-linecap="round" stroke-linejoin="round"/>
</g>
<g clip-path="url(#clip1_944_20755)">
<path d="M23.1035 3.15013C23.4703 2.40696 24.53 2.40696 24.8969 3.15013L25.8277 5.03592C25.9733 5.33077 26.2544 5.53523 26.5798 5.58278L28.663 5.88728C29.483 6.00712 29.8097 7.01496 29.2162 7.59312L27.7103 9.05984C27.4744 9.28958 27.3667 9.62071 27.4224 9.94524L27.7776 12.0161C27.9177 12.8331 27.0602 13.4561 26.3265 13.0702L24.4656 12.0916C24.1742 11.9384 23.8261 11.9384 23.5347 12.0916L21.6738 13.0702C20.9402 13.4561 20.0826 12.8331 20.2227 12.0161L20.5779 9.94524C20.6336 9.62071 20.5259 9.28958 20.29 9.05984L18.7842 7.59312C18.1906 7.01496 18.5174 6.00712 19.3373 5.88728L21.4205 5.58278C21.7459 5.53523 22.0271 5.33077 22.1726 5.03592L23.1035 3.15013Z" fill="#CBD5E1" stroke="#CBD5E1" stroke-width="1.2" stroke-linecap="round" stroke-linejoin="round"/>
</g>
<g clip-path="url(#clip2_944_20755)">
<path d="M39.1035 3.15013C39.4703 2.40696 40.53 2.40696 40.8969 3.15013L41.8277 5.03592C41.9733 5.33077 42.2544 5.53523 42.5798 5.58278L44.663 5.88728C45.483 6.00712 45.8097 7.01496 45.2162 7.59312L43.7103 9.05984C43.4744 9.28958 43.3667 9.62071 43.4224 9.94524L43.7776 12.0161C43.9177 12.8331 43.0602 13.4561 42.3265 13.0702L40.4656 12.0916C40.1742 11.9384 39.8261 11.9384 39.5347 12.0916L37.6738 13.0702C36.9402 13.4561 36.0826 12.8331 36.2227 12.0161L36.5779 9.94524C36.6336 9.62071 36.5259 9.28958 36.29 9.05984L34.7842 7.59312C34.1906 7.01496 34.5174 6.00712 35.3373 5.88728L37.4205 5.58278C37.7459 5.53523 38.0271 5.33077 38.1726 5.03592L39.1035 3.15013Z" fill="#2968F9" stroke="#2968F9" stroke-width="1.2" stroke-linecap="round" stroke-linejoin="round"/>
</g>
<g clip-path="url(#clip3_944_20755)">
<path d="M55.1035 3.15013C55.4703 2.40696 56.53 2.40696 56.8969 3.15013L57.8277 5.03592C57.9733 5.33077 58.2544 5.53523 58.5798 5.58278L60.663 5.88728C61.483 6.00712 61.8097 7.01496 61.2162 7.59312L59.7103 9.05984C59.4744 9.28958 59.3667 9.62071 59.4224 9.94524L59.7776 12.0161C59.9177 12.8331 59.0602 13.4561 58.3265 13.0702L56.4656 12.0916C56.1742 11.9384 55.8261 11.9384 55.5347 12.0916L53.6738 13.0702C52.9402 13.4561 52.0826 12.8331 52.2227 12.0161L52.5779 9.94524C52.6336 9.62071 52.5259 9.28958 52.29 9.05984L50.7842 7.59312C50.1906 7.01496 50.5174 6.00712 51.3373 5.88728L53.4205 5.58278C53.7459 5.53523 54.0271 5.33077 54.1726 5.03592L55.1035 3.15013Z" fill="white" stroke="white" stroke-width="1.2" stroke-linecap="round" stroke-linejoin="round"/>
</g>
<defs>
<clipPath id="clip0_944_20755">
<rect width="16" height="16" fill="white"/>
</clipPath>
<clipPath id="clip1_944_20755">
<rect width="16" height="16" fill="white" transform="translate(16)"/>
</clipPath>
<clipPath id="clip2_944_20755">
<rect width="16" height="16" fill="white" transform="translate(32)"/>
</clipPath>
<clipPath id="clip3_944_20755">
<rect width="16" height="16" fill="white" transform="translate(48)"/>
</clipPath>
</defs>
</svg>
