<svg width="80" height="16" viewBox="0 0 80 16" fill="none" xmlns="http://www.w3.org/2000/svg">
<g clip-path="url(#clip0_944_20095)">
<path d="M8.00016 9.66667L8.00016 3M8.00016 9.66667C7.53334 9.66667 5.66118 7.33713 5.3335 7M8.00016 9.66667C8.46698 9.66667 10.3391 7.33713 10.6668 7" stroke="#64748B" stroke-width="1.2" stroke-linecap="round" stroke-linejoin="round"/>
<path d="M13.3332 11C13.3332 12.6547 12.9878 13 11.3332 13H4.6665C3.01184 13 2.6665 12.6547 2.6665 11" stroke="#64748B" stroke-width="1.2" stroke-linecap="round" stroke-linejoin="round"/>
</g>
<g clip-path="url(#clip1_944_20095)">
<path d="M24.0002 9.66667L24.0002 3M24.0002 9.66667C23.5333 9.66667 21.6612 7.33713 21.3335 7M24.0002 9.66667C24.467 9.66667 26.3391 7.33713 26.6668 7" stroke="#CBD5E1" stroke-width="1.2" stroke-linecap="round" stroke-linejoin="round"/>
<path d="M29.3332 11C29.3332 12.6547 28.9878 13 27.3332 13H20.6665C19.0118 13 18.6665 12.6547 18.6665 11" stroke="#CBD5E1" stroke-width="1.2" stroke-linecap="round" stroke-linejoin="round"/>
</g>
<g clip-path="url(#clip2_944_20095)">
<path d="M40.0002 9.66667L40.0002 3M40.0002 9.66667C39.5333 9.66667 37.6612 7.33713 37.3335 7M40.0002 9.66667C40.467 9.66667 42.3391 7.33713 42.6668 7" stroke="#2968F9" stroke-width="1.2" stroke-linecap="round" stroke-linejoin="round"/>
<path d="M45.3332 11C45.3332 12.6547 44.9878 13 43.3332 13H36.6665C35.0118 13 34.6665 12.6547 34.6665 11" stroke="#2968F9" stroke-width="1.2" stroke-linecap="round" stroke-linejoin="round"/>
</g>
<g clip-path="url(#clip3_944_20095)">
<path d="M56.0002 9.66667L56.0002 3M56.0002 9.66667C55.5333 9.66667 53.6612 7.33713 53.3335 7M56.0002 9.66667C56.467 9.66667 58.3391 7.33713 58.6668 7" stroke="white" stroke-width="1.2" stroke-linecap="round" stroke-linejoin="round"/>
<path d="M61.3332 11C61.3332 12.6547 60.9878 13 59.3332 13H52.6665C51.0118 13 50.6665 12.6547 50.6665 11" stroke="white" stroke-width="1.2" stroke-linecap="round" stroke-linejoin="round"/>
</g>
<defs>
<clipPath id="clip0_944_20095">
<rect width="16" height="16" fill="white"/>
</clipPath>
<clipPath id="clip1_944_20095">
<rect width="16" height="16" fill="white" transform="translate(16)"/>
</clipPath>
<clipPath id="clip2_944_20095">
<rect width="16" height="16" fill="white" transform="translate(32)"/>
</clipPath>
<clipPath id="clip3_944_20095">
<rect width="16" height="16" fill="white" transform="translate(48)"/>
</clipPath>
</defs>
</svg>
