<svg width="80" height="16" viewBox="0 0 80 16" fill="none" xmlns="http://www.w3.org/2000/svg">
<g clip-path="url(#clip0_944_20125)">
<path d="M11.2627 1.58325H4.73718C3.53586 1.58325 2.56201 2.5571 2.56201 3.75842C2.56201 4.95974 2.56201 12.2416 2.56201 12.2416C2.56201 13.4429 3.53586 14.4167 4.73718 14.4167H11.2627C12.464 14.4167 13.4379 13.4429 13.4379 12.2416V3.75842" stroke="#64748B" stroke-width="1.04408" stroke-miterlimit="10" stroke-linecap="round" stroke-linejoin="round"/>
<path d="M5.30957 6.91235H10.6903" stroke="#64748B" stroke-width="1.04408" stroke-miterlimit="10" stroke-linecap="round" stroke-linejoin="round"/>
<path d="M5.30957 9.21118H8.57232" stroke="#64748B" stroke-width="1.04408" stroke-miterlimit="10" stroke-linecap="round" stroke-linejoin="round"/>
</g>
<g clip-path="url(#clip1_944_20125)">
<path d="M27.2627 1.58325H20.7372C19.5359 1.58325 18.562 2.5571 18.562 3.75842C18.562 4.95974 18.562 12.2416 18.562 12.2416C18.562 13.4429 19.5359 14.4167 20.7372 14.4167H27.2627C28.464 14.4167 29.4379 13.4429 29.4379 12.2416V3.75842" stroke="#CBD5E1" stroke-width="1.04408" stroke-miterlimit="10" stroke-linecap="round" stroke-linejoin="round"/>
<path d="M21.3096 6.91235H26.6903" stroke="#CBD5E1" stroke-width="1.04408" stroke-miterlimit="10" stroke-linecap="round" stroke-linejoin="round"/>
<path d="M21.3096 9.21118H24.5723" stroke="#CBD5E1" stroke-width="1.04408" stroke-miterlimit="10" stroke-linecap="round" stroke-linejoin="round"/>
</g>
<g clip-path="url(#clip2_944_20125)">
<path d="M43.2627 1.58325H36.7372C35.5359 1.58325 34.562 2.5571 34.562 3.75842C34.562 4.95974 34.562 12.2416 34.562 12.2416C34.562 13.4429 35.5359 14.4167 36.7372 14.4167H43.2627C44.464 14.4167 45.4379 13.4429 45.4379 12.2416V3.75842" stroke="#2968F9" stroke-width="1.04408" stroke-miterlimit="10" stroke-linecap="round" stroke-linejoin="round"/>
<path d="M37.3096 6.91235H42.6903" stroke="#2968F9" stroke-width="1.04408" stroke-miterlimit="10" stroke-linecap="round" stroke-linejoin="round"/>
<path d="M37.3096 9.21118H40.5723" stroke="#2968F9" stroke-width="1.04408" stroke-miterlimit="10" stroke-linecap="round" stroke-linejoin="round"/>
</g>
<g clip-path="url(#clip3_944_20125)">
<path d="M59.2627 1.58325H52.7372C51.5359 1.58325 50.562 2.5571 50.562 3.75842C50.562 4.95974 50.562 12.2416 50.562 12.2416C50.562 13.4429 51.5359 14.4167 52.7372 14.4167H59.2627C60.464 14.4167 61.4379 13.4429 61.4379 12.2416V3.75842" stroke="white" stroke-width="1.04408" stroke-miterlimit="10" stroke-linecap="round" stroke-linejoin="round"/>
<path d="M53.3096 6.91235H58.6903" stroke="white" stroke-width="1.04408" stroke-miterlimit="10" stroke-linecap="round" stroke-linejoin="round"/>
<path d="M53.3096 9.21118H56.5723" stroke="white" stroke-width="1.04408" stroke-miterlimit="10" stroke-linecap="round" stroke-linejoin="round"/>
</g>
<defs>
<clipPath id="clip0_944_20125">
<rect width="16" height="16" fill="white"/>
</clipPath>
<clipPath id="clip1_944_20125">
<rect width="16" height="16" fill="white" transform="translate(16)"/>
</clipPath>
<clipPath id="clip2_944_20125">
<rect width="16" height="16" fill="white" transform="translate(32)"/>
</clipPath>
<clipPath id="clip3_944_20125">
<rect width="16" height="16" fill="white" transform="translate(48)"/>
</clipPath>
</defs>
</svg>
