<svg width="80" height="16" viewBox="0 0 80 16" fill="none" xmlns="http://www.w3.org/2000/svg">
<g clip-path="url(#clip0_944_20119)">
<path d="M7.45014 2.5C5.21979 2.50402 4.05187 2.55877 3.30548 3.30516C2.5 4.11064 2.5 5.40704 2.5 7.99984C2.5 10.5926 2.5 11.889 3.30548 12.6945C4.11096 13.5 5.40736 13.5 8.00016 13.5C10.593 13.5 11.8894 13.5 12.6948 12.6945C13.4412 11.9481 13.496 10.7802 13.5 8.54986" stroke="#64748B" stroke-width="1.2" stroke-linecap="round" stroke-linejoin="round"/>
<path d="M13.6414 3.23076C13.8762 2.99696 13.877 2.61706 13.6432 2.38223C13.4095 2.1474 13.0296 2.14656 12.7947 2.38035L13.6414 3.23076ZM6.9634 8.18591C6.72856 8.4197 6.72772 8.7996 6.96152 9.03444C7.19531 9.26927 7.57521 9.27011 7.81004 9.03631L6.9634 8.18591ZM12.9041 2.63876L12.7995 3.22957L12.9041 2.63876ZM10.4422 1.9C10.1109 1.90003 9.84226 2.16868 9.84228 2.50005C9.84231 2.83142 10.111 3.10003 10.4423 3.1L10.4422 1.9ZM12.8978 5.55556C12.8978 5.88693 13.1665 6.15556 13.4978 6.15556C13.8292 6.15556 14.0978 5.88693 14.0978 5.55556H12.8978ZM13.3591 3.09385L13.9499 2.98932V2.98932L13.3591 3.09385ZM12.7947 2.38035L6.9634 8.18591L7.81004 9.03631L13.6414 3.23076L12.7947 2.38035ZM13.0088 2.04795C12.5693 1.97012 11.914 1.93487 11.3992 1.91763C11.1353 1.90879 10.8968 1.90439 10.7243 1.9022C10.638 1.9011 10.5679 1.90055 10.5193 1.90027C10.4949 1.90014 10.4759 1.90007 10.4629 1.90003C10.4564 1.90002 10.4513 1.90001 10.4479 1.9C10.4461 1.9 10.4448 1.9 10.4438 1.9C10.4434 1.9 10.443 1.9 10.4427 1.9C10.4426 1.9 10.4425 1.9 10.4424 1.9C10.4424 1.9 10.4423 1.9 10.4423 1.9C10.4423 1.9 10.4422 1.9 10.4423 2.5C10.4423 3.1 10.4423 3.1 10.4423 3.1C10.4423 3.1 10.4423 3.1 10.4423 3.1C10.4423 3.1 10.4424 3.1 10.4424 3.1C10.4426 3.1 10.4428 3.1 10.4432 3.1C10.4438 3.1 10.4449 3.1 10.4464 3.1C10.4493 3.10001 10.4538 3.10001 10.4597 3.10003C10.4716 3.10006 10.4894 3.10013 10.5125 3.10026C10.5587 3.10052 10.6258 3.10104 10.709 3.1021C10.8756 3.10422 11.1055 3.10846 11.359 3.11695C11.879 3.13437 12.4547 3.16849 12.7995 3.22957L13.0088 2.04795ZM13.4978 5.55556C14.0978 5.55556 14.0978 5.55553 14.0978 5.55549C14.0978 5.55547 14.0978 5.55542 14.0978 5.55538C14.0978 5.5553 14.0978 5.55519 14.0978 5.55505C14.0978 5.55479 14.0978 5.55442 14.0978 5.55394C14.0978 5.553 14.0978 5.55166 14.0978 5.54993C14.0978 5.54646 14.0978 5.54142 14.0978 5.5349C14.0978 5.52185 14.0977 5.50285 14.0976 5.47852C14.0973 5.42987 14.0967 5.35986 14.0956 5.27353C14.0934 5.10107 14.089 4.86259 14.0802 4.59872C14.0629 4.08387 14.0276 3.42872 13.9499 2.98932L12.7683 3.19837C12.8293 3.54328 12.8634 4.11899 12.8808 4.63892C12.8893 4.89244 12.8936 5.12233 12.8957 5.28888C12.8968 5.37207 12.8973 5.43923 12.8976 5.48538C12.8977 5.50845 12.8978 5.52625 12.8978 5.53816C12.8978 5.54411 12.8978 5.54859 12.8978 5.55151C12.8978 5.55298 12.8978 5.55405 12.8978 5.55473C12.8978 5.55507 12.8978 5.55531 12.8978 5.55544C12.8978 5.55551 12.8978 5.55556 12.8978 5.55558C12.8978 5.55559 12.8978 5.55558 12.8978 5.55559C12.8978 5.55557 12.8978 5.55556 13.4978 5.55556ZM12.7995 3.22957C12.802 3.23001 12.8004 3.23006 12.7961 3.22783C12.7917 3.22559 12.7863 3.22193 12.7811 3.21668C12.7758 3.21144 12.7722 3.20608 12.77 3.20174C12.7678 3.19742 12.7678 3.19582 12.7683 3.19837L13.9499 2.98932C13.8637 2.50215 13.4961 2.13426 13.0088 2.04795L12.7995 3.22957Z" fill="#64748B"/>
</g>
<g clip-path="url(#clip1_944_20119)">
<path d="M23.4501 2.5C21.2198 2.50402 20.0519 2.55877 19.3055 3.30516C18.5 4.11064 18.5 5.40704 18.5 7.99984C18.5 10.5926 18.5 11.889 19.3055 12.6945C20.111 13.5 21.4074 13.5 24.0002 13.5C26.593 13.5 27.8894 13.5 28.6948 12.6945C29.4412 11.9481 29.496 10.7802 29.5 8.54986" stroke="#CBD5E1" stroke-width="1.2" stroke-linecap="round" stroke-linejoin="round"/>
<path d="M29.6414 3.23076C29.8762 2.99696 29.877 2.61706 29.6432 2.38223C29.4095 2.1474 29.0296 2.14656 28.7947 2.38035L29.6414 3.23076ZM22.9634 8.18591C22.7286 8.4197 22.7277 8.7996 22.9615 9.03444C23.1953 9.26927 23.5752 9.27011 23.81 9.03631L22.9634 8.18591ZM28.9041 2.63876L28.7995 3.22957L28.9041 2.63876ZM26.4422 1.9C26.1109 1.90003 25.8423 2.16868 25.8423 2.50005C25.8423 2.83142 26.111 3.10003 26.4423 3.1L26.4422 1.9ZM28.8978 5.55556C28.8978 5.88693 29.1665 6.15556 29.4978 6.15556C29.8292 6.15556 30.0978 5.88693 30.0978 5.55556H28.8978ZM29.3591 3.09385L29.9499 2.98932V2.98932L29.3591 3.09385ZM28.7947 2.38035L22.9634 8.18591L23.81 9.03631L29.6414 3.23076L28.7947 2.38035ZM29.0088 2.04795C28.5693 1.97012 27.914 1.93487 27.3992 1.91763C27.1353 1.90879 26.8968 1.90439 26.7243 1.9022C26.638 1.9011 26.5679 1.90055 26.5193 1.90027C26.4949 1.90014 26.4759 1.90007 26.4629 1.90003C26.4564 1.90002 26.4513 1.90001 26.4479 1.9C26.4461 1.9 26.4448 1.9 26.4438 1.9C26.4434 1.9 26.443 1.9 26.4427 1.9C26.4426 1.9 26.4425 1.9 26.4424 1.9C26.4424 1.9 26.4423 1.9 26.4423 1.9C26.4423 1.9 26.4422 1.9 26.4423 2.5C26.4423 3.1 26.4423 3.1 26.4423 3.1C26.4423 3.1 26.4423 3.1 26.4423 3.1C26.4423 3.1 26.4424 3.1 26.4424 3.1C26.4426 3.1 26.4428 3.1 26.4432 3.1C26.4438 3.1 26.4449 3.1 26.4464 3.1C26.4493 3.10001 26.4538 3.10001 26.4597 3.10003C26.4716 3.10006 26.4894 3.10013 26.5125 3.10026C26.5587 3.10052 26.6258 3.10104 26.709 3.1021C26.8756 3.10422 27.1055 3.10846 27.359 3.11695C27.879 3.13437 28.4547 3.16849 28.7995 3.22957L29.0088 2.04795ZM29.4978 5.55556C30.0978 5.55556 30.0978 5.55553 30.0978 5.55549C30.0978 5.55547 30.0978 5.55542 30.0978 5.55538C30.0978 5.5553 30.0978 5.55519 30.0978 5.55505C30.0978 5.55479 30.0978 5.55442 30.0978 5.55394C30.0978 5.553 30.0978 5.55166 30.0978 5.54993C30.0978 5.54646 30.0978 5.54142 30.0978 5.5349C30.0978 5.52185 30.0977 5.50285 30.0976 5.47852C30.0973 5.42987 30.0967 5.35986 30.0956 5.27353C30.0934 5.10107 30.089 4.86259 30.0802 4.59872C30.0629 4.08387 30.0276 3.42872 29.9499 2.98932L28.7683 3.19837C28.8293 3.54328 28.8634 4.11899 28.8808 4.63892C28.8893 4.89244 28.8936 5.12233 28.8957 5.28888C28.8968 5.37207 28.8973 5.43923 28.8976 5.48538C28.8977 5.50845 28.8978 5.52625 28.8978 5.53816C28.8978 5.54411 28.8978 5.54859 28.8978 5.55151C28.8978 5.55298 28.8978 5.55405 28.8978 5.55473C28.8978 5.55507 28.8978 5.55531 28.8978 5.55544C28.8978 5.55551 28.8978 5.55556 28.8978 5.55558C28.8978 5.55559 28.8978 5.55558 28.8978 5.55559C28.8978 5.55557 28.8978 5.55556 29.4978 5.55556ZM28.7995 3.22957C28.802 3.23001 28.8004 3.23006 28.7961 3.22783C28.7917 3.22559 28.7863 3.22193 28.7811 3.21668C28.7758 3.21144 28.7722 3.20608 28.77 3.20174C28.7678 3.19742 28.7678 3.19582 28.7683 3.19837L29.9499 2.98932C29.8637 2.50215 29.4961 2.13426 29.0088 2.04795L28.7995 3.22957Z" fill="#CBD5E1"/>
</g>
<g clip-path="url(#clip2_944_20119)">
<path d="M39.4501 2.5C37.2198 2.50402 36.0519 2.55877 35.3055 3.30516C34.5 4.11064 34.5 5.40704 34.5 7.99984C34.5 10.5926 34.5 11.889 35.3055 12.6945C36.111 13.5 37.4074 13.5 40.0002 13.5C42.593 13.5 43.8894 13.5 44.6948 12.6945C45.4412 11.9481 45.496 10.7802 45.5 8.54986" stroke="#2968F9" stroke-width="1.2" stroke-linecap="round" stroke-linejoin="round"/>
<path d="M45.6414 3.23076C45.8762 2.99696 45.877 2.61706 45.6432 2.38223C45.4095 2.1474 45.0296 2.14656 44.7947 2.38035L45.6414 3.23076ZM38.9634 8.18591C38.7286 8.4197 38.7277 8.7996 38.9615 9.03444C39.1953 9.26927 39.5752 9.27011 39.81 9.03631L38.9634 8.18591ZM44.9041 2.63876L44.7995 3.22957L44.9041 2.63876ZM42.4422 1.9C42.1109 1.90003 41.8423 2.16868 41.8423 2.50005C41.8423 2.83142 42.111 3.10003 42.4423 3.1L42.4422 1.9ZM44.8978 5.55556C44.8978 5.88693 45.1665 6.15556 45.4978 6.15556C45.8292 6.15556 46.0978 5.88693 46.0978 5.55556H44.8978ZM45.3591 3.09385L45.9499 2.98932V2.98932L45.3591 3.09385ZM44.7947 2.38035L38.9634 8.18591L39.81 9.03631L45.6414 3.23076L44.7947 2.38035ZM45.0088 2.04795C44.5693 1.97012 43.914 1.93487 43.3992 1.91763C43.1353 1.90879 42.8968 1.90439 42.7243 1.9022C42.638 1.9011 42.5679 1.90055 42.5193 1.90027C42.4949 1.90014 42.4759 1.90007 42.4629 1.90003C42.4564 1.90002 42.4513 1.90001 42.4479 1.9C42.4461 1.9 42.4448 1.9 42.4438 1.9C42.4434 1.9 42.443 1.9 42.4427 1.9C42.4426 1.9 42.4425 1.9 42.4424 1.9C42.4424 1.9 42.4423 1.9 42.4423 1.9C42.4423 1.9 42.4422 1.9 42.4423 2.5C42.4423 3.1 42.4423 3.1 42.4423 3.1C42.4423 3.1 42.4423 3.1 42.4423 3.1C42.4423 3.1 42.4424 3.1 42.4424 3.1C42.4426 3.1 42.4428 3.1 42.4432 3.1C42.4438 3.1 42.4449 3.1 42.4464 3.1C42.4493 3.10001 42.4538 3.10001 42.4597 3.10003C42.4716 3.10006 42.4894 3.10013 42.5125 3.10026C42.5587 3.10052 42.6258 3.10104 42.709 3.1021C42.8756 3.10422 43.1055 3.10846 43.359 3.11695C43.879 3.13437 44.4547 3.16849 44.7995 3.22957L45.0088 2.04795ZM45.4978 5.55556C46.0978 5.55556 46.0978 5.55553 46.0978 5.55549C46.0978 5.55547 46.0978 5.55542 46.0978 5.55538C46.0978 5.5553 46.0978 5.55519 46.0978 5.55505C46.0978 5.55479 46.0978 5.55442 46.0978 5.55394C46.0978 5.553 46.0978 5.55166 46.0978 5.54993C46.0978 5.54646 46.0978 5.54142 46.0978 5.5349C46.0978 5.52185 46.0977 5.50285 46.0976 5.47852C46.0973 5.42987 46.0967 5.35986 46.0956 5.27353C46.0934 5.10107 46.089 4.86259 46.0802 4.59872C46.0629 4.08387 46.0276 3.42872 45.9499 2.98932L44.7683 3.19837C44.8293 3.54328 44.8634 4.11899 44.8808 4.63892C44.8893 4.89244 44.8936 5.12233 44.8957 5.28888C44.8968 5.37207 44.8973 5.43923 44.8976 5.48538C44.8977 5.50845 44.8978 5.52625 44.8978 5.53816C44.8978 5.54411 44.8978 5.54859 44.8978 5.55151C44.8978 5.55298 44.8978 5.55405 44.8978 5.55473C44.8978 5.55507 44.8978 5.55531 44.8978 5.55544C44.8978 5.55551 44.8978 5.55556 44.8978 5.55558C44.8978 5.55559 44.8978 5.55558 44.8978 5.55559C44.8978 5.55557 44.8978 5.55556 45.4978 5.55556ZM44.7995 3.22957C44.802 3.23001 44.8004 3.23006 44.7961 3.22783C44.7917 3.22559 44.7863 3.22193 44.7811 3.21668C44.7758 3.21144 44.7722 3.20608 44.77 3.20174C44.7678 3.19742 44.7678 3.19582 44.7683 3.19837L45.9499 2.98932C45.8637 2.50215 45.4961 2.13426 45.0088 2.04795L44.7995 3.22957Z" fill="#2968F9"/>
</g>
<g clip-path="url(#clip3_944_20119)">
<path d="M55.4501 2.5C53.2198 2.50402 52.0519 2.55877 51.3055 3.30516C50.5 4.11064 50.5 5.40704 50.5 7.99984C50.5 10.5926 50.5 11.889 51.3055 12.6945C52.111 13.5 53.4074 13.5 56.0002 13.5C58.593 13.5 59.8894 13.5 60.6948 12.6945C61.4412 11.9481 61.496 10.7802 61.5 8.54986" stroke="white" stroke-width="1.2" stroke-linecap="round" stroke-linejoin="round"/>
<path d="M61.6414 3.23076C61.8762 2.99696 61.877 2.61706 61.6432 2.38223C61.4095 2.1474 61.0296 2.14656 60.7947 2.38035L61.6414 3.23076ZM54.9634 8.18591C54.7286 8.4197 54.7277 8.7996 54.9615 9.03444C55.1953 9.26927 55.5752 9.27011 55.81 9.03631L54.9634 8.18591ZM60.9041 2.63876L60.7995 3.22957L60.9041 2.63876ZM58.4422 1.9C58.1109 1.90003 57.8423 2.16868 57.8423 2.50005C57.8423 2.83142 58.111 3.10003 58.4423 3.1L58.4422 1.9ZM60.8978 5.55556C60.8978 5.88693 61.1665 6.15556 61.4978 6.15556C61.8292 6.15556 62.0978 5.88693 62.0978 5.55556H60.8978ZM61.3591 3.09385L61.9499 2.98932V2.98932L61.3591 3.09385ZM60.7947 2.38035L54.9634 8.18591L55.81 9.03631L61.6414 3.23076L60.7947 2.38035ZM61.0088 2.04795C60.5693 1.97012 59.914 1.93487 59.3992 1.91763C59.1353 1.90879 58.8968 1.90439 58.7243 1.9022C58.638 1.9011 58.5679 1.90055 58.5193 1.90027C58.4949 1.90014 58.4759 1.90007 58.4629 1.90003C58.4564 1.90002 58.4513 1.90001 58.4479 1.9C58.4461 1.9 58.4448 1.9 58.4438 1.9C58.4434 1.9 58.443 1.9 58.4427 1.9C58.4426 1.9 58.4425 1.9 58.4424 1.9C58.4424 1.9 58.4423 1.9 58.4423 1.9C58.4423 1.9 58.4422 1.9 58.4423 2.5C58.4423 3.1 58.4423 3.1 58.4423 3.1C58.4423 3.1 58.4423 3.1 58.4423 3.1C58.4423 3.1 58.4424 3.1 58.4424 3.1C58.4426 3.1 58.4428 3.1 58.4432 3.1C58.4438 3.1 58.4449 3.1 58.4464 3.1C58.4493 3.10001 58.4538 3.10001 58.4597 3.10003C58.4716 3.10006 58.4894 3.10013 58.5125 3.10026C58.5587 3.10052 58.6258 3.10104 58.709 3.1021C58.8756 3.10422 59.1055 3.10846 59.359 3.11695C59.879 3.13437 60.4547 3.16849 60.7995 3.22957L61.0088 2.04795ZM61.4978 5.55556C62.0978 5.55556 62.0978 5.55553 62.0978 5.55549C62.0978 5.55547 62.0978 5.55542 62.0978 5.55538C62.0978 5.5553 62.0978 5.55519 62.0978 5.55505C62.0978 5.55479 62.0978 5.55442 62.0978 5.55394C62.0978 5.553 62.0978 5.55166 62.0978 5.54993C62.0978 5.54646 62.0978 5.54142 62.0978 5.5349C62.0978 5.52185 62.0977 5.50285 62.0976 5.47852C62.0973 5.42987 62.0967 5.35986 62.0956 5.27353C62.0934 5.10107 62.089 4.86259 62.0802 4.59872C62.0629 4.08387 62.0276 3.42872 61.9499 2.98932L60.7683 3.19837C60.8293 3.54328 60.8634 4.11899 60.8808 4.63892C60.8893 4.89244 60.8936 5.12233 60.8957 5.28888C60.8968 5.37207 60.8973 5.43923 60.8976 5.48538C60.8977 5.50845 60.8978 5.52625 60.8978 5.53816C60.8978 5.54411 60.8978 5.54859 60.8978 5.55151C60.8978 5.55298 60.8978 5.55405 60.8978 5.55473C60.8978 5.55507 60.8978 5.55531 60.8978 5.55544C60.8978 5.55551 60.8978 5.55556 60.8978 5.55558C60.8978 5.55559 60.8978 5.55558 60.8978 5.55559C60.8978 5.55557 60.8978 5.55556 61.4978 5.55556ZM60.7995 3.22957C60.802 3.23001 60.8004 3.23006 60.7961 3.22783C60.7917 3.22559 60.7863 3.22193 60.7811 3.21668C60.7758 3.21144 60.7722 3.20608 60.77 3.20174C60.7678 3.19742 60.7678 3.19582 60.7683 3.19837L61.9499 2.98932C61.8637 2.50215 61.4961 2.13426 61.0088 2.04795L60.7995 3.22957Z" fill="white"/>
</g>
<defs>
<clipPath id="clip0_944_20119">
<rect width="16" height="16" fill="white"/>
</clipPath>
<clipPath id="clip1_944_20119">
<rect width="16" height="16" fill="white" transform="translate(16)"/>
</clipPath>
<clipPath id="clip2_944_20119">
<rect width="16" height="16" fill="white" transform="translate(32)"/>
</clipPath>
<clipPath id="clip3_944_20119">
<rect width="16" height="16" fill="white" transform="translate(48)"/>
</clipPath>
</defs>
</svg>
