<svg width="80" height="16" viewBox="0 0 80 16" fill="none" xmlns="http://www.w3.org/2000/svg">
<g clip-path="url(#clip0_944_20077)">
<g clip-path="url(#clip1_944_20077)">
<path d="M5.99987 14.6667L5.83278 12.3274C5.74295 11.0697 6.73901 10 7.99987 10C9.26073 10 10.2568 11.0697 10.167 12.3274L9.99987 14.6667" stroke="#64748B" stroke-width="1.2"/>
<path d="M1.56776 8.80889C1.33241 7.27741 1.21474 6.51167 1.50427 5.83284C1.79381 5.154 2.43618 4.68954 3.72092 3.76063L4.68082 3.06659C6.27902 1.91103 7.07812 1.33325 8.00016 1.33325C8.9222 1.33325 9.7213 1.91103 11.3195 3.06659L12.2794 3.76063C13.5641 4.68954 14.2065 5.154 14.4961 5.83284C14.7856 6.51167 14.6679 7.27741 14.4326 8.80889L14.2319 10.1148C13.8982 12.2859 13.7314 13.3714 12.9528 14.019C12.1742 14.6666 11.0359 14.6666 8.75937 14.6666H7.24095C4.96438 14.6666 3.8261 14.6666 3.0475 14.019C2.26889 13.3714 2.10208 12.2859 1.76845 10.1148L1.56776 8.80889Z" stroke="#64748B" stroke-width="1.2" stroke-linejoin="round"/>
</g>
</g>
<g clip-path="url(#clip2_944_20077)">
<g clip-path="url(#clip3_944_20077)">
<path d="M21.9999 14.6667L21.8328 12.3274C21.7429 11.0697 22.739 10 23.9999 10C25.2607 10 26.2568 11.0697 26.167 12.3274L25.9999 14.6667" stroke="#CBD5E1" stroke-width="1.2"/>
<path d="M17.5678 8.80889C17.3324 7.27741 17.2147 6.51167 17.5043 5.83284C17.7938 5.154 18.4362 4.68954 19.7209 3.76063L20.6808 3.06659C22.279 1.91103 23.0781 1.33325 24.0002 1.33325C24.9222 1.33325 25.7213 1.91103 27.3195 3.06659L28.2794 3.76063C29.5641 4.68954 30.2065 5.154 30.4961 5.83284C30.7856 6.51167 30.6679 7.27741 30.4326 8.80889L30.2319 10.1148C29.8982 12.2859 29.7314 13.3714 28.9528 14.019C28.1742 14.6666 27.0359 14.6666 24.7594 14.6666H23.241C20.9644 14.6666 19.8261 14.6666 19.0475 14.019C18.2689 13.3714 18.1021 12.2859 17.7684 10.1148L17.5678 8.80889Z" stroke="#CBD5E1" stroke-width="1.2" stroke-linejoin="round"/>
</g>
</g>
<g clip-path="url(#clip4_944_20077)">
<g clip-path="url(#clip5_944_20077)">
<path d="M37.9999 14.6667L37.8328 12.3274C37.7429 11.0697 38.739 10 39.9999 10C41.2607 10 42.2568 11.0697 42.167 12.3274L41.9999 14.6667" stroke="#2968F9" stroke-width="1.2"/>
<path d="M33.5678 8.80889C33.3324 7.27741 33.2147 6.51167 33.5043 5.83284C33.7938 5.154 34.4362 4.68954 35.7209 3.76063L36.6808 3.06659C38.279 1.91103 39.0781 1.33325 40.0002 1.33325C40.9222 1.33325 41.7213 1.91103 43.3195 3.06659L44.2794 3.76063C45.5641 4.68954 46.2065 5.154 46.4961 5.83284C46.7856 6.51167 46.6679 7.27741 46.4326 8.80889L46.2319 10.1148C45.8982 12.2859 45.7314 13.3714 44.9528 14.019C44.1742 14.6666 43.0359 14.6666 40.7594 14.6666H39.241C36.9644 14.6666 35.8261 14.6666 35.0475 14.019C34.2689 13.3714 34.1021 12.2859 33.7684 10.1148L33.5678 8.80889Z" stroke="#2968F9" stroke-width="1.2" stroke-linejoin="round"/>
</g>
</g>
<g clip-path="url(#clip6_944_20077)">
<g clip-path="url(#clip7_944_20077)">
<path d="M53.9999 14.6667L53.8328 12.3274C53.7429 11.0697 54.739 10 55.9999 10C57.2607 10 58.2568 11.0697 58.167 12.3274L57.9999 14.6667" stroke="white" stroke-width="1.2"/>
<path d="M49.5678 8.80889C49.3324 7.27741 49.2147 6.51167 49.5043 5.83284C49.7938 5.154 50.4362 4.68954 51.7209 3.76063L52.6808 3.06659C54.279 1.91103 55.0781 1.33325 56.0002 1.33325C56.9222 1.33325 57.7213 1.91103 59.3195 3.06659L60.2794 3.76063C61.5641 4.68954 62.2065 5.154 62.4961 5.83284C62.7856 6.51167 62.6679 7.27741 62.4326 8.80889L62.2319 10.1148C61.8982 12.2859 61.7314 13.3714 60.9528 14.019C60.1742 14.6666 59.0359 14.6666 56.7594 14.6666H55.241C52.9644 14.6666 51.8261 14.6666 51.0475 14.019C50.2689 13.3714 50.1021 12.2859 49.7684 10.1148L49.5678 8.80889Z" stroke="white" stroke-width="1.2" stroke-linejoin="round"/>
</g>
</g>
<defs>
<clipPath id="clip0_944_20077">
<rect width="16" height="16" fill="white"/>
</clipPath>
<clipPath id="clip1_944_20077">
<rect width="16" height="16" fill="white"/>
</clipPath>
<clipPath id="clip2_944_20077">
<rect width="16" height="16" fill="white" transform="translate(16)"/>
</clipPath>
<clipPath id="clip3_944_20077">
<rect width="16" height="16" fill="white" transform="translate(16)"/>
</clipPath>
<clipPath id="clip4_944_20077">
<rect width="16" height="16" fill="white" transform="translate(32)"/>
</clipPath>
<clipPath id="clip5_944_20077">
<rect width="16" height="16" fill="white" transform="translate(32)"/>
</clipPath>
<clipPath id="clip6_944_20077">
<rect width="16" height="16" fill="white" transform="translate(48)"/>
</clipPath>
<clipPath id="clip7_944_20077">
<rect width="16" height="16" fill="white" transform="translate(48)"/>
</clipPath>
</defs>
</svg>
