<svg width="80" height="16" viewBox="0 0 80 16" fill="none" xmlns="http://www.w3.org/2000/svg">
<g clip-path="url(#clip0_944_20227)">
<path d="M6 8.66667L8 6.66667L10 8.66667M14 8C14 4.68629 11.3137 2 8 2C4.68629 2 2 4.68629 2 8C2 11.3137 4.68629 14 8 14C11.3137 14 14 11.3137 14 8Z" stroke="#64748B" stroke-width="1.2" stroke-linecap="round" stroke-linejoin="round"/>
</g>
<g clip-path="url(#clip1_944_20227)">
<path d="M22 8.66667L24 6.66667L26 8.66667M30 8C30 4.68629 27.3137 2 24 2C20.6863 2 18 4.68629 18 8C18 11.3137 20.6863 14 24 14C27.3137 14 30 11.3137 30 8Z" stroke="#CBD5E1" stroke-width="1.2" stroke-linecap="round" stroke-linejoin="round"/>
</g>
<g clip-path="url(#clip2_944_20227)">
<path d="M38 8.66667L40 6.66667L42 8.66667M46 8C46 4.68629 43.3137 2 40 2C36.6863 2 34 4.68629 34 8C34 11.3137 36.6863 14 40 14C43.3137 14 46 11.3137 46 8Z" stroke="#2968F9" stroke-width="1.2" stroke-linecap="round" stroke-linejoin="round"/>
</g>
<g clip-path="url(#clip3_944_20227)">
<path d="M54 8.66667L56 6.66667L58 8.66667M62 8C62 4.68629 59.3137 2 56 2C52.6863 2 50 4.68629 50 8C50 11.3137 52.6863 14 56 14C59.3137 14 62 11.3137 62 8Z" stroke="white" stroke-width="1.2" stroke-linecap="round" stroke-linejoin="round"/>
</g>
<defs>
<clipPath id="clip0_944_20227">
<rect width="16" height="16" fill="white"/>
</clipPath>
<clipPath id="clip1_944_20227">
<rect width="16" height="16" fill="white" transform="translate(16)"/>
</clipPath>
<clipPath id="clip2_944_20227">
<rect width="16" height="16" fill="white" transform="translate(32)"/>
</clipPath>
<clipPath id="clip3_944_20227">
<rect width="16" height="16" fill="white" transform="translate(48)"/>
</clipPath>
</defs>
</svg>
