<svg width="80" height="16" viewBox="0 0 80 16" fill="none" xmlns="http://www.w3.org/2000/svg">
<g clip-path="url(#clip0_944_20173)">
<path d="M10 8C10 8.39556 9.8827 8.78224 9.66294 9.11114C9.44318 9.44004 9.13082 9.69638 8.76537 9.84776C8.39991 9.99913 7.99778 10.0387 7.60982 9.96157C7.22186 9.8844 6.86549 9.69392 6.58579 9.41421C6.30608 9.13451 6.1156 8.77814 6.03843 8.39018C5.96126 8.00222 6.00087 7.60009 6.15224 7.23463C6.30362 6.86918 6.55996 6.55682 6.88886 6.33706C7.21776 6.1173 7.60444 6 8 6C8.53043 6 9.03914 6.21071 9.41421 6.58579C9.78929 6.96086 10 7.46957 10 8ZM13.3333 6.66667H12.94C12.8022 6.66612 12.6679 6.62287 12.5557 6.54288C12.4435 6.4629 12.3588 6.35009 12.3133 6.22C12.254 6.09513 12.235 5.95491 12.2589 5.81875C12.2828 5.68259 12.3484 5.55722 12.4467 5.46L12.72 5.18667C12.7825 5.12469 12.8321 5.05096 12.8659 4.96972C12.8998 4.88848 12.9172 4.80134 12.9172 4.71333C12.9172 4.62533 12.8998 4.53819 12.8659 4.45695C12.8321 4.37571 12.7825 4.30198 12.72 4.24L11.7733 3.28667C11.7114 3.22418 11.6376 3.17458 11.5564 3.14074C11.4751 3.10689 11.388 3.08947 11.3 3.08947C11.212 3.08947 11.1249 3.10689 11.0436 3.14074C10.9624 3.17458 10.8886 3.22418 10.8267 3.28667L10.5533 3.56C10.4561 3.65828 10.3307 3.7239 10.1946 3.74779C10.0584 3.77168 9.9182 3.75265 9.79333 3.69333C9.65967 3.64975 9.54321 3.56503 9.4606 3.45129C9.37798 3.33754 9.33344 3.20058 9.33333 3.06V2.66667C9.33333 2.48986 9.2631 2.32029 9.13807 2.19526C9.01305 2.07024 8.84348 2 8.66667 2H7.33333C7.15652 2 6.98695 2.07024 6.86193 2.19526C6.7369 2.32029 6.66667 2.48986 6.66667 2.66667V3.06C6.66612 3.19781 6.62287 3.33207 6.54288 3.44429C6.4629 3.55651 6.35009 3.64119 6.22 3.68667V3.68667C6.09513 3.74598 5.95491 3.76501 5.81875 3.74113C5.68259 3.71724 5.55722 3.65161 5.46 3.55333L5.18667 3.28C5.12469 3.21751 5.05096 3.16792 4.96972 3.13407C4.88848 3.10023 4.80134 3.0828 4.71333 3.0828C4.62533 3.0828 4.53819 3.10023 4.45695 3.13407C4.37571 3.16792 4.30198 3.21751 4.24 3.28L3.28667 4.22667C3.22418 4.28864 3.17458 4.36238 3.14074 4.44362C3.10689 4.52486 3.08947 4.61199 3.08947 4.7C3.08947 4.78801 3.10689 4.87514 3.14074 4.95638C3.17458 5.03762 3.22418 5.11136 3.28667 5.17333L3.56 5.44667C3.65828 5.54389 3.7239 5.66926 3.74779 5.80542C3.77168 5.94158 3.75265 6.0818 3.69333 6.20667C3.64786 6.33676 3.56318 6.44956 3.45096 6.52955C3.33873 6.60954 3.20448 6.65278 3.06667 6.65333H2.66667C2.48986 6.65333 2.32029 6.72357 2.19526 6.8486C2.07024 6.97362 2 7.14319 2 7.32V8.65333C2 8.83014 2.07024 8.99971 2.19526 9.12474C2.32029 9.24976 2.48986 9.32 2.66667 9.32H3.06C3.19781 9.32055 3.33207 9.36379 3.44429 9.44378C3.55651 9.52377 3.64119 9.63657 3.68667 9.76667V9.76667C3.74598 9.89154 3.76501 10.0318 3.74113 10.1679C3.71724 10.3041 3.65161 10.4294 3.55333 10.5267L3.28 10.8C3.21751 10.862 3.16792 10.9357 3.13407 11.0169C3.10023 11.0982 3.0828 11.1853 3.0828 11.2733C3.0828 11.3613 3.10023 11.4485 3.13407 11.5297C3.16792 11.611 3.21751 11.6847 3.28 11.7467L4.22 12.6867C4.28198 12.7492 4.35571 12.7987 4.43695 12.8326C4.51819 12.8664 4.60533 12.8839 4.69333 12.8839C4.78134 12.8839 4.86848 12.8664 4.94972 12.8326C5.03096 12.7987 5.10469 12.7492 5.16667 12.6867L5.44 12.4133C5.53722 12.3151 5.66259 12.2494 5.79875 12.2255C5.93491 12.2017 6.07513 12.2207 6.2 12.28C6.33009 12.3255 6.4429 12.4102 6.52288 12.5224C6.60287 12.6346 6.64612 12.7689 6.64667 12.9067V13.3333C6.64667 13.5101 6.71691 13.6797 6.84193 13.8047C6.96695 13.9298 7.13652 14 7.31333 14H8.64667C8.82348 14 8.99305 13.9298 9.11807 13.8047C9.2431 13.6797 9.31333 13.5101 9.31333 13.3333V12.94C9.31388 12.8022 9.35713 12.6679 9.43712 12.5557C9.51711 12.4435 9.62991 12.3588 9.76 12.3133C9.88487 12.254 10.0251 12.235 10.1613 12.2589C10.2974 12.2828 10.4228 12.3484 10.52 12.4467L10.7933 12.72C10.8553 12.7825 10.929 12.8321 11.0103 12.8659C11.0915 12.8998 11.1787 12.9172 11.2667 12.9172C11.3547 12.9172 11.4418 12.8998 11.5231 12.8659C11.6043 12.8321 11.678 12.7825 11.74 12.72L12.68 11.78C12.7425 11.718 12.7921 11.6443 12.8259 11.5631C12.8598 11.4818 12.8772 11.3947 12.8772 11.3067C12.8772 11.2187 12.8598 11.1315 12.8259 11.0503C12.7921 10.969 12.7425 10.8953 12.68 10.8333L12.4067 10.56C12.3084 10.4628 12.2428 10.3374 12.2189 10.2013C12.195 10.0651 12.214 9.92487 12.2733 9.8V9.8C12.3188 9.66991 12.4035 9.5571 12.5157 9.47712C12.6279 9.39713 12.7622 9.35388 12.9 9.35333H13.3333C13.5101 9.35333 13.6797 9.2831 13.8047 9.15807C13.9298 9.03305 14 8.86348 14 8.68667V7.33333C14 7.15652 13.9298 6.98695 13.8047 6.86193C13.6797 6.7369 13.5101 6.66667 13.3333 6.66667Z" stroke="#64748B" stroke-width="1.2" stroke-linecap="round" stroke-linejoin="round"/>
</g>
<g clip-path="url(#clip1_944_20173)">
<path d="M26 8C26 8.39556 25.8827 8.78224 25.6629 9.11114C25.4432 9.44004 25.1308 9.69638 24.7654 9.84776C24.3999 9.99913 23.9978 10.0387 23.6098 9.96157C23.2219 9.8844 22.8655 9.69392 22.5858 9.41421C22.3061 9.13451 22.1156 8.77814 22.0384 8.39018C21.9613 8.00222 22.0009 7.60009 22.1522 7.23463C22.3036 6.86918 22.56 6.55682 22.8889 6.33706C23.2178 6.1173 23.6044 6 24 6C24.5304 6 25.0391 6.21071 25.4142 6.58579C25.7893 6.96086 26 7.46957 26 8ZM29.3333 6.66667H28.94C28.8022 6.66612 28.6679 6.62287 28.5557 6.54288C28.4435 6.4629 28.3588 6.35009 28.3133 6.22C28.254 6.09513 28.235 5.95491 28.2589 5.81875C28.2828 5.68259 28.3484 5.55722 28.4467 5.46L28.72 5.18667C28.7825 5.12469 28.8321 5.05096 28.8659 4.96972C28.8998 4.88848 28.9172 4.80134 28.9172 4.71333C28.9172 4.62533 28.8998 4.53819 28.8659 4.45695C28.8321 4.37571 28.7825 4.30198 28.72 4.24L27.7733 3.28667C27.7114 3.22418 27.6376 3.17458 27.5564 3.14074C27.4751 3.10689 27.388 3.08947 27.3 3.08947C27.212 3.08947 27.1249 3.10689 27.0436 3.14074C26.9624 3.17458 26.8886 3.22418 26.8267 3.28667L26.5533 3.56C26.4561 3.65828 26.3307 3.7239 26.1946 3.74779C26.0584 3.77168 25.9182 3.75265 25.7933 3.69333C25.6597 3.64975 25.5432 3.56503 25.4606 3.45129C25.378 3.33754 25.3334 3.20058 25.3333 3.06V2.66667C25.3333 2.48986 25.2631 2.32029 25.1381 2.19526C25.013 2.07024 24.8435 2 24.6667 2H23.3333C23.1565 2 22.987 2.07024 22.8619 2.19526C22.7369 2.32029 22.6667 2.48986 22.6667 2.66667V3.06C22.6661 3.19781 22.6229 3.33207 22.5429 3.44429C22.4629 3.55651 22.3501 3.64119 22.22 3.68667V3.68667C22.0951 3.74598 21.9549 3.76501 21.8187 3.74113C21.6826 3.71724 21.5572 3.65161 21.46 3.55333L21.1867 3.28C21.1247 3.21751 21.051 3.16792 20.9697 3.13407C20.8885 3.10023 20.8013 3.0828 20.7133 3.0828C20.6253 3.0828 20.5382 3.10023 20.4569 3.13407C20.3757 3.16792 20.302 3.21751 20.24 3.28L19.2867 4.22667C19.2242 4.28864 19.1746 4.36238 19.1407 4.44362C19.1069 4.52486 19.0895 4.61199 19.0895 4.7C19.0895 4.78801 19.1069 4.87514 19.1407 4.95638C19.1746 5.03762 19.2242 5.11136 19.2867 5.17333L19.56 5.44667C19.6583 5.54389 19.7239 5.66926 19.7478 5.80542C19.7717 5.94158 19.7526 6.0818 19.6933 6.20667C19.6479 6.33676 19.5632 6.44956 19.451 6.52955C19.3387 6.60954 19.2045 6.65278 19.0667 6.65333H18.6667C18.4899 6.65333 18.3203 6.72357 18.1953 6.8486C18.0702 6.97362 18 7.14319 18 7.32V8.65333C18 8.83014 18.0702 8.99971 18.1953 9.12474C18.3203 9.24976 18.4899 9.32 18.6667 9.32H19.06C19.1978 9.32055 19.3321 9.36379 19.4443 9.44378C19.5565 9.52377 19.6412 9.63657 19.6867 9.76667V9.76667C19.746 9.89154 19.765 10.0318 19.7411 10.1679C19.7172 10.3041 19.6516 10.4294 19.5533 10.5267L19.28 10.8C19.2175 10.862 19.1679 10.9357 19.1341 11.0169C19.1002 11.0982 19.0828 11.1853 19.0828 11.2733C19.0828 11.3613 19.1002 11.4485 19.1341 11.5297C19.1679 11.611 19.2175 11.6847 19.28 11.7467L20.22 12.6867C20.282 12.7492 20.3557 12.7987 20.4369 12.8326C20.5182 12.8664 20.6053 12.8839 20.6933 12.8839C20.7813 12.8839 20.8685 12.8664 20.9497 12.8326C21.031 12.7987 21.1047 12.7492 21.1667 12.6867L21.44 12.4133C21.5372 12.3151 21.6626 12.2494 21.7988 12.2255C21.9349 12.2017 22.0751 12.2207 22.2 12.28C22.3301 12.3255 22.4429 12.4102 22.5229 12.5224C22.6029 12.6346 22.6461 12.7689 22.6467 12.9067V13.3333C22.6467 13.5101 22.7169 13.6797 22.8419 13.8047C22.967 13.9298 23.1365 14 23.3133 14H24.6467C24.8235 14 24.993 13.9298 25.1181 13.8047C25.2431 13.6797 25.3133 13.5101 25.3133 13.3333V12.94C25.3139 12.8022 25.3571 12.6679 25.4371 12.5557C25.5171 12.4435 25.6299 12.3588 25.76 12.3133C25.8849 12.254 26.0251 12.235 26.1613 12.2589C26.2974 12.2828 26.4228 12.3484 26.52 12.4467L26.7933 12.72C26.8553 12.7825 26.929 12.8321 27.0103 12.8659C27.0915 12.8998 27.1787 12.9172 27.2667 12.9172C27.3547 12.9172 27.4418 12.8998 27.5231 12.8659C27.6043 12.8321 27.678 12.7825 27.74 12.72L28.68 11.78C28.7425 11.718 28.7921 11.6443 28.8259 11.5631C28.8598 11.4818 28.8772 11.3947 28.8772 11.3067C28.8772 11.2187 28.8598 11.1315 28.8259 11.0503C28.7921 10.969 28.7425 10.8953 28.68 10.8333L28.4067 10.56C28.3084 10.4628 28.2428 10.3374 28.2189 10.2013C28.195 10.0651 28.214 9.92487 28.2733 9.8V9.8C28.3188 9.66991 28.4035 9.5571 28.5157 9.47712C28.6279 9.39713 28.7622 9.35388 28.9 9.35333H29.3333C29.5101 9.35333 29.6797 9.2831 29.8047 9.15807C29.9298 9.03305 30 8.86348 30 8.68667V7.33333C30 7.15652 29.9298 6.98695 29.8047 6.86193C29.6797 6.7369 29.5101 6.66667 29.3333 6.66667Z" stroke="#CBD5E1" stroke-width="1.2" stroke-linecap="round" stroke-linejoin="round"/>
</g>
<g clip-path="url(#clip2_944_20173)">
<path d="M42 8C42 8.39556 41.8827 8.78224 41.6629 9.11114C41.4432 9.44004 41.1308 9.69638 40.7654 9.84776C40.3999 9.99913 39.9978 10.0387 39.6098 9.96157C39.2219 9.8844 38.8655 9.69392 38.5858 9.41421C38.3061 9.13451 38.1156 8.77814 38.0384 8.39018C37.9613 8.00222 38.0009 7.60009 38.1522 7.23463C38.3036 6.86918 38.56 6.55682 38.8889 6.33706C39.2178 6.1173 39.6044 6 40 6C40.5304 6 41.0391 6.21071 41.4142 6.58579C41.7893 6.96086 42 7.46957 42 8ZM45.3333 6.66667H44.94C44.8022 6.66612 44.6679 6.62287 44.5557 6.54288C44.4435 6.4629 44.3588 6.35009 44.3133 6.22C44.254 6.09513 44.235 5.95491 44.2589 5.81875C44.2828 5.68259 44.3484 5.55722 44.4467 5.46L44.72 5.18667C44.7825 5.12469 44.8321 5.05096 44.8659 4.96972C44.8998 4.88848 44.9172 4.80134 44.9172 4.71333C44.9172 4.62533 44.8998 4.53819 44.8659 4.45695C44.8321 4.37571 44.7825 4.30198 44.72 4.24L43.7733 3.28667C43.7114 3.22418 43.6376 3.17458 43.5564 3.14074C43.4751 3.10689 43.388 3.08947 43.3 3.08947C43.212 3.08947 43.1249 3.10689 43.0436 3.14074C42.9624 3.17458 42.8886 3.22418 42.8267 3.28667L42.5533 3.56C42.4561 3.65828 42.3307 3.7239 42.1946 3.74779C42.0584 3.77168 41.9182 3.75265 41.7933 3.69333C41.6597 3.64975 41.5432 3.56503 41.4606 3.45129C41.378 3.33754 41.3334 3.20058 41.3333 3.06V2.66667C41.3333 2.48986 41.2631 2.32029 41.1381 2.19526C41.013 2.07024 40.8435 2 40.6667 2H39.3333C39.1565 2 38.987 2.07024 38.8619 2.19526C38.7369 2.32029 38.6667 2.48986 38.6667 2.66667V3.06C38.6661 3.19781 38.6229 3.33207 38.5429 3.44429C38.4629 3.55651 38.3501 3.64119 38.22 3.68667V3.68667C38.0951 3.74598 37.9549 3.76501 37.8187 3.74113C37.6826 3.71724 37.5572 3.65161 37.46 3.55333L37.1867 3.28C37.1247 3.21751 37.051 3.16792 36.9697 3.13407C36.8885 3.10023 36.8013 3.0828 36.7133 3.0828C36.6253 3.0828 36.5382 3.10023 36.4569 3.13407C36.3757 3.16792 36.302 3.21751 36.24 3.28L35.2867 4.22667C35.2242 4.28864 35.1746 4.36238 35.1407 4.44362C35.1069 4.52486 35.0895 4.61199 35.0895 4.7C35.0895 4.78801 35.1069 4.87514 35.1407 4.95638C35.1746 5.03762 35.2242 5.11136 35.2867 5.17333L35.56 5.44667C35.6583 5.54389 35.7239 5.66926 35.7478 5.80542C35.7717 5.94158 35.7526 6.0818 35.6933 6.20667C35.6479 6.33676 35.5632 6.44956 35.451 6.52955C35.3387 6.60954 35.2045 6.65278 35.0667 6.65333H34.6667C34.4899 6.65333 34.3203 6.72357 34.1953 6.8486C34.0702 6.97362 34 7.14319 34 7.32V8.65333C34 8.83014 34.0702 8.99971 34.1953 9.12474C34.3203 9.24976 34.4899 9.32 34.6667 9.32H35.06C35.1978 9.32055 35.3321 9.36379 35.4443 9.44378C35.5565 9.52377 35.6412 9.63657 35.6867 9.76667V9.76667C35.746 9.89154 35.765 10.0318 35.7411 10.1679C35.7172 10.3041 35.6516 10.4294 35.5533 10.5267L35.28 10.8C35.2175 10.862 35.1679 10.9357 35.1341 11.0169C35.1002 11.0982 35.0828 11.1853 35.0828 11.2733C35.0828 11.3613 35.1002 11.4485 35.1341 11.5297C35.1679 11.611 35.2175 11.6847 35.28 11.7467L36.22 12.6867C36.282 12.7492 36.3557 12.7987 36.4369 12.8326C36.5182 12.8664 36.6053 12.8839 36.6933 12.8839C36.7813 12.8839 36.8685 12.8664 36.9497 12.8326C37.031 12.7987 37.1047 12.7492 37.1667 12.6867L37.44 12.4133C37.5372 12.3151 37.6626 12.2494 37.7988 12.2255C37.9349 12.2017 38.0751 12.2207 38.2 12.28C38.3301 12.3255 38.4429 12.4102 38.5229 12.5224C38.6029 12.6346 38.6461 12.7689 38.6467 12.9067V13.3333C38.6467 13.5101 38.7169 13.6797 38.8419 13.8047C38.967 13.9298 39.1365 14 39.3133 14H40.6467C40.8235 14 40.993 13.9298 41.1181 13.8047C41.2431 13.6797 41.3133 13.5101 41.3133 13.3333V12.94C41.3139 12.8022 41.3571 12.6679 41.4371 12.5557C41.5171 12.4435 41.6299 12.3588 41.76 12.3133C41.8849 12.254 42.0251 12.235 42.1613 12.2589C42.2974 12.2828 42.4228 12.3484 42.52 12.4467L42.7933 12.72C42.8553 12.7825 42.929 12.8321 43.0103 12.8659C43.0915 12.8998 43.1787 12.9172 43.2667 12.9172C43.3547 12.9172 43.4418 12.8998 43.5231 12.8659C43.6043 12.8321 43.678 12.7825 43.74 12.72L44.68 11.78C44.7425 11.718 44.7921 11.6443 44.8259 11.5631C44.8598 11.4818 44.8772 11.3947 44.8772 11.3067C44.8772 11.2187 44.8598 11.1315 44.8259 11.0503C44.7921 10.969 44.7425 10.8953 44.68 10.8333L44.4067 10.56C44.3084 10.4628 44.2428 10.3374 44.2189 10.2013C44.195 10.0651 44.214 9.92487 44.2733 9.8V9.8C44.3188 9.66991 44.4035 9.5571 44.5157 9.47712C44.6279 9.39713 44.7622 9.35388 44.9 9.35333H45.3333C45.5101 9.35333 45.6797 9.2831 45.8047 9.15807C45.9298 9.03305 46 8.86348 46 8.68667V7.33333C46 7.15652 45.9298 6.98695 45.8047 6.86193C45.6797 6.7369 45.5101 6.66667 45.3333 6.66667Z" stroke="#2968F9" stroke-width="1.2" stroke-linecap="round" stroke-linejoin="round"/>
</g>
<g clip-path="url(#clip3_944_20173)">
<path d="M58 8C58 8.39556 57.8827 8.78224 57.6629 9.11114C57.4432 9.44004 57.1308 9.69638 56.7654 9.84776C56.3999 9.99913 55.9978 10.0387 55.6098 9.96157C55.2219 9.8844 54.8655 9.69392 54.5858 9.41421C54.3061 9.13451 54.1156 8.77814 54.0384 8.39018C53.9613 8.00222 54.0009 7.60009 54.1522 7.23463C54.3036 6.86918 54.56 6.55682 54.8889 6.33706C55.2178 6.1173 55.6044 6 56 6C56.5304 6 57.0391 6.21071 57.4142 6.58579C57.7893 6.96086 58 7.46957 58 8ZM61.3333 6.66667H60.94C60.8022 6.66612 60.6679 6.62287 60.5557 6.54288C60.4435 6.4629 60.3588 6.35009 60.3133 6.22C60.254 6.09513 60.235 5.95491 60.2589 5.81875C60.2828 5.68259 60.3484 5.55722 60.4467 5.46L60.72 5.18667C60.7825 5.12469 60.8321 5.05096 60.8659 4.96972C60.8998 4.88848 60.9172 4.80134 60.9172 4.71333C60.9172 4.62533 60.8998 4.53819 60.8659 4.45695C60.8321 4.37571 60.7825 4.30198 60.72 4.24L59.7733 3.28667C59.7114 3.22418 59.6376 3.17458 59.5564 3.14074C59.4751 3.10689 59.388 3.08947 59.3 3.08947C59.212 3.08947 59.1249 3.10689 59.0436 3.14074C58.9624 3.17458 58.8886 3.22418 58.8267 3.28667L58.5533 3.56C58.4561 3.65828 58.3307 3.7239 58.1946 3.74779C58.0584 3.77168 57.9182 3.75265 57.7933 3.69333C57.6597 3.64975 57.5432 3.56503 57.4606 3.45129C57.378 3.33754 57.3334 3.20058 57.3333 3.06V2.66667C57.3333 2.48986 57.2631 2.32029 57.1381 2.19526C57.013 2.07024 56.8435 2 56.6667 2H55.3333C55.1565 2 54.987 2.07024 54.8619 2.19526C54.7369 2.32029 54.6667 2.48986 54.6667 2.66667V3.06C54.6661 3.19781 54.6229 3.33207 54.5429 3.44429C54.4629 3.55651 54.3501 3.64119 54.22 3.68667V3.68667C54.0951 3.74598 53.9549 3.76501 53.8187 3.74113C53.6826 3.71724 53.5572 3.65161 53.46 3.55333L53.1867 3.28C53.1247 3.21751 53.051 3.16792 52.9697 3.13407C52.8885 3.10023 52.8013 3.0828 52.7133 3.0828C52.6253 3.0828 52.5382 3.10023 52.4569 3.13407C52.3757 3.16792 52.302 3.21751 52.24 3.28L51.2867 4.22667C51.2242 4.28864 51.1746 4.36238 51.1407 4.44362C51.1069 4.52486 51.0895 4.61199 51.0895 4.7C51.0895 4.78801 51.1069 4.87514 51.1407 4.95638C51.1746 5.03762 51.2242 5.11136 51.2867 5.17333L51.56 5.44667C51.6583 5.54389 51.7239 5.66926 51.7478 5.80542C51.7717 5.94158 51.7526 6.0818 51.6933 6.20667C51.6479 6.33676 51.5632 6.44956 51.451 6.52955C51.3387 6.60954 51.2045 6.65278 51.0667 6.65333H50.6667C50.4899 6.65333 50.3203 6.72357 50.1953 6.8486C50.0702 6.97362 50 7.14319 50 7.32V8.65333C50 8.83014 50.0702 8.99971 50.1953 9.12474C50.3203 9.24976 50.4899 9.32 50.6667 9.32H51.06C51.1978 9.32055 51.3321 9.36379 51.4443 9.44378C51.5565 9.52377 51.6412 9.63657 51.6867 9.76667V9.76667C51.746 9.89154 51.765 10.0318 51.7411 10.1679C51.7172 10.3041 51.6516 10.4294 51.5533 10.5267L51.28 10.8C51.2175 10.862 51.1679 10.9357 51.1341 11.0169C51.1002 11.0982 51.0828 11.1853 51.0828 11.2733C51.0828 11.3613 51.1002 11.4485 51.1341 11.5297C51.1679 11.611 51.2175 11.6847 51.28 11.7467L52.22 12.6867C52.282 12.7492 52.3557 12.7987 52.4369 12.8326C52.5182 12.8664 52.6053 12.8839 52.6933 12.8839C52.7813 12.8839 52.8685 12.8664 52.9497 12.8326C53.031 12.7987 53.1047 12.7492 53.1667 12.6867L53.44 12.4133C53.5372 12.3151 53.6626 12.2494 53.7988 12.2255C53.9349 12.2017 54.0751 12.2207 54.2 12.28C54.3301 12.3255 54.4429 12.4102 54.5229 12.5224C54.6029 12.6346 54.6461 12.7689 54.6467 12.9067V13.3333C54.6467 13.5101 54.7169 13.6797 54.8419 13.8047C54.967 13.9298 55.1365 14 55.3133 14H56.6467C56.8235 14 56.993 13.9298 57.1181 13.8047C57.2431 13.6797 57.3133 13.5101 57.3133 13.3333V12.94C57.3139 12.8022 57.3571 12.6679 57.4371 12.5557C57.5171 12.4435 57.6299 12.3588 57.76 12.3133C57.8849 12.254 58.0251 12.235 58.1613 12.2589C58.2974 12.2828 58.4228 12.3484 58.52 12.4467L58.7933 12.72C58.8553 12.7825 58.929 12.8321 59.0103 12.8659C59.0915 12.8998 59.1787 12.9172 59.2667 12.9172C59.3547 12.9172 59.4418 12.8998 59.5231 12.8659C59.6043 12.8321 59.678 12.7825 59.74 12.72L60.68 11.78C60.7425 11.718 60.7921 11.6443 60.8259 11.5631C60.8598 11.4818 60.8772 11.3947 60.8772 11.3067C60.8772 11.2187 60.8598 11.1315 60.8259 11.0503C60.7921 10.969 60.7425 10.8953 60.68 10.8333L60.4067 10.56C60.3084 10.4628 60.2428 10.3374 60.2189 10.2013C60.195 10.0651 60.214 9.92487 60.2733 9.8V9.8C60.3188 9.66991 60.4035 9.5571 60.5157 9.47712C60.6279 9.39713 60.7622 9.35388 60.9 9.35333H61.3333C61.5101 9.35333 61.6797 9.2831 61.8047 9.15807C61.9298 9.03305 62 8.86348 62 8.68667V7.33333C62 7.15652 61.9298 6.98695 61.8047 6.86193C61.6797 6.7369 61.5101 6.66667 61.3333 6.66667Z" stroke="white" stroke-width="1.2" stroke-linecap="round" stroke-linejoin="round"/>
</g>
<defs>
<clipPath id="clip0_944_20173">
<rect width="16" height="16" fill="white"/>
</clipPath>
<clipPath id="clip1_944_20173">
<rect width="16" height="16" fill="white" transform="translate(16)"/>
</clipPath>
<clipPath id="clip2_944_20173">
<rect width="16" height="16" fill="white" transform="translate(32)"/>
</clipPath>
<clipPath id="clip3_944_20173">
<rect width="16" height="16" fill="white" transform="translate(48)"/>
</clipPath>
</defs>
</svg>
