<svg width="80" height="16" viewBox="0 0 80 16" fill="none" xmlns="http://www.w3.org/2000/svg">
<g clip-path="url(#clip0_944_20197)">
<path d="M2 12.6667L11.3333 12.6667L2 12.6667ZM11.3333 12.6667C11.3333 12.9304 11.4115 13.1882 11.558 13.4074C11.7045 13.6267 11.9128 13.7976 12.1564 13.8985C12.4001 13.9994 12.6681 14.0258 12.9268 13.9744C13.1854 13.9229 13.423 13.7959 13.6095 13.6095C13.7959 13.423 13.9229 13.1854 13.9744 12.9268C14.0258 12.6681 13.9994 12.4001 13.8985 12.1564C13.7976 11.9128 13.6267 11.7045 13.4074 11.558C13.1882 11.4115 12.9304 11.3333 12.6667 11.3333C12.313 11.3333 11.9739 11.4738 11.7239 11.7239C11.4738 11.9739 11.3333 12.313 11.3333 12.6667ZM4.66667 8L14 8L4.66667 8ZM2 8C2 8.26371 2.0782 8.52149 2.22471 8.74076C2.37122 8.96002 2.57945 9.13092 2.82309 9.23184C3.06672 9.33276 3.33481 9.35916 3.59345 9.30771C3.85209 9.25627 4.08967 9.12928 4.27614 8.94281C4.46261 8.75634 4.5896 8.51876 4.64105 8.26012C4.69249 8.00148 4.66609 7.73339 4.56517 7.48975C4.46426 7.24612 4.29336 7.03788 4.07409 6.89137C3.85483 6.74486 3.59704 6.66667 3.33333 6.66667C2.97971 6.66667 2.64057 6.80714 2.39052 7.05719C2.14048 7.30724 2 7.64638 2 8ZM9.33333 3.33333L14 3.33333L9.33333 3.33333ZM6.66667 3.33333L2 3.33333L6.66667 3.33333ZM6.66667 3.33333C6.66667 3.59704 6.74486 3.85483 6.89137 4.07409C7.03788 4.29336 7.24612 4.46425 7.48975 4.56517C7.73339 4.66609 8.00148 4.69249 8.26012 4.64105C8.51876 4.5896 8.75634 4.46261 8.94281 4.27614C9.12928 4.08967 9.25627 3.85209 9.30771 3.59345C9.35916 3.33481 9.33276 3.06672 9.23184 2.82309C9.13092 2.57945 8.96002 2.37122 8.74076 2.22471C8.52149 2.0782 8.26371 2 8 2C7.64638 2 7.30724 2.14048 7.05719 2.39052C6.80714 2.64057 6.66667 2.97971 6.66667 3.33333Z" stroke="#64748B" stroke-width="1.2" stroke-linecap="round" stroke-linejoin="round"/>
</g>
<g clip-path="url(#clip1_944_20197)">
<path d="M18 12.6667L27.3333 12.6667L18 12.6667ZM27.3333 12.6667C27.3333 12.9304 27.4115 13.1882 27.558 13.4074C27.7045 13.6267 27.9128 13.7976 28.1564 13.8985C28.4001 13.9994 28.6681 14.0258 28.9268 13.9744C29.1854 13.9229 29.423 13.7959 29.6095 13.6095C29.7959 13.423 29.9229 13.1854 29.9744 12.9268C30.0258 12.6681 29.9994 12.4001 29.8985 12.1564C29.7976 11.9128 29.6267 11.7045 29.4074 11.558C29.1882 11.4115 28.9304 11.3333 28.6667 11.3333C28.313 11.3333 27.9739 11.4738 27.7239 11.7239C27.4738 11.9739 27.3333 12.313 27.3333 12.6667ZM20.6667 8L30 8L20.6667 8ZM18 8C18 8.26371 18.0782 8.52149 18.2247 8.74076C18.3712 8.96002 18.5795 9.13092 18.8231 9.23184C19.0667 9.33276 19.3348 9.35916 19.5935 9.30771C19.8521 9.25627 20.0897 9.12928 20.2761 8.94281C20.4626 8.75634 20.5896 8.51876 20.641 8.26012C20.6925 8.00148 20.6661 7.73339 20.5652 7.48975C20.4643 7.24612 20.2934 7.03788 20.0741 6.89137C19.8548 6.74486 19.597 6.66667 19.3333 6.66667C18.9797 6.66667 18.6406 6.80714 18.3905 7.05719C18.1405 7.30724 18 7.64638 18 8ZM25.3333 3.33333L30 3.33333L25.3333 3.33333ZM22.6667 3.33333L18 3.33333L22.6667 3.33333ZM22.6667 3.33333C22.6667 3.59704 22.7449 3.85483 22.8914 4.07409C23.0379 4.29336 23.2461 4.46425 23.4898 4.56517C23.7334 4.66609 24.0015 4.69249 24.2601 4.64105C24.5188 4.5896 24.7563 4.46261 24.9428 4.27614C25.1293 4.08967 25.2563 3.85209 25.3077 3.59345C25.3592 3.33481 25.3328 3.06672 25.2318 2.82309C25.1309 2.57945 24.96 2.37122 24.7408 2.22471C24.5215 2.0782 24.2637 2 24 2C23.6464 2 23.3072 2.14048 23.0572 2.39052C22.8071 2.64057 22.6667 2.97971 22.6667 3.33333Z" stroke="#CBD5E1" stroke-width="1.2" stroke-linecap="round" stroke-linejoin="round"/>
</g>
<g clip-path="url(#clip2_944_20197)">
<path d="M34 12.6667L43.3333 12.6667L34 12.6667ZM43.3333 12.6667C43.3333 12.9304 43.4115 13.1882 43.558 13.4074C43.7045 13.6267 43.9128 13.7976 44.1564 13.8985C44.4001 13.9994 44.6681 14.0258 44.9268 13.9744C45.1854 13.9229 45.423 13.7959 45.6095 13.6095C45.7959 13.423 45.9229 13.1854 45.9744 12.9268C46.0258 12.6681 45.9994 12.4001 45.8985 12.1564C45.7976 11.9128 45.6267 11.7045 45.4074 11.558C45.1882 11.4115 44.9304 11.3333 44.6667 11.3333C44.313 11.3333 43.9739 11.4738 43.7239 11.7239C43.4738 11.9739 43.3333 12.313 43.3333 12.6667ZM36.6667 8L46 8L36.6667 8ZM34 8C34 8.26371 34.0782 8.52149 34.2247 8.74076C34.3712 8.96002 34.5795 9.13092 34.8231 9.23184C35.0667 9.33276 35.3348 9.35916 35.5935 9.30771C35.8521 9.25627 36.0897 9.12928 36.2761 8.94281C36.4626 8.75634 36.5896 8.51876 36.641 8.26012C36.6925 8.00148 36.6661 7.73339 36.5652 7.48975C36.4643 7.24612 36.2934 7.03788 36.0741 6.89137C35.8548 6.74486 35.597 6.66667 35.3333 6.66667C34.9797 6.66667 34.6406 6.80714 34.3905 7.05719C34.1405 7.30724 34 7.64638 34 8ZM41.3333 3.33333L46 3.33333L41.3333 3.33333ZM38.6667 3.33333L34 3.33333L38.6667 3.33333ZM38.6667 3.33333C38.6667 3.59704 38.7449 3.85483 38.8914 4.07409C39.0379 4.29336 39.2461 4.46425 39.4898 4.56517C39.7334 4.66609 40.0015 4.69249 40.2601 4.64105C40.5188 4.5896 40.7563 4.46261 40.9428 4.27614C41.1293 4.08967 41.2563 3.85209 41.3077 3.59345C41.3592 3.33481 41.3328 3.06672 41.2318 2.82309C41.1309 2.57945 40.96 2.37122 40.7408 2.22471C40.5215 2.0782 40.2637 2 40 2C39.6464 2 39.3072 2.14048 39.0572 2.39052C38.8071 2.64057 38.6667 2.97971 38.6667 3.33333Z" stroke="#2968F9" stroke-width="1.2" stroke-linecap="round" stroke-linejoin="round"/>
</g>
<g clip-path="url(#clip3_944_20197)">
<path d="M50 12.6667L59.3333 12.6667L50 12.6667ZM59.3333 12.6667C59.3333 12.9304 59.4115 13.1882 59.558 13.4074C59.7045 13.6267 59.9128 13.7976 60.1564 13.8985C60.4001 13.9994 60.6681 14.0258 60.9268 13.9744C61.1854 13.9229 61.423 13.7959 61.6095 13.6095C61.7959 13.423 61.9229 13.1854 61.9744 12.9268C62.0258 12.6681 61.9994 12.4001 61.8985 12.1564C61.7976 11.9128 61.6267 11.7045 61.4074 11.558C61.1882 11.4115 60.9304 11.3333 60.6667 11.3333C60.313 11.3333 59.9739 11.4738 59.7239 11.7239C59.4738 11.9739 59.3333 12.313 59.3333 12.6667ZM52.6667 8L62 8L52.6667 8ZM50 8C50 8.26371 50.0782 8.52149 50.2247 8.74076C50.3712 8.96002 50.5795 9.13092 50.8231 9.23184C51.0667 9.33276 51.3348 9.35916 51.5935 9.30771C51.8521 9.25627 52.0897 9.12928 52.2761 8.94281C52.4626 8.75634 52.5896 8.51876 52.641 8.26012C52.6925 8.00148 52.6661 7.73339 52.5652 7.48975C52.4643 7.24612 52.2934 7.03788 52.0741 6.89137C51.8548 6.74486 51.597 6.66667 51.3333 6.66667C50.9797 6.66667 50.6406 6.80714 50.3905 7.05719C50.1405 7.30724 50 7.64638 50 8ZM57.3333 3.33333L62 3.33333L57.3333 3.33333ZM54.6667 3.33333L50 3.33333L54.6667 3.33333ZM54.6667 3.33333C54.6667 3.59704 54.7449 3.85483 54.8914 4.07409C55.0379 4.29336 55.2461 4.46425 55.4898 4.56517C55.7334 4.66609 56.0015 4.69249 56.2601 4.64105C56.5188 4.5896 56.7563 4.46261 56.9428 4.27614C57.1293 4.08967 57.2563 3.85209 57.3077 3.59345C57.3592 3.33481 57.3328 3.06672 57.2318 2.82309C57.1309 2.57945 56.96 2.37122 56.7408 2.22471C56.5215 2.0782 56.2637 2 56 2C55.6464 2 55.3072 2.14048 55.0572 2.39052C54.8071 2.64057 54.6667 2.97971 54.6667 3.33333Z" stroke="white" stroke-width="1.2" stroke-linecap="round" stroke-linejoin="round"/>
</g>
<defs>
<clipPath id="clip0_944_20197">
<rect width="16" height="16" fill="white"/>
</clipPath>
<clipPath id="clip1_944_20197">
<rect width="16" height="16" fill="white" transform="translate(16)"/>
</clipPath>
<clipPath id="clip2_944_20197">
<rect width="16" height="16" fill="white" transform="translate(32)"/>
</clipPath>
<clipPath id="clip3_944_20197">
<rect width="16" height="16" fill="white" transform="translate(48)"/>
</clipPath>
</defs>
</svg>
