<svg width="80" height="16" viewBox="0 0 80 16" fill="none" xmlns="http://www.w3.org/2000/svg">
<g clip-path="url(#clip0_944_21017)">
<path d="M4.30052 6.45582L7.57362 10.2754C7.62637 10.337 7.69182 10.3864 7.76546 10.4202C7.8391 10.4541 7.9192 10.4716 8.00026 10.4716C8.08131 10.4716 8.16141 10.4541 8.23505 10.4202C8.30869 10.3864 8.37414 10.337 8.4269 10.2754L11.7 6.45582C12.0124 6.09123 11.7534 5.52808 11.2734 5.52808H4.72622C4.24619 5.52808 3.98721 6.09123 4.30052 6.45582Z" fill="#64748B"/>
</g>
<g clip-path="url(#clip1_944_21017)">
<path d="M20.5847 6.21164L20.585 6.21203L23.858 10.0316C23.8581 10.0316 23.8581 10.0316 23.8581 10.0317C23.8757 10.0521 23.8975 10.0686 23.922 10.0798C23.9465 10.0911 23.9732 10.097 24.0003 10.097C24.0273 10.097 24.054 10.0911 24.0785 10.0798C24.103 10.0686 24.1248 10.0521 24.1424 10.0317L20.5847 6.21164ZM20.5847 6.21164C20.4802 6.09004 20.5664 5.90273 20.7262 5.90273H27.2734C27.4331 5.90273 27.5197 6.09035 27.4155 6.21203C27.4155 6.21204 27.4155 6.21205 27.4155 6.21206L24.1425 10.0316L20.5847 6.21164Z" fill="#CBD5E1" stroke="#CBD5E1" stroke-width="0.749314"/>
</g>
<g clip-path="url(#clip2_944_21017)">
<path d="M36.5847 6.21164L36.585 6.21203L39.858 10.0316C39.8581 10.0316 39.8581 10.0316 39.8581 10.0317C39.8757 10.0521 39.8975 10.0686 39.922 10.0798C39.9465 10.0911 39.9732 10.097 40.0003 10.097C40.0273 10.097 40.054 10.0911 40.0785 10.0798C40.103 10.0686 40.1248 10.0521 40.1424 10.0317L36.5847 6.21164ZM36.5847 6.21164C36.4802 6.09004 36.5664 5.90273 36.7262 5.90273H43.2734C43.4331 5.90273 43.5197 6.09035 43.4155 6.21203C43.4155 6.21204 43.4155 6.21205 43.4155 6.21206L40.1425 10.0316L36.5847 6.21164Z" fill="#2968F9" stroke="#2968F9" stroke-width="0.749314"/>
</g>
<g clip-path="url(#clip3_944_21017)">
<path d="M52.5847 6.21164L52.585 6.21203L55.858 10.0316C55.8581 10.0316 55.8581 10.0316 55.8581 10.0317C55.8757 10.0521 55.8975 10.0686 55.922 10.0798C55.9465 10.0911 55.9732 10.097 56.0003 10.097C56.0273 10.097 56.054 10.0911 56.0785 10.0798C56.103 10.0686 56.1248 10.0521 56.1424 10.0317L52.5847 6.21164ZM52.5847 6.21164C52.4802 6.09004 52.5664 5.90273 52.7262 5.90273H59.2734C59.4331 5.90273 59.5197 6.09035 59.4155 6.21203C59.4155 6.21204 59.4155 6.21205 59.4155 6.21206L56.1425 10.0316L52.5847 6.21164Z" fill="white" stroke="white" stroke-width="0.749314"/>
</g>
<defs>
<clipPath id="clip0_944_21017">
<rect width="16" height="16" fill="white"/>
</clipPath>
<clipPath id="clip1_944_21017">
<rect width="16" height="16" fill="white" transform="translate(16)"/>
</clipPath>
<clipPath id="clip2_944_21017">
<rect width="16" height="16" fill="white" transform="translate(32)"/>
</clipPath>
<clipPath id="clip3_944_21017">
<rect width="16" height="16" fill="white" transform="translate(48)"/>
</clipPath>
</defs>
</svg>
