<svg width="322" height="48" viewBox="0 0 322 48" fill="none" xmlns="http://www.w3.org/2000/svg">
    <path d="M65.085 10.052h-4.792v28.183h4.792V10.052zM71.73 10.053v28.183h8.705c7.433 0 10.953-2.597 10.953-7.791 0-3.27-1.858-5.675-4.988-6.637l-.293-.096.293-.096c2.837-1.155 4.206-3.27 4.206-6.253 0-4.809-3.325-7.406-10.073-7.406H71.73v.096zm7.922 15.679c3.423 0 6.748.577 6.748 4.328 0 1.347-.489 2.501-1.564 3.174-1.076.674-2.64.962-4.793.962h-3.52v-8.464h3.13zm1.565-11.639c1.37 0 4.695.481 4.695 3.751 0 1.828-.783 2.79-1.957 3.367-1.173.48-2.836.577-4.694.577h-2.738v-7.695h4.694zM118.38 10.053c-1.565 1.539-12.91 13.37-12.91 13.37s12.323 13.177 13.888 14.813h-6.651c-.587-.674-11.247-12.697-11.247-12.697v12.697h-4.792V10.053h4.792v11.446s10.074-10.773 10.66-11.446h6.26zM308.161 11.268v2.963h-7.784v2.799h6.667v2.832h-6.667v3.062c3.564-.033 6.01-.165 8.9-.692l.394 2.865c-3.415.625-6.239.757-10.837.757h-1.971V11.268h11.298zm12.841-1.844v17.813h-3.482V9.424h3.482zm-5.846.494v17.089h-3.481v-7.343h-3.35v-2.963h3.35V9.918h3.481zm5.846 18.57v10.34h-20.034v-10.34h20.034zm-16.388 2.898v4.478h12.775v-4.478h-12.775zM281.888 13.506c0 4.61 4.499 9.22 10.706 10.306l-1.642 3.062c-4.976-1.053-9.048-4.066-10.969-8.067-1.971 3.968-6.043 6.997-11.002 8.067l-1.609-3.062c6.141-1.12 10.608-5.73 10.64-10.306V11.3h3.876v2.206zm11.79 18.867v3.03h-27.127v-3.03h27.127zM248.736 16.569c-.033 5.466 2.824 10.932 7.652 13.006l-2.168 2.93c-3.415-1.58-5.927-4.741-7.29-8.626-1.363 4.198-3.908 7.622-7.521 9.318l-2.233-3.062c4.959-2.14 7.849-7.837 7.849-13.566v-4.741h3.711v4.74zm13.465-7.145v29.798h-3.678V9.424h3.678zM219.65 16.569c-.033 5.466 2.824 10.932 7.652 13.006l-2.168 2.93c-3.415-1.58-5.927-4.741-7.29-8.626-1.363 4.198-3.908 7.622-7.521 9.318l-2.233-3.062c4.959-2.14 7.849-7.837 7.849-13.566v-4.741h3.711v4.74zm13.465-7.145v29.798h-3.678V9.424h3.678zM202.782 9.424v6.783h4.138v2.996h-4.138v6.948h-3.645V9.424h3.645zm-8.243 1.81c-.033 7.739-5.09 13.106-13.957 15.476l-1.445-2.93c6.88-1.778 10.788-5.285 11.428-9.582h-10.016v-2.963h13.99zm8.243 16.102v11.458H183.57V27.336h19.212zm-15.566 2.996v5.565h11.954v-5.565h-11.954zM161.541 16.569c-.033 5.466 2.824 10.932 7.652 13.006l-2.168 2.93c-3.415-1.58-5.928-4.741-7.291-8.626-1.363 4.198-3.908 7.622-7.52 9.318l-2.234-3.062c4.959-2.14 7.85-7.837 7.85-13.566v-4.741h3.711v4.74zm13.464-7.145v29.798h-3.678V9.424h3.678zM131.736 14.165c0 3.754 2.43 7.277 6.995 8.726l-1.97 2.864c-3.202-1.086-5.501-3.26-6.766-6.025-1.313 3.16-3.711 5.647-7.126 6.849l-1.971-2.865c4.795-1.68 7.16-5.63 7.193-9.878v-2.832h3.645v3.161zm12.907-4.741v7.244h4.138v3.029h-4.138v7.54h-3.646V9.424h3.646zm-9.656 18.472c6.142-.033 9.918 2.074 9.951 5.597-.033 3.59-3.809 5.664-9.951 5.664-6.207 0-10.049-2.075-10.049-5.664 0-3.523 3.842-5.63 10.049-5.597zm0 2.864c-4.072 0-6.404.988-6.404 2.733 0 1.844 2.332 2.766 6.404 2.766 4.073 0 6.339-.922 6.339-2.766 0-1.745-2.266-2.733-6.339-2.733z" fill="#0056A2"/>
    <path d="M12.748 1.59c-1.271.672-2.25 1.73-2.738 3.077L1.306 30.444c-.49 1.347-.392 2.79.293 4.136.685 1.25 1.76 2.212 3.13 2.693L33.383 46.7c1.37.481 2.836.385 4.205-.288 1.272-.673 2.25-1.731 2.739-3.078l8.704-25.777c.977-2.79-.587-5.868-3.423-6.83L16.953 1.302c-1.467-.481-2.934-.385-4.205.288z" fill="#fff"/>
    <path d="M26.72 26.309a14.995 14.995 0 0 1-5.77 3.943l-1.272.578V18.806l1.272.48a14.994 14.994 0 0 1 5.77 3.944c1.076-1.731 1.76-3.847 1.956-6.06.39-5.77-3.325-10.965-8.313-12.792l-4.108-1.347a3.633 3.633 0 0 0-4.498 2.213L2.955 31.022c-.587 1.827.391 3.847 2.25 4.424l19.852 6.54c2.054-2.115 3.325-4.905 3.52-8.079.294-2.693-.488-5.386-1.857-7.598zm-11.443 5.194h-1.955v-13.37h1.955v13.37z" fill="#0098D9"/>
    <path d="M25.549 24.77c-1.076-1.25-2.445-2.309-4.01-3.174v6.348c1.565-.77 2.934-1.828 4.01-3.174z" fill="#E63C2F"/>
    <path d="M44.94 12.46 26.652 6.497c2.445 2.597 3.912 6.156 3.912 10.003 0 2.982-.978 5.964-2.64 8.368 1.662 2.405 2.64 5.29 2.64 8.368 0 3.655-1.271 6.925-3.52 9.522l6.845 2.213a3.633 3.633 0 0 0 4.499-2.213l8.802-25.777a3.494 3.494 0 0 0-2.25-4.52zm-4.89 19.045h-2.444l-5.086-6.733 5.183-6.733h2.445l-5.183 6.733 5.085 6.733z" fill="#004C99"/>
</svg>
