<svg width="24" height="24" viewBox="0 0 24 24" fill="none" xmlns="http://www.w3.org/2000/svg">
<rect width="24" height="24" rx="8" fill="#F3F3F3"/>
<path d="M17.1165 6.125C17.6616 6.6682 17.999 7.41981 17.999 8.25022C17.999 9.08063 17.6616 9.83224 17.1165 10.3754M6.88401 6.125C6.33883 6.6682 6.00143 7.41981 6.00143 8.25022C6.00143 9.08063 6.33883 9.83224 6.88401 10.3754M18.9261 14.2502C19.2824 14.6483 19.499 15.174 19.499 15.7502V16.5002C19.499 17.0765 19.2824 17.6022 18.9261 18.0002M5.06903 14.2502C4.71274 14.6483 4.49609 15.174 4.49609 15.7502V16.5002C4.49609 17.0765 4.71274 17.6022 5.06903 18.0002" stroke="#FFAD00" stroke-width="1.5" stroke-linecap="round" stroke-linejoin="round"/>
<path d="M15 8.25C15 9.90685 13.6569 11.25 12 11.25C10.3431 11.25 9 9.90685 9 8.25C9 6.59315 10.3431 5.25 12 5.25C13.6569 5.25 15 6.59315 15 8.25Z" fill="#FFC84D"/>
<path d="M6.75 15.75V16.5C6.75 17.7426 7.75736 18.75 9 18.75H15C16.2426 18.75 17.25 17.7426 17.25 16.5V15.75C17.25 14.5074 16.2426 13.5 15 13.5H9C7.75736 13.5 6.75 14.5074 6.75 15.75Z" fill="#FFC84D"/>
<path fill-rule="evenodd" clip-rule="evenodd" d="M21.3459 18.0256C21.5195 18.1991 21.5195 18.4805 21.3459 18.6541L20.0888 19.9112C19.9446 20.0554 19.7208 20.083 19.5459 19.978L17.9745 19.0352C17.8302 18.9486 17.7471 18.7879 17.7601 18.62L17.8914 16.9123C16.7495 16.5216 15.4314 16.3991 14.0682 16.8549L14.2456 18.6094C14.2629 18.7807 14.1797 18.9466 14.0321 19.0352L12.4607 19.978C12.2859 20.083 12.062 20.0554 11.9178 19.9112L10.6607 18.6541C10.4872 18.4805 10.4872 18.1991 10.6607 18.0256C11.5656 17.1207 12.4976 16.5139 13.4268 16.1436C15.2816 15.4043 17.0712 15.6259 18.5232 16.1978C19.7249 16.6712 20.7102 17.3899 21.3459 18.0256Z" fill="#E32939" stroke="#E32939" stroke-linecap="round" stroke-linejoin="round"/>
</svg>
