<svg width="24" height="24" viewBox="0 0 24 24" fill="none" xmlns="http://www.w3.org/2000/svg">
<rect width="24" height="24" rx="8" fill="#F3F3F3"/>
<path d="M11.25 17.7998C11.25 18.214 11.5858 18.5498 12 18.5498C12.4142 18.5498 12.75 18.214 12.75 17.7998L11.25 17.7998ZM11.25 14.7998L11.25 17.7998L12.75 17.7998L12.75 14.7998L11.25 14.7998Z" fill="#4E7698"/>
<path d="M8.875 18.8L12 17L15.125 18.8" stroke="#4E7698" stroke-width="1.5" stroke-linecap="round" stroke-linejoin="round"/>
<path d="M6.375 5.2998H17.625V10.6998C17.625 12.3969 17.625 13.2454 17.0758 13.7726C16.5267 14.2998 15.6428 14.2998 13.875 14.2998H10.125C8.35723 14.2998 7.47335 14.2998 6.92417 13.7726C6.375 13.2454 6.375 12.3969 6.375 10.6998V5.2998Z" fill="#CCDFE3" stroke="#CCDFE3"/>
<path d="M5.75 5.2998H18.25" stroke="#4E7698" stroke-width="1.5" stroke-linecap="round" stroke-linejoin="round"/>
<path fill-rule="evenodd" clip-rule="evenodd" d="M21.3459 18.0256C21.5195 18.1991 21.5195 18.4805 21.3459 18.6541L20.0888 19.9112C19.9446 20.0554 19.7208 20.083 19.5459 19.978L17.9745 19.0352C17.8302 18.9486 17.7471 18.7879 17.7601 18.62L17.8914 16.9123C16.7495 16.5216 15.4314 16.3991 14.0682 16.8549L14.2456 18.6094C14.2629 18.7807 14.1797 18.9466 14.0321 19.0352L12.4607 19.978C12.2859 20.083 12.062 20.0554 11.9178 19.9112L10.6607 18.6541C10.4872 18.4805 10.4872 18.1991 10.6607 18.0256C11.5656 17.1207 12.4976 16.5139 13.4268 16.1436C15.2816 15.4043 17.0712 15.6259 18.5232 16.1978C19.7249 16.6712 20.7102 17.3899 21.3459 18.0256Z" fill="#22C57E" stroke="#22C57E" stroke-linecap="round" stroke-linejoin="round"/>
</svg>
