<svg width="24" height="24" viewBox="0 0 24 24" fill="none" xmlns="http://www.w3.org/2000/svg">
    <rect width="24" height="24" rx="8" fill="#F3F3F3"/>
    <path d="M15.5 7.75a3.5 3.5 0 1 1-7 0 3.5 3.5 0 0 1 7 0zM5 15.45v.925A2.625 2.625 0 0 0 7.625 19h8.75A2.625 2.625 0 0 0 19 16.375v-.925a2.625 2.625 0 0 0-2.625-2.625h-8.75A2.625 2.625 0 0 0 5 15.45z" fill="#FFC84D"/>
    <path fill-rule="evenodd" clip-rule="evenodd" d="M21.346 18.026a.444.444 0 0 1 0 .628l-1.257 1.257a.444.444 0 0 1-.543.067l-1.572-.943a.444.444 0 0 1-.214-.415l.131-1.708c-1.141-.39-2.46-.513-3.823-.057l.178 1.754a.445.445 0 0 1-.214.426l-1.571.943a.444.444 0 0 1-.543-.067l-1.257-1.257a.445.445 0 0 1 0-.628c.905-.905 1.837-1.512 2.766-1.882 1.855-.74 3.644-.518 5.096.054a8.514 8.514 0 0 1 2.823 1.828z" fill="#22C57E" stroke="#22C57E" stroke-linecap="round" stroke-linejoin="round"/>
</svg>
