<svg width="24" height="24" viewBox="0 0 24 24" fill="none" xmlns="http://www.w3.org/2000/svg">
<rect width="24" height="24" rx="8" fill="#F3F3F3"/>
<path d="M15.5 7.75C15.5 9.683 13.933 11.25 12 11.25C10.067 11.25 8.5 9.683 8.5 7.75C8.5 5.817 10.067 4.25 12 4.25C13.933 4.25 15.5 5.817 15.5 7.75Z" fill="#CBCBCB"/>
<path d="M5 15.45V16.375C5 17.8248 6.17525 19 7.625 19H16.375C17.8247 19 19 17.8248 19 16.375V15.45C19 14.0003 17.8247 12.825 16.375 12.825H7.625C6.17525 12.825 5 14.0003 5 15.45Z" fill="#CBCBCB"/>
<path fill-rule="evenodd" clip-rule="evenodd" d="M21.3459 18.0256C21.5195 18.1991 21.5195 18.4805 21.3459 18.6541L20.0888 19.9112C19.9446 20.0554 19.7208 20.083 19.5459 19.978L17.9745 19.0352C17.8302 18.9486 17.7471 18.7879 17.7601 18.62L17.8914 16.9123C16.7495 16.5216 15.4314 16.3991 14.0682 16.8549L14.2456 18.6094C14.2629 18.7807 14.1797 18.9466 14.0321 19.0352L12.4607 19.978C12.2859 20.083 12.062 20.0554 11.9178 19.9112L10.6607 18.6541C10.4872 18.4805 10.4872 18.1991 10.6607 18.0256C11.5656 17.1207 12.4976 16.5139 13.4268 16.1436C15.2816 15.4043 17.0712 15.6259 18.5232 16.1978C19.7249 16.6712 20.7102 17.3899 21.3459 18.0256Z" fill="#E32939" stroke="#E32939" stroke-linecap="round" stroke-linejoin="round"/>
</svg>
