<svg width="24" height="24" viewBox="0 0 24 24" fill="none" xmlns="http://www.w3.org/2000/svg">
<rect width="24" height="24" rx="8" fill="#F3F3F3"/>
<path d="M13.3265 12.6459H10.6718C10.4832 12.6459 10.2954 12.6239 10.112 12.5802L5.55469 11.4951V16.6737C5.55469 18.0084 6.63667 19.0904 7.97135 19.0904H16.0269C17.3616 19.0904 18.4436 18.0084 18.4436 16.6737V11.4951L13.8863 12.5802C13.7029 12.6239 13.515 12.6459 13.3265 12.6459Z" fill="#956759"/>
<path d="M4.75 10.1069V9.42361C4.75 8.53382 5.47132 7.8125 6.36111 7.8125H8.77778H15.2222H17.6389C18.5287 7.8125 19.25 8.53382 19.25 9.42361V10.1069C19.25 10.6807 18.9426 11.2104 18.4444 11.495L13.8871 12.5801C13.7037 12.6238 13.5159 12.6458 13.3274 12.6458H10.6726C10.4841 12.6458 10.2963 12.6238 10.1129 12.5801L5.55556 11.495C5.05742 11.2104 4.75 10.6807 4.75 10.1069Z" fill="#C3846C"/>
<path d="M8.77734 8.61686H15.2218C15.2218 7.28217 14.3201 6.2002 13.2079 6.2002H10.7912C9.67899 6.2002 8.77734 7.28217 8.77734 8.61686Z" stroke="#C3846C" stroke-width="1.5" stroke-linejoin="round"/>
<path fill-rule="evenodd" clip-rule="evenodd" d="M21.3459 18.0256C21.5195 18.1991 21.5195 18.4805 21.3459 18.6541L20.0888 19.9112C19.9446 20.0554 19.7208 20.083 19.5459 19.978L17.9745 19.0352C17.8302 18.9486 17.7471 18.7879 17.7601 18.62L17.8914 16.9123C16.7495 16.5216 15.4314 16.3991 14.0682 16.8549L14.2456 18.6094C14.2629 18.7807 14.1797 18.9466 14.0321 19.0352L12.4607 19.978C12.2859 20.083 12.062 20.0554 11.9178 19.9112L10.6607 18.6541C10.4872 18.4805 10.4872 18.1991 10.6607 18.0256C11.5656 17.1207 12.4976 16.5139 13.4268 16.1436C15.2816 15.4043 17.0712 15.6259 18.5232 16.1978C19.7249 16.6712 20.7102 17.3899 21.3459 18.0256Z" fill="#E32939" stroke="#E32939" stroke-linecap="round" stroke-linejoin="round"/>
</svg>
