<svg width="24" height="24" viewBox="0 0 24 24" fill="none" xmlns="http://www.w3.org/2000/svg">
<rect width="24" height="24" rx="8" fill="#F3F3F3"/>
<path d="M18.5 12C18.5 15.5899 15.5899 18.5 12 18.5C8.41015 18.5 5.5 15.5899 5.5 12C5.5 8.41015 8.41015 5.5 12 5.5C15.5899 5.5 18.5 8.41015 18.5 12Z" fill="white"/>
<path d="M12 8.38889V11.5536C12 11.8272 12.1546 12.0773 12.3992 12.1996L14.1667 13.0833M18.5 12C18.5 8.41015 15.5899 5.5 12 5.5C8.41015 5.5 5.5 8.41015 5.5 12C5.5 15.5899 8.41015 18.5 12 18.5C15.5899 18.5 18.5 15.5899 18.5 12Z" stroke="#3180F3" stroke-width="1.5" stroke-linecap="round" stroke-linejoin="round"/>
<path fill-rule="evenodd" clip-rule="evenodd" d="M21.3459 18.0256C21.5195 18.1991 21.5195 18.4805 21.3459 18.6541L20.0888 19.9112C19.9446 20.0554 19.7208 20.083 19.5459 19.978L17.9745 19.0352C17.8302 18.9486 17.7471 18.7879 17.7601 18.62L17.8914 16.9123C16.7495 16.5216 15.4314 16.3991 14.0682 16.8549L14.2456 18.6094C14.2629 18.7807 14.1797 18.9466 14.0321 19.0352L12.4607 19.978C12.2859 20.083 12.062 20.0554 11.9178 19.9112L10.6607 18.6541C10.4872 18.4805 10.4872 18.1991 10.6607 18.0256C11.5656 17.1207 12.4976 16.5139 13.4268 16.1436C15.2816 15.4043 17.0712 15.6259 18.5232 16.1978C19.7249 16.6712 20.7102 17.3899 21.3459 18.0256Z" fill="#8A94A0" stroke="#8A94A0" stroke-linecap="round" stroke-linejoin="round"/>
</svg>
