<svg width="24" height="24" viewBox="0 0 24 24" fill="none" xmlns="http://www.w3.org/2000/svg">
<rect width="24" height="24" rx="8" fill="#F3F3F3"/>
<path d="M8.07812 5.75L8.07812 9.22222M8.07813 18.25L8.07812 11.3056" stroke="#3180F3" stroke-width="1.5" stroke-linecap="round" stroke-linejoin="round"/>
<path d="M6.34375 9.22266H9.80529" stroke="#3180F3" stroke-width="1.5" stroke-linecap="round" stroke-linejoin="round"/>
<path d="M10.1538 5.75L10.1538 8.77239C10.1538 12.15 6 12.1499 6 8.77227L6 5.75" stroke="#3180F3" stroke-width="1.5" stroke-linecap="round" stroke-linejoin="round"/>
<path d="M18 8.78819C18 9.61426 17.0701 10.6111 15.9231 10.6111C14.776 10.6111 13.8462 9.61426 13.8462 8.78819C13.8462 7.57292 14.776 5.75 15.9231 5.75C17.0701 5.75 18 7.57292 18 8.78819Z" fill="#3180F3"/>
<path d="M15.9231 10.6111L15.9231 18.25M15.9231 10.6111C17.0701 10.6111 18 9.61426 18 8.78819C18 7.57292 17.0701 5.75 15.9231 5.75C14.776 5.75 13.8462 7.57292 13.8462 8.78819C13.8462 9.61426 14.776 10.6111 15.9231 10.6111Z" stroke="#3180F3" stroke-width="1.5" stroke-linecap="round"/>
<path fill-rule="evenodd" clip-rule="evenodd" d="M21.3459 18.0256C21.5195 18.1991 21.5195 18.4805 21.3459 18.6541L20.0888 19.9112C19.9446 20.0554 19.7208 20.083 19.5459 19.978L17.9745 19.0352C17.8302 18.9486 17.7471 18.7879 17.7601 18.62L17.8914 16.9123C16.7495 16.5216 15.4314 16.3991 14.0682 16.8549L14.2456 18.6094C14.2629 18.7807 14.1797 18.9466 14.0321 19.0352L12.4607 19.978C12.2859 20.083 12.062 20.0554 11.9178 19.9112L10.6607 18.6541C10.4872 18.4805 10.4872 18.1991 10.6607 18.0256C11.5656 17.1207 12.4976 16.5139 13.4268 16.1436C15.2816 15.4043 17.0712 15.6259 18.5232 16.1978C19.7249 16.6712 20.7102 17.3899 21.3459 18.0256Z" fill="#22C57E" stroke="#22C57E" stroke-linecap="round" stroke-linejoin="round"/>
</svg>
