<svg width="24" height="24" viewBox="0 0 24 24" fill="none" xmlns="http://www.w3.org/2000/svg">
<rect width="24" height="24" rx="8" fill="#F3F3F3"/>
<path d="M5.38539 11.3697L5.77119 15.9993C5.90076 17.5542 7.20056 18.7502 8.76083 18.7502H15.24C16.8003 18.7502 18.1001 17.5542 18.2297 15.9993L18.6155 11.3697C18.6997 10.3594 18.2679 9.3749 17.4677 8.75249L13.8423 5.93273C12.7589 5.09013 11.2419 5.09013 10.1586 5.93272L6.5332 8.75249C5.73295 9.3749 5.30119 10.3594 5.38539 11.3697Z" fill="#FFCCA8"/>
<path d="M19.5 11.25L16.2426 8.12661C14.2426 6.20887 13.2426 5.25 12 5.25C10.7574 5.25 9.75736 6.20887 7.75736 8.12661L4.5 11.25" stroke="#F77F00" stroke-width="1.5" stroke-linecap="round"/>
<path fill-rule="evenodd" clip-rule="evenodd" d="M21.3459 18.0256C21.5195 18.1991 21.5195 18.4805 21.3459 18.6541L20.0888 19.9112C19.9446 20.0554 19.7208 20.083 19.5459 19.978L17.9745 19.0352C17.8302 18.9486 17.7471 18.7879 17.7601 18.62L17.8914 16.9123C16.7495 16.5216 15.4314 16.3991 14.0682 16.8549L14.2456 18.6094C14.2629 18.7807 14.1797 18.9466 14.0321 19.0352L12.4607 19.978C12.2859 20.083 12.062 20.0554 11.9178 19.9112L10.6607 18.6541C10.4872 18.4805 10.4872 18.1991 10.6607 18.0256C11.5656 17.1207 12.4976 16.5139 13.4268 16.1436C15.2816 15.4043 17.0712 15.6259 18.5232 16.1978C19.7249 16.6712 20.7102 17.3899 21.3459 18.0256Z" fill="#22C57E" stroke="#22C57E" stroke-linecap="round" stroke-linejoin="round"/>
</svg>
