<svg width="90" height="18" viewBox="0 0 90 18" fill="none" xmlns="http://www.w3.org/2000/svg">
<path d="M5 1.5H13C14.933 1.5 16.5 3.067 16.5 5V13C16.5 14.933 14.933 16.5 13 16.5H5C3.067 16.5 1.5 14.933 1.5 13V5C1.5 3.067 3.067 1.5 5 1.5Z" fill="white" stroke="#CBD5E1"/>
<path d="M23 1.5H31C32.933 1.5 34.5 3.067 34.5 5V13C34.5 14.933 32.933 16.5 31 16.5H23C21.067 16.5 19.5 14.933 19.5 13V5C19.5 3.067 21.067 1.5 23 1.5Z" fill="white" stroke="#5587FC"/>
<path d="M30.7617 6.31268L25.3879 11.6865L23.2383 9.53699" stroke="#5587FC" stroke-width="1.5" stroke-linecap="round" stroke-linejoin="round"/>
<path d="M59 1.5H67C68.933 1.5 70.5 3.067 70.5 5V13C70.5 14.933 68.933 16.5 67 16.5H59C57.067 16.5 55.5 14.933 55.5 13V5C55.5 3.067 57.067 1.5 59 1.5Z" fill="#F1F5F9" stroke="#CBD5E1"/>
<path d="M77 1.5H85C86.933 1.5 88.5 3.067 88.5 5V13C88.5 14.933 86.933 16.5 85 16.5H77C75.067 16.5 73.5 14.933 73.5 13V5C73.5 3.067 75.067 1.5 77 1.5Z" fill="#F1F5F9" stroke="#CBD5E1"/>
<path d="M84.7617 6.31268L79.3879 11.6865L77.2383 9.53699" stroke="#CBD5E1" stroke-width="1.5" stroke-linecap="round" stroke-linejoin="round"/>
</svg>
