<svg width="30" height="30" viewBox="0 0 30 30" fill="none" xmlns="http://www.w3.org/2000/svg">
<path d="M22.7658 2.71631C24.5509 2.71631 25.9995 4.16516 25.9997 5.95025V24.0534C25.9984 25.8376 24.5503 27.2854 22.7658 27.2854H8.54298C6.75868 27.2852 5.31224 25.8374 5.31097 24.0534V23.5093H6.97811C7.33452 23.5093 7.62347 23.219 7.62451 22.8628C7.62451 22.5058 7.33517 22.2164 6.97811 22.2164H4.3925C4.03576 22.2164 3.74661 21.9267 3.74609 21.57C3.74609 21.213 4.03544 20.9236 4.3925 20.9236H5.31097V18.9478H6.97811C7.33484 18.9478 7.62399 18.658 7.62451 18.3014C7.62451 17.9443 7.33517 17.655 6.97811 17.655H4.3925C4.03544 17.655 3.74609 17.3656 3.74609 17.0086C3.74609 16.6515 4.03544 16.3622 4.3925 16.3622H5.31097V14.3882H6.97811C7.33452 14.3882 7.62347 14.098 7.62451 13.7418C7.62451 13.3848 7.33517 13.0954 6.97811 13.0954H4.3925C4.03576 13.0954 3.74661 12.8056 3.74609 12.449C3.74609 12.092 4.03544 11.8026 4.3925 11.8026H5.31097V9.82674H6.97811C7.33484 9.82674 7.62399 9.53695 7.62451 9.18034C7.62451 8.8265 7.34036 8.5391 6.98776 8.53393C6.98454 8.53398 6.98133 8.53586 6.97811 8.53586H4.3925C4.03576 8.53586 3.74661 8.24607 3.74609 7.88946C3.74609 7.5324 4.03544 7.24306 4.3925 7.24306H5.31097V5.95025C5.3112 4.1653 6.75803 2.71654 8.54298 2.71631H22.7658ZM16.1898 14.9285C14.2334 14.9288 12.9357 15.7478 12.1069 16.8137C11.2987 17.8543 10.9559 19.1017 10.8083 19.9666C10.6415 20.9522 11.448 21.7029 12.3404 21.7032H20.0412C20.9332 21.7024 21.7399 20.9518 21.5733 19.9666C21.4257 19.1018 21.0827 17.8543 20.2747 16.8137C19.4458 15.7477 18.1466 14.9287 16.1898 14.9285ZM16.1879 7.98401C14.5969 7.98412 13.3072 9.27573 13.3071 10.8668C13.3086 12.4566 14.5978 13.7475 16.1879 13.7476C17.7781 13.7476 19.0672 12.4566 19.0687 10.8668C19.0686 9.27566 17.779 7.98401 16.1879 7.98401Z" fill="#64748B"/>
</svg>
