<svg width="20" height="20" viewBox="0 0 20 20" fill="none" xmlns="http://www.w3.org/2000/svg">
<path d="M15.5 6.5H14.5C14.224 6.5 14 6.724 14 7C14 7.276 14.224 7.5 14.5 7.5H15.5C15.776 7.5 16 7.276 16 7C16 6.724 15.776 6.5 15.5 6.5Z" fill="#50A013"/>
<path d="M15.5 8.5H14.5C14.224 8.5 14 8.724 14 9C14 9.276 14.224 9.5 14.5 9.5H15.5C15.776 9.5 16 9.276 16 9C16 8.724 15.776 8.5 15.5 8.5Z" fill="#50A013"/>
<path fill-rule="evenodd" clip-rule="evenodd" d="M10.8879 5.11219H16.6651C16.9104 5.11219 17.1095 5.31128 17.1095 5.55659V10.2964C16.8259 10.1877 16.5286 10.107 16.2207 10.0574V6.001H10.8879V6.8898H12.2211C12.4664 6.8898 12.6655 7.08889 12.6655 7.3342C12.6655 7.57951 12.4664 7.7786 12.2211 7.7786H10.8879V8.66741H12.2211C12.4664 8.66741 12.6655 8.8665 12.6655 9.11181C12.6655 9.35712 12.4664 9.55621 12.2211 9.55621H10.8879V10.445H12.2211C12.4664 10.445 12.6655 10.6441 12.6655 10.8894C12.6655 10.9352 12.6586 10.9793 12.6457 11.0209C12.5293 11.1165 12.4177 11.2179 12.3114 11.3246C12.2823 11.3307 12.2521 11.3338 12.2211 11.3338H10.8879V12.2226H11.618C11.4543 12.5011 11.3196 12.7988 11.2183 13.1114H10.8879V14.0002H11.0274C11.0093 14.1643 11 14.3311 11 14.5C11 14.6311 11.0056 14.7608 11.0166 14.889H10.8879V16.2222C10.8879 16.3538 10.8292 16.48 10.727 16.5644C10.647 16.6311 10.5466 16.6666 10.4435 16.6666C10.416 16.6666 10.3884 16.664 10.3617 16.6586L3.2513 15.3254C3.04066 15.2863 2.88867 15.1023 2.88867 14.889V5.11219C2.88867 4.89799 3.04066 4.7149 3.2513 4.67579L10.3617 3.34258C10.4897 3.31592 10.6257 3.35236 10.727 3.4368C10.8292 3.52123 10.8879 3.64655 10.8879 3.77899V5.11219ZM8.95831 12.1124C9.14319 11.9506 9.16185 11.6698 9.00009 11.4858L7.59489 9.87974L9.01697 8.05235C9.16807 7.85771 9.13341 7.57862 8.93965 7.42841C8.74589 7.27732 8.4668 7.31287 8.31571 7.50574L6.99939 9.19802L5.89016 7.93059C5.72662 7.74483 5.44665 7.72705 5.26267 7.88881C5.0778 8.05058 5.05913 8.33144 5.22089 8.51542L6.443 9.91262L5.20401 11.5054C5.0538 11.6991 5.08846 11.9782 5.28222 12.1293C5.36399 12.1924 5.45998 12.2226 5.55508 12.2226C5.68663 12.2226 5.81817 12.164 5.90616 12.052L7.03939 10.5943L8.33171 12.0706C8.4197 12.1711 8.54235 12.2226 8.6659 12.2226C8.76989 12.2226 8.87388 12.1862 8.95831 12.1124Z" fill="#50A013"/>
<path d="M17.9395 13.6119L16.1375 11.8099C15.9684 11.6414 15.7395 11.5469 15.5008 11.5469C15.2621 11.5469 15.0332 11.6414 14.8641 11.8099L13.0621 13.6119C12.903 13.7826 12.8163 14.0086 12.8205 14.242C12.8246 14.4754 12.9191 14.6981 13.0842 14.8632C13.2493 15.0282 13.472 15.1228 13.7054 15.1269C13.9388 15.131 14.1647 15.0444 14.3355 14.8852L14.5998 14.6222V17.2518C14.5998 17.4908 14.6947 17.72 14.8637 17.8889C15.0327 18.0579 15.2618 18.1528 15.5008 18.1528C15.7398 18.1528 15.9689 18.0579 16.1379 17.8889C16.3069 17.72 16.4018 17.4908 16.4018 17.2518V14.6222L16.6661 14.8852C16.8369 15.0444 17.0628 15.131 17.2962 15.1269C17.5296 15.1228 17.7523 15.0282 17.9174 14.8632C18.0825 14.6981 18.177 14.4754 18.1812 14.242C18.1853 14.0086 18.0986 13.7826 17.9395 13.6119Z" fill="#FE6D34"/>
</svg>
