<svg width="16" height="16" viewBox="0 0 16 16" fill="none" xmlns="http://www.w3.org/2000/svg">
<path d="M12.9707 7.85282C12.9416 7.78254 12.8923 7.72248 12.8291 7.68021C12.7658 7.63795 12.6915 7.61539 12.6154 7.61539H10.6923V3.76922C10.6921 3.56528 10.611 3.36976 10.4668 3.22555C10.3226 3.08134 10.127 3.00022 9.92309 2.99999H6.07693C5.87298 3.00022 5.67746 3.08134 5.53325 3.22555C5.38904 3.36976 5.30793 3.56528 5.30769 3.76922V7.61539H3.38461C3.30854 7.6154 3.23418 7.63796 3.17094 7.68022C3.10769 7.72249 3.05839 7.78256 3.02928 7.85284C3.00017 7.92311 2.99255 8.00044 3.00739 8.07505C3.02222 8.14966 3.05884 8.21819 3.11263 8.27199L7.72803 12.8874C7.80018 12.9595 7.89801 13 8.00001 13C8.10201 13 8.19984 12.9595 8.27199 12.8874L12.8874 8.27199C12.9412 8.21819 12.9778 8.14965 12.9926 8.07504C13.0075 8.00043 12.9998 7.9231 12.9707 7.85282Z" fill="#00A4F0"/>
</svg>
