<svg width="16" height="16" viewBox="0 0 16 16" fill="none" xmlns="http://www.w3.org/2000/svg">
<path d="M10.9816 2.72078C11.5791 2.09493 12.6795 2.09479 13.2768 2.72078C13.6862 3.1221 13.8508 3.75356 13.6927 4.30392C13.6188 4.57155 13.4721 4.82139 13.2768 5.01592C12.2821 6.01041 11.2871 7.0051 10.2925 7.99959L13.2768 10.9839C13.9027 11.5819 13.9027 12.6814 13.2768 13.2797C12.6792 13.9051 11.5796 13.9055 10.9816 13.2797C9.98693 12.2848 8.99205 11.2896 7.99734 10.2947C7.00286 11.2894 6.00821 12.2843 5.01368 13.279C4.41635 13.905 3.31598 13.9049 2.71856 13.279C2.09251 12.6817 2.09255 11.5812 2.71856 10.9839C3.71306 9.98921 4.70772 8.99428 5.70222 7.99959L2.71856 5.01592C2.09252 4.41855 2.09251 3.3182 2.71856 2.72078C3.31601 2.09504 4.4163 2.09478 5.01368 2.72078L7.99734 5.70446L10.9816 2.72078Z" fill="#FC4F4F"/>
</svg>
