<svg width="20" height="20" viewBox="0 0 20 20" fill="none" xmlns="http://www.w3.org/2000/svg">
<path d="M5.8335 8.33339H14.1668V6.15209C14.1668 5.04702 13.7278 3.98721 12.9464 3.20581C11.802 2.06142 10.7307 1.98429 10.0002 1.98511C8.89509 1.98511 7.83529 2.4241 7.05388 3.2055C6.27248 3.9869 5.8335 5.04671 5.8335 6.15178V8.33339Z" stroke="#2968F9" stroke-linecap="round" stroke-linejoin="round"/>
<path d="M15.8332 9.16659V11.4249C15.8571 12.9722 15.2814 14.4688 14.2267 15.6012C13.1719 16.7336 11.72 17.414 10.1748 17.4999C9.39419 17.5233 8.61679 17.3898 7.88874 17.1071C7.16068 16.8245 6.4968 16.3985 5.93645 15.8545C5.3761 15.3105 4.9307 14.6595 4.62667 13.9401C4.32263 13.2207 4.16615 12.4476 4.1665 11.6666V9.16659C4.1665 8.94557 4.2543 8.73361 4.41058 8.57733C4.56686 8.42105 4.77882 8.33325 4.99984 8.33325H14.9998C15.2209 8.33325 15.4328 8.42105 15.5891 8.57733C15.7454 8.73361 15.8332 8.94557 15.8332 9.16659ZM9.99984 14.5833V13.3333V14.5833Z" fill="#E6EDFE"/>
<path d="M9.99984 14.5833V13.3333M15.8332 9.16659V11.4249C15.8571 12.9722 15.2814 14.4688 14.2267 15.6012C13.1719 16.7336 11.72 17.414 10.1748 17.4999C9.39419 17.5233 8.61679 17.3898 7.88874 17.1071C7.16068 16.8245 6.4968 16.3985 5.93645 15.8545C5.3761 15.3105 4.9307 14.6595 4.62667 13.9401C4.32263 13.2207 4.16615 12.4476 4.1665 11.6666V9.16659C4.1665 8.94557 4.2543 8.73361 4.41058 8.57733C4.56686 8.42105 4.77882 8.33325 4.99984 8.33325H14.9998C15.2209 8.33325 15.4328 8.42105 15.5891 8.57733C15.7454 8.73361 15.8332 8.94557 15.8332 9.16659Z" stroke="#2968F9" stroke-linecap="round" stroke-linejoin="round"/>
<path d="M9.99414 12.5H10.2383H9.73828" stroke="#2968F9" stroke-width="2.5" stroke-linecap="round" stroke-linejoin="round"/>
</svg>
