<svg width="16" height="16" viewBox="0 0 16 16" fill="none" xmlns="http://www.w3.org/2000/svg">
<path d="M12.5452 4.51581H11.6296C11.377 4.51581 11.1719 4.72089 11.1719 4.97357C11.1719 5.22626 11.377 5.43134 11.6296 5.43134H12.5452C12.7979 5.43134 13.0029 5.22626 13.0029 4.97357C13.0029 4.72089 12.7979 4.51581 12.5452 4.51581Z" fill="#50A013"/>
<path d="M12.5452 6.34686H11.6296C11.377 6.34686 11.1719 6.55194 11.1719 6.80463C11.1719 7.05732 11.377 7.2624 11.6296 7.2624H12.5452C12.7979 7.2624 13.0029 7.05732 13.0029 6.80463C13.0029 6.55194 12.7979 6.34686 12.5452 6.34686Z" fill="#50A013"/>
<path d="M7.8418 1.62528C7.95897 1.60087 8.08399 1.63391 8.17676 1.71122C8.27023 1.78848 8.32319 1.90356 8.32324 2.0247V3.2454H13.6133C13.8377 3.24566 14.0195 3.4282 14.0195 3.65262V7.43387C13.7569 7.37536 13.485 7.34194 13.2061 7.33622V4.05887H8.32324V4.87333H9.54395C9.76846 4.87333 9.95105 5.05509 9.95117 5.27958C9.95117 5.50417 9.76853 5.6868 9.54395 5.6868H8.32324V6.50028H9.54395C9.76853 6.50028 9.95117 6.68292 9.95117 6.90751C9.95104 7.13198 9.76845 7.31376 9.54395 7.31376H8.32324V8.12821H9.54395C9.76845 8.12821 9.95103 8.30999 9.95117 8.53446C9.95117 8.75905 9.76853 8.94169 9.54395 8.94169H8.32324V9.75516H9.36719C9.25012 10.0133 9.15875 10.2853 9.09668 10.5686H8.32324V11.3831H9.00195C9.00155 11.4067 9 11.4306 9 11.4544C9.00001 11.7079 9.02451 11.9557 9.06836 12.1966H8.32324V13.4173C8.32319 13.5376 8.27023 13.6535 8.17676 13.7308C8.1036 13.7917 8.01128 13.8235 7.91699 13.8235C7.89177 13.8235 7.86621 13.8216 7.8418 13.8167L1.33203 12.596C1.1392 12.5602 1.00004 12.3918 1 12.1966V3.2454C1.00004 3.04932 1.1392 2.88178 1.33203 2.84598L7.8418 1.62528ZM6.54004 5.36649C6.36267 5.22818 6.1071 5.2603 5.96875 5.4368L4.76367 6.98661L3.74805 5.82548C3.59839 5.65564 3.34223 5.63961 3.17383 5.78739C3.00458 5.93548 2.98669 6.19317 3.13477 6.36161L4.25391 7.64091L3.12012 9.09891C2.9826 9.27631 3.01402 9.53187 3.19141 9.6702C3.26623 9.72788 3.35441 9.75516 3.44141 9.75516C3.56177 9.7551 3.68218 9.70138 3.7627 9.59891L4.7998 8.26493L5.9834 9.61649C6.0639 9.70823 6.17612 9.75511 6.28906 9.75516C6.38416 9.75516 6.47938 9.72196 6.55664 9.65458C6.7259 9.50648 6.74283 9.2488 6.59473 9.08036L5.30859 7.61063L6.61035 5.9368C6.74847 5.75871 6.7171 5.50403 6.54004 5.36649Z" fill="#50A013"/>
<path d="M14.7786 10.2256L13.1288 8.57581C12.974 8.4216 12.7644 8.33502 12.5459 8.33502C12.3274 8.33502 12.1178 8.4216 11.963 8.57581L10.3132 10.2256C10.1675 10.3819 10.0882 10.5888 10.0919 10.8025C10.0957 11.0162 10.1823 11.2201 10.3334 11.3712C10.4845 11.5223 10.6884 11.6089 10.9021 11.6127C11.1158 11.6164 11.3227 11.5371 11.479 11.3914L11.721 11.1505V13.5581C11.721 13.7769 11.8079 13.9867 11.9626 14.1414C12.1173 14.2961 12.3271 14.383 12.5459 14.383C12.7646 14.383 12.9745 14.2961 13.1292 14.1414C13.2839 13.9867 13.3708 13.7769 13.3708 13.5581V11.1505L13.6127 11.3914C13.7691 11.5371 13.9759 11.6164 14.1896 11.6127C14.4033 11.6089 14.6072 11.5223 14.7583 11.3712C14.9095 11.2201 14.996 11.0162 14.9998 10.8025C15.0036 10.5888 14.9243 10.3819 14.7786 10.2256Z" fill="#FE6D34"/>
</svg>
