<svg width="80" height="16" viewBox="0 0 80 16" fill="none" xmlns="http://www.w3.org/2000/svg">
<g clip-path="url(#clip0_944_20137)">
<path fill-rule="evenodd" clip-rule="evenodd" d="M5.99999 2.8999C6.60751 2.8999 7.09999 3.39239 7.09999 3.9999V4.0999C7.09999 4.70742 6.60751 5.1999 5.99999 5.1999C5.39248 5.1999 4.89999 4.70742 4.89999 4.0999V3.9999C4.89999 3.39239 5.39248 2.8999 5.99999 2.8999Z" fill="#64748B"/>
<path fill-rule="evenodd" clip-rule="evenodd" d="M9.99999 2.8999C10.6075 2.8999 11.1 3.39239 11.1 3.9999V4.0999C11.1 4.70742 10.6075 5.1999 9.99999 5.1999C9.39248 5.1999 8.89999 4.70742 8.89999 4.0999V3.9999C8.89999 3.39239 9.39248 2.8999 9.99999 2.8999Z" fill="#64748B"/>
<path fill-rule="evenodd" clip-rule="evenodd" d="M5.99999 7C6.60751 7 7.09999 7.49249 7.09999 8.1V8.2C7.09999 8.80751 6.60751 9.3 5.99999 9.3C5.39248 9.3 4.89999 8.80751 4.89999 8.2V8.1C4.89999 7.49249 5.39248 7 5.99999 7Z" fill="#64748B"/>
<path fill-rule="evenodd" clip-rule="evenodd" d="M9.99999 7C10.6075 7 11.1 7.49249 11.1 8.1V8.2C11.1 8.80751 10.6075 9.3 9.99999 9.3C9.39248 9.3 8.89999 8.80751 8.89999 8.2V8.1C8.89999 7.49249 9.39248 7 9.99999 7Z" fill="#64748B"/>
<path fill-rule="evenodd" clip-rule="evenodd" d="M5.99999 11.1001C6.60751 11.1001 7.09999 11.5926 7.09999 12.2001V12.3001C7.09999 12.9076 6.60751 13.4001 5.99999 13.4001C5.39248 13.4001 4.89999 12.9076 4.89999 12.3001V12.2001C4.89999 11.5926 5.39248 11.1001 5.99999 11.1001Z" fill="#64748B"/>
<path fill-rule="evenodd" clip-rule="evenodd" d="M9.99999 11.1001C10.6075 11.1001 11.1 11.5926 11.1 12.2001V12.3001C11.1 12.9076 10.6075 13.4001 9.99999 13.4001C9.39248 13.4001 8.89999 12.9076 8.89999 12.3001V12.2001C8.89999 11.5926 9.39248 11.1001 9.99999 11.1001Z" fill="#64748B"/>
</g>
<g clip-path="url(#clip1_944_20137)">
<path fill-rule="evenodd" clip-rule="evenodd" d="M22 2.8999C22.6075 2.8999 23.1 3.39239 23.1 3.9999V4.0999C23.1 4.70742 22.6075 5.1999 22 5.1999C21.3925 5.1999 20.9 4.70742 20.9 4.0999V3.9999C20.9 3.39239 21.3925 2.8999 22 2.8999Z" fill="#CBD5E1"/>
<path fill-rule="evenodd" clip-rule="evenodd" d="M26 2.8999C26.6075 2.8999 27.1 3.39239 27.1 3.9999V4.0999C27.1 4.70742 26.6075 5.1999 26 5.1999C25.3925 5.1999 24.9 4.70742 24.9 4.0999V3.9999C24.9 3.39239 25.3925 2.8999 26 2.8999Z" fill="#CBD5E1"/>
<path fill-rule="evenodd" clip-rule="evenodd" d="M22 7C22.6075 7 23.1 7.49249 23.1 8.1V8.2C23.1 8.80751 22.6075 9.3 22 9.3C21.3925 9.3 20.9 8.80751 20.9 8.2V8.1C20.9 7.49249 21.3925 7 22 7Z" fill="#CBD5E1"/>
<path fill-rule="evenodd" clip-rule="evenodd" d="M26 7C26.6075 7 27.1 7.49249 27.1 8.1V8.2C27.1 8.80751 26.6075 9.3 26 9.3C25.3925 9.3 24.9 8.80751 24.9 8.2V8.1C24.9 7.49249 25.3925 7 26 7Z" fill="#CBD5E1"/>
<path fill-rule="evenodd" clip-rule="evenodd" d="M22 11.1001C22.6075 11.1001 23.1 11.5926 23.1 12.2001V12.3001C23.1 12.9076 22.6075 13.4001 22 13.4001C21.3925 13.4001 20.9 12.9076 20.9 12.3001V12.2001C20.9 11.5926 21.3925 11.1001 22 11.1001Z" fill="#CBD5E1"/>
<path fill-rule="evenodd" clip-rule="evenodd" d="M26 11.1001C26.6075 11.1001 27.1 11.5926 27.1 12.2001V12.3001C27.1 12.9076 26.6075 13.4001 26 13.4001C25.3925 13.4001 24.9 12.9076 24.9 12.3001V12.2001C24.9 11.5926 25.3925 11.1001 26 11.1001Z" fill="#CBD5E1"/>
</g>
<g clip-path="url(#clip2_944_20137)">
<path fill-rule="evenodd" clip-rule="evenodd" d="M38 2.8999C38.6075 2.8999 39.1 3.39239 39.1 3.9999V4.0999C39.1 4.70742 38.6075 5.1999 38 5.1999C37.3925 5.1999 36.9 4.70742 36.9 4.0999V3.9999C36.9 3.39239 37.3925 2.8999 38 2.8999Z" fill="#2968F9"/>
<path fill-rule="evenodd" clip-rule="evenodd" d="M42 2.8999C42.6075 2.8999 43.1 3.39239 43.1 3.9999V4.0999C43.1 4.70742 42.6075 5.1999 42 5.1999C41.3925 5.1999 40.9 4.70742 40.9 4.0999V3.9999C40.9 3.39239 41.3925 2.8999 42 2.8999Z" fill="#2968F9"/>
<path fill-rule="evenodd" clip-rule="evenodd" d="M38 7C38.6075 7 39.1 7.49249 39.1 8.1V8.2C39.1 8.80751 38.6075 9.3 38 9.3C37.3925 9.3 36.9 8.80751 36.9 8.2V8.1C36.9 7.49249 37.3925 7 38 7Z" fill="#2968F9"/>
<path fill-rule="evenodd" clip-rule="evenodd" d="M42 7C42.6075 7 43.1 7.49249 43.1 8.1V8.2C43.1 8.80751 42.6075 9.3 42 9.3C41.3925 9.3 40.9 8.80751 40.9 8.2V8.1C40.9 7.49249 41.3925 7 42 7Z" fill="#2968F9"/>
<path fill-rule="evenodd" clip-rule="evenodd" d="M38 11.1001C38.6075 11.1001 39.1 11.5926 39.1 12.2001V12.3001C39.1 12.9076 38.6075 13.4001 38 13.4001C37.3925 13.4001 36.9 12.9076 36.9 12.3001V12.2001C36.9 11.5926 37.3925 11.1001 38 11.1001Z" fill="#2968F9"/>
<path fill-rule="evenodd" clip-rule="evenodd" d="M42 11.1001C42.6075 11.1001 43.1 11.5926 43.1 12.2001V12.3001C43.1 12.9076 42.6075 13.4001 42 13.4001C41.3925 13.4001 40.9 12.9076 40.9 12.3001V12.2001C40.9 11.5926 41.3925 11.1001 42 11.1001Z" fill="#2968F9"/>
</g>
<g clip-path="url(#clip3_944_20137)">
<path fill-rule="evenodd" clip-rule="evenodd" d="M54 2.8999C54.6075 2.8999 55.1 3.39239 55.1 3.9999V4.0999C55.1 4.70742 54.6075 5.1999 54 5.1999C53.3925 5.1999 52.9 4.70742 52.9 4.0999V3.9999C52.9 3.39239 53.3925 2.8999 54 2.8999Z" fill="white"/>
<path fill-rule="evenodd" clip-rule="evenodd" d="M58 2.8999C58.6075 2.8999 59.1 3.39239 59.1 3.9999V4.0999C59.1 4.70742 58.6075 5.1999 58 5.1999C57.3925 5.1999 56.9 4.70742 56.9 4.0999V3.9999C56.9 3.39239 57.3925 2.8999 58 2.8999Z" fill="white"/>
<path fill-rule="evenodd" clip-rule="evenodd" d="M54 7C54.6075 7 55.1 7.49249 55.1 8.1V8.2C55.1 8.80751 54.6075 9.3 54 9.3C53.3925 9.3 52.9 8.80751 52.9 8.2V8.1C52.9 7.49249 53.3925 7 54 7Z" fill="white"/>
<path fill-rule="evenodd" clip-rule="evenodd" d="M58 7C58.6075 7 59.1 7.49249 59.1 8.1V8.2C59.1 8.80751 58.6075 9.3 58 9.3C57.3925 9.3 56.9 8.80751 56.9 8.2V8.1C56.9 7.49249 57.3925 7 58 7Z" fill="white"/>
<path fill-rule="evenodd" clip-rule="evenodd" d="M54 11.1001C54.6075 11.1001 55.1 11.5926 55.1 12.2001V12.3001C55.1 12.9076 54.6075 13.4001 54 13.4001C53.3925 13.4001 52.9 12.9076 52.9 12.3001V12.2001C52.9 11.5926 53.3925 11.1001 54 11.1001Z" fill="white"/>
<path fill-rule="evenodd" clip-rule="evenodd" d="M58 11.1001C58.6075 11.1001 59.1 11.5926 59.1 12.2001V12.3001C59.1 12.9076 58.6075 13.4001 58 13.4001C57.3925 13.4001 56.9 12.9076 56.9 12.3001V12.2001C56.9 11.5926 57.3925 11.1001 58 11.1001Z" fill="white"/>
</g>
<defs>
<clipPath id="clip0_944_20137">
<rect width="16" height="16" fill="white"/>
</clipPath>
<clipPath id="clip1_944_20137">
<rect width="16" height="16" fill="white" transform="translate(16)"/>
</clipPath>
<clipPath id="clip2_944_20137">
<rect width="16" height="16" fill="white" transform="translate(32)"/>
</clipPath>
<clipPath id="clip3_944_20137">
<rect width="16" height="16" fill="white" transform="translate(48)"/>
</clipPath>
</defs>
</svg>
