<svg width="80" height="16" viewBox="0 0 80 16" fill="none" xmlns="http://www.w3.org/2000/svg">
<g clip-path="url(#clip0_2894_63870)">
<path fill-rule="evenodd" clip-rule="evenodd" d="M2.3998 15.2C1.64556 15.2 1.26844 15.2 1.03412 14.9657C0.799805 14.7313 0.799805 14.3542 0.799805 13.6V4.0029C0.799805 2.49303 0.799805 1.7381 1.26844 1.26904C1.73706 0.799988 2.49131 0.799988 3.9998 0.799988H6.05545C7.56395 0.799988 8.3182 0.799988 8.78684 1.26904C9.25548 1.7381 9.25548 2.49303 9.25548 4.00289V6.59071H11.9998C13.5083 6.59071 14.2625 6.59071 14.7312 7.05976C15.1998 7.52882 15.1998 8.28375 15.1998 9.79359V13.6C15.1998 14.3542 15.1998 14.7313 14.9655 14.9657C14.7312 15.2 14.354 15.2 13.5998 15.2H2.3998ZM2.91765 4.50616C2.82392 4.59997 2.82392 4.75096 2.82392 5.05292V5.37322C2.82392 5.67519 2.82392 5.82618 2.91765 5.91999C3.01138 6.0138 3.16223 6.0138 3.46392 6.0138H3.78392C4.08563 6.0138 4.23648 6.0138 4.3302 5.91999C4.42392 5.82618 4.42392 5.67519 4.42392 5.37322V5.05292C4.42392 4.75096 4.42392 4.59997 4.3302 4.50616C4.23648 4.41235 4.08563 4.41235 3.78392 4.41235H3.46392C3.16223 4.41235 3.01138 4.41235 2.91765 4.50616ZM2.91765 7.29296C2.82392 7.38677 2.82392 7.53776 2.82392 7.83973V8.15999C2.82392 8.46199 2.82392 8.61295 2.91765 8.70679C3.01138 8.80063 3.16223 8.80063 3.46392 8.80063H3.78392C4.08563 8.80063 4.23648 8.80063 4.3302 8.70679C4.42392 8.61295 4.42392 8.46199 4.42392 8.15999V7.83973C4.42392 7.53776 4.42392 7.38677 4.3302 7.29296C4.23648 7.19916 4.08563 7.19915 3.78392 7.19915H3.46392C3.16223 7.19915 3.01138 7.19916 2.91765 7.29296ZM2.82392 10.6265C2.82392 10.3245 2.82392 10.1736 2.91765 10.0797C3.01138 9.98599 3.16223 9.98599 3.46392 9.98599H3.78392C4.08563 9.98599 4.23648 9.98599 4.3302 10.0797C4.42392 10.1736 4.42392 10.3245 4.42392 10.6265V10.9469C4.42392 11.2488 4.42392 11.3998 4.3302 11.4936C4.23648 11.5874 4.08563 11.5874 3.78392 11.5874H3.46392C3.16223 11.5874 3.01138 11.5874 2.91765 11.4936C2.82392 11.3998 2.82392 11.2488 2.82392 10.9469V10.6265ZM5.66765 4.50616C5.57392 4.59997 5.57392 4.75096 5.57392 5.05292V5.37322C5.57392 5.67519 5.57392 5.82618 5.66765 5.91999C5.76138 6.0138 5.91223 6.0138 6.21392 6.0138H6.53392C6.83563 6.0138 6.98648 6.0138 7.0802 5.91999C7.17392 5.82618 7.17392 5.67519 7.17392 5.37322V5.05292C7.17392 4.75096 7.17392 4.59997 7.0802 4.50616C6.98648 4.41235 6.83563 4.41235 6.53392 4.41235H6.21392C5.91223 4.41235 5.76138 4.41235 5.66765 4.50616ZM5.57392 7.83973C5.57392 7.53776 5.57392 7.38677 5.66765 7.29296C5.76138 7.19916 5.91223 7.19915 6.21392 7.19915H6.53392C6.83563 7.19915 6.98648 7.19916 7.0802 7.29296C7.17392 7.38677 7.17392 7.53776 7.17392 7.83973V8.15999C7.17392 8.46199 7.17392 8.61295 7.0802 8.70679C6.98648 8.80063 6.83563 8.80063 6.53392 8.80063H6.21392C5.91223 8.80063 5.76138 8.80063 5.66765 8.70679C5.57392 8.61295 5.57392 8.46199 5.57392 8.15999V7.83973ZM11.0932 8.54423C10.9994 8.63799 10.9994 8.78903 10.9994 9.09095V9.41127C10.9994 9.71327 10.9994 9.86423 11.0932 9.95799C11.1868 10.0518 11.3377 10.0518 11.6394 10.0518H11.9594C12.2611 10.0518 12.412 10.0518 12.5057 9.95799C12.5994 9.86423 12.5994 9.71327 12.5994 9.41127V9.09095C12.5994 8.78903 12.5994 8.63799 12.5057 8.54423C12.412 8.45039 12.2611 8.45039 11.9594 8.45039H11.6394C11.3377 8.45039 11.1868 8.45039 11.0932 8.54423ZM5.57392 10.6265C5.57392 10.3245 5.57392 10.1736 5.66765 10.0797C5.76138 9.98599 5.91223 9.98599 6.21392 9.98599H6.53392C6.83563 9.98599 6.98648 9.98599 7.0802 10.0797C7.17392 10.1736 7.17392 10.3245 7.17392 10.6265V10.9469C7.17392 11.2488 7.17392 11.3998 7.0802 11.4936C6.98648 11.5874 6.83563 11.5874 6.53392 11.5874H6.21392C5.91223 11.5874 5.76138 11.5874 5.66765 11.4936C5.57392 11.3998 5.57392 11.2488 5.57392 10.9469V10.6265ZM11.0932 11.3311C10.9994 11.4249 10.9994 11.5759 10.9994 11.8779V12.1981C10.9994 12.5001 10.9994 12.6511 11.0932 12.7449C11.1868 12.8387 11.3377 12.8387 11.6394 12.8387H11.9594C12.2611 12.8387 12.412 12.8387 12.5057 12.7449C12.5994 12.6511 12.5994 12.5001 12.5994 12.1981V11.8779C12.5994 11.5759 12.5994 11.4249 12.5057 11.3311C12.412 11.2373 12.2611 11.2373 11.9594 11.2373H11.6394C11.3377 11.2373 11.1868 11.2373 11.0932 11.3311Z" fill="#64748B"/>
</g>
<g clip-path="url(#clip1_2894_63870)">
<path fill-rule="evenodd" clip-rule="evenodd" d="M18.3998 15.2C17.6456 15.2 17.2684 15.2 17.0341 14.9657C16.7998 14.7313 16.7998 14.3542 16.7998 13.6V4.0029C16.7998 2.49303 16.7998 1.7381 17.2684 1.26904C17.7371 0.799988 18.4913 0.799988 19.9998 0.799988H22.0555C23.5639 0.799988 24.3182 0.799988 24.7868 1.26904C25.2555 1.7381 25.2555 2.49303 25.2555 4.00289V6.59071H27.9998C29.5083 6.59071 30.2625 6.59071 30.7312 7.05976C31.1998 7.52882 31.1998 8.28375 31.1998 9.79359V13.6C31.1998 14.3542 31.1998 14.7313 30.9655 14.9657C30.7312 15.2 30.354 15.2 29.5998 15.2H18.3998ZM18.9177 4.50616C18.8239 4.59997 18.8239 4.75096 18.8239 5.05292V5.37322C18.8239 5.67519 18.8239 5.82618 18.9177 5.91999C19.0114 6.0138 19.1622 6.0138 19.4639 6.0138H19.7839C20.0856 6.0138 20.2365 6.0138 20.3302 5.91999C20.4239 5.82618 20.4239 5.67519 20.4239 5.37322V5.05292C20.4239 4.75096 20.4239 4.59997 20.3302 4.50616C20.2365 4.41235 20.0856 4.41235 19.7839 4.41235H19.4639C19.1622 4.41235 19.0114 4.41235 18.9177 4.50616ZM18.9177 7.29296C18.8239 7.38677 18.8239 7.53776 18.8239 7.83973V8.15999C18.8239 8.46199 18.8239 8.61295 18.9177 8.70679C19.0114 8.80063 19.1622 8.80063 19.4639 8.80063H19.7839C20.0856 8.80063 20.2365 8.80063 20.3302 8.70679C20.4239 8.61295 20.4239 8.46199 20.4239 8.15999V7.83973C20.4239 7.53776 20.4239 7.38677 20.3302 7.29296C20.2365 7.19916 20.0856 7.19915 19.7839 7.19915H19.4639C19.1622 7.19915 19.0114 7.19916 18.9177 7.29296ZM18.8239 10.6265C18.8239 10.3245 18.8239 10.1736 18.9177 10.0797C19.0114 9.98599 19.1622 9.98599 19.4639 9.98599H19.7839C20.0856 9.98599 20.2365 9.98599 20.3302 10.0797C20.4239 10.1736 20.4239 10.3245 20.4239 10.6265V10.9469C20.4239 11.2488 20.4239 11.3998 20.3302 11.4936C20.2365 11.5874 20.0856 11.5874 19.7839 11.5874H19.4639C19.1622 11.5874 19.0114 11.5874 18.9177 11.4936C18.8239 11.3998 18.8239 11.2488 18.8239 10.9469V10.6265ZM21.6677 4.50616C21.5739 4.59997 21.5739 4.75096 21.5739 5.05292V5.37322C21.5739 5.67519 21.5739 5.82618 21.6677 5.91999C21.7614 6.0138 21.9122 6.0138 22.2139 6.0138H22.5339C22.8356 6.0138 22.9865 6.0138 23.0802 5.91999C23.1739 5.82618 23.1739 5.67519 23.1739 5.37322V5.05292C23.1739 4.75096 23.1739 4.59997 23.0802 4.50616C22.9865 4.41235 22.8356 4.41235 22.5339 4.41235H22.2139C21.9122 4.41235 21.7614 4.41235 21.6677 4.50616ZM21.5739 7.83973C21.5739 7.53776 21.5739 7.38677 21.6677 7.29296C21.7614 7.19916 21.9122 7.19915 22.2139 7.19915H22.5339C22.8356 7.19915 22.9865 7.19916 23.0802 7.29296C23.1739 7.38677 23.1739 7.53776 23.1739 7.83973V8.15999C23.1739 8.46199 23.1739 8.61295 23.0802 8.70679C22.9865 8.80063 22.8356 8.80063 22.5339 8.80063H22.2139C21.9122 8.80063 21.7614 8.80063 21.6677 8.70679C21.5739 8.61295 21.5739 8.46199 21.5739 8.15999V7.83973ZM27.0932 8.54423C26.9994 8.63799 26.9994 8.78903 26.9994 9.09095V9.41127C26.9994 9.71327 26.9994 9.86423 27.0932 9.95799C27.1868 10.0518 27.3377 10.0518 27.6394 10.0518H27.9594C28.2611 10.0518 28.412 10.0518 28.5057 9.95799C28.5994 9.86423 28.5994 9.71327 28.5994 9.41127V9.09095C28.5994 8.78903 28.5994 8.63799 28.5057 8.54423C28.412 8.45039 28.2611 8.45039 27.9594 8.45039H27.6394C27.3377 8.45039 27.1868 8.45039 27.0932 8.54423ZM21.5739 10.6265C21.5739 10.3245 21.5739 10.1736 21.6677 10.0797C21.7614 9.98599 21.9122 9.98599 22.2139 9.98599H22.5339C22.8356 9.98599 22.9865 9.98599 23.0802 10.0797C23.1739 10.1736 23.1739 10.3245 23.1739 10.6265V10.9469C23.1739 11.2488 23.1739 11.3998 23.0802 11.4936C22.9865 11.5874 22.8356 11.5874 22.5339 11.5874H22.2139C21.9122 11.5874 21.7614 11.5874 21.6677 11.4936C21.5739 11.3998 21.5739 11.2488 21.5739 10.9469V10.6265ZM27.0932 11.3311C26.9994 11.4249 26.9994 11.5759 26.9994 11.8779V12.1981C26.9994 12.5001 26.9994 12.6511 27.0932 12.7449C27.1868 12.8387 27.3377 12.8387 27.6394 12.8387H27.9594C28.2611 12.8387 28.412 12.8387 28.5057 12.7449C28.5994 12.6511 28.5994 12.5001 28.5994 12.1981V11.8779C28.5994 11.5759 28.5994 11.4249 28.5057 11.3311C28.412 11.2373 28.2611 11.2373 27.9594 11.2373H27.6394C27.3377 11.2373 27.1868 11.2373 27.0932 11.3311Z" fill="#CBD5E1"/>
</g>
<g clip-path="url(#clip2_2894_63870)">
<path fill-rule="evenodd" clip-rule="evenodd" d="M34.3998 15.2C33.6456 15.2 33.2684 15.2 33.0341 14.9657C32.7998 14.7313 32.7998 14.3542 32.7998 13.6V4.0029C32.7998 2.49303 32.7998 1.7381 33.2684 1.26904C33.7371 0.799988 34.4913 0.799988 35.9998 0.799988H38.0555C39.5639 0.799988 40.3182 0.799988 40.7868 1.26904C41.2555 1.7381 41.2555 2.49303 41.2555 4.00289V6.59071H43.9998C45.5083 6.59071 46.2625 6.59071 46.7312 7.05976C47.1998 7.52882 47.1998 8.28375 47.1998 9.79359V13.6C47.1998 14.3542 47.1998 14.7313 46.9655 14.9657C46.7312 15.2 46.354 15.2 45.5998 15.2H34.3998ZM34.9177 4.50616C34.8239 4.59997 34.8239 4.75096 34.8239 5.05292V5.37322C34.8239 5.67519 34.8239 5.82618 34.9177 5.91999C35.0114 6.0138 35.1622 6.0138 35.4639 6.0138H35.7839C36.0856 6.0138 36.2365 6.0138 36.3302 5.91999C36.4239 5.82618 36.4239 5.67519 36.4239 5.37322V5.05292C36.4239 4.75096 36.4239 4.59997 36.3302 4.50616C36.2365 4.41235 36.0856 4.41235 35.7839 4.41235H35.4639C35.1622 4.41235 35.0114 4.41235 34.9177 4.50616ZM34.9177 7.29296C34.8239 7.38677 34.8239 7.53776 34.8239 7.83973V8.15999C34.8239 8.46199 34.8239 8.61295 34.9177 8.70679C35.0114 8.80063 35.1622 8.80063 35.4639 8.80063H35.7839C36.0856 8.80063 36.2365 8.80063 36.3302 8.70679C36.4239 8.61295 36.4239 8.46199 36.4239 8.15999V7.83973C36.4239 7.53776 36.4239 7.38677 36.3302 7.29296C36.2365 7.19916 36.0856 7.19915 35.7839 7.19915H35.4639C35.1622 7.19915 35.0114 7.19916 34.9177 7.29296ZM34.8239 10.6265C34.8239 10.3245 34.8239 10.1736 34.9177 10.0797C35.0114 9.98599 35.1622 9.98599 35.4639 9.98599H35.7839C36.0856 9.98599 36.2365 9.98599 36.3302 10.0797C36.4239 10.1736 36.4239 10.3245 36.4239 10.6265V10.9469C36.4239 11.2488 36.4239 11.3998 36.3302 11.4936C36.2365 11.5874 36.0856 11.5874 35.7839 11.5874H35.4639C35.1622 11.5874 35.0114 11.5874 34.9177 11.4936C34.8239 11.3998 34.8239 11.2488 34.8239 10.9469V10.6265ZM37.6677 4.50616C37.5739 4.59997 37.5739 4.75096 37.5739 5.05292V5.37322C37.5739 5.67519 37.5739 5.82618 37.6677 5.91999C37.7614 6.0138 37.9122 6.0138 38.2139 6.0138H38.5339C38.8356 6.0138 38.9865 6.0138 39.0802 5.91999C39.1739 5.82618 39.1739 5.67519 39.1739 5.37322V5.05292C39.1739 4.75096 39.1739 4.59997 39.0802 4.50616C38.9865 4.41235 38.8356 4.41235 38.5339 4.41235H38.2139C37.9122 4.41235 37.7614 4.41235 37.6677 4.50616ZM37.5739 7.83973C37.5739 7.53776 37.5739 7.38677 37.6677 7.29296C37.7614 7.19916 37.9122 7.19915 38.2139 7.19915H38.5339C38.8356 7.19915 38.9865 7.19916 39.0802 7.29296C39.1739 7.38677 39.1739 7.53776 39.1739 7.83973V8.15999C39.1739 8.46199 39.1739 8.61295 39.0802 8.70679C38.9865 8.80063 38.8356 8.80063 38.5339 8.80063H38.2139C37.9122 8.80063 37.7614 8.80063 37.6677 8.70679C37.5739 8.61295 37.5739 8.46199 37.5739 8.15999V7.83973ZM43.0932 8.54423C42.9994 8.63799 42.9994 8.78903 42.9994 9.09095V9.41127C42.9994 9.71327 42.9994 9.86423 43.0932 9.95799C43.1868 10.0518 43.3377 10.0518 43.6394 10.0518H43.9594C44.2611 10.0518 44.412 10.0518 44.5057 9.95799C44.5994 9.86423 44.5994 9.71327 44.5994 9.41127V9.09095C44.5994 8.78903 44.5994 8.63799 44.5057 8.54423C44.412 8.45039 44.2611 8.45039 43.9594 8.45039H43.6394C43.3377 8.45039 43.1868 8.45039 43.0932 8.54423ZM37.5739 10.6265C37.5739 10.3245 37.5739 10.1736 37.6677 10.0797C37.7614 9.98599 37.9122 9.98599 38.2139 9.98599H38.5339C38.8356 9.98599 38.9865 9.98599 39.0802 10.0797C39.1739 10.1736 39.1739 10.3245 39.1739 10.6265V10.9469C39.1739 11.2488 39.1739 11.3998 39.0802 11.4936C38.9865 11.5874 38.8356 11.5874 38.5339 11.5874H38.2139C37.9122 11.5874 37.7614 11.5874 37.6677 11.4936C37.5739 11.3998 37.5739 11.2488 37.5739 10.9469V10.6265ZM43.0932 11.3311C42.9994 11.4249 42.9994 11.5759 42.9994 11.8779V12.1981C42.9994 12.5001 42.9994 12.6511 43.0932 12.7449C43.1868 12.8387 43.3377 12.8387 43.6394 12.8387H43.9594C44.2611 12.8387 44.412 12.8387 44.5057 12.7449C44.5994 12.6511 44.5994 12.5001 44.5994 12.1981V11.8779C44.5994 11.5759 44.5994 11.4249 44.5057 11.3311C44.412 11.2373 44.2611 11.2373 43.9594 11.2373H43.6394C43.3377 11.2373 43.1868 11.2373 43.0932 11.3311Z" fill="#2968F9"/>
</g>
<g clip-path="url(#clip3_2894_63870)">
<path fill-rule="evenodd" clip-rule="evenodd" d="M50.3998 15.2C49.6456 15.2 49.2684 15.2 49.0341 14.9657C48.7998 14.7313 48.7998 14.3542 48.7998 13.6V4.0029C48.7998 2.49303 48.7998 1.7381 49.2684 1.26904C49.7371 0.799988 50.4913 0.799988 51.9998 0.799988H54.0555C55.5639 0.799988 56.3182 0.799988 56.7868 1.26904C57.2555 1.7381 57.2555 2.49303 57.2555 4.00289V6.59071H59.9998C61.5083 6.59071 62.2625 6.59071 62.7312 7.05976C63.1998 7.52882 63.1998 8.28375 63.1998 9.79359V13.6C63.1998 14.3542 63.1998 14.7313 62.9655 14.9657C62.7312 15.2 62.354 15.2 61.5998 15.2H50.3998ZM50.9177 4.50616C50.8239 4.59997 50.8239 4.75096 50.8239 5.05292V5.37322C50.8239 5.67519 50.8239 5.82618 50.9177 5.91999C51.0114 6.0138 51.1622 6.0138 51.4639 6.0138H51.7839C52.0856 6.0138 52.2365 6.0138 52.3302 5.91999C52.4239 5.82618 52.4239 5.67519 52.4239 5.37322V5.05292C52.4239 4.75096 52.4239 4.59997 52.3302 4.50616C52.2365 4.41235 52.0856 4.41235 51.7839 4.41235H51.4639C51.1622 4.41235 51.0114 4.41235 50.9177 4.50616ZM50.9177 7.29296C50.8239 7.38677 50.8239 7.53776 50.8239 7.83973V8.15999C50.8239 8.46199 50.8239 8.61295 50.9177 8.70679C51.0114 8.80063 51.1622 8.80063 51.4639 8.80063H51.7839C52.0856 8.80063 52.2365 8.80063 52.3302 8.70679C52.4239 8.61295 52.4239 8.46199 52.4239 8.15999V7.83973C52.4239 7.53776 52.4239 7.38677 52.3302 7.29296C52.2365 7.19916 52.0856 7.19915 51.7839 7.19915H51.4639C51.1622 7.19915 51.0114 7.19916 50.9177 7.29296ZM50.8239 10.6265C50.8239 10.3245 50.8239 10.1736 50.9177 10.0797C51.0114 9.98599 51.1622 9.98599 51.4639 9.98599H51.7839C52.0856 9.98599 52.2365 9.98599 52.3302 10.0797C52.4239 10.1736 52.4239 10.3245 52.4239 10.6265V10.9469C52.4239 11.2488 52.4239 11.3998 52.3302 11.4936C52.2365 11.5874 52.0856 11.5874 51.7839 11.5874H51.4639C51.1622 11.5874 51.0114 11.5874 50.9177 11.4936C50.8239 11.3998 50.8239 11.2488 50.8239 10.9469V10.6265ZM53.6677 4.50616C53.5739 4.59997 53.5739 4.75096 53.5739 5.05292V5.37322C53.5739 5.67519 53.5739 5.82618 53.6677 5.91999C53.7614 6.0138 53.9122 6.0138 54.2139 6.0138H54.5339C54.8356 6.0138 54.9865 6.0138 55.0802 5.91999C55.1739 5.82618 55.1739 5.67519 55.1739 5.37322V5.05292C55.1739 4.75096 55.1739 4.59997 55.0802 4.50616C54.9865 4.41235 54.8356 4.41235 54.5339 4.41235H54.2139C53.9122 4.41235 53.7614 4.41235 53.6677 4.50616ZM53.5739 7.83973C53.5739 7.53776 53.5739 7.38677 53.6677 7.29296C53.7614 7.19916 53.9122 7.19915 54.2139 7.19915H54.5339C54.8356 7.19915 54.9865 7.19916 55.0802 7.29296C55.1739 7.38677 55.1739 7.53776 55.1739 7.83973V8.15999C55.1739 8.46199 55.1739 8.61295 55.0802 8.70679C54.9865 8.80063 54.8356 8.80063 54.5339 8.80063H54.2139C53.9122 8.80063 53.7614 8.80063 53.6677 8.70679C53.5739 8.61295 53.5739 8.46199 53.5739 8.15999V7.83973ZM59.0932 8.54423C58.9994 8.63799 58.9994 8.78903 58.9994 9.09095V9.41127C58.9994 9.71327 58.9994 9.86423 59.0932 9.95799C59.1868 10.0518 59.3377 10.0518 59.6394 10.0518H59.9594C60.2611 10.0518 60.412 10.0518 60.5057 9.95799C60.5994 9.86423 60.5994 9.71327 60.5994 9.41127V9.09095C60.5994 8.78903 60.5994 8.63799 60.5057 8.54423C60.412 8.45039 60.2611 8.45039 59.9594 8.45039H59.6394C59.3377 8.45039 59.1868 8.45039 59.0932 8.54423ZM53.5739 10.6265C53.5739 10.3245 53.5739 10.1736 53.6677 10.0797C53.7614 9.98599 53.9122 9.98599 54.2139 9.98599H54.5339C54.8356 9.98599 54.9865 9.98599 55.0802 10.0797C55.1739 10.1736 55.1739 10.3245 55.1739 10.6265V10.9469C55.1739 11.2488 55.1739 11.3998 55.0802 11.4936C54.9865 11.5874 54.8356 11.5874 54.5339 11.5874H54.2139C53.9122 11.5874 53.7614 11.5874 53.6677 11.4936C53.5739 11.3998 53.5739 11.2488 53.5739 10.9469V10.6265ZM59.0932 11.3311C58.9994 11.4249 58.9994 11.5759 58.9994 11.8779V12.1981C58.9994 12.5001 58.9994 12.6511 59.0932 12.7449C59.1868 12.8387 59.3377 12.8387 59.6394 12.8387H59.9594C60.2611 12.8387 60.412 12.8387 60.5057 12.7449C60.5994 12.6511 60.5994 12.5001 60.5994 12.1981V11.8779C60.5994 11.5759 60.5994 11.4249 60.5057 11.3311C60.412 11.2373 60.2611 11.2373 59.9594 11.2373H59.6394C59.3377 11.2373 59.1868 11.2373 59.0932 11.3311Z" fill="white"/>
</g>
<defs>
<clipPath id="clip0_2894_63870">
<rect width="16" height="16" fill="white"/>
</clipPath>
<clipPath id="clip1_2894_63870">
<rect width="16" height="16" fill="white" transform="translate(16)"/>
</clipPath>
<clipPath id="clip2_2894_63870">
<rect width="16" height="16" fill="white" transform="translate(32)"/>
</clipPath>
<clipPath id="clip3_2894_63870">
<rect width="16" height="16" fill="white" transform="translate(48)"/>
</clipPath>
</defs>
</svg>
