<svg width="24" height="8" viewBox="0 0 24 8" fill="none" xmlns="http://www.w3.org/2000/svg">
<path d="M6.51834 2.16627H1.48194C1.17304 2.15481 0.986539 2.55048 1.19726 2.77971C1.19725 2.77971 3.71545 5.70528 3.71545 5.70528C3.85769 5.87773 4.1426 5.87802 4.28483 5.70527C4.28483 5.70528 6.80303 2.77971 6.80303 2.77971C7.01283 2.55082 6.82813 2.15444 6.51834 2.16627Z" fill="#2968F9"/>
<path d="M14.5183 2.16627H9.48194C9.17304 2.15481 8.98654 2.55048 9.19726 2.77971C9.19725 2.77971 11.7154 5.70528 11.7154 5.70528C11.8577 5.87773 12.1426 5.87802 12.2848 5.70527C12.2848 5.70528 14.803 2.77971 14.803 2.77971C15.0128 2.55082 14.8281 2.15444 14.5183 2.16627Z" fill="#CBD5E1"/>
</svg>
