<svg width="80" height="16" viewBox="0 0 80 16" fill="none" xmlns="http://www.w3.org/2000/svg">
<g clip-path="url(#clip0_2751_103571)">
<path d="M2.66797 9.33366V8.66699C2.66797 8.13656 2.87868 7.62785 3.25376 7.25278C3.62883 6.87771 4.13754 6.66699 4.66797 6.66699H5.33464C5.51145 6.66699 5.68102 6.73723 5.80604 6.86225C5.93106 6.98728 6.0013 7.15685 6.0013 7.33366V10.667C6.0013 10.8438 5.93106 11.0134 5.80604 11.1384C5.68102 11.2634 5.51145 11.3337 5.33464 11.3337H4.66797C4.13754 11.3337 3.62883 11.1229 3.25376 10.7479C2.87868 10.3728 2.66797 9.86409 2.66797 9.33366V9.33366ZM13.3346 9.33366V8.66699C13.3346 8.13656 13.1239 7.62785 12.7488 7.25278C12.3738 6.87771 11.8651 6.66699 11.3346 6.66699H10.668C10.4912 6.66699 10.3216 6.73723 10.1966 6.86225C10.0715 6.98728 10.0013 7.15685 10.0013 7.33366V10.667C10.0013 10.8438 10.0715 11.0134 10.1966 11.1384C10.3216 11.2634 10.4912 11.3337 10.668 11.3337H11.3346C11.8651 11.3337 12.3738 11.1229 12.7488 10.7479C13.1239 10.3728 13.3346 9.86409 13.3346 9.33366V9.33366Z" stroke="#64748B" stroke-width="1.2" stroke-linecap="round" stroke-linejoin="round"/>
<path d="M2.66636 9.33333L2.53969 8C2.46825 7.23977 2.55628 6.47299 2.79815 5.74873C3.04002 5.02447 3.4304 4.35866 3.94432 3.79392C4.45825 3.22917 5.08439 2.77791 5.7827 2.469C6.48101 2.1601 7.23611 2.00036 7.99969 2V2C8.76327 2.00036 9.51837 2.1601 10.2167 2.469C10.915 2.77791 11.5411 3.22917 12.0551 3.79392C12.569 4.35866 12.9594 5.02447 13.2012 5.74873C13.4431 6.47299 13.5311 7.23977 13.4597 8L13.333 9.33333" stroke="#64748B" stroke-width="1.2" stroke-linecap="round" stroke-linejoin="round"/>
<path d="M11.3333 11.333V11.9997C11.3535 12.3307 11.2423 12.6564 11.0239 12.906C10.8055 13.1556 10.4975 13.3091 10.1667 13.333H8" stroke="#64748B" stroke-width="1.2" stroke-linecap="round" stroke-linejoin="round"/>
</g>
<g clip-path="url(#clip1_2751_103571)">
<path d="M18.668 9.33366V8.66699C18.668 8.13656 18.8787 7.62785 19.2538 7.25278C19.6288 6.87771 20.1375 6.66699 20.668 6.66699H21.3346C21.5114 6.66699 21.681 6.73723 21.806 6.86225C21.9311 6.98728 22.0013 7.15685 22.0013 7.33366V10.667C22.0013 10.8438 21.9311 11.0134 21.806 11.1384C21.681 11.2634 21.5114 11.3337 21.3346 11.3337H20.668C20.1375 11.3337 19.6288 11.1229 19.2538 10.7479C18.8787 10.3728 18.668 9.86409 18.668 9.33366V9.33366ZM29.3346 9.33366V8.66699C29.3346 8.13656 29.1239 7.62785 28.7488 7.25278C28.3738 6.87771 27.8651 6.66699 27.3346 6.66699H26.668C26.4912 6.66699 26.3216 6.73723 26.1966 6.86225C26.0715 6.98728 26.0013 7.15685 26.0013 7.33366V10.667C26.0013 10.8438 26.0715 11.0134 26.1966 11.1384C26.3216 11.2634 26.4912 11.3337 26.668 11.3337H27.3346C27.8651 11.3337 28.3738 11.1229 28.7488 10.7479C29.1239 10.3728 29.3346 9.86409 29.3346 9.33366V9.33366Z" stroke="#CBD5E1" stroke-width="1.2" stroke-linecap="round" stroke-linejoin="round"/>
<path d="M18.6664 9.33333L18.5397 8C18.4683 7.23977 18.5563 6.47299 18.7982 5.74873C19.04 5.02447 19.4304 4.35866 19.9443 3.79392C20.4582 3.22917 21.0844 2.77791 21.7827 2.469C22.481 2.1601 23.2361 2.00036 23.9997 2V2C24.7633 2.00036 25.5184 2.1601 26.2167 2.469C26.915 2.77791 27.5411 3.22917 28.0551 3.79392C28.569 4.35866 28.9594 5.02447 29.2012 5.74873C29.4431 6.47299 29.5311 7.23977 29.4597 8L29.333 9.33333" stroke="#CBD5E1" stroke-width="1.2" stroke-linecap="round" stroke-linejoin="round"/>
<path d="M27.3333 11.333V11.9997C27.3535 12.3307 27.2423 12.6564 27.0239 12.906C26.8055 13.1556 26.4975 13.3091 26.1667 13.333H24" stroke="#CBD5E1" stroke-width="1.2" stroke-linecap="round" stroke-linejoin="round"/>
</g>
<g clip-path="url(#clip2_2751_103571)">
<path d="M34.668 9.33366V8.66699C34.668 8.13656 34.8787 7.62785 35.2538 7.25278C35.6288 6.87771 36.1375 6.66699 36.668 6.66699H37.3346C37.5114 6.66699 37.681 6.73723 37.806 6.86225C37.9311 6.98728 38.0013 7.15685 38.0013 7.33366V10.667C38.0013 10.8438 37.9311 11.0134 37.806 11.1384C37.681 11.2634 37.5114 11.3337 37.3346 11.3337H36.668C36.1375 11.3337 35.6288 11.1229 35.2538 10.7479C34.8787 10.3728 34.668 9.86409 34.668 9.33366V9.33366ZM45.3346 9.33366V8.66699C45.3346 8.13656 45.1239 7.62785 44.7488 7.25278C44.3738 6.87771 43.8651 6.66699 43.3346 6.66699H42.668C42.4912 6.66699 42.3216 6.73723 42.1966 6.86225C42.0715 6.98728 42.0013 7.15685 42.0013 7.33366V10.667C42.0013 10.8438 42.0715 11.0134 42.1966 11.1384C42.3216 11.2634 42.4912 11.3337 42.668 11.3337H43.3346C43.8651 11.3337 44.3738 11.1229 44.7488 10.7479C45.1239 10.3728 45.3346 9.86409 45.3346 9.33366V9.33366Z" stroke="#2968F9" stroke-width="1.2" stroke-linecap="round" stroke-linejoin="round"/>
<path d="M34.6664 9.33333L34.5397 8C34.4683 7.23977 34.5563 6.47299 34.7982 5.74873C35.04 5.02447 35.4304 4.35866 35.9443 3.79392C36.4582 3.22917 37.0844 2.77791 37.7827 2.469C38.481 2.1601 39.2361 2.00036 39.9997 2V2C40.7633 2.00036 41.5184 2.1601 42.2167 2.469C42.915 2.77791 43.5411 3.22917 44.0551 3.79392C44.569 4.35866 44.9594 5.02447 45.2012 5.74873C45.4431 6.47299 45.5311 7.23977 45.4597 8L45.333 9.33333" stroke="#2968F9" stroke-width="1.2" stroke-linecap="round" stroke-linejoin="round"/>
<path d="M43.3333 11.333V11.9997C43.3535 12.3307 43.2423 12.6564 43.0239 12.906C42.8055 13.1556 42.4975 13.3091 42.1667 13.333H40" stroke="#2968F9" stroke-width="1.2" stroke-linecap="round" stroke-linejoin="round"/>
</g>
<g clip-path="url(#clip3_2751_103571)">
<path d="M50.668 9.33366V8.66699C50.668 8.13656 50.8787 7.62785 51.2538 7.25278C51.6288 6.87771 52.1375 6.66699 52.668 6.66699H53.3346C53.5114 6.66699 53.681 6.73723 53.806 6.86225C53.9311 6.98728 54.0013 7.15685 54.0013 7.33366V10.667C54.0013 10.8438 53.9311 11.0134 53.806 11.1384C53.681 11.2634 53.5114 11.3337 53.3346 11.3337H52.668C52.1375 11.3337 51.6288 11.1229 51.2538 10.7479C50.8787 10.3728 50.668 9.86409 50.668 9.33366V9.33366ZM61.3346 9.33366V8.66699C61.3346 8.13656 61.1239 7.62785 60.7488 7.25278C60.3738 6.87771 59.8651 6.66699 59.3346 6.66699H58.668C58.4912 6.66699 58.3216 6.73723 58.1966 6.86225C58.0715 6.98728 58.0013 7.15685 58.0013 7.33366V10.667C58.0013 10.8438 58.0715 11.0134 58.1966 11.1384C58.3216 11.2634 58.4912 11.3337 58.668 11.3337H59.3346C59.8651 11.3337 60.3738 11.1229 60.7488 10.7479C61.1239 10.3728 61.3346 9.86409 61.3346 9.33366V9.33366Z" stroke="white" stroke-width="1.2" stroke-linecap="round" stroke-linejoin="round"/>
<path d="M50.6664 9.33333L50.5397 8C50.4683 7.23977 50.5563 6.47299 50.7982 5.74873C51.04 5.02447 51.4304 4.35866 51.9443 3.79392C52.4582 3.22917 53.0844 2.77791 53.7827 2.469C54.481 2.1601 55.2361 2.00036 55.9997 2V2C56.7633 2.00036 57.5184 2.1601 58.2167 2.469C58.915 2.77791 59.5411 3.22917 60.0551 3.79392C60.569 4.35866 60.9594 5.02447 61.2012 5.74873C61.4431 6.47299 61.5311 7.23977 61.4597 8L61.333 9.33333" stroke="white" stroke-width="1.2" stroke-linecap="round" stroke-linejoin="round"/>
<path d="M59.3333 11.333V11.9997C59.3535 12.3307 59.2423 12.6564 59.0239 12.906C58.8055 13.1556 58.4975 13.3091 58.1667 13.333H56" stroke="white" stroke-width="1.2" stroke-linecap="round" stroke-linejoin="round"/>
</g>
<defs>
<clipPath id="clip0_2751_103571">
<rect width="16" height="16" fill="white"/>
</clipPath>
<clipPath id="clip1_2751_103571">
<rect width="16" height="16" fill="white" transform="translate(16)"/>
</clipPath>
<clipPath id="clip2_2751_103571">
<rect width="16" height="16" fill="white" transform="translate(32)"/>
</clipPath>
<clipPath id="clip3_2751_103571">
<rect width="16" height="16" fill="white" transform="translate(48)"/>
</clipPath>
</defs>
</svg>
