<svg width="80" height="16" viewBox="0 0 80 16" fill="none" xmlns="http://www.w3.org/2000/svg">
<g clip-path="url(#clip0_2894_63895)">
<path fill-rule="evenodd" clip-rule="evenodd" d="M1.6001 6.90601C1.6001 1.2187 4.8001 0 8.0001 0C11.2001 0 14.4001 1.2187 14.4001 6.90601C14.4001 11.3726 10.4527 14.5863 8.7581 15.7602C8.29642 16.0799 7.70375 16.0799 7.24208 15.7602C5.5475 14.5863 1.6001 11.3726 1.6001 6.90601ZM8.0001 8.9372C9.32562 8.9372 10.4001 7.84591 10.4001 6.49977C10.4001 5.15362 9.32562 4.06235 8.0001 4.06235C6.67462 4.06235 5.6001 5.15362 5.6001 6.49977C5.6001 7.84591 6.67462 8.9372 8.0001 8.9372Z" fill="#64748B"/>
</g>
<g clip-path="url(#clip1_2894_63895)">
<path fill-rule="evenodd" clip-rule="evenodd" d="M17.6001 6.90601C17.6001 1.2187 20.8001 0 24.0001 0C27.2001 0 30.4001 1.2187 30.4001 6.90601C30.4001 11.3726 26.4527 14.5863 24.7581 15.7602C24.2964 16.0799 23.7037 16.0799 23.2421 15.7602C21.5475 14.5863 17.6001 11.3726 17.6001 6.90601ZM24.0001 8.9372C25.3256 8.9372 26.4001 7.84591 26.4001 6.49977C26.4001 5.15362 25.3256 4.06235 24.0001 4.06235C22.6746 4.06235 21.6001 5.15362 21.6001 6.49977C21.6001 7.84591 22.6746 8.9372 24.0001 8.9372Z" fill="#CBD5E1"/>
</g>
<g clip-path="url(#clip2_2894_63895)">
<path fill-rule="evenodd" clip-rule="evenodd" d="M33.6001 6.90601C33.6001 1.2187 36.8001 0 40.0001 0C43.2001 0 46.4001 1.2187 46.4001 6.90601C46.4001 11.3726 42.4527 14.5863 40.7581 15.7602C40.2964 16.0799 39.7037 16.0799 39.2421 15.7602C37.5475 14.5863 33.6001 11.3726 33.6001 6.90601ZM40.0001 8.9372C41.3256 8.9372 42.4001 7.84591 42.4001 6.49977C42.4001 5.15362 41.3256 4.06235 40.0001 4.06235C38.6746 4.06235 37.6001 5.15362 37.6001 6.49977C37.6001 7.84591 38.6746 8.9372 40.0001 8.9372Z" fill="#2968F9"/>
</g>
<g clip-path="url(#clip3_2894_63895)">
<path fill-rule="evenodd" clip-rule="evenodd" d="M49.6001 6.90601C49.6001 1.2187 52.8001 0 56.0001 0C59.2001 0 62.4001 1.2187 62.4001 6.90601C62.4001 11.3726 58.4527 14.5863 56.7581 15.7602C56.2964 16.0799 55.7037 16.0799 55.2421 15.7602C53.5475 14.5863 49.6001 11.3726 49.6001 6.90601ZM56.0001 8.9372C57.3256 8.9372 58.4001 7.84591 58.4001 6.49977C58.4001 5.15362 57.3256 4.06235 56.0001 4.06235C54.6746 4.06235 53.6001 5.15362 53.6001 6.49977C53.6001 7.84591 54.6746 8.9372 56.0001 8.9372Z" fill="white"/>
</g>
<defs>
<clipPath id="clip0_2894_63895">
<rect width="16" height="16" fill="white"/>
</clipPath>
<clipPath id="clip1_2894_63895">
<rect width="16" height="16" fill="white" transform="translate(16)"/>
</clipPath>
<clipPath id="clip2_2894_63895">
<rect width="16" height="16" fill="white" transform="translate(32)"/>
</clipPath>
<clipPath id="clip3_2894_63895">
<rect width="16" height="16" fill="white" transform="translate(48)"/>
</clipPath>
</defs>
</svg>
