<svg width="80" height="16" viewBox="0 0 80 16" fill="none" xmlns="http://www.w3.org/2000/svg">
<g clip-path="url(#clip0_1323_55284)">
<path d="M10.6654 7.33301L7.9987 4.66634L5.33203 7.33301M10.6654 11.333L7.9987 8.66634L5.33203 11.333" stroke="#64748B" stroke-width="1.2" stroke-linecap="round" stroke-linejoin="round"/>
</g>
<g clip-path="url(#clip1_1323_55284)">
<path d="M26.6654 7.33301L23.9987 4.66634L21.332 7.33301M26.6654 11.333L23.9987 8.66634L21.332 11.333" stroke="#CBD5E1" stroke-width="1.2" stroke-linecap="round" stroke-linejoin="round"/>
</g>
<g clip-path="url(#clip2_1323_55284)">
<path d="M42.6654 7.33301L39.9987 4.66634L37.332 7.33301M42.6654 11.333L39.9987 8.66634L37.332 11.333" stroke="#2968F9" stroke-width="1.2" stroke-linecap="round" stroke-linejoin="round"/>
</g>
<g clip-path="url(#clip3_1323_55284)">
<path d="M58.6654 7.33301L55.9987 4.66634L53.332 7.33301M58.6654 11.333L55.9987 8.66634L53.332 11.333" stroke="white" stroke-width="1.2" stroke-linecap="round" stroke-linejoin="round"/>
</g>
<defs>
<clipPath id="clip0_1323_55284">
<rect width="16" height="16" fill="white"/>
</clipPath>
<clipPath id="clip1_1323_55284">
<rect width="16" height="16" fill="white" transform="translate(16)"/>
</clipPath>
<clipPath id="clip2_1323_55284">
<rect width="16" height="16" fill="white" transform="translate(32)"/>
</clipPath>
<clipPath id="clip3_1323_55284">
<rect width="16" height="16" fill="white" transform="translate(48)"/>
</clipPath>
</defs>
</svg>
