<svg width="80" height="16" viewBox="0 0 80 16" fill="none" xmlns="http://www.w3.org/2000/svg">
<g clip-path="url(#clip0_2751_103606)">
<path d="M5.80051 6.61174V9.07056C5.80051 10.2856 6.78549 11.2706 8.00051 11.2706C9.21554 11.2706 10.2005 10.2856 10.2005 9.07056V5.96468C10.2005 5.32143 9.67906 4.79998 9.03581 4.79998C8.39256 4.79998 7.8711 5.32143 7.8711 5.96468V8.94115M4.39987 1.59998H11.6C12.4837 1.59998 13.2 2.31634 13.2 3.20001L13.1998 12.8C13.1998 13.6837 12.4835 14.4 11.5998 14.4L4.3998 14.3999C3.51614 14.3999 2.7998 13.6836 2.7998 12.7999L2.79987 3.19997C2.79987 2.31632 3.51621 1.59998 4.39987 1.59998Z" stroke="#64748B" stroke-width="1.2" stroke-linecap="round"/>
</g>
<g clip-path="url(#clip1_2751_103606)">
<path d="M21.8005 6.61174V9.07056C21.8005 10.2856 22.7855 11.2706 24.0005 11.2706C25.2155 11.2706 26.2005 10.2856 26.2005 9.07056V5.96468C26.2005 5.32143 25.6791 4.79998 25.0358 4.79998C24.3926 4.79998 23.8711 5.32143 23.8711 5.96468V8.94115M20.3999 1.59998H27.6C28.4837 1.59998 29.2 2.31634 29.2 3.20001L29.1998 12.8C29.1998 13.6837 28.4835 14.4 27.5998 14.4L20.3998 14.3999C19.5161 14.3999 18.7998 13.6836 18.7998 12.7999L18.7999 3.19997C18.7999 2.31632 19.5162 1.59998 20.3999 1.59998Z" stroke="#CBD5E1" stroke-width="1.2" stroke-linecap="round"/>
</g>
<g clip-path="url(#clip2_2751_103606)">
<path d="M37.8005 6.61174V9.07056C37.8005 10.2856 38.7855 11.2706 40.0005 11.2706C41.2155 11.2706 42.2005 10.2856 42.2005 9.07056V5.96468C42.2005 5.32143 41.6791 4.79998 41.0358 4.79998C40.3926 4.79998 39.8711 5.32143 39.8711 5.96468V8.94115M36.3999 1.59998H43.6C44.4837 1.59998 45.2 2.31634 45.2 3.20001L45.1998 12.8C45.1998 13.6837 44.4835 14.4 43.5998 14.4L36.3998 14.3999C35.5161 14.3999 34.7998 13.6836 34.7998 12.7999L34.7999 3.19997C34.7999 2.31632 35.5162 1.59998 36.3999 1.59998Z" stroke="#2968F9" stroke-width="1.2" stroke-linecap="round"/>
</g>
<g clip-path="url(#clip3_2751_103606)">
<path d="M53.8005 6.61174V9.07056C53.8005 10.2856 54.7855 11.2706 56.0005 11.2706C57.2155 11.2706 58.2005 10.2856 58.2005 9.07056V5.96468C58.2005 5.32143 57.6791 4.79998 57.0358 4.79998C56.3926 4.79998 55.8711 5.32143 55.8711 5.96468V8.94115M52.3999 1.59998H59.6C60.4837 1.59998 61.2 2.31634 61.2 3.20001L61.1998 12.8C61.1998 13.6837 60.4835 14.4 59.5998 14.4L52.3998 14.3999C51.5161 14.3999 50.7998 13.6836 50.7998 12.7999L50.7999 3.19997C50.7999 2.31632 51.5162 1.59998 52.3999 1.59998Z" stroke="white" stroke-width="1.2" stroke-linecap="round"/>
</g>
<defs>
<clipPath id="clip0_2751_103606">
<rect width="16" height="16" fill="white"/>
</clipPath>
<clipPath id="clip1_2751_103606">
<rect width="16" height="16" fill="white" transform="translate(16)"/>
</clipPath>
<clipPath id="clip2_2751_103606">
<rect width="16" height="16" fill="white" transform="translate(32)"/>
</clipPath>
<clipPath id="clip3_2751_103606">
<rect width="16" height="16" fill="white" transform="translate(48)"/>
</clipPath>
</defs>
</svg>
