<svg width="80" height="16" viewBox="0 0 80 16" fill="none" xmlns="http://www.w3.org/2000/svg">
<g clip-path="url(#clip0_2751_103611)">
<path d="M7.40357 3.19287H3.20079C2.88232 3.19287 2.5769 3.31938 2.3517 3.54458C2.12651 3.76977 2 4.07519 2 4.39366V12.7992C2 13.1177 2.12651 13.4231 2.3517 13.6483C2.5769 13.8735 2.88232 14 3.20079 14H11.6063C11.9248 14 12.2302 13.8735 12.4554 13.6483C12.6806 13.4231 12.8071 13.1177 12.8071 12.7992V8.59644" stroke="#64748B" stroke-width="1.2" stroke-linecap="round" stroke-linejoin="round"/>
<path d="M11.9067 2.29223C12.1456 2.05338 12.4695 1.91919 12.8073 1.91919C13.1451 1.91919 13.469 2.05338 13.7079 2.29223C13.9467 2.53108 14.0809 2.85503 14.0809 3.19282C14.0809 3.53061 13.9467 3.85456 13.7079 4.09342L8.00412 9.79718L5.60254 10.3976L6.20294 7.99599L11.9067 2.29223Z" stroke="#64748B" stroke-width="1.2" stroke-linecap="round" stroke-linejoin="round"/>
</g>
<g clip-path="url(#clip1_2751_103611)">
<path d="M23.4036 3.19287H19.2008C18.8823 3.19287 18.5769 3.31938 18.3517 3.54458C18.1265 3.76977 18 4.07519 18 4.39366V12.7992C18 13.1177 18.1265 13.4231 18.3517 13.6483C18.5769 13.8735 18.8823 14 19.2008 14H27.6063C27.9248 14 28.2302 13.8735 28.4554 13.6483C28.6806 13.4231 28.8071 13.1177 28.8071 12.7992V8.59644" stroke="#CBD5E1" stroke-width="1.2" stroke-linecap="round" stroke-linejoin="round"/>
<path d="M27.9067 2.29223C28.1456 2.05338 28.4695 1.91919 28.8073 1.91919C29.1451 1.91919 29.469 2.05338 29.7079 2.29223C29.9467 2.53108 30.0809 2.85503 30.0809 3.19282C30.0809 3.53061 29.9467 3.85456 29.7079 4.09342L24.0041 9.79718L21.6025 10.3976L22.2029 7.99599L27.9067 2.29223Z" stroke="#CBD5E1" stroke-width="1.2" stroke-linecap="round" stroke-linejoin="round"/>
</g>
<g clip-path="url(#clip2_2751_103611)">
<path d="M39.4036 3.19287H35.2008C34.8823 3.19287 34.5769 3.31938 34.3517 3.54458C34.1265 3.76977 34 4.07519 34 4.39366V12.7992C34 13.1177 34.1265 13.4231 34.3517 13.6483C34.5769 13.8735 34.8823 14 35.2008 14H43.6063C43.9248 14 44.2302 13.8735 44.4554 13.6483C44.6806 13.4231 44.8071 13.1177 44.8071 12.7992V8.59644" stroke="#2968F9" stroke-width="1.2" stroke-linecap="round" stroke-linejoin="round"/>
<path d="M43.9067 2.29223C44.1456 2.05338 44.4695 1.91919 44.8073 1.91919C45.1451 1.91919 45.469 2.05338 45.7079 2.29223C45.9467 2.53108 46.0809 2.85503 46.0809 3.19282C46.0809 3.53061 45.9467 3.85456 45.7079 4.09342L40.0041 9.79718L37.6025 10.3976L38.2029 7.99599L43.9067 2.29223Z" stroke="#2968F9" stroke-width="1.2" stroke-linecap="round" stroke-linejoin="round"/>
</g>
<g clip-path="url(#clip3_2751_103611)">
<path d="M55.4036 3.19287H51.2008C50.8823 3.19287 50.5769 3.31938 50.3517 3.54458C50.1265 3.76977 50 4.07519 50 4.39366V12.7992C50 13.1177 50.1265 13.4231 50.3517 13.6483C50.5769 13.8735 50.8823 14 51.2008 14H59.6063C59.9248 14 60.2302 13.8735 60.4554 13.6483C60.6806 13.4231 60.8071 13.1177 60.8071 12.7992V8.59644" stroke="white" stroke-width="1.2" stroke-linecap="round" stroke-linejoin="round"/>
<path d="M59.9067 2.29223C60.1456 2.05338 60.4695 1.91919 60.8073 1.91919C61.1451 1.91919 61.469 2.05338 61.7079 2.29223C61.9467 2.53108 62.0809 2.85503 62.0809 3.19282C62.0809 3.53061 61.9467 3.85456 61.7079 4.09342L56.0041 9.79718L53.6025 10.3976L54.2029 7.99599L59.9067 2.29223Z" stroke="white" stroke-width="1.2" stroke-linecap="round" stroke-linejoin="round"/>
</g>
<defs>
<clipPath id="clip0_2751_103611">
<rect width="16" height="16" fill="white"/>
</clipPath>
<clipPath id="clip1_2751_103611">
<rect width="16" height="16" fill="white" transform="translate(16)"/>
</clipPath>
<clipPath id="clip2_2751_103611">
<rect width="16" height="16" fill="white" transform="translate(32)"/>
</clipPath>
<clipPath id="clip3_2751_103611">
<rect width="16" height="16" fill="white" transform="translate(48)"/>
</clipPath>
</defs>
</svg>
