<svg width="80" height="16" viewBox="0 0 80 16" fill="none" xmlns="http://www.w3.org/2000/svg">
<g clip-path="url(#clip0_2894_63808)">
<path fill-rule="evenodd" clip-rule="evenodd" d="M8.17192 1.60001H7.82826C6.76276 1.6 5.91254 1.59999 5.22684 1.67774C4.51826 1.75809 3.92597 1.9265 3.3976 2.30229C2.86924 2.67809 2.51479 3.18301 2.2047 3.82717C1.93323 4.39112 1.67706 5.10357 1.36961 5.98109L0.741498 5.82835C0.419456 5.75003 0.0950992 5.94843 0.0170285 6.27149C-0.0610425 6.59454 0.136736 6.91993 0.458778 6.99824L0.912984 7.10869C0.453278 7.67168 0.233955 8.36121 0.1229 9.18985C0.000372338 10.1041 0.000386308 11.2722 0.000403951 12.7471L0.000397895 13.0232C0.000333904 13.1878 0.000264715 13.3658 0.020401 13.516C0.0439905 13.692 0.104657 13.9169 0.293288 14.1061C0.48192 14.2954 0.706062 14.3562 0.88152 14.3798C1.03128 14.4001 1.2087 14.4 1.37279 14.3999L2.62897 14.4C2.70354 14.4 2.78444 14.4 2.85487 14.3956C2.934 14.3906 3.03922 14.3785 3.15255 14.3356C3.4219 14.2338 3.63449 14.0206 3.73594 13.7504C3.77862 13.6367 3.79078 13.5312 3.79574 13.4518C3.80014 13.3811 3.80013 13.3 3.80012 13.2251L3.80011 13.2128C3.80011 13.0339 3.80039 12.9274 3.80536 12.8478C3.80845 12.7982 3.81261 12.7771 3.81385 12.7717C3.83418 12.7196 3.8753 12.6783 3.92727 12.6579C3.93266 12.6566 3.95371 12.6525 4.00306 12.6494C4.08242 12.6444 4.18864 12.6442 4.367 12.6442L11.6146 12.6441C11.793 12.6441 11.8993 12.6443 11.9786 12.6494C12.028 12.6524 12.049 12.6566 12.0544 12.6578C12.1064 12.6782 12.1475 12.7195 12.1678 12.7716C12.169 12.777 12.1732 12.7982 12.1763 12.8477C12.1813 12.9273 12.1816 13.0338 12.1816 13.2127V13.2251C12.1815 13.2999 12.1815 13.381 12.1859 13.4518C12.1909 13.5311 12.203 13.6366 12.2458 13.7503C12.3472 14.0206 12.5598 14.2338 12.8291 14.3355C12.9425 14.3784 13.0477 14.3906 13.1268 14.3955C13.1972 14.3999 13.2782 14.3999 13.3527 14.3999H14.6275C14.7916 14.4 14.969 14.4001 15.1188 14.3798C15.2942 14.3562 15.5184 14.2954 15.707 14.1061C15.8957 13.9169 15.9563 13.692 15.9799 13.516C16.0001 13.3658 16 13.1878 15.9999 13.0232V12.747C15.9999 11.2722 15.9999 10.104 15.8774 9.18977C15.7663 8.36113 15.547 7.67161 15.0873 7.10864L15.5412 6.99824C15.8633 6.91993 16.061 6.59454 15.983 6.27149C15.9049 5.94843 15.5806 5.75003 15.2585 5.82835L14.6306 5.98106C14.3231 5.10362 14.067 4.3912 13.7956 3.82729C13.4855 3.1831 13.131 2.67814 12.6027 2.30233C12.0743 1.92652 11.482 1.75809 10.7734 1.67774C10.0877 1.59999 9.23744 1.6 8.17192 1.60001ZM13.3817 6.04852C13.1275 5.33011 12.9235 4.78395 12.715 4.35072C12.4545 3.80948 12.2118 3.49994 11.9086 3.28432C11.6054 3.0687 11.234 2.94141 10.6386 2.8739C10.0281 2.80468 9.2456 2.80378 8.13592 2.80378H7.86424C6.75455 2.80378 5.97213 2.80468 5.36162 2.8739C4.76629 2.94141 4.39481 3.06869 4.09166 3.28429C3.78851 3.4999 3.54583 3.80943 3.2853 4.35064C3.07675 4.78389 2.8727 5.33008 2.6185 6.04856C2.86654 5.98095 3.12994 5.93088 3.40918 5.89321C4.32054 5.77029 5.48506 5.77031 6.95527 5.77032H9.04504C10.5153 5.77031 11.6798 5.77029 12.5911 5.89321C12.8703 5.93087 13.1337 5.98093 13.3817 6.04852ZM13.6115 9.67337C13.6115 10.2306 13.1613 10.5739 12.6058 10.5739C12.0504 10.5739 11.6001 10.2306 11.6001 9.67337C11.6001 9.11617 12.0504 8.78329 12.6058 8.78329C13.1613 8.78329 13.6115 9.11617 13.6115 9.67337ZM4.41152 9.76761C4.41152 10.3248 3.96125 10.6682 3.40581 10.6682C2.85037 10.6682 2.4001 10.3248 2.4001 9.76761C2.4001 9.21041 2.85037 8.87753 3.40581 8.87753C3.96125 8.87753 4.41152 9.21041 4.41152 9.76761Z" fill="#64748B"/>
</g>
<g clip-path="url(#clip1_2894_63808)">
<path fill-rule="evenodd" clip-rule="evenodd" d="M24.1719 1.60001H23.8283C22.7628 1.6 21.9125 1.59999 21.2268 1.67774C20.5183 1.75809 19.926 1.9265 19.3976 2.30229C18.8692 2.67809 18.5148 3.18301 18.2047 3.82717C17.9332 4.39112 17.6771 5.10357 17.3696 5.98109L16.7415 5.82835C16.4195 5.75003 16.0951 5.94843 16.017 6.27149C15.939 6.59454 16.1367 6.91993 16.4588 6.99824L16.913 7.10869C16.4533 7.67168 16.234 8.36121 16.1229 9.18985C16.0004 10.1041 16.0004 11.2722 16.0004 12.7471L16.0004 13.0232C16.0003 13.1878 16.0003 13.3658 16.0204 13.516C16.044 13.692 16.1047 13.9169 16.2933 14.1061C16.4819 14.2954 16.7061 14.3562 16.8815 14.3798C17.0313 14.4001 17.2087 14.4 17.3728 14.3999L18.629 14.4C18.7035 14.4 18.7844 14.4 18.8549 14.3956C18.934 14.3906 19.0392 14.3785 19.1526 14.3356C19.4219 14.2338 19.6345 14.0206 19.7359 13.7504C19.7786 13.6367 19.7908 13.5312 19.7957 13.4518C19.8001 13.3811 19.8001 13.3 19.8001 13.2251L19.8001 13.2128C19.8001 13.0339 19.8004 12.9274 19.8054 12.8478C19.8084 12.7982 19.8126 12.7771 19.8138 12.7717C19.8342 12.7196 19.8753 12.6783 19.9273 12.6579C19.9327 12.6566 19.9537 12.6525 20.0031 12.6494C20.0824 12.6444 20.1886 12.6442 20.367 12.6442L27.6146 12.6441C27.793 12.6441 27.8993 12.6443 27.9786 12.6494C28.028 12.6524 28.049 12.6566 28.0544 12.6578C28.1064 12.6782 28.1475 12.7195 28.1678 12.7716C28.169 12.777 28.1732 12.7982 28.1763 12.8477C28.1813 12.9273 28.1816 13.0338 28.1816 13.2127V13.2251C28.1815 13.2999 28.1815 13.381 28.1859 13.4518C28.1909 13.5311 28.203 13.6366 28.2458 13.7503C28.3472 14.0206 28.5598 14.2338 28.8291 14.3355C28.9425 14.3784 29.0477 14.3906 29.1268 14.3955C29.1972 14.3999 29.2782 14.3999 29.3527 14.3999H30.6275C30.7916 14.4 30.969 14.4001 31.1188 14.3798C31.2942 14.3562 31.5184 14.2954 31.707 14.1061C31.8957 13.9169 31.9563 13.692 31.9799 13.516C32.0001 13.3658 32 13.1878 31.9999 13.0232V12.747C31.9999 11.2722 31.9999 10.104 31.8774 9.18977C31.7663 8.36113 31.547 7.67161 31.0873 7.10864L31.5412 6.99824C31.8633 6.91993 32.061 6.59454 31.983 6.27149C31.9049 5.94843 31.5806 5.75003 31.2585 5.82835L30.6306 5.98106C30.3231 5.10362 30.067 4.3912 29.7956 3.82729C29.4855 3.1831 29.131 2.67814 28.6027 2.30233C28.0743 1.92652 27.482 1.75809 26.7734 1.67774C26.0877 1.59999 25.2374 1.6 24.1719 1.60001ZM29.3817 6.04852C29.1275 5.33011 28.9235 4.78395 28.715 4.35072C28.4545 3.80948 28.2118 3.49994 27.9086 3.28432C27.6054 3.0687 27.234 2.94141 26.6386 2.8739C26.0281 2.80468 25.2456 2.80378 24.1359 2.80378H23.8642C22.7546 2.80378 21.9721 2.80468 21.3616 2.8739C20.7663 2.94141 20.3948 3.06869 20.0917 3.28429C19.7885 3.4999 19.5458 3.80943 19.2853 4.35064C19.0768 4.78389 18.8727 5.33008 18.6185 6.04856C18.8665 5.98095 19.1299 5.93088 19.4092 5.89321C20.3205 5.77029 21.4851 5.77031 22.9553 5.77032H25.045C26.5153 5.77031 27.6798 5.77029 28.5911 5.89321C28.8703 5.93087 29.1337 5.98093 29.3817 6.04852ZM29.6115 9.67337C29.6115 10.2306 29.1613 10.5739 28.6058 10.5739C28.0504 10.5739 27.6001 10.2306 27.6001 9.67337C27.6001 9.11617 28.0504 8.78329 28.6058 8.78329C29.1613 8.78329 29.6115 9.11617 29.6115 9.67337ZM20.4115 9.76761C20.4115 10.3248 19.9612 10.6682 19.4058 10.6682C18.8504 10.6682 18.4001 10.3248 18.4001 9.76761C18.4001 9.21041 18.8504 8.87753 19.4058 8.87753C19.9612 8.87753 20.4115 9.21041 20.4115 9.76761Z" fill="#CBD5E1"/>
</g>
<g clip-path="url(#clip2_2894_63808)">
<path fill-rule="evenodd" clip-rule="evenodd" d="M40.1719 1.60001H39.8283C38.7628 1.6 37.9125 1.59999 37.2268 1.67774C36.5183 1.75809 35.926 1.9265 35.3976 2.30229C34.8692 2.67809 34.5148 3.18301 34.2047 3.82717C33.9332 4.39112 33.6771 5.10357 33.3696 5.98109L32.7415 5.82835C32.4195 5.75003 32.0951 5.94843 32.017 6.27149C31.939 6.59454 32.1367 6.91993 32.4588 6.99824L32.913 7.10869C32.4533 7.67168 32.234 8.36121 32.1229 9.18985C32.0004 10.1041 32.0004 11.2722 32.0004 12.7471L32.0004 13.0232C32.0003 13.1878 32.0003 13.3658 32.0204 13.516C32.044 13.692 32.1047 13.9169 32.2933 14.1061C32.4819 14.2954 32.7061 14.3562 32.8815 14.3798C33.0313 14.4001 33.2087 14.4 33.3728 14.3999L34.629 14.4C34.7035 14.4 34.7844 14.4 34.8549 14.3956C34.934 14.3906 35.0392 14.3785 35.1526 14.3356C35.4219 14.2338 35.6345 14.0206 35.7359 13.7504C35.7786 13.6367 35.7908 13.5312 35.7957 13.4518C35.8001 13.3811 35.8001 13.3 35.8001 13.2251L35.8001 13.2128C35.8001 13.0339 35.8004 12.9274 35.8054 12.8478C35.8084 12.7982 35.8126 12.7771 35.8138 12.7717C35.8342 12.7196 35.8753 12.6783 35.9273 12.6579C35.9327 12.6566 35.9537 12.6525 36.0031 12.6494C36.0824 12.6444 36.1886 12.6442 36.367 12.6442L43.6146 12.6441C43.793 12.6441 43.8993 12.6443 43.9786 12.6494C44.028 12.6524 44.049 12.6566 44.0544 12.6578C44.1064 12.6782 44.1475 12.7195 44.1678 12.7716C44.169 12.777 44.1732 12.7982 44.1763 12.8477C44.1813 12.9273 44.1816 13.0338 44.1816 13.2127V13.2251C44.1815 13.2999 44.1815 13.381 44.1859 13.4518C44.1909 13.5311 44.203 13.6366 44.2458 13.7503C44.3472 14.0206 44.5598 14.2338 44.8291 14.3355C44.9425 14.3784 45.0477 14.3906 45.1268 14.3955C45.1972 14.3999 45.2782 14.3999 45.3527 14.3999H46.6275C46.7916 14.4 46.969 14.4001 47.1188 14.3798C47.2942 14.3562 47.5184 14.2954 47.707 14.1061C47.8957 13.9169 47.9563 13.692 47.9799 13.516C48.0001 13.3658 48 13.1878 47.9999 13.0232V12.747C47.9999 11.2722 47.9999 10.104 47.8774 9.18977C47.7663 8.36113 47.547 7.67161 47.0873 7.10864L47.5412 6.99824C47.8633 6.91993 48.061 6.59454 47.983 6.27149C47.9049 5.94843 47.5806 5.75003 47.2585 5.82835L46.6306 5.98106C46.3231 5.10362 46.067 4.3912 45.7956 3.82729C45.4855 3.1831 45.131 2.67814 44.6027 2.30233C44.0743 1.92652 43.482 1.75809 42.7734 1.67774C42.0877 1.59999 41.2374 1.6 40.1719 1.60001ZM45.3817 6.04852C45.1275 5.33011 44.9235 4.78395 44.715 4.35072C44.4545 3.80948 44.2118 3.49994 43.9086 3.28432C43.6054 3.0687 43.234 2.94141 42.6386 2.8739C42.0281 2.80468 41.2456 2.80378 40.1359 2.80378H39.8642C38.7546 2.80378 37.9721 2.80468 37.3616 2.8739C36.7663 2.94141 36.3948 3.06869 36.0917 3.28429C35.7885 3.4999 35.5458 3.80943 35.2853 4.35064C35.0768 4.78389 34.8727 5.33008 34.6185 6.04856C34.8665 5.98095 35.1299 5.93088 35.4092 5.89321C36.3205 5.77029 37.4851 5.77031 38.9553 5.77032H41.045C42.5153 5.77031 43.6798 5.77029 44.5911 5.89321C44.8703 5.93087 45.1337 5.98093 45.3817 6.04852ZM45.6115 9.67337C45.6115 10.2306 45.1613 10.5739 44.6058 10.5739C44.0504 10.5739 43.6001 10.2306 43.6001 9.67337C43.6001 9.11617 44.0504 8.78329 44.6058 8.78329C45.1613 8.78329 45.6115 9.11617 45.6115 9.67337ZM36.4115 9.76761C36.4115 10.3248 35.9612 10.6682 35.4058 10.6682C34.8504 10.6682 34.4001 10.3248 34.4001 9.76761C34.4001 9.21041 34.8504 8.87753 35.4058 8.87753C35.9612 8.87753 36.4115 9.21041 36.4115 9.76761Z" fill="#2968F9"/>
</g>
<g clip-path="url(#clip3_2894_63808)">
<path fill-rule="evenodd" clip-rule="evenodd" d="M56.1719 1.60001H55.8283C54.7628 1.6 53.9125 1.59999 53.2268 1.67774C52.5183 1.75809 51.926 1.9265 51.3976 2.30229C50.8692 2.67809 50.5148 3.18301 50.2047 3.82717C49.9332 4.39112 49.6771 5.10357 49.3696 5.98109L48.7415 5.82835C48.4195 5.75003 48.0951 5.94843 48.017 6.27149C47.939 6.59454 48.1367 6.91993 48.4588 6.99824L48.913 7.10869C48.4533 7.67168 48.234 8.36121 48.1229 9.18985C48.0004 10.1041 48.0004 11.2722 48.0004 12.7471L48.0004 13.0232C48.0003 13.1878 48.0003 13.3658 48.0204 13.516C48.044 13.692 48.1047 13.9169 48.2933 14.1061C48.4819 14.2954 48.7061 14.3562 48.8815 14.3798C49.0313 14.4001 49.2087 14.4 49.3728 14.3999L50.629 14.4C50.7035 14.4 50.7844 14.4 50.8549 14.3956C50.934 14.3906 51.0392 14.3785 51.1526 14.3356C51.4219 14.2338 51.6345 14.0206 51.7359 13.7504C51.7786 13.6367 51.7908 13.5312 51.7957 13.4518C51.8001 13.3811 51.8001 13.3 51.8001 13.2251L51.8001 13.2128C51.8001 13.0339 51.8004 12.9274 51.8054 12.8478C51.8084 12.7982 51.8126 12.7771 51.8138 12.7717C51.8342 12.7196 51.8753 12.6783 51.9273 12.6579C51.9327 12.6566 51.9537 12.6525 52.0031 12.6494C52.0824 12.6444 52.1886 12.6442 52.367 12.6442L59.6146 12.6441C59.793 12.6441 59.8993 12.6443 59.9786 12.6494C60.028 12.6524 60.049 12.6566 60.0544 12.6578C60.1064 12.6782 60.1475 12.7195 60.1678 12.7716C60.169 12.777 60.1732 12.7982 60.1763 12.8477C60.1813 12.9273 60.1816 13.0338 60.1816 13.2127V13.2251C60.1815 13.2999 60.1815 13.381 60.1859 13.4518C60.1909 13.5311 60.203 13.6366 60.2458 13.7503C60.3472 14.0206 60.5598 14.2338 60.8291 14.3355C60.9425 14.3784 61.0477 14.3906 61.1268 14.3955C61.1972 14.3999 61.2782 14.3999 61.3527 14.3999H62.6275C62.7916 14.4 62.969 14.4001 63.1188 14.3798C63.2942 14.3562 63.5184 14.2954 63.707 14.1061C63.8957 13.9169 63.9563 13.692 63.9799 13.516C64.0001 13.3658 64 13.1878 63.9999 13.0232V12.747C63.9999 11.2722 63.9999 10.104 63.8774 9.18977C63.7663 8.36113 63.547 7.67161 63.0873 7.10864L63.5412 6.99824C63.8633 6.91993 64.061 6.59454 63.983 6.27149C63.9049 5.94843 63.5806 5.75003 63.2585 5.82835L62.6306 5.98106C62.3231 5.10362 62.067 4.3912 61.7956 3.82729C61.4855 3.1831 61.131 2.67814 60.6027 2.30233C60.0743 1.92652 59.482 1.75809 58.7734 1.67774C58.0877 1.59999 57.2374 1.6 56.1719 1.60001ZM61.3817 6.04852C61.1275 5.33011 60.9235 4.78395 60.715 4.35072C60.4545 3.80948 60.2118 3.49994 59.9086 3.28432C59.6054 3.0687 59.234 2.94141 58.6386 2.8739C58.0281 2.80468 57.2456 2.80378 56.1359 2.80378H55.8642C54.7546 2.80378 53.9721 2.80468 53.3616 2.8739C52.7663 2.94141 52.3948 3.06869 52.0917 3.28429C51.7885 3.4999 51.5458 3.80943 51.2853 4.35064C51.0768 4.78389 50.8727 5.33008 50.6185 6.04856C50.8665 5.98095 51.1299 5.93088 51.4092 5.89321C52.3205 5.77029 53.4851 5.77031 54.9553 5.77032H57.045C58.5153 5.77031 59.6798 5.77029 60.5911 5.89321C60.8703 5.93087 61.1337 5.98093 61.3817 6.04852ZM61.6115 9.67337C61.6115 10.2306 61.1613 10.5739 60.6058 10.5739C60.0504 10.5739 59.6001 10.2306 59.6001 9.67337C59.6001 9.11617 60.0504 8.78329 60.6058 8.78329C61.1613 8.78329 61.6115 9.11617 61.6115 9.67337ZM52.4115 9.76761C52.4115 10.3248 51.9612 10.6682 51.4058 10.6682C50.8504 10.6682 50.4001 10.3248 50.4001 9.76761C50.4001 9.21041 50.8504 8.87753 51.4058 8.87753C51.9612 8.87753 52.4115 9.21041 52.4115 9.76761Z" fill="white"/>
</g>
<defs>
<clipPath id="clip0_2894_63808">
<rect width="16" height="16" fill="white"/>
</clipPath>
<clipPath id="clip1_2894_63808">
<rect width="16" height="16" fill="white" transform="translate(16)"/>
</clipPath>
<clipPath id="clip2_2894_63808">
<rect width="16" height="16" fill="white" transform="translate(32)"/>
</clipPath>
<clipPath id="clip3_2894_63808">
<rect width="16" height="16" fill="white" transform="translate(48)"/>
</clipPath>
</defs>
</svg>
