<svg width="80" height="16" viewBox="0 0 80 16" fill="none" xmlns="http://www.w3.org/2000/svg">
<g clip-path="url(#clip0_5645_76267)">
<path d="M7.53375 1.60012H3.08737C2.20371 1.60012 1.48737 2.31646 1.48737 3.20011L1.4873 12.8001C1.4873 13.6837 2.20364 14.4001 3.0873 14.4001L10.2873 14.4001C11.171 14.4001 11.8873 13.6838 11.8873 12.8002V10.677M4.73005 6.54731V9.00613C4.73005 10.2212 5.71502 11.2061 6.93005 11.2061C8.14508 11.2061 9.13005 10.2212 9.13005 9.00613V5.90025C9.13005 5.257 8.60859 4.73554 7.96534 4.73554C7.32209 4.73554 6.80064 5.257 6.80064 5.90025V8.87672M11.9259 1.4563V7.34932M11.9259 1.4563C11.4589 1.4563 10.2826 2.82612 9.95478 3.16336M11.9259 1.4563C12.3929 1.4563 14.1161 3.5619 14.4439 3.89913" stroke="#64748B" stroke-width="1.2" stroke-linecap="round"/>
</g>
<g clip-path="url(#clip1_5645_76267)">
<path d="M23.5337 1.60012H19.0874C18.2037 1.60012 17.4874 2.31646 17.4874 3.20011L17.4873 12.8001C17.4873 13.6837 18.2036 14.4001 19.0873 14.4001L26.2873 14.4001C27.171 14.4001 27.8873 13.6838 27.8873 12.8002V10.677M20.7301 6.54731V9.00613C20.7301 10.2212 21.715 11.2061 22.93 11.2061C24.1451 11.2061 25.1301 10.2212 25.1301 9.00613V5.90025C25.1301 5.257 24.6086 4.73554 23.9653 4.73554C23.3221 4.73554 22.8006 5.257 22.8006 5.90025V8.87672M27.9259 1.4563V7.34932M27.9259 1.4563C27.4589 1.4563 26.2826 2.82612 25.9548 3.16336M27.9259 1.4563C28.3929 1.4563 30.1161 3.5619 30.4439 3.89913" stroke="#CBD5E1" stroke-width="1.2" stroke-linecap="round"/>
</g>
<g clip-path="url(#clip2_5645_76267)">
<path d="M39.5337 1.60012H35.0874C34.2037 1.60012 33.4874 2.31646 33.4874 3.20011L33.4873 12.8001C33.4873 13.6837 34.2036 14.4001 35.0873 14.4001L42.2873 14.4001C43.171 14.4001 43.8873 13.6838 43.8873 12.8002V10.677M36.7301 6.54731V9.00613C36.7301 10.2212 37.715 11.2061 38.93 11.2061C40.1451 11.2061 41.1301 10.2212 41.1301 9.00613V5.90025C41.1301 5.257 40.6086 4.73554 39.9653 4.73554C39.3221 4.73554 38.8006 5.257 38.8006 5.90025V8.87672M43.9259 1.4563V7.34932M43.9259 1.4563C43.4589 1.4563 42.2826 2.82612 41.9548 3.16336M43.9259 1.4563C44.3929 1.4563 46.1161 3.5619 46.4439 3.89913" stroke="#2968F9" stroke-width="1.2" stroke-linecap="round"/>
</g>
<g clip-path="url(#clip3_5645_76267)">
<path d="M55.5337 1.60012H51.0874C50.2037 1.60012 49.4874 2.31646 49.4874 3.20011L49.4873 12.8001C49.4873 13.6837 50.2036 14.4001 51.0873 14.4001L58.2873 14.4001C59.171 14.4001 59.8873 13.6838 59.8873 12.8002V10.677M52.7301 6.54731V9.00613C52.7301 10.2212 53.715 11.2061 54.93 11.2061C56.1451 11.2061 57.1301 10.2212 57.1301 9.00613V5.90025C57.1301 5.257 56.6086 4.73554 55.9653 4.73554C55.3221 4.73554 54.8006 5.257 54.8006 5.90025V8.87672M59.9259 1.4563V7.34932M59.9259 1.4563C59.4589 1.4563 58.2826 2.82612 57.9548 3.16336M59.9259 1.4563C60.3929 1.4563 62.1161 3.5619 62.4439 3.89913" stroke="white" stroke-width="1.2" stroke-linecap="round"/>
</g>
<defs>
<clipPath id="clip0_5645_76267">
<rect width="16" height="16" fill="white"/>
</clipPath>
<clipPath id="clip1_5645_76267">
<rect width="16" height="16" fill="white" transform="translate(16)"/>
</clipPath>
<clipPath id="clip2_5645_76267">
<rect width="16" height="16" fill="white" transform="translate(32)"/>
</clipPath>
<clipPath id="clip3_5645_76267">
<rect width="16" height="16" fill="white" transform="translate(48)"/>
</clipPath>
</defs>
</svg>
