<svg width="16" height="17" viewBox="0 0 16 17" fill="none" xmlns="http://www.w3.org/2000/svg">
    <path d="M8 11.5v-1.333" stroke="#5B82B0" stroke-width="1.2" stroke-linecap="round"/>
    <path d="M2.847 13.064c.15 1.114 1.072 1.986 2.194 2.038.944.043 1.904.066 2.96.066 1.057 0 2.016-.023 2.96-.066 1.123-.052 2.045-.924 2.195-2.038.098-.727.179-1.471.179-2.23 0-.758-.081-1.503-.179-2.23-.15-1.113-1.072-1.985-2.195-2.037a63.613 63.613 0 0 0-2.96-.066c-1.056 0-2.016.023-2.96.066-1.122.052-2.045.924-2.194 2.037-.098.727-.179 1.472-.179 2.23 0 .759.08 1.503.179 2.23z" stroke="#5B82B0" stroke-width="1.2"/>
    <path d="M5 6.5V4.835a3 3 0 0 1 6 0v1.667" stroke="#5B82B0" stroke-width="1.2" stroke-linecap="round" stroke-linejoin="round"/>
</svg>
