<svg width="16" height="17" viewBox="0 0 16 17" fill="none" xmlns="http://www.w3.org/2000/svg">
    <path d="m5.997 15.167-.167-2.34a2.173 2.173 0 1 1 4.334 0l-.167 2.34" stroke="#fff" stroke-width="1.2"/>
    <path d="M1.566 9.309c-.235-1.532-.353-2.298-.063-2.976.29-.68.932-1.144 2.216-2.073l.96-.694C6.278 2.411 7.077 1.833 8 1.833c.922 0 1.72.578 3.319 1.733l.96.694c1.285.93 1.927 1.394 2.217 2.073.29.678.171 1.444-.064 2.976l-.2 1.306c-.334 2.17-.501 3.256-1.28 3.904-.778.647-1.917.647-4.193.647H7.239c-2.276 0-3.414 0-4.193-.647-.779-.648-.945-1.733-1.279-3.904l-.2-1.306z" stroke="#fff" stroke-width="1.2" stroke-linejoin="round"/>
</svg>
