<svg width="216" height="32" viewBox="0 0 216 32" fill="none" xmlns="http://www.w3.org/2000/svg">
    <path d="M86.52 9.584c0 2.45 1.59 4.748 4.576 5.693l-1.29 1.87c-2.094-.71-3.598-2.127-4.425-3.932-.86 2.062-2.428 3.684-4.662 4.469l-1.29-1.87c3.137-1.095 4.684-3.673 4.706-6.445V7.521h2.384v2.063zm8.443-3.094v4.727h2.707v1.976h-2.707v4.92h-2.385V6.49h2.385zm-6.316 12.053c4.017-.021 6.488 1.354 6.51 3.652-.022 2.342-2.493 3.696-6.51 3.696-4.061 0-6.575-1.354-6.575-3.696 0-2.299 2.514-3.674 6.575-3.652zm0 1.87c-2.665 0-4.19.644-4.19 1.782 0 1.203 1.525 1.805 4.19 1.805 2.663 0 4.146-.602 4.146-1.805 0-1.138-1.483-1.783-4.147-1.783zm17.359-9.26c-.022 3.566 1.848 7.132 5.006 8.486l-1.418 1.912c-2.235-1.031-3.878-3.094-4.77-5.63-.891 2.74-2.556 4.974-4.92 6.081l-1.46-1.998c3.244-1.397 5.134-5.113 5.134-8.852V8.06h2.428v3.093zm8.808-4.663v19.444h-2.406V6.49h2.406zm18.176 0v4.426h2.707v1.955h-2.707v4.533h-2.385V6.49h2.385zm-5.392 1.182c-.022 5.049-3.33 8.55-9.131 10.098l-.946-1.913c4.501-1.16 7.058-3.448 7.477-6.252h-6.553V7.672h9.153zm5.392 10.506v7.476h-12.568v-7.476h12.568zm-10.183 1.955v3.63h7.82v-3.63h-7.82zm21.226-8.98c-.021 3.566 1.848 7.132 5.006 8.486l-1.418 1.912c-2.234-1.031-3.878-3.094-4.769-5.63-.892 2.74-2.557 4.974-4.92 6.081l-1.461-1.998c3.244-1.397 5.134-5.113 5.134-8.852V8.06h2.428v3.093zm8.809-4.663v19.444h-2.406V6.49h2.406zm10.205 4.662c-.022 3.567 1.848 7.133 5.006 8.487l-1.418 1.912c-2.235-1.031-3.878-3.094-4.77-5.63-.891 2.74-2.556 4.974-4.92 6.081l-1.461-1.998c3.245-1.397 5.135-5.113 5.135-8.852V8.06h2.428v3.093zm8.808-4.662v19.444h-2.406V6.49h2.406zm12.891 2.664c0 3.008 2.943 6.016 7.004 6.725l-1.074 1.998c-3.255-.688-5.919-2.653-7.176-5.264-1.289 2.59-3.953 4.566-7.197 5.264l-1.053-1.998c4.018-.73 6.939-3.738 6.961-6.725v-1.44h2.535v1.44zm7.713 12.31v1.977h-17.746v-1.976h17.746zm9.475-13.77v1.933h-5.092v1.826h4.361v1.848h-4.361v1.998c2.331-.022 3.931-.108 5.822-.451l.258 1.869c-2.234.408-4.082.494-7.09.494h-1.289V7.693h7.391zm8.4-1.204v11.623h-2.277V6.49h2.277zm-3.824.322v11.15h-2.278v-4.79h-2.191v-1.934h2.191V6.813h2.278zm3.824 12.118v6.746h-13.105V18.93h13.105zm-10.721 1.89v2.922h8.358V20.82h-8.358zM42.908 6.9h-3.135v18.389h3.135V6.898zM47.258 6.9v18.389h5.694c4.863 0 7.166-1.695 7.166-5.084 0-2.134-1.216-3.703-3.263-4.33l-.192-.063.192-.063c1.855-.753 2.751-2.134 2.751-4.08 0-3.138-2.175-4.832-6.59-4.832h-5.758V6.9zm5.182 10.23c2.24 0 4.415.376 4.415 2.824 0 .879-.32 1.632-1.024 2.071-.704.44-1.727.628-3.135.628h-2.303V17.13h2.047zm1.024-7.594c.896 0 3.07.313 3.07 2.447 0 1.193-.51 1.82-1.279 2.197-.767.314-1.855.377-3.07.377h-1.792V9.536h3.07zM77.778 6.9c-1.024 1.005-8.446 8.724-8.446 8.724s8.062 8.599 9.086 9.665h-4.351c-.384-.439-7.358-8.284-7.358-8.284v8.285h-3.135V6.9h3.135v7.469s6.59-7.03 6.974-7.469h4.095zM8.678 1.377c-.832.439-1.472 1.13-1.792 2.008l-5.694 16.82c-.32.879-.256 1.82.192 2.699a3.733 3.733 0 0 0 2.047 1.757l18.747 6.15c.895.315 1.855.252 2.75-.188.832-.439 1.472-1.13 1.792-2.008l5.694-16.82c.64-1.82-.383-3.828-2.239-4.456L11.43 1.189c-.96-.314-1.92-.252-2.751.188z" fill="#fff"/>
    <path d="M17.826 17.506a9.81 9.81 0 0 1-3.775 2.573l-.831.377v-7.845l.831.314a9.81 9.81 0 0 1 3.775 2.573c.704-1.13 1.152-2.51 1.28-3.954.256-3.766-2.175-7.155-5.438-8.347l-2.688-.879a2.378 2.378 0 0 0-2.943 1.443L2.28 20.581c-.384 1.193.256 2.511 1.472 2.888l12.988 4.267c1.343-1.38 2.175-3.2 2.303-5.272.192-1.757-.32-3.514-1.216-4.958zm-7.485 3.39H9.06V12.17h1.28v8.724z" fill="#0098D9"/>
    <path d="M17.06 16.502c-.703-.816-1.599-1.506-2.622-2.071v4.142c1.023-.502 1.919-1.192 2.623-2.071z" fill="#E63C2F"/>
    <path d="m29.726 8.468-11.964-3.89c1.6 1.694 2.559 4.016 2.559 6.526 0 1.946-.64 3.892-1.728 5.46a9.566 9.566 0 0 1 1.728 5.46c0 2.386-.832 4.52-2.303 6.214l4.478 1.444a2.378 2.378 0 0 0 2.943-1.444l5.759-16.82a2.279 2.279 0 0 0-1.472-2.95zm-3.199 12.427h-1.6l-3.326-4.393 3.39-4.393h1.6L23.2 16.502l3.327 4.393z" fill="#004C99"/>
</svg>
