<svg width="16" height="16" viewBox="0 0 16 16" fill="none" xmlns="http://www.w3.org/2000/svg">
<path d="M11.4832 2.87624L12.1495 3.47302C12.4901 3.77802 12.7836 4.04082 12.9902 4.28272C13.2116 4.54197 13.3843 4.83416 13.4038 5.20439C13.4234 5.57462 13.2825 5.88325 13.0897 6.1642C12.9098 6.42636 12.6457 6.71837 12.3392 7.05729L7.04044 12.9164C6.75143 13.2366 6.52285 13.4898 6.21996 13.6479C5.91707 13.806 5.5778 13.8491 5.14885 13.9037L3.86915 14.0676C3.52836 14.1113 3.2202 14.1508 2.96908 14.1477C2.69517 14.1443 2.39695 14.0911 2.14664 13.867C1.89633 13.6427 1.81183 13.3532 1.77968 13.0825C1.75021 12.8343 1.75733 12.5252 1.76522 12.1833L1.79463 10.8997C1.80412 10.4695 1.81163 10.1292 1.9378 9.81289C2.06396 9.49649 2.29299 9.2437 2.58255 8.92407L7.88135 3.06495C8.18784 2.72601 8.4519 2.43397 8.695 2.22841C8.95555 2.0081 9.24915 1.83625 9.62119 1.81675C9.99323 1.79726 10.3034 1.93748 10.5857 2.12934C10.8491 2.30835 11.1426 2.5712 11.4832 2.87624Z" fill="#FEE2D7" stroke="#FE6D34"/>
<path d="M9.79127 5.08529C9.58421 4.90259 9.26824 4.92233 9.08554 5.12939C8.90283 5.33644 8.92257 5.65241 9.12963 5.83512L9.79127 5.08529ZM9.12963 5.83512L11.2446 7.70133L11.9062 6.9515L9.79127 5.08529L9.12963 5.83512Z" fill="#FE6D34"/>
<path d="M8.97985 14.0015C8.64745 14.0015 8.37793 14.2697 8.37793 14.6005C8.37793 14.9314 8.64745 15.1995 8.97985 15.1995H14.5982C14.9306 15.1995 15.2002 14.9314 15.2002 14.6005C15.2002 14.2697 14.9306 14.0015 14.5982 14.0015H8.97985Z" fill="#FE6D34"/>
</svg>
