<svg width="80" height="16" viewBox="0 0 80 16" fill="none" xmlns="http://www.w3.org/2000/svg">
<g clip-path="url(#clip0_944_21038)">
<path d="M4.30052 9.54394L7.57362 5.72431C7.62637 5.66277 7.69182 5.61338 7.76546 5.57952C7.8391 5.54565 7.9192 5.52812 8.00026 5.52812C8.08131 5.52812 8.16141 5.54565 8.23505 5.57952C8.30869 5.61338 8.37414 5.66277 8.4269 5.72431L11.7 9.54394C12.0124 9.90852 11.7534 10.4717 11.2734 10.4717H4.72622C4.24619 10.4717 3.98721 9.90852 4.30052 9.54394Z" fill="#64748B"/>
</g>
<g clip-path="url(#clip1_944_21038)">
<path d="M20.5847 9.78812L20.585 9.78772L23.858 5.96817C23.8581 5.96815 23.8581 5.96812 23.8581 5.9681C23.8757 5.94762 23.8975 5.93118 23.922 5.91991C23.9465 5.90862 23.9732 5.90277 24.0003 5.90277C24.0273 5.90277 24.054 5.90862 24.0785 5.91991C24.103 5.93118 24.1248 5.94762 24.1424 5.9681L20.5847 9.78812ZM20.5847 9.78812C20.4802 9.90972 20.5664 10.097 20.7262 10.097H27.2734C27.4331 10.097 27.5197 9.90941 27.4155 9.78772C27.4155 9.78771 27.4155 9.78771 27.4155 9.7877L24.1425 5.96817L20.5847 9.78812Z" fill="#CBD5E1" stroke="#CBD5E1" stroke-width="0.749314"/>
</g>
<g clip-path="url(#clip2_944_21038)">
<path d="M36.5847 9.78812L36.585 9.78772L39.858 5.96817C39.8581 5.96815 39.8581 5.96812 39.8581 5.9681C39.8757 5.94762 39.8975 5.93118 39.922 5.91991C39.9465 5.90862 39.9732 5.90277 40.0003 5.90277C40.0273 5.90277 40.054 5.90862 40.0785 5.91991C40.103 5.93118 40.1248 5.94762 40.1424 5.9681L36.5847 9.78812ZM36.5847 9.78812C36.4802 9.90972 36.5664 10.097 36.7262 10.097H43.2734C43.4331 10.097 43.5197 9.90941 43.4155 9.78772C43.4155 9.78771 43.4155 9.78771 43.4155 9.7877L40.1425 5.96817L36.5847 9.78812Z" fill="#2968F9" stroke="#2968F9" stroke-width="0.749314"/>
</g>
<g clip-path="url(#clip3_944_21038)">
<path d="M52.5847 9.78812L52.585 9.78772L55.858 5.96817C55.8581 5.96815 55.8581 5.96812 55.8581 5.9681C55.8757 5.94762 55.8975 5.93118 55.922 5.91991C55.9465 5.90862 55.9732 5.90277 56.0003 5.90277C56.0273 5.90277 56.054 5.90862 56.0785 5.91991C56.103 5.93118 56.1248 5.94762 56.1424 5.9681L52.5847 9.78812ZM52.5847 9.78812C52.4802 9.90972 52.5664 10.097 52.7262 10.097H59.2734C59.4331 10.097 59.5197 9.90941 59.4155 9.78772C59.4155 9.78771 59.4155 9.78771 59.4155 9.7877L56.1425 5.96817L52.5847 9.78812Z" fill="white" stroke="white" stroke-width="0.749314"/>
</g>
<defs>
<clipPath id="clip0_944_21038">
<rect width="16" height="16" fill="white"/>
</clipPath>
<clipPath id="clip1_944_21038">
<rect width="16" height="16" fill="white" transform="translate(16)"/>
</clipPath>
<clipPath id="clip2_944_21038">
<rect width="16" height="16" fill="white" transform="translate(32)"/>
</clipPath>
<clipPath id="clip3_944_21038">
<rect width="16" height="16" fill="white" transform="translate(48)"/>
</clipPath>
</defs>
</svg>
