<svg width="80" height="16" viewBox="0 0 80 16" fill="none" xmlns="http://www.w3.org/2000/svg">
<g clip-path="url(#clip0_944_20191)">
<path d="M5.21237 11.5996C3.9385 11.5996 3.30157 11.5996 2.8481 11.3277C2.55172 11.15 2.31295 10.8959 2.15885 10.5941C1.92308 10.1325 1.98645 9.522 2.11321 8.3011C2.21902 7.28192 2.27193 6.77234 2.5321 6.39809C2.70292 6.15238 2.93396 5.95099 3.20478 5.81173C3.61729 5.59961 4.14898 5.59961 5.21237 5.59961H10.7876C11.851 5.59961 12.3827 5.59961 12.7952 5.81173C13.066 5.95099 13.2971 6.15238 13.4679 6.39809C13.7281 6.77234 13.781 7.28192 13.8868 8.3011C14.0135 9.522 14.0769 10.1325 13.8411 10.5941C13.6871 10.8959 13.4483 11.15 13.1519 11.3277C12.6984 11.5996 12.0615 11.5996 10.7876 11.5996" stroke="#64748B" stroke-width="1.2"/>
<path d="M11 5.6V4.4C11 3.26863 11 2.70294 10.6485 2.35147C10.2971 2 9.73137 2 8.6 2H7.4C6.26863 2 5.70294 2 5.35147 2.35147C5 2.70294 5 3.26863 5 4.4V5.6" stroke="#64748B" stroke-width="1.2" stroke-linejoin="round"/>
<path d="M9.19321 10.3994L6.80679 10.3994C6.39561 10.3994 6.19002 10.3994 6.0151 10.4647C5.78187 10.5518 5.58216 10.721 5.44772 10.9454C5.34689 11.1137 5.29703 11.3301 5.1973 11.7629C5.04148 12.4391 4.96357 12.7772 5.01656 13.0484C5.08721 13.4098 5.30742 13.7158 5.61351 13.8779C5.84308 13.9994 6.16431 13.9994 6.80679 13.9994L9.19321 13.9994C9.83569 13.9994 10.1569 13.9994 10.3865 13.8779C10.6926 13.7158 10.9128 13.4098 10.9834 13.0484C11.0364 12.7772 10.9585 12.4391 10.8027 11.7629C10.703 11.3301 10.6531 11.1137 10.5523 10.9454C10.4178 10.721 10.2181 10.5518 9.9849 10.4647C9.80998 10.3994 9.60439 10.3994 9.19321 10.3994Z" stroke="#64748B" stroke-width="1.2" stroke-linejoin="round"/>
<path d="M11.6016 8H11.607" stroke="#64748B" stroke-width="1.2" stroke-linecap="round" stroke-linejoin="round"/>
</g>
<g clip-path="url(#clip1_944_20191)">
<path d="M21.2124 11.5996C19.9385 11.5996 19.3016 11.5996 18.8481 11.3277C18.5517 11.15 18.3129 10.8959 18.1589 10.5941C17.9231 10.1325 17.9865 9.522 18.1132 8.3011C18.219 7.28192 18.2719 6.77234 18.5321 6.39809C18.7029 6.15238 18.934 5.95099 19.2048 5.81173C19.6173 5.59961 20.149 5.59961 21.2124 5.59961H26.7876C27.851 5.59961 28.3827 5.59961 28.7952 5.81173C29.066 5.95099 29.2971 6.15238 29.4679 6.39809C29.7281 6.77234 29.781 7.28192 29.8868 8.3011C30.0135 9.522 30.0769 10.1325 29.8411 10.5941C29.6871 10.8959 29.4483 11.15 29.1519 11.3277C28.6984 11.5996 28.0615 11.5996 26.7876 11.5996" stroke="#CBD5E1" stroke-width="1.2"/>
<path d="M27 5.6V4.4C27 3.26863 27 2.70294 26.6485 2.35147C26.2971 2 25.7314 2 24.6 2H23.4C22.2686 2 21.7029 2 21.3515 2.35147C21 2.70294 21 3.26863 21 4.4V5.6" stroke="#CBD5E1" stroke-width="1.2" stroke-linejoin="round"/>
<path d="M25.1932 10.3994L22.8068 10.3994C22.3956 10.3994 22.19 10.3994 22.0151 10.4647C21.7819 10.5518 21.5822 10.721 21.4477 10.9454C21.3469 11.1137 21.297 11.3301 21.1973 11.7629C21.0415 12.4391 20.9636 12.7772 21.0166 13.0484C21.0872 13.4098 21.3074 13.7158 21.6135 13.8779C21.8431 13.9994 22.1643 13.9994 22.8068 13.9994L25.1932 13.9994C25.8357 13.9994 26.1569 13.9994 26.3865 13.8779C26.6926 13.7158 26.9128 13.4098 26.9834 13.0484C27.0364 12.7772 26.9585 12.4391 26.8027 11.7629C26.703 11.3301 26.6531 11.1137 26.5523 10.9454C26.4178 10.721 26.2181 10.5518 25.9849 10.4647C25.81 10.3994 25.6044 10.3994 25.1932 10.3994Z" stroke="#CBD5E1" stroke-width="1.2" stroke-linejoin="round"/>
<path d="M27.6016 8H27.607" stroke="#CBD5E1" stroke-width="1.2" stroke-linecap="round" stroke-linejoin="round"/>
</g>
<g clip-path="url(#clip2_944_20191)">
<path d="M37.2124 11.5996C35.9385 11.5996 35.3016 11.5996 34.8481 11.3277C34.5517 11.15 34.3129 10.8959 34.1589 10.5941C33.9231 10.1325 33.9865 9.522 34.1132 8.3011C34.219 7.28192 34.2719 6.77234 34.5321 6.39809C34.7029 6.15238 34.934 5.95099 35.2048 5.81173C35.6173 5.59961 36.149 5.59961 37.2124 5.59961H42.7876C43.851 5.59961 44.3827 5.59961 44.7952 5.81173C45.066 5.95099 45.2971 6.15238 45.4679 6.39809C45.7281 6.77234 45.781 7.28192 45.8868 8.3011C46.0135 9.522 46.0769 10.1325 45.8411 10.5941C45.6871 10.8959 45.4483 11.15 45.1519 11.3277C44.6984 11.5996 44.0615 11.5996 42.7876 11.5996" stroke="#2968F9" stroke-width="1.2"/>
<path d="M43 5.6V4.4C43 3.26863 43 2.70294 42.6485 2.35147C42.2971 2 41.7314 2 40.6 2H39.4C38.2686 2 37.7029 2 37.3515 2.35147C37 2.70294 37 3.26863 37 4.4V5.6" stroke="#2968F9" stroke-width="1.2" stroke-linejoin="round"/>
<path d="M41.1932 10.3994L38.8068 10.3994C38.3956 10.3994 38.19 10.3994 38.0151 10.4647C37.7819 10.5518 37.5822 10.721 37.4477 10.9454C37.3469 11.1137 37.297 11.3301 37.1973 11.7629C37.0415 12.4391 36.9636 12.7772 37.0166 13.0484C37.0872 13.4098 37.3074 13.7158 37.6135 13.8779C37.8431 13.9994 38.1643 13.9994 38.8068 13.9994L41.1932 13.9994C41.8357 13.9994 42.1569 13.9994 42.3865 13.8779C42.6926 13.7158 42.9128 13.4098 42.9834 13.0484C43.0364 12.7772 42.9585 12.4391 42.8027 11.7629C42.703 11.3301 42.6531 11.1137 42.5523 10.9454C42.4178 10.721 42.2181 10.5518 41.9849 10.4647C41.81 10.3994 41.6044 10.3994 41.1932 10.3994Z" stroke="#2968F9" stroke-width="1.2" stroke-linejoin="round"/>
<path d="M43.6016 8H43.607" stroke="#2968F9" stroke-width="1.2" stroke-linecap="round" stroke-linejoin="round"/>
</g>
<g clip-path="url(#clip3_944_20191)">
<path d="M53.2124 11.5996C51.9385 11.5996 51.3016 11.5996 50.8481 11.3277C50.5517 11.15 50.3129 10.8959 50.1589 10.5941C49.9231 10.1325 49.9865 9.522 50.1132 8.3011C50.219 7.28192 50.2719 6.77234 50.5321 6.39809C50.7029 6.15238 50.934 5.95099 51.2048 5.81173C51.6173 5.59961 52.149 5.59961 53.2124 5.59961H58.7876C59.851 5.59961 60.3827 5.59961 60.7952 5.81173C61.066 5.95099 61.2971 6.15238 61.4679 6.39809C61.7281 6.77234 61.781 7.28192 61.8868 8.3011C62.0135 9.522 62.0769 10.1325 61.8411 10.5941C61.6871 10.8959 61.4483 11.15 61.1519 11.3277C60.6984 11.5996 60.0615 11.5996 58.7876 11.5996" stroke="white" stroke-width="1.2"/>
<path d="M59 5.6V4.4C59 3.26863 59 2.70294 58.6485 2.35147C58.2971 2 57.7314 2 56.6 2H55.4C54.2686 2 53.7029 2 53.3515 2.35147C53 2.70294 53 3.26863 53 4.4V5.6" stroke="white" stroke-width="1.2" stroke-linejoin="round"/>
<path d="M57.1932 10.3994L54.8068 10.3994C54.3956 10.3994 54.19 10.3994 54.0151 10.4647C53.7819 10.5518 53.5822 10.721 53.4477 10.9454C53.3469 11.1137 53.297 11.3301 53.1973 11.7629C53.0415 12.4391 52.9636 12.7772 53.0166 13.0484C53.0872 13.4098 53.3074 13.7158 53.6135 13.8779C53.8431 13.9994 54.1643 13.9994 54.8068 13.9994L57.1932 13.9994C57.8357 13.9994 58.1569 13.9994 58.3865 13.8779C58.6926 13.7158 58.9128 13.4098 58.9834 13.0484C59.0364 12.7772 58.9585 12.4391 58.8027 11.7629C58.703 11.3301 58.6531 11.1137 58.5523 10.9454C58.4178 10.721 58.2181 10.5518 57.9849 10.4647C57.81 10.3994 57.6044 10.3994 57.1932 10.3994Z" stroke="white" stroke-width="1.2" stroke-linejoin="round"/>
<path d="M59.6016 8H59.607" stroke="white" stroke-width="1.2" stroke-linecap="round" stroke-linejoin="round"/>
</g>
<defs>
<clipPath id="clip0_944_20191">
<rect width="16" height="16" fill="white"/>
</clipPath>
<clipPath id="clip1_944_20191">
<rect width="16" height="16" fill="white" transform="translate(16)"/>
</clipPath>
<clipPath id="clip2_944_20191">
<rect width="16" height="16" fill="white" transform="translate(32)"/>
</clipPath>
<clipPath id="clip3_944_20191">
<rect width="16" height="16" fill="white" transform="translate(48)"/>
</clipPath>
</defs>
</svg>
