<svg width="80" height="16" viewBox="0 0 80 16" fill="none" xmlns="http://www.w3.org/2000/svg">
<g clip-path="url(#clip0_944_20215)">
<path d="M4.66667 14H13.3333C13.5101 14 13.6797 13.9298 13.8047 13.8047C13.9298 13.6797 14 13.5101 14 13.3333V3.33333M10.6667 11.3333H2.66667C2.48986 11.3333 2.32029 11.2631 2.19526 11.1381C2.07024 11.013 2 10.8435 2 10.6667V2.66667C2 2.48986 2.07024 2.32029 2.19526 2.19526C2.32029 2.07024 2.48986 2 2.66667 2H10.6667C10.8435 2 11.013 2.07024 11.1381 2.19526C11.2631 2.32029 11.3333 2.48986 11.3333 2.66667V10.6667C11.3333 10.8435 11.2631 11.013 11.1381 11.1381C11.013 11.2631 10.8435 11.3333 10.6667 11.3333Z" stroke="#64748B" stroke-width="1.2" stroke-linecap="round" stroke-linejoin="round"/>
<path d="M5.25342 5.25342L8.08008 8.08008" stroke="#64748B" stroke-width="1.2" stroke-linecap="round" stroke-linejoin="round"/>
<path d="M5.25342 8.08008L8.08008 5.25342" stroke="#64748B" stroke-width="1.2" stroke-linecap="round" stroke-linejoin="round"/>
</g>
<g clip-path="url(#clip1_944_20215)">
<path d="M20.6667 14H29.3333C29.5101 14 29.6797 13.9298 29.8047 13.8047C29.9298 13.6797 30 13.5101 30 13.3333V3.33333M26.6667 11.3333H18.6667C18.4899 11.3333 18.3203 11.2631 18.1953 11.1381C18.0702 11.013 18 10.8435 18 10.6667V2.66667C18 2.48986 18.0702 2.32029 18.1953 2.19526C18.3203 2.07024 18.4899 2 18.6667 2H26.6667C26.8435 2 27.013 2.07024 27.1381 2.19526C27.2631 2.32029 27.3333 2.48986 27.3333 2.66667V10.6667C27.3333 10.8435 27.2631 11.013 27.1381 11.1381C27.013 11.2631 26.8435 11.3333 26.6667 11.3333Z" stroke="#CBD5E1" stroke-width="1.2" stroke-linecap="round" stroke-linejoin="round"/>
<path d="M21.2534 5.25342L24.0801 8.08008" stroke="#CBD5E1" stroke-width="1.2" stroke-linecap="round" stroke-linejoin="round"/>
<path d="M21.2534 8.08008L24.0801 5.25342" stroke="#CBD5E1" stroke-width="1.2" stroke-linecap="round" stroke-linejoin="round"/>
</g>
<g clip-path="url(#clip2_944_20215)">
<path d="M36.6667 14H45.3333C45.5101 14 45.6797 13.9298 45.8047 13.8047C45.9298 13.6797 46 13.5101 46 13.3333V3.33333M42.6667 11.3333H34.6667C34.4899 11.3333 34.3203 11.2631 34.1953 11.1381C34.0702 11.013 34 10.8435 34 10.6667V2.66667C34 2.48986 34.0702 2.32029 34.1953 2.19526C34.3203 2.07024 34.4899 2 34.6667 2H42.6667C42.8435 2 43.013 2.07024 43.1381 2.19526C43.2631 2.32029 43.3333 2.48986 43.3333 2.66667V10.6667C43.3333 10.8435 43.2631 11.013 43.1381 11.1381C43.013 11.2631 42.8435 11.3333 42.6667 11.3333Z" stroke="#2968F9" stroke-width="1.2" stroke-linecap="round" stroke-linejoin="round"/>
<path d="M37.2534 5.25342L40.0801 8.08008" stroke="#2968F9" stroke-width="1.2" stroke-linecap="round" stroke-linejoin="round"/>
<path d="M37.2534 8.08008L40.0801 5.25342" stroke="#2968F9" stroke-width="1.2" stroke-linecap="round" stroke-linejoin="round"/>
</g>
<g clip-path="url(#clip3_944_20215)">
<path d="M52.6667 14H61.3333C61.5101 14 61.6797 13.9298 61.8047 13.8047C61.9298 13.6797 62 13.5101 62 13.3333V3.33333M58.6667 11.3333H50.6667C50.4899 11.3333 50.3203 11.2631 50.1953 11.1381C50.0702 11.013 50 10.8435 50 10.6667V2.66667C50 2.48986 50.0702 2.32029 50.1953 2.19526C50.3203 2.07024 50.4899 2 50.6667 2H58.6667C58.8435 2 59.013 2.07024 59.1381 2.19526C59.2631 2.32029 59.3333 2.48986 59.3333 2.66667V10.6667C59.3333 10.8435 59.2631 11.013 59.1381 11.1381C59.013 11.2631 58.8435 11.3333 58.6667 11.3333Z" stroke="white" stroke-width="1.2" stroke-linecap="round" stroke-linejoin="round"/>
<path d="M53.2534 5.25342L56.0801 8.08008" stroke="white" stroke-width="1.2" stroke-linecap="round" stroke-linejoin="round"/>
<path d="M53.2534 8.08008L56.0801 5.25342" stroke="white" stroke-width="1.2" stroke-linecap="round" stroke-linejoin="round"/>
</g>
<defs>
<clipPath id="clip0_944_20215">
<rect width="16" height="16" fill="white"/>
</clipPath>
<clipPath id="clip1_944_20215">
<rect width="16" height="16" fill="white" transform="translate(16)"/>
</clipPath>
<clipPath id="clip2_944_20215">
<rect width="16" height="16" fill="white" transform="translate(32)"/>
</clipPath>
<clipPath id="clip3_944_20215">
<rect width="16" height="16" fill="white" transform="translate(48)"/>
</clipPath>
</defs>
</svg>
