<svg width="20" height="20" viewBox="0 0 20 20" fill="none" xmlns="http://www.w3.org/2000/svg">
<path d="M1.49996 3.50001C1.22382 3.50001 0.999962 3.72387 0.999962 4.00001V6.00001C0.999962 6.27615 1.22382 6.50001 1.49996 6.50001H18.5C18.7761 6.50001 19 6.27615 19 6.00001V4.00001C19 3.72387 18.7761 3.50001 18.5 3.50001H1.49996Z" fill="black"/>
<path fill-rule="evenodd" clip-rule="evenodd" d="M17.875 7.50001H2.125V8.62501C2.125 12.9743 5.65076 16.5 10 16.5C14.3492 16.5 17.875 12.9743 17.875 8.62501V7.50001ZM14.1667 12.0833C15.0872 12.0833 15.8334 11.3371 15.8334 10.4167C15.8334 9.49618 15.0872 8.74999 14.1667 8.74999C13.2462 8.74999 12.5 9.49618 12.5 10.4167C12.5 11.3371 13.2462 12.0833 14.1667 12.0833ZM7.50004 10.4167C7.50004 11.3371 6.75385 12.0833 5.83338 12.0833C4.9129 12.0833 4.16671 11.3371 4.16671 10.4167C4.16671 9.49618 4.9129 8.74999 5.83338 8.74999C6.75385 8.74999 7.50004 9.49618 7.50004 10.4167ZM12.0001 12.4167C12.0001 13.5212 11.1047 14.4167 10.0001 14.4167C8.89556 14.4167 8.00012 13.5212 8.00012 12.4167C8.00012 11.3121 8.89556 10.4167 10.0001 10.4167C11.1047 10.4167 12.0001 11.3121 12.0001 12.4167Z" fill="black"/>
</svg>
