<svg width="20" height="20" viewBox="0 0 20 20" fill="none" xmlns="http://www.w3.org/2000/svg">
<path d="M11.4907 2.49386C10.8494 1.31757 9.16056 1.31718 8.51876 2.49318L1.21032 15.8847C0.594753 17.0126 1.41111 18.3881 2.69608 18.3881H17.305C18.5896 18.3881 19.406 17.0133 18.7911 15.8853L11.4907 2.49386Z" fill="black"/>
<path d="M8.12237 8.31736C7.78384 7.08174 8.71479 5.86305 10.0012 5.86305C11.2876 5.86305 12.2185 7.08174 11.88 8.31736L10.8475 12.1258H9.15487L8.12237 8.31736Z" fill="white"/>
<path d="M10.001 13.3106C9.202 13.3106 8.5543 13.9583 8.5543 14.7573C8.5543 15.5562 9.202 16.2039 10.001 16.2039C10.7999 16.2039 11.4476 15.5562 11.4476 14.7573C11.4476 13.9583 10.7999 13.3106 10.001 13.3106Z" fill="white"/>
</svg>
