<svg width="20" height="20" viewBox="0 0 20 20" fill="none" xmlns="http://www.w3.org/2000/svg">
<path fill-rule="evenodd" clip-rule="evenodd" d="M16 2C17.1046 2 18 2.89543 18 4V16C18 17.1046 17.1046 18 16 18H4C2.89543 18 2 17.1046 2 16V4C2 2.89543 2.89543 2 4 2H16ZM15 5.75L5.68848 8.12166C5.47383 8.04296 5.24193 8 5 8C3.89543 8 3 8.89543 3 10C3 11.1046 3.89543 12 5 12C6.10457 12 7 11.1046 7 10C7 9.71595 6.94078 9.44573 6.83402 9.20101L15.328 7.03759L15 5.75ZM15 12C13.8954 12 13 11.1046 13 10C13 8.89543 13.8954 8 15 8C16.1046 8 17 8.89543 17 10C17 11.1046 16.1046 12 15 12Z" fill="black"/>
</svg>
