<svg xmlns="http://www.w3.org/2000/svg" width="20" height="20" viewBox="0 0 20 20">
<g>
<path d="M5.7959 17.8752C5.21227 17.8752 4.71618 17.6754 4.30764 17.2758C3.8991 16.8761 3.69482 16.3908 3.69482 15.8198C3.69482 15.2489 3.8991 14.7636 4.30764 14.3639C4.71618 13.9643 5.21227 13.7644 5.7959 13.7644C5.95932 13.7644 6.11106 13.7816 6.25113 13.8158C6.3912 13.8501 6.52544 13.8958 6.65384 13.9529L7.65185 12.7367C7.32501 12.3828 7.0974 11.9831 6.969 11.5378C6.8406 11.0924 6.81142 10.6471 6.88145 10.2018L5.46323 9.73929C5.26479 10.0248 5.01383 10.2531 4.71034 10.4244C4.40686 10.5957 4.06835 10.6813 3.69482 10.6813C3.11119 10.6813 2.61511 10.4815 2.20656 10.0819C1.79802 9.6822 1.59375 9.19689 1.59375 8.62595C1.59375 8.05501 1.79802 7.5697 2.20656 7.17004C2.61511 6.77038 3.11119 6.57055 3.69482 6.57055C4.27846 6.57055 4.77454 6.77038 5.18309 7.17004C5.59163 7.5697 5.7959 8.05501 5.7959 8.62595V8.76298L7.21412 9.24257C7.44758 8.83149 7.75982 8.48321 8.15085 8.19774C8.54189 7.91227 8.98253 7.72957 9.47278 7.64964V6.15947C9.01755 6.03386 8.6411 5.79121 8.34345 5.43152C8.0458 5.07182 7.89697 4.65218 7.89697 4.17259C7.89697 3.60164 8.10124 3.11634 8.50979 2.71668C8.91833 2.31702 9.41442 2.11719 9.99805 2.11719C10.5817 2.11719 11.0778 2.31702 11.4863 2.71668C11.8949 3.11634 12.0991 3.60164 12.0991 4.17259C12.0991 4.65218 11.9474 5.07182 11.6439 5.43152C11.3404 5.79121 10.9669 6.03386 10.5233 6.15947V7.64964C11.0136 7.72957 11.4542 7.91227 11.8452 8.19774C12.2363 8.48321 12.5485 8.83149 12.782 9.24257L14.2002 8.76298V8.62595C14.2002 8.05501 14.4045 7.5697 14.813 7.17004C15.2216 6.77038 15.7176 6.57055 16.3013 6.57055C16.8849 6.57055 17.381 6.77038 17.7895 7.17004C18.1981 7.5697 18.4023 8.05501 18.4023 8.62595C18.4023 9.19689 18.1981 9.6822 17.7895 10.0819C17.381 10.4815 16.8849 10.6813 16.3013 10.6813C15.9277 10.6813 15.5863 10.5957 15.277 10.4244C14.9677 10.2531 14.7196 10.0248 14.5329 9.73929L13.1146 10.2018C13.1847 10.6471 13.1555 11.0896 13.0271 11.5292C12.8987 11.9688 12.6711 12.3713 12.3442 12.7367L13.3423 13.9357C13.4707 13.8786 13.6049 13.8358 13.745 13.8073C13.885 13.7787 14.0368 13.7644 14.2002 13.7644C14.7838 13.7644 15.2799 13.9643 15.6885 14.3639C16.097 14.7636 16.3013 15.2489 16.3013 15.8198C16.3013 16.3908 16.097 16.8761 15.6885 17.2758C15.2799 17.6754 14.7838 17.8752 14.2002 17.8752C13.6166 17.8752 13.1205 17.6754 12.7119 17.2758C12.3034 16.8761 12.0991 16.3908 12.0991 15.8198C12.0991 15.5915 12.1371 15.3717 12.2129 15.1604C12.2888 14.9492 12.3909 14.7579 12.5193 14.5866L11.5213 13.3705C11.0427 13.6331 10.5321 13.7644 9.98929 13.7644C9.44652 13.7644 8.93584 13.6331 8.45726 13.3705L7.47676 14.5866C7.60516 14.7579 7.70729 14.9492 7.78316 15.1604C7.85904 15.3717 7.89697 15.5915 7.89697 15.8198C7.89697 16.3908 7.6927 16.8761 7.28416 17.2758C6.87562 17.6754 6.37953 17.8752 5.7959 17.8752Z" fill="black"/>
</g>
</svg>