<svg width="20" height="20" viewBox="0 0 20 20" fill="none" xmlns="http://www.w3.org/2000/svg">
<path fill-rule="evenodd" clip-rule="evenodd" d="M11.2447 1.09067C10.0639 0.917546 8.87262 0.992522 7.67261 1.31406C6.4726 1.6356 5.40346 2.1663 4.46736 2.90666C3.53451 3.64445 2.78085 4.50946 2.20816 5.50138C1.63548 6.49331 1.26319 7.5785 1.09067 8.75527C0.917546 9.93613 0.992522 11.1274 1.31406 12.3274C1.6356 13.5274 2.1663 14.5965 2.90666 15.5326C3.64445 16.4655 4.50946 17.2191 5.50138 17.7918C6.49331 18.3645 7.5785 18.7368 8.75527 18.9093C9.93613 19.0825 11.1274 19.0075 12.3274 18.6859C13.5274 18.3644 14.5965 17.8337 15.5326 17.0933C16.4655 16.3555 17.2191 15.4905 17.7918 14.4986C18.3645 13.5067 18.7368 12.4215 18.9093 11.2447C19.0825 10.0639 19.0075 8.87262 18.6859 7.67261C18.3644 6.4726 17.8337 5.40346 17.0933 4.46736C16.3555 3.53451 15.4905 2.78085 14.4986 2.20816C13.5067 1.63548 12.4215 1.26319 11.2447 1.09067ZM8.22924 3.39142C10.0778 2.8961 11.8081 3.11772 13.4321 4.05536C15.0562 4.99301 16.1132 6.38065 16.6086 8.22924C17.1039 10.0778 16.8823 11.8081 15.9446 13.4321C15.007 15.0562 13.6194 16.1132 11.7708 16.6086C9.92217 17.1039 8.19191 16.8823 6.56786 15.9446C4.94382 15.007 3.88675 13.6194 3.39142 11.7708C3.18446 10.9984 3.11324 10.2363 3.17643 9.48362C3.23357 8.80293 3.38232 8.15241 3.62249 7.53145L4.82095 8.22338C4.66074 8.68733 4.56549 9.1774 4.53455 9.69285C4.49992 10.2698 4.55957 10.8446 4.71284 11.4167C5.10558 12.8824 5.95621 13.9963 7.25859 14.7483C8.56097 15.5002 9.95098 15.6799 11.4167 15.2872C12.8824 14.8944 13.9963 14.0438 14.7483 12.7414C15.5002 11.439 15.6799 10.049 15.2872 8.58331C14.8944 7.1176 14.0438 6.00367 12.7414 5.25174C11.439 4.49981 10.049 4.32011 8.58331 4.71284C8.01213 4.86589 7.48748 5.09678 7.01043 5.40598C6.58345 5.68273 6.20884 6.00612 5.88745 6.3762L4.68899 5.68426C5.10607 5.16678 5.59219 4.71746 6.14787 4.33597C6.76296 3.9137 7.45621 3.59856 8.22924 3.39142ZM9.13994 6.79021C10.0241 6.5533 10.86 6.66436 11.6594 7.12587C12.4587 7.58738 12.9729 8.25579 13.2098 9.13994C13.4467 10.0241 13.3356 10.86 12.8741 11.6594C12.4126 12.4587 11.7442 12.9729 10.8601 13.2098C9.97592 13.4467 9.13998 13.3356 8.34062 12.8741C7.54126 12.4126 7.02711 11.7442 6.79021 10.8601C6.70738 10.5509 6.66996 10.2501 6.67668 9.95699C6.68152 9.746 6.70562 9.53923 6.74894 9.33651L8.0379 10.0807C8.03866 10.1343 8.04372 10.1879 8.05298 10.2415C8.06786 10.3276 8.08746 10.4158 8.11162 10.506C8.25038 11.0238 8.55702 11.4219 9.02357 11.6912C9.49012 11.9606 9.98814 12.0271 10.506 11.8884C11.0238 11.7496 11.4219 11.443 11.6912 10.9764C11.9606 10.5099 12.0271 10.0119 11.8884 9.49401C11.7496 8.97616 11.443 8.57814 10.9764 8.30878C10.5099 8.03941 10.0119 7.97287 9.49401 8.11162C9.41689 8.13229 9.34084 8.1568 9.26588 8.18514C9.21936 8.20273 9.17431 8.22398 9.13073 8.24871L7.81616 7.48974C7.96925 7.35345 8.1357 7.23336 8.31568 7.12937C8.56977 6.98256 8.84431 6.86942 9.13994 6.79021Z" fill="black"/>
</svg>
