<svg width="20" height="20" viewBox="0 0 20 20" fill="none" xmlns="http://www.w3.org/2000/svg">
<path d="M19 10C19 14.9706 14.9706 19 10 19C5.02944 19 1 14.9706 1 10C1 5.02944 5.02944 1 10 1C14.9706 1 19 5.02944 19 10Z" fill="black"/>
<path d="M5.89687 5.89677C6.42579 5.36784 7.28336 5.36784 7.81229 5.89677L10 8.08449L12.1877 5.89679C12.7166 5.36787 13.5742 5.36787 14.1031 5.8968C14.6321 6.42572 14.6321 7.28329 14.1031 7.81222L11.9154 9.99992L14.1033 12.1878C14.6322 12.7167 14.6322 13.5743 14.1033 14.1032C13.5744 14.6321 12.7168 14.6321 12.1879 14.1032L10 11.9153L7.81212 14.1032C7.28319 14.6322 6.42563 14.6322 5.8967 14.1032C5.36777 13.5743 5.36777 12.7167 5.8967 12.1878L8.08459 9.99992L5.89686 7.8122C5.36794 7.28327 5.36794 6.4257 5.89687 5.89677Z" fill="white"/>
</svg>
