<svg width="20" height="20" viewBox="0 0 20 20" fill="none" xmlns="http://www.w3.org/2000/svg">
<path fill-rule="evenodd" clip-rule="evenodd" d="M2.5 4.16667C1.57953 4.16667 0.833334 4.91286 0.833334 5.83333V14.1667C0.833334 15.0871 1.57953 15.8333 2.5 15.8333H17.5C18.4205 15.8333 19.1667 15.0871 19.1667 14.1667V5.83333C19.1667 4.91286 18.4205 4.16667 17.5 4.16667H2.5ZM15.8333 5.83333H17.5V7.5H15.8333V5.83333ZM5 9.16667H9.16667V10.8333H10.8333V13.3333H3.33333V10.8333H5V9.16667ZM13.3333 5.83333H15V7.5H13.3333V5.83333ZM10.8333 5.83333H12.5V7.5H10.8333V5.83333Z" fill="black"/>
</svg>
