<svg width="20" height="20" viewBox="0 0 20 20" fill="none" xmlns="http://www.w3.org/2000/svg">
<path d="M15.0926 18.75V13.3654H16.4506C17.1975 13.3654 17.8369 13.1018 18.3688 12.5745C18.9007 12.0473 19.1667 11.4135 19.1667 10.6731V7.98077C19.1667 7.24038 18.9007 6.60657 18.3688 6.07933C17.8369 5.55208 17.1975 5.28846 16.4506 5.28846H11.0185L4.2284 1.25V17.4038L11.0185 13.3654H12.3765V18.75H15.0926ZM2.87037 13.8365V4.81731C2.25926 5.35577 1.76698 6.01202 1.39352 6.78606C1.02006 7.5601 0.833336 8.40705 0.833336 9.32692C0.833336 10.2468 1.02006 11.0937 1.39352 11.8678C1.76698 12.6418 2.25926 13.2981 2.87037 13.8365Z" fill="black"/>
</svg>
