<svg width="20" height="20" viewBox="0 0 20 20" fill="none" xmlns="http://www.w3.org/2000/svg">
<path d="M5.83338 4.16667C5.83338 1.86548 7.69886 0 10 0C12.3012 0 14.1667 1.86548 14.1667 4.16667V8.33333C14.1667 10.6345 12.3012 12.5 10 12.5C7.69886 12.5 5.83338 10.6345 5.83338 8.33333V4.16667Z" fill="black"/>
<path d="M11.0417 16.6944C14.6715 16.2383 17.5708 13.4308 18.1681 9.8469C18.2653 9.26354 17.8712 8.71182 17.2878 8.6146C16.7045 8.51738 16.1528 8.91148 16.0555 9.49484C15.5713 12.4004 13.0415 14.6177 10 14.6177C6.95706 14.6177 4.42778 12.4046 3.94426 9.4953C3.8473 8.9119 3.29576 8.51756 2.71236 8.61452C2.12895 8.71149 1.73462 9.26303 1.83158 9.84643C2.42815 13.4359 5.32853 16.2393 8.95839 16.6945V17.9167H7.70833C7.13303 17.9167 6.66666 18.383 6.66666 18.9583C6.66666 19.5336 7.13303 20 7.70833 20H12.2917C12.867 20 13.3333 19.5336 13.3333 18.9583C13.3333 18.383 12.867 17.9167 12.2917 17.9167H11.0417V16.6944Z" fill="black"/>
</svg>
