<?xml version="1.0" encoding="UTF-8" standalone="no"?>
<!-- Created with Inkscape (http://www.inkscape.org/) -->

<svg
   width="512"
   height="512"
   viewBox="0 0 135.46663 135.46667"
   version="1.1"
   id="svg1"
   xml:space="preserve"
   xmlns="http://www.w3.org/2000/svg"
   xmlns:svg="http://www.w3.org/2000/svg"><defs
     id="defs1" /><g
     id="layer1"><path
       style="fill:#020202;stroke:none;stroke-width:0.5"
       d="M 67.537524,7.7527428 C 65.377715,10.81881 61.88976,13.23868 58.806275,15.293366 47.509071,22.821273 33.811054,24.553782 20.57399,24.553782 v 37.967702 c 0,9.47917 -0.406165,18.978034 4.143399,27.648949 5.71598,10.893967 15.756358,18.025797 25.754512,24.694447 4.301525,2.86907 8.706589,5.71342 12.699999,9.00685 1.122234,0.92553 2.22832,1.85785 3.30729,2.83366 0.338555,0.30618 0.81832,1.00852 1.322914,1.00852 0.507505,0 0.98821,-0.7075 1.32292,-1.01914 0.981205,-0.91357 1.998199,-1.81696 3.042709,-2.65757 4.09644,-3.29675 8.45979,-6.30002 12.832291,-9.21642 9.288375,-6.19524 19.153396,-12.9019 24.814266,-22.798262 5.41824,-9.47216 5.08365,-19.621619 5.08365,-30.162494 V 24.553782 c -12.5645,0 -24.955871,-1.692775 -36.115622,-7.919227 C 76.260613,15.2276 73.765313,13.533534 71.638568,11.577872 70.375154,10.416097 69.087454,8.4755508 67.537524,7.7527428 M 110.00314,29.580864 c -0.48846,3.737489 0,7.859306 0,11.641665 l -0.02,23.756355 c 0,7.97668 -0.0986,15.568529 -3.91975,22.810299 -6.096311,11.55372 -18.223761,18.479847 -28.736277,25.488197 -2.387435,1.59162 -4.741765,3.22901 -7.011459,4.98513 -0.615855,0.4765 -1.846095,1.93335 -2.645835,1.91792 -0.846949,-0.0164 -2.133659,-1.52824 -2.778125,-2.04359 -2.281049,-1.82401 -4.715204,-3.46092 -7.143749,-5.07995 C 47.048926,105.92422 34.933213,99.014903 29.074954,86.995433 25.266679,79.181944 25.601074,70.711974 25.601074,62.256899 V 29.448572 c 9.890429,0 20.587508,-2.335871 29.501037,-6.648777 3.248514,-1.571835 6.351504,-3.343763 9.260413,-5.486938 0.791641,-0.583249 2.455226,-2.665817 3.43958,-2.654109 0.4648,0.0055 0.877685,0.594375 1.190625,0.876747 0.84757,0.764787 1.738499,1.492213 2.645839,2.184847 2.97434,2.270524 6.382655,4.012755 9.789586,5.5289 5.996665,2.668628 12.566435,4.414564 19.049986,5.369649 1.97118,0.290373 3.9664,0.549498 5.95313,0.685553 1.15357,0.079 2.46136,-0.05184 3.57187,0.27642 M 57.48336,28.58061 c -8.352214,1.301253 -16.074413,9.030859 -16.656908,17.536711 -0.284595,4.155835 1.2265,8.297199 3.616585,11.641663 5.859184,8.19879 16.314523,12.87382 24.946567,17.553955 3.495964,1.895435 7.085434,3.864135 10.054174,6.545584 4.085761,3.690365 6.237341,8.959835 4.019686,14.26504 -0.69767,1.669 -2.292926,2.9098 -2.950026,4.497407 -0.36193,0.87445 0.895951,0.97406 1.443871,0.88347 2.436655,-0.40282 5.04923,-2.513317 6.746875,-4.190767 5.51818,-5.45253 7.651119,-12.885605 3.511955,-19.843239 -2.721315,-4.574325 -7.38558,-7.56294 -11.846321,-10.23932 -8.79091,-5.27442 -19.614403,-9.22527 -26.567657,-17.012753 -4.20339,-4.7077 -4.366875,-11.46624 -0.247845,-16.271873 0.951865,-1.110526 2.080554,-2.132492 3.267584,-2.986049 0.60578,-0.4356 1.5789,-0.810868 2.016425,-1.422959 0.679685,-0.95087 -0.78295,-1.045987 -1.354965,-0.95687 m 11.132094,1.13622 c -0.563235,0.334039 -0.337955,0.918055 0,1.319242 1.466335,1.740672 2.614354,2.980357 3.049039,5.291666 0.375005,1.993967 -0.52755,3.883435 -0.87061,5.820832 -0.726914,4.105141 -0.14906,10.49395 4.151975,12.524425 2.687295,1.26865 6.707326,-0.07444 6.457891,-3.528595 -0.140435,-1.944734 -1.706986,-3.305804 -1.935476,-5.159374 -0.144555,-1.1727 0.441335,-2.308513 1.695295,-2.484859 1.160586,-0.163217 2.178511,0.701194 2.840391,1.558819 1.692495,2.193045 3.19239,8.575624 7.34606,6.057139 0.85855,-0.52056 1.458945,-1.381544 1.9758,-2.220679 1.1584,-1.880735 1.454054,-4.676905 -0.26836,-6.3256 -1.092255,-1.045503 -2.667245,-1.561282 -4.088685,-1.970293 -1.341375,-0.385966 -4.03385,-0.825943 -4.28121,-2.552023 -0.149375,-1.04233 0.927975,-1.458382 1.76766,-1.21849 1.155,0.32997 4.573155,3.326613 4.99871,0.556926 0.0398,-0.258907 0.0297,-0.536159 -0.0151,-0.793645 -0.310775,-1.785509 -2.316905,-2.928059 -3.79297,-3.6714 -4.29588,-2.163393 -8.520416,-1.593814 -13.096866,-2.245898 -1.39363,-0.198574 -2.73619,-0.53997 -4.101044,-0.878983 -0.539495,-0.134003 -1.30844,-0.39002 -1.832485,-0.07921 M 36.198288,76.115464 c -1.134765,0.442025 -0.62759,2.584685 -0.485075,3.47164 0.53581,3.334579 1.9775,6.644794 3.705599,9.524994 4.553945,7.590035 12.204224,12.464732 20.974963,13.514282 2.224125,0.26615 5.864315,0.88401 7.930249,-0.24376 1.246215,-0.6803 0.24572,-1.71262 -0.65421,-2.02521 -2.410184,-0.837197 -4.851594,-1.622257 -7.011454,-3.025367 -0.66742,-0.43356 -1.869505,-1.23383 -1.880565,-2.13452 -0.01,-0.81367 0.884865,-1.73631 1.30587,-2.38125 0.956085,-1.46464 1.780145,-2.995255 2.401355,-4.630215 0.26414,-0.695175 0.923889,-2.19134 0.22202,-2.812215 -0.539155,-0.47694 -1.576485,-0.09631 -2.180975,0.05124 -2.008685,0.49029 -3.88873,1.342895 -5.820829,2.05736 -0.74357,0.27496 -1.88694,0.929185 -2.59041,0.24937 -0.553895,-0.53526 -0.60033,-1.60884 -0.74332,-2.32388 -0.34505,-1.725475 -0.676305,-3.45469 -1.115195,-5.159375 -0.212125,-0.823919 -0.574375,-2.393114 -1.637,-2.468934 -1.589175,-0.113385 -2.935144,3.278399 -3.438974,4.453309 -0.213965,0.49896 -0.565835,1.844365 -1.323525,1.65405 -0.5554,-0.139495 -1.178705,-0.884585 -1.586485,-1.26901 -1.434165,-1.35204 -2.700395,-2.982649 -3.792869,-4.618369 -0.455985,-0.682735 -1.21437,-2.29891 -2.27917,-1.88414 z"
       id="path1" /></g></svg>
