<svg width="28" height="28" viewBox="0 0 28 28" fill="none" xmlns="http://www.w3.org/2000/svg">
<g clip-path="url(#clip0_2145_3334)">
<circle cx="14" cy="14" r="14" fill="#F2F8FF"/>
<path d="M19.5477 19.936C16.0193 21.3554 11.9797 21.3554 8.45133 19.936C7.42863 19.5574 6.96841 18.4692 7.42863 17.5229L7.47976 17.4756C8.29793 15.725 10.0877 14.6367 12.1331 14.6367H15.8148C17.9113 14.6367 19.7522 15.7723 20.5704 17.5702C21.0306 18.4692 20.5704 19.5101 19.5477 19.936Z" fill="#86A7C4"/>
<path d="M14.0003 7C15.7728 7 17.1803 8.40838 17.1803 10.1819C17.1803 11.9554 15.7728 13.3638 14.0003 13.3638C12.2279 13.3638 10.8203 11.9554 10.8203 10.1819C10.8203 8.40838 12.2279 7 14.0003 7Z" fill="#86A7C4"/>
</g>
<defs>
<clipPath id="clip0_2145_3334">
<rect width="28" height="28" fill="white"/>
</clipPath>
</defs>
</svg>
