<svg width="90" height="18" viewBox="0 0 90 18" fill="none" xmlns="http://www.w3.org/2000/svg">
<path d="M9 0.5C13.6944 0.5 17.5 4.30558 17.5 9C17.5 13.6944 13.6944 17.5 9 17.5C4.30558 17.5 0.5 13.6944 0.5 9C0.5 4.30558 4.30558 0.5 9 0.5Z" fill="white" stroke="#CBD5E1"/>
<path d="M27 0.5C31.6944 0.5 35.5 4.30558 35.5 9C35.5 13.6944 31.6944 17.5 27 17.5C22.3056 17.5 18.5 13.6944 18.5 9C18.5 4.30558 22.3056 0.5 27 0.5Z" fill="white" stroke="#5587FC"/>
<circle cx="27" cy="9" r="5" fill="#5587FC"/>
<path d="M63 0.5C67.6944 0.5 71.5 4.30558 71.5 9C71.5 13.6944 67.6944 17.5 63 17.5C58.3056 17.5 54.5 13.6944 54.5 9C54.5 4.30558 58.3056 0.5 63 0.5Z" fill="#F1F5F9" stroke="#CBD5E1"/>
<path d="M81 0.5C85.6944 0.5 89.5 4.30558 89.5 9C89.5 13.6944 85.6944 17.5 81 17.5C76.3056 17.5 72.5 13.6944 72.5 9C72.5 4.30558 76.3056 0.5 81 0.5Z" fill="#F1F5F9" stroke="#CBD5E1"/>
<circle cx="81" cy="9" r="5" fill="#CBD5E1"/>
</svg>
