<svg width="16" height="16" viewBox="0 0 16 16" fill="none" xmlns="http://www.w3.org/2000/svg">
<path d="M12.9707 8.14718C12.9416 8.21746 12.8923 8.27752 12.8291 8.31979C12.7658 8.36205 12.6915 8.38461 12.6154 8.38461H10.6923V12.2308C10.6921 12.4347 10.611 12.6302 10.4668 12.7744C10.3226 12.9187 10.127 12.9998 9.92309 13H6.07693C5.87298 12.9998 5.67746 12.9187 5.53325 12.7744C5.38904 12.6302 5.30793 12.4347 5.30769 12.2308V8.38461H3.38461C3.30854 8.3846 3.23418 8.36204 3.17094 8.31978C3.10769 8.27751 3.05839 8.21744 3.02928 8.14716C3.00017 8.07689 2.99255 7.99956 3.00739 7.92495C3.02222 7.85034 3.05884 7.78181 3.11263 7.72801L7.72803 3.11261C7.80018 3.0405 7.89801 3 8.00001 3C8.10201 3 8.19984 3.0405 8.27199 3.11261L12.8874 7.72801C12.9412 7.78181 12.9778 7.85035 12.9926 7.92496C13.0075 7.99957 12.9998 8.0769 12.9707 8.14718Z" fill="#FC4F4F"/>
</svg>
