<svg width="16" height="16" viewBox="0 0 16 16" fill="none" xmlns="http://www.w3.org/2000/svg">
<path d="M8 1.5625C9.70673 1.56445 11.343 2.24335 12.5498 3.4502C13.7566 4.65704 14.4355 6.29327 14.4375 8C14.4375 9.27314 14.0598 10.5176 13.3525 11.5762C12.6453 12.6347 11.64 13.46 10.4639 13.9473C9.28757 14.4345 7.99289 14.5619 6.74414 14.3135C5.4954 14.0651 4.34853 13.4521 3.44824 12.5518C2.54795 11.6515 1.93492 10.5046 1.68652 9.25586C1.43813 8.00711 1.5655 6.71243 2.05273 5.53613C2.53999 4.35999 3.3653 3.35475 4.42383 2.64746C5.41628 1.98438 6.57206 1.61144 7.76172 1.56738L8 1.5625ZM7.49414 2.46094C6.1129 2.58875 4.82879 3.22749 3.89355 4.25195C2.95847 5.2764 2.43923 6.61295 2.4375 8L2.44434 8.25977C2.50629 9.55314 3.01698 10.7877 3.89355 11.748C4.82879 12.7725 6.1129 13.4113 7.49414 13.5391L7.5625 13.5459V2.4541L7.49414 2.46094Z" fill="#2968F9" stroke="#2968F9" stroke-width="0.125"/>
</svg>
