<svg width="16" height="16" viewBox="0 0 16 16" fill="none" xmlns="http://www.w3.org/2000/svg">
<mask id="path-1-inside-1_5914_58392" fill="white">
<path fill-rule="evenodd" clip-rule="evenodd" d="M2.3998 15.1998C1.64556 15.1998 1.26844 15.1998 1.03412 14.9655C0.799805 14.7312 0.799805 14.354 0.799805 13.5998V4.00272C0.799805 2.49284 0.799805 1.73792 1.26844 1.26886C1.73706 0.799805 2.49131 0.799805 3.9998 0.799805H6.05545C7.56395 0.799805 8.3182 0.799805 8.78684 1.26886C9.25548 1.73792 9.25548 2.49284 9.25548 4.00271V6.59052H11.9998C13.5083 6.59052 14.2625 6.59052 14.7312 7.05958C15.1998 7.52864 15.1998 8.28356 15.1998 9.7934V13.5998C15.1998 14.354 15.1998 14.7312 14.9655 14.9655C14.7312 15.1998 14.354 15.1998 13.5998 15.1998H2.3998ZM2.91765 4.50597C2.82392 4.59979 2.82392 4.75077 2.82392 5.05274V5.37304C2.82392 5.675 2.82392 5.826 2.91765 5.9198C3.01138 6.01361 3.16223 6.01361 3.46392 6.01361H3.78392C4.08563 6.01361 4.23648 6.01361 4.3302 5.9198C4.42392 5.826 4.42392 5.675 4.42392 5.37304V5.05274C4.42392 4.75077 4.42392 4.59979 4.3302 4.50597C4.23648 4.41216 4.08563 4.41216 3.78392 4.41216H3.46392C3.16223 4.41216 3.01138 4.41216 2.91765 4.50597ZM2.91765 7.29278C2.82392 7.38659 2.82392 7.53758 2.82392 7.83955V8.1598C2.82392 8.4618 2.82392 8.61276 2.91765 8.7066C3.01138 8.80044 3.16223 8.80044 3.46392 8.80044H3.78392C4.08563 8.80044 4.23648 8.80044 4.3302 8.7066C4.42392 8.61276 4.42392 8.4618 4.42392 8.1598V7.83955C4.42392 7.53758 4.42392 7.38659 4.3302 7.29278C4.23648 7.19897 4.08563 7.19896 3.78392 7.19896H3.46392C3.16223 7.19896 3.01138 7.19897 2.91765 7.29278ZM2.82392 10.6264C2.82392 10.3244 2.82392 10.1734 2.91765 10.0796C3.01138 9.9858 3.16223 9.9858 3.46392 9.9858H3.78392C4.08563 9.9858 4.23648 9.9858 4.3302 10.0796C4.42392 10.1734 4.42392 10.3244 4.42392 10.6264V10.9467C4.42392 11.2486 4.42392 11.3996 4.3302 11.4934C4.23648 11.5872 4.08563 11.5872 3.78392 11.5872H3.46392C3.16223 11.5872 3.01138 11.5872 2.91765 11.4934C2.82392 11.3996 2.82392 11.2486 2.82392 10.9467V10.6264ZM5.66765 4.50597C5.57392 4.59979 5.57392 4.75077 5.57392 5.05274V5.37304C5.57392 5.675 5.57392 5.826 5.66765 5.9198C5.76138 6.01361 5.91223 6.01361 6.21392 6.01361H6.53392C6.83563 6.01361 6.98648 6.01361 7.0802 5.9198C7.17392 5.826 7.17392 5.675 7.17392 5.37304V5.05274C7.17392 4.75077 7.17392 4.59979 7.0802 4.50597C6.98648 4.41216 6.83563 4.41216 6.53392 4.41216H6.21392C5.91223 4.41216 5.76138 4.41216 5.66765 4.50597ZM5.57392 7.83955C5.57392 7.53758 5.57392 7.38659 5.66765 7.29278C5.76138 7.19897 5.91223 7.19896 6.21392 7.19896H6.53392C6.83563 7.19896 6.98648 7.19897 7.0802 7.29278C7.17392 7.38659 7.17392 7.53758 7.17392 7.83955V8.1598C7.17392 8.4618 7.17392 8.61276 7.0802 8.7066C6.98648 8.80044 6.83563 8.80044 6.53392 8.80044H6.21392C5.91223 8.80044 5.76138 8.80044 5.66765 8.7066C5.57392 8.61276 5.57392 8.4618 5.57392 8.1598V7.83955ZM11.0932 8.54404C10.9994 8.6378 10.9994 8.78884 10.9994 9.09076V9.41108C10.9994 9.71308 10.9994 9.86404 11.0932 9.9578C11.1868 10.0516 11.3377 10.0516 11.6394 10.0516H11.9594C12.2611 10.0516 12.412 10.0516 12.5057 9.9578C12.5994 9.86404 12.5994 9.71308 12.5994 9.41108V9.09076C12.5994 8.78884 12.5994 8.6378 12.5057 8.54404C12.412 8.4502 12.2611 8.4502 11.9594 8.4502H11.6394C11.3377 8.4502 11.1868 8.4502 11.0932 8.54404ZM5.57392 10.6264C5.57392 10.3244 5.57392 10.1734 5.66765 10.0796C5.76138 9.9858 5.91223 9.9858 6.21392 9.9858H6.53392C6.83563 9.9858 6.98648 9.9858 7.0802 10.0796C7.17392 10.1734 7.17392 10.3244 7.17392 10.6264V10.9467C7.17392 11.2486 7.17392 11.3996 7.0802 11.4934C6.98648 11.5872 6.83563 11.5872 6.53392 11.5872H6.21392C5.91223 11.5872 5.76138 11.5872 5.66765 11.4934C5.57392 11.3996 5.57392 11.2486 5.57392 10.9467V10.6264ZM11.0932 11.3309C10.9994 11.4248 10.9994 11.5757 10.9994 11.8777V12.198C10.9994 12.5 10.9994 12.6509 11.0932 12.7448C11.1868 12.8385 11.3377 12.8385 11.6394 12.8385H11.9594C12.2611 12.8385 12.412 12.8385 12.5057 12.7448C12.5994 12.6509 12.5994 12.5 12.5994 12.198V11.8777C12.5994 11.5757 12.5994 11.4248 12.5057 11.3309C12.412 11.2371 12.2611 11.2371 11.9594 11.2371H11.6394C11.3377 11.2371 11.1868 11.2371 11.0932 11.3309Z"/>
</mask>
<path fill-rule="evenodd" clip-rule="evenodd" d="M2.3998 15.1998C1.64556 15.1998 1.26844 15.1998 1.03412 14.9655C0.799805 14.7312 0.799805 14.354 0.799805 13.5998V4.00272C0.799805 2.49284 0.799805 1.73792 1.26844 1.26886C1.73706 0.799805 2.49131 0.799805 3.9998 0.799805H6.05545C7.56395 0.799805 8.3182 0.799805 8.78684 1.26886C9.25548 1.73792 9.25548 2.49284 9.25548 4.00271V6.59052H11.9998C13.5083 6.59052 14.2625 6.59052 14.7312 7.05958C15.1998 7.52864 15.1998 8.28356 15.1998 9.7934V13.5998C15.1998 14.354 15.1998 14.7312 14.9655 14.9655C14.7312 15.1998 14.354 15.1998 13.5998 15.1998H2.3998ZM2.91765 4.50597C2.82392 4.59979 2.82392 4.75077 2.82392 5.05274V5.37304C2.82392 5.675 2.82392 5.826 2.91765 5.9198C3.01138 6.01361 3.16223 6.01361 3.46392 6.01361H3.78392C4.08563 6.01361 4.23648 6.01361 4.3302 5.9198C4.42392 5.826 4.42392 5.675 4.42392 5.37304V5.05274C4.42392 4.75077 4.42392 4.59979 4.3302 4.50597C4.23648 4.41216 4.08563 4.41216 3.78392 4.41216H3.46392C3.16223 4.41216 3.01138 4.41216 2.91765 4.50597ZM2.91765 7.29278C2.82392 7.38659 2.82392 7.53758 2.82392 7.83955V8.1598C2.82392 8.4618 2.82392 8.61276 2.91765 8.7066C3.01138 8.80044 3.16223 8.80044 3.46392 8.80044H3.78392C4.08563 8.80044 4.23648 8.80044 4.3302 8.7066C4.42392 8.61276 4.42392 8.4618 4.42392 8.1598V7.83955C4.42392 7.53758 4.42392 7.38659 4.3302 7.29278C4.23648 7.19897 4.08563 7.19896 3.78392 7.19896H3.46392C3.16223 7.19896 3.01138 7.19897 2.91765 7.29278ZM2.82392 10.6264C2.82392 10.3244 2.82392 10.1734 2.91765 10.0796C3.01138 9.9858 3.16223 9.9858 3.46392 9.9858H3.78392C4.08563 9.9858 4.23648 9.9858 4.3302 10.0796C4.42392 10.1734 4.42392 10.3244 4.42392 10.6264V10.9467C4.42392 11.2486 4.42392 11.3996 4.3302 11.4934C4.23648 11.5872 4.08563 11.5872 3.78392 11.5872H3.46392C3.16223 11.5872 3.01138 11.5872 2.91765 11.4934C2.82392 11.3996 2.82392 11.2486 2.82392 10.9467V10.6264ZM5.66765 4.50597C5.57392 4.59979 5.57392 4.75077 5.57392 5.05274V5.37304C5.57392 5.675 5.57392 5.826 5.66765 5.9198C5.76138 6.01361 5.91223 6.01361 6.21392 6.01361H6.53392C6.83563 6.01361 6.98648 6.01361 7.0802 5.9198C7.17392 5.826 7.17392 5.675 7.17392 5.37304V5.05274C7.17392 4.75077 7.17392 4.59979 7.0802 4.50597C6.98648 4.41216 6.83563 4.41216 6.53392 4.41216H6.21392C5.91223 4.41216 5.76138 4.41216 5.66765 4.50597ZM5.57392 7.83955C5.57392 7.53758 5.57392 7.38659 5.66765 7.29278C5.76138 7.19897 5.91223 7.19896 6.21392 7.19896H6.53392C6.83563 7.19896 6.98648 7.19897 7.0802 7.29278C7.17392 7.38659 7.17392 7.53758 7.17392 7.83955V8.1598C7.17392 8.4618 7.17392 8.61276 7.0802 8.7066C6.98648 8.80044 6.83563 8.80044 6.53392 8.80044H6.21392C5.91223 8.80044 5.76138 8.80044 5.66765 8.7066C5.57392 8.61276 5.57392 8.4618 5.57392 8.1598V7.83955ZM11.0932 8.54404C10.9994 8.6378 10.9994 8.78884 10.9994 9.09076V9.41108C10.9994 9.71308 10.9994 9.86404 11.0932 9.9578C11.1868 10.0516 11.3377 10.0516 11.6394 10.0516H11.9594C12.2611 10.0516 12.412 10.0516 12.5057 9.9578C12.5994 9.86404 12.5994 9.71308 12.5994 9.41108V9.09076C12.5994 8.78884 12.5994 8.6378 12.5057 8.54404C12.412 8.4502 12.2611 8.4502 11.9594 8.4502H11.6394C11.3377 8.4502 11.1868 8.4502 11.0932 8.54404ZM5.57392 10.6264C5.57392 10.3244 5.57392 10.1734 5.66765 10.0796C5.76138 9.9858 5.91223 9.9858 6.21392 9.9858H6.53392C6.83563 9.9858 6.98648 9.9858 7.0802 10.0796C7.17392 10.1734 7.17392 10.3244 7.17392 10.6264V10.9467C7.17392 11.2486 7.17392 11.3996 7.0802 11.4934C6.98648 11.5872 6.83563 11.5872 6.53392 11.5872H6.21392C5.91223 11.5872 5.76138 11.5872 5.66765 11.4934C5.57392 11.3996 5.57392 11.2486 5.57392 10.9467V10.6264ZM11.0932 11.3309C10.9994 11.4248 10.9994 11.5757 10.9994 11.8777V12.198C10.9994 12.5 10.9994 12.6509 11.0932 12.7448C11.1868 12.8385 11.3377 12.8385 11.6394 12.8385H11.9594C12.2611 12.8385 12.412 12.8385 12.5057 12.7448C12.5994 12.6509 12.5994 12.5 12.5994 12.198V11.8777C12.5994 11.5757 12.5994 11.4248 12.5057 11.3309C12.412 11.2371 12.2611 11.2371 11.9594 11.2371H11.6394C11.3377 11.2371 11.1868 11.2371 11.0932 11.3309Z" fill="#2968F9" stroke="#2968F9" stroke-width="2" mask="url(#path-1-inside-1_5914_58392)"/>
</svg>
