<svg width="20" height="20" viewBox="0 0 20 20" fill="none" xmlns="http://www.w3.org/2000/svg">
<path d="M15.5 6.5H14.5C14.224 6.5 14 6.724 14 7C14 7.276 14.224 7.5 14.5 7.5H15.5C15.776 7.5 16 7.276 16 7C16 6.724 15.776 6.5 15.5 6.5Z" fill="#50A013"/>
<path d="M15.5 8.5H14.5C14.224 8.5 14 8.724 14 9C14 9.276 14.224 9.5 14.5 9.5H15.5C15.776 9.5 16 9.276 16 9C16 8.724 15.776 8.5 15.5 8.5Z" fill="#50A013"/>
<path fill-rule="evenodd" clip-rule="evenodd" d="M10.8884 5.11244H16.6656C16.9109 5.11244 17.11 5.31153 17.11 5.55684V10.2966C16.8264 10.188 16.529 10.1072 16.2212 10.0577V6.00124H10.8884V6.89004H12.2216C12.4669 6.89004 12.666 7.08914 12.666 7.33444C12.666 7.57975 12.4669 7.77885 12.2216 7.77885H10.8884V8.66765H12.2216C12.4669 8.66765 12.666 8.86674 12.666 9.11205C12.666 9.35736 12.4669 9.55646 12.2216 9.55646H10.8884V10.4453H12.2216C12.4669 10.4453 12.666 10.6444 12.666 10.8897C12.666 10.9354 12.6591 10.9796 12.6462 11.0211C12.5298 11.1168 12.4182 11.2182 12.3119 11.3249C12.2828 11.3309 12.2525 11.3341 12.2216 11.3341H10.8884V12.2229H11.6185C11.4547 12.5014 11.3201 12.799 11.2188 13.1117H10.8884V14.0005H11.0279C11.0098 14.1646 11.0005 14.3313 11.0005 14.5002C11.0005 14.6313 11.0061 14.7611 11.0171 14.8893H10.8884V16.2225C10.8884 16.354 10.8297 16.4802 10.7275 16.5647C10.6475 16.6313 10.5471 16.6669 10.444 16.6669C10.4164 16.6669 10.3889 16.6642 10.3622 16.6589L3.25179 15.3257C3.04115 15.2866 2.88916 15.1026 2.88916 14.8893V5.11244C2.88916 4.89823 3.04115 4.71514 3.25179 4.67603L10.3622 3.34283C10.4902 3.31616 10.6262 3.3526 10.7275 3.43704C10.8297 3.52148 10.8884 3.6468 10.8884 3.77923V5.11244ZM8.9588 12.1127C9.14367 11.9509 9.16234 11.67 9.00058 11.486L7.59538 9.87998L9.01746 8.0526C9.16856 7.85795 9.1339 7.57887 8.94014 7.42866C8.74638 7.27756 8.46729 7.31311 8.3162 7.50598L6.99988 9.19827L5.89065 7.93083C5.72711 7.74507 5.44714 7.7273 5.26316 7.88906C5.07828 8.05082 5.05962 8.33168 5.22138 8.51567L6.44349 9.91287L5.20449 11.5056C5.05429 11.6994 5.08895 11.9784 5.28271 12.1295C5.36448 12.1926 5.46047 12.2229 5.55557 12.2229C5.68711 12.2229 5.81866 12.1642 5.90665 12.0522L7.03987 10.5946L8.3322 12.0709C8.42019 12.1713 8.54284 12.2229 8.66639 12.2229C8.77038 12.2229 8.87437 12.1864 8.9588 12.1127Z" fill="#50A013"/>
<path d="M17.939 16.0881L16.137 17.8901C15.9679 18.0585 15.739 18.1531 15.5003 18.1531C15.2616 18.1531 15.0327 18.0585 14.8636 17.8901L13.0616 16.0881C12.9025 15.9173 12.8158 15.6914 12.82 15.458C12.8241 15.2246 12.9186 15.0019 13.0837 14.8368C13.2488 14.6717 13.4715 14.5771 13.7049 14.573C13.9383 14.5689 14.1642 14.6556 14.335 14.8147L14.5993 15.0778V12.4481C14.5993 12.2092 14.6942 11.98 14.8632 11.811C15.0322 11.642 15.2614 11.5471 15.5003 11.5471C15.7393 11.5471 15.9684 11.642 16.1374 11.811C16.3064 11.98 16.4013 12.2092 16.4013 12.4481V15.0778L16.6656 14.8147C16.8364 14.6556 17.0623 14.5689 17.2957 14.573C17.5291 14.5771 17.7518 14.6717 17.9169 14.8368C18.082 15.0019 18.1765 15.2246 18.1807 15.458C18.1848 15.6914 18.0981 15.9173 17.939 16.0881Z" fill="#2968F9"/>
</svg>
