<svg width="16" height="16" viewBox="0 0 16 16" fill="none" xmlns="http://www.w3.org/2000/svg">
<path d="M12.5452 4.51587H11.6296C11.377 4.51587 11.1719 4.72095 11.1719 4.97364C11.1719 5.22632 11.377 5.4314 11.6296 5.4314H12.5452C12.7979 5.4314 13.0029 5.22632 13.0029 4.97364C13.0029 4.72095 12.7979 4.51587 12.5452 4.51587Z" fill="#50A013"/>
<path d="M12.5452 6.34692H11.6296C11.377 6.34692 11.1719 6.552 11.1719 6.80469C11.1719 7.05738 11.377 7.26246 11.6296 7.26246H12.5452C12.7979 7.26246 13.0029 7.05738 13.0029 6.80469C13.0029 6.552 12.7979 6.34692 12.5452 6.34692Z" fill="#50A013"/>
<path fill-rule="evenodd" clip-rule="evenodd" d="M8.32356 3.24544H13.6128C13.8374 3.24544 14.0197 3.42771 14.0197 3.6523V7.43277C13.757 7.37426 13.4849 7.34082 13.2059 7.33511V4.05917H8.32356V4.8729H9.54416C9.76874 4.8729 9.95102 5.05517 9.95102 5.27976C9.95102 5.50435 9.76874 5.68663 9.54416 5.68663H8.32356V6.50035H9.54416C9.76874 6.50035 9.95102 6.68263 9.95102 6.90722C9.95102 7.13181 9.76874 7.31408 9.54416 7.31408H8.32356V8.12781H9.54416C9.76874 8.12781 9.95102 8.31009 9.95102 8.53468C9.95102 8.75927 9.76874 8.94154 9.54416 8.94154H8.32356V9.75527H9.36546C9.24847 10.0134 9.15732 10.2858 9.09531 10.569H8.32356V11.3827H9.00061C9.0002 11.4065 9 11.4303 9 11.4541C9 11.7076 9.02288 11.9557 9.0667 12.1965H8.32356V13.4171C8.32356 13.5375 8.26986 13.653 8.17628 13.7303C8.10304 13.7914 8.01109 13.8239 7.9167 13.8239C7.89147 13.8239 7.86625 13.8215 7.84183 13.8166L1.332 12.596C1.13915 12.5602 1 12.3918 1 12.1965V3.24544C1 3.04933 1.13915 2.8817 1.332 2.8459L7.84183 1.6253C7.95901 1.60089 8.08351 1.63425 8.17628 1.71156C8.26986 1.78886 8.32356 1.9036 8.32356 2.02484V3.24544ZM6.55696 9.65437C6.72621 9.50627 6.7433 9.24913 6.5952 9.08069L5.3087 7.61028L6.61066 5.93725C6.749 5.75905 6.71726 5.50354 6.53987 5.36602C6.36247 5.22768 6.10696 5.26023 5.96863 5.43681L4.7635 6.98615L3.74796 5.82577C3.59824 5.6557 3.34191 5.63943 3.17347 5.78753C3.00421 5.93563 2.98713 6.19277 3.13523 6.36121L4.2541 7.64039L3.11976 9.09859C2.98224 9.27599 3.01398 9.5315 3.19137 9.66983C3.26624 9.7276 3.35412 9.75527 3.44119 9.75527C3.56162 9.75527 3.68205 9.70157 3.76261 9.59904L4.80012 8.26452L5.98328 9.61612C6.06384 9.70808 6.17613 9.75527 6.28924 9.75527C6.38445 9.75527 6.47965 9.72191 6.55696 9.65437Z" fill="#50A013"/>
<path d="M14.7786 12.4925L13.1288 14.1423C12.974 14.2965 12.7644 14.3831 12.5459 14.3831C12.3274 14.3831 12.1178 14.2965 11.963 14.1423L10.3132 12.4925C10.1675 12.3361 10.0882 12.1293 10.0919 11.9156C10.0957 11.7019 10.1823 11.498 10.3334 11.3469C10.4845 11.1957 10.6884 11.1092 10.9021 11.1054C11.1158 11.1016 11.3227 11.181 11.479 11.3267L11.721 11.5675V9.15997C11.721 8.9412 11.8079 8.73139 11.9626 8.57669C12.1173 8.42199 12.3271 8.33509 12.5459 8.33509C12.7646 8.33509 12.9745 8.42199 13.1292 8.57669C13.2839 8.73139 13.3708 8.9412 13.3708 9.15997V11.5675L13.6127 11.3267C13.7691 11.181 13.9759 11.1016 14.1896 11.1054C14.4033 11.1092 14.6072 11.1957 14.7583 11.3469C14.9095 11.498 14.996 11.7019 14.9998 11.9156C15.0036 12.1293 14.9243 12.3361 14.7786 12.4925Z" fill="#2968F9"/>
</svg>
