<svg width="16" height="16" viewBox="0 0 16 16" fill="none" xmlns="http://www.w3.org/2000/svg">
<path d="M10.8637 9.99737L12.0292 5.07428H12.6802L12.8289 5.89412L11.5871 10.9257H10.8878L10.8637 9.99737ZM10.2649 5.07428L11.2294 9.99737L11.149 10.9257H10.3694L9.07129 5.07428H10.2649ZM13.8537 9.97728L14.8062 5.07428H15.9998L14.7057 10.9257H13.9261L13.8537 9.97728ZM13.0459 5.07428L14.2194 10.0175L14.1873 10.9257H13.488L12.2381 5.89011L12.3989 5.07428H13.0459Z" fill="#FE6D34"/>
<path d="M8.99673 9.98531V10.9257H5.88212V9.98531H8.99673ZM6.27597 5.07428V10.9257H5.07031V5.07428H6.27597ZM8.59082 7.45746V8.37375H5.88212V7.45746H8.59082ZM8.99271 5.07428V6.01871H5.88212V5.07428H8.99271Z" fill="#FE6D34"/>
<path d="M4.76234 5.07428V10.9257H3.55668L1.20565 7.00333V10.9257H0V5.07428H1.20565L3.5607 9.00069V5.07428H4.76234Z" fill="#FE6D34"/>
</svg>
