<svg width="16" height="16" viewBox="0 0 16 16" fill="none" xmlns="http://www.w3.org/2000/svg">
<path d="M10.4893 12.7988C10.3901 13.0089 10.2388 13.2897 10.0283 13.5703C9.60755 14.1316 8.9468 14.7001 8 14.7002C7.17151 14.7002 6.56191 14.2651 6.14062 13.7803L5.97168 13.5703C5.81382 13.3598 5.68909 13.1494 5.59473 12.9688L5.51074 12.7988L5.50977 12.7969L5.48535 12.7451L6.06348 13.5127C6.47486 14.0587 7.10577 14.5918 8 14.5918C8.89416 14.5917 9.52516 14.0587 9.93652 13.5127L10.5137 12.7451L10.4893 12.7988ZM8 1.2998C10.273 1.29991 12.116 3.14267 12.1162 5.41602V6.67969C12.1162 7.25274 12.4133 7.78458 12.9014 8.08496L13.8877 8.69238C15.1194 9.45054 14.9078 11.3013 13.5371 11.7627L12.8613 11.9912C12.2007 12.2136 11.5283 12.3894 10.8496 12.5186L10.5967 12.5664L10.5771 12.6064L9.48828 12.7139C8.49862 12.811 7.50143 12.811 6.51172 12.7139L5.41992 12.6064L5.40137 12.5664L5.15039 12.5186L4.64258 12.4131C4.13621 12.2987 3.63422 12.158 3.13867 11.9912L2.46191 11.7627C1.09143 11.3011 0.880558 9.45043 2.1123 8.69238L3.09863 8.08496C3.5865 7.78455 3.88379 7.25265 3.88379 6.67969V5.41602C3.88397 3.1426 5.72698 1.2998 8 1.2998Z" fill="#2968F9" stroke="#2968F9"/>
</svg>
