<svg width="30" height="30" viewBox="0 0 30 30" fill="none" xmlns="http://www.w3.org/2000/svg">
<path d="M26.4849 4.33545C27.8418 4.3355 28.9999 5.43929 29.0001 6.79619V19.9215C29.0001 21.2785 27.8419 22.3822 26.4849 22.3822H25.6653V23.2038C25.6655 23.5996 25.946 23.9306 26.3193 24.0072L26.6504 24.0395C27.0244 24.116 27.3044 24.4482 27.3044 24.845C27.3039 25.2979 26.9379 25.6645 26.4849 25.6645H24.8437C22.8627 25.6644 21.2059 24.2519 20.8246 22.3822H18.2811C16.9241 22.3821 15.8203 21.2784 15.8203 19.9215V6.79619C15.8205 5.43935 16.9242 4.33561 18.2811 4.33545H26.4849ZM23.1177 9.71113C22.839 9.15522 21.9291 9.15536 21.6502 9.71113L18.3679 16.2738C18.1652 16.6791 18.3299 17.1713 18.7352 17.3739C19.139 17.5765 19.6328 17.411 19.8354 17.0065L20.8387 15H23.9272L24.9305 17.0065C25.1323 17.409 25.6217 17.5768 26.0307 17.3739C26.436 17.1713 26.6007 16.6791 26.3981 16.2738L23.1177 9.71113ZM23.1056 13.3588H21.6583L22.3809 11.9135L23.1056 13.3588Z" fill="#64748B"/>
<path fill-rule="evenodd" clip-rule="evenodd" d="M11.7191 4.33545C13.076 4.33545 14.1796 5.43926 14.1798 6.79619V19.9215C14.1798 21.2785 13.0761 22.3822 11.7191 22.3822H9.17555C8.79425 24.252 7.13759 25.6645 5.15641 25.6645H3.51524C3.06235 25.6643 2.69618 25.2978 2.69567 24.845C2.69567 24.4484 2.97592 24.1161 3.34971 24.0395L3.68077 24.0072C4.05431 23.9308 4.33661 23.5997 4.33683 23.2038V22.3822H3.51524C2.15838 22.382 1 21.2784 1 19.9215V6.79619C1.00016 5.43941 2.15848 4.33571 3.51524 4.33545H11.7191ZM3.51524 13.3588C3.51545 11.0975 5.35583 9.25708 7.61715 9.25693C9.8786 9.25693 11.7188 11.0974 11.7191 13.3588C11.7191 14.1932 11.4665 14.9693 11.0367 15.6177L11.4788 16.0598C11.7992 16.3802 11.7992 16.9001 11.4788 17.2205C11.1584 17.5409 10.6385 17.5409 10.3181 17.2205L9.87602 16.7784C9.22756 17.2083 8.45162 17.4607 7.61715 17.4607C5.3557 17.4606 3.51524 15.6203 3.51524 13.3588ZM7.61715 10.8981C8.97412 10.8981 10.0777 12.0019 10.0779 13.3588C10.0779 13.738 9.98549 14.0935 9.83161 14.4146C9.51064 14.1005 8.99731 14.1023 8.67896 14.4206C8.36061 14.739 8.35877 15.2523 8.6729 15.5733C8.35182 15.7272 7.99634 15.8196 7.61715 15.8196C6.26021 15.8194 5.15641 14.7158 5.15641 13.3588C5.15657 12.002 6.26031 10.8983 7.61715 10.8981Z" fill="#64748B"/>
</svg>
