<svg width="24" height="24" viewBox="0 0 24 24" fill="none" xmlns="http://www.w3.org/2000/svg">
<path d="M19.4201 3.82993L12.2401 1.99993C12.0824 1.96096 11.9177 1.96096 11.7601 1.99993L4.58005 3.82993C4.12227 3.94421 3.71962 4.21666 3.4433 4.59912C3.16698 4.98158 3.03477 5.44942 3.07005 5.91993L3.49005 11.4299C3.65826 13.6157 4.422 15.7136 5.69836 17.4959C6.97472 19.2782 8.71492 20.6768 10.7301 21.5399L11.6101 21.9199C11.7334 21.9722 11.8661 21.9991 12.0001 21.9991C12.134 21.9991 12.2667 21.9722 12.3901 21.9199L13.2701 21.5399C15.2852 20.6768 17.0254 19.2782 18.3018 17.4959C19.5781 15.7136 20.3418 13.6157 20.5101 11.4299L20.9301 5.91993C20.9653 5.44942 20.8331 4.98158 20.5568 4.59912C20.2805 4.21666 19.8778 3.94421 19.4201 3.82993Z" fill="#2968F9"/>
<path d="M10.9999 14.0002C10.8683 14.0009 10.7379 13.9757 10.616 13.926C10.4942 13.8762 10.3834 13.8029 10.2899 13.7102L8.28994 11.7102C8.10164 11.5219 7.99585 11.2665 7.99585 11.0002C7.99585 10.7339 8.10164 10.4785 8.28994 10.2902C8.47825 10.1019 8.73364 9.99609 8.99994 9.99609C9.26624 9.99609 9.52164 10.1019 9.70994 10.2902L10.9999 11.5902L14.2899 8.29019C14.4782 8.10188 14.7336 7.99609 14.9999 7.99609C15.2662 7.99609 15.5216 8.10188 15.7099 8.29019C15.8982 8.47849 16.004 8.73388 16.004 9.00019C16.004 9.26649 15.8982 9.52188 15.7099 9.71019L11.7099 13.7102C11.6165 13.8029 11.5057 13.8762 11.3838 13.926C11.262 13.9757 11.1315 14.0009 10.9999 14.0002Z" fill="white"/>
</svg>
