<svg width="16" height="16" viewBox="0 0 16 16" fill="none" xmlns="http://www.w3.org/2000/svg">
<path d="M8.03122 1.28955H7.9689C6.7049 1.28954 5.71408 1.28954 4.928 1.37471C4.12581 1.46162 3.47584 1.64216 2.92088 2.04536C2.58491 2.28946 2.28946 2.58491 2.04536 2.92088C1.64216 3.47584 1.46162 4.12581 1.37471 4.928C1.28954 5.71408 1.28954 6.7049 1.28955 7.9689V8.03122C1.28954 9.29517 1.28954 10.286 1.37471 11.0721C1.46162 11.8743 1.64216 12.5243 2.04536 13.0792C2.28946 13.4152 2.58491 13.7106 2.92088 13.9547C3.47584 14.3579 4.12581 14.5385 4.928 14.6254C5.71408 14.7105 6.70489 14.7105 7.96889 14.7105H8.03122C9.29517 14.7105 10.286 14.7105 11.0721 14.6254C11.8743 14.5385 12.5243 14.3579 13.0792 13.9547C13.4152 13.7106 13.7106 13.4152 13.9547 13.0792C14.3579 12.5243 14.5385 11.8743 14.6254 11.0721C14.7105 10.286 14.7105 9.29517 14.7105 8.03122V7.96889C14.7105 6.70489 14.7105 5.71408 14.6254 4.928C14.5385 4.12581 14.3579 3.47584 13.9547 2.92088C13.7106 2.58491 13.4152 2.28946 13.0792 2.04536C12.5243 1.64216 11.8743 1.46162 11.0721 1.37471C10.286 1.28954 9.29517 1.28954 8.03122 1.28955Z" fill="#FEE2D7" stroke="#FE6D34"/>
<path d="M7.2801 5.28491C7.2801 4.88727 7.60244 4.56494 8.00006 4.56494C8.39769 4.56494 8.72007 4.88727 8.72007 5.28491V7.2801H10.7152C11.1128 7.2801 11.4352 7.60244 11.4352 8.00006C11.4352 8.39769 11.1128 8.72007 10.7152 8.72007H8.72007V10.7152C8.72007 11.1128 8.39769 11.4352 8.00006 11.4352C7.60244 11.4352 7.2801 11.1128 7.2801 10.7152V8.72007H5.28491C4.88727 8.72007 4.56494 8.39769 4.56494 8.00006C4.56494 7.60244 4.88727 7.2801 5.28491 7.2801H7.2801V5.28491Z" fill="#FE6D34"/>
</svg>
