<svg width="80" height="16" viewBox="0 0 80 16" fill="none" xmlns="http://www.w3.org/2000/svg">
<g clip-path="url(#clip0_944_20083)">
<g clip-path="url(#clip1_944_20083)">
<mask id="path-1-inside-1_944_20083" fill="white">
<path fill-rule="evenodd" clip-rule="evenodd" d="M2.78027 8.37949C2.78027 6.83422 4.03296 5.58154 5.57822 5.58154H10.7831C12.3284 5.58154 13.5811 6.83423 13.5811 8.37949V11.8987C13.5811 13.4439 12.3284 14.6966 10.7831 14.6966H7.30554C6.84196 14.6966 6.51465 14.2287 6.51465 13.7651C6.51465 12.2175 5.26004 10.9629 3.71239 10.9629C3.24854 10.9629 2.78027 10.6354 2.78027 10.1715V8.37949ZM8.88015 9.41553C8.88015 9.02921 8.56698 8.71604 8.18066 8.71604C7.79435 8.71604 7.48118 9.02921 7.48118 9.41553L7.48118 10.8618C7.48118 11.2482 7.79435 11.5613 8.18066 11.5613C8.56698 11.5613 8.88015 11.2482 8.88015 10.8618V9.41553Z"/>
</mask>
<path fill-rule="evenodd" clip-rule="evenodd" d="M2.78027 8.37949C2.78027 6.83422 4.03296 5.58154 5.57822 5.58154H10.7831C12.3284 5.58154 13.5811 6.83423 13.5811 8.37949V11.8987C13.5811 13.4439 12.3284 14.6966 10.7831 14.6966H7.30554C6.84196 14.6966 6.51465 14.2287 6.51465 13.7651C6.51465 12.2175 5.26004 10.9629 3.71239 10.9629C3.24854 10.9629 2.78027 10.6354 2.78027 10.1715V8.37949ZM8.88015 9.41553C8.88015 9.02921 8.56698 8.71604 8.18066 8.71604C7.79435 8.71604 7.48118 9.02921 7.48118 9.41553L7.48118 10.8618C7.48118 11.2482 7.79435 11.5613 8.18066 11.5613C8.56698 11.5613 8.88015 11.2482 8.88015 10.8618V9.41553Z" fill="#64748B"/>
<path d="M7.48118 9.41553H7.55113H7.48118ZM7.48118 10.8618H7.41123H7.48118ZM5.57822 5.51159C3.99432 5.51159 2.71032 6.79559 2.71032 8.37949H2.85022C2.85022 6.87286 4.07159 5.65149 5.57822 5.65149V5.51159ZM10.7831 5.51159H5.57822V5.65149H10.7831V5.51159ZM13.651 8.37949C13.651 6.79559 12.367 5.51159 10.7831 5.51159V5.65149C12.2897 5.65149 13.5111 6.87286 13.5111 8.37949H13.651ZM13.651 11.8987V8.37949H13.5111V11.8987H13.651ZM10.7831 14.7666C12.367 14.7666 13.651 13.4826 13.651 11.8987H13.5111C13.5111 13.4053 12.2897 14.6267 10.7831 14.6267V14.7666ZM7.30554 14.7666H10.7831V14.6267H7.30554V14.7666ZM3.71239 11.0328C5.2214 11.0328 6.4447 12.2561 6.4447 13.7651H6.5846C6.5846 12.1789 5.29867 10.8929 3.71239 10.8929V11.0328ZM2.71032 8.37949V10.1715H2.85022V8.37949H2.71032ZM8.18066 8.78599C8.52835 8.78599 8.8102 9.06784 8.8102 9.41553H8.9501C8.9501 8.99058 8.60561 8.64609 8.18066 8.64609V8.78599ZM7.55113 9.41553C7.55113 9.06784 7.83298 8.78599 8.18066 8.78599V8.64609C7.75572 8.64609 7.41123 8.99058 7.41123 9.41553H7.55113ZM7.55113 10.8618L7.55113 9.41553H7.41123L7.41123 10.8618H7.55113ZM8.18066 11.4914C7.83298 11.4914 7.55113 11.2095 7.55113 10.8618H7.41123C7.41123 11.2868 7.75572 11.6313 8.18066 11.6313V11.4914ZM8.8102 10.8618C8.8102 11.2095 8.52835 11.4914 8.18066 11.4914V11.6313C8.60561 11.6313 8.9501 11.2868 8.9501 10.8618H8.8102ZM8.8102 9.41553V10.8618H8.9501V9.41553H8.8102ZM3.71239 10.8929C3.4961 10.8929 3.27852 10.8163 3.11605 10.6865C2.95412 10.5571 2.85022 10.3781 2.85022 10.1715H2.71032C2.71032 10.4288 2.84056 10.6455 3.02873 10.7958C3.21636 10.9457 3.46484 11.0328 3.71239 11.0328V10.8929ZM7.30554 14.6267C7.09912 14.6267 6.92019 14.5229 6.7909 14.361C6.66118 14.1987 6.5846 13.9813 6.5846 13.7651H6.4447C6.4447 14.0125 6.53178 14.2609 6.68161 14.4484C6.83186 14.6364 7.04838 14.7666 7.30554 14.7666V14.6267Z" fill="#64748B" mask="url(#path-1-inside-1_944_20083)"/>
<circle cx="3.71259" cy="13.7647" r="1.8006" fill="#00A4F0"/>
<path fill-rule="evenodd" clip-rule="evenodd" d="M4.86701 2.22752C3.7567 1.91831 2.7396 2.40955 2.51835 3.23548C2.45879 3.45781 2.36331 3.87924 2.2799 4.25948C2.23888 4.4465 2.20181 4.61878 2.17499 4.74435L2.1433 4.89336L2.13198 4.947C2.05253 5.32506 1.68148 5.56794 1.30342 5.48849C0.925362 5.40904 0.68329 5.03816 0.762738 4.6601L0.774653 4.60366L0.806877 4.45215C0.834065 4.32485 0.871692 4.14995 0.913415 3.95974C0.995503 3.58551 1.09772 3.13219 1.16702 2.87349C1.66228 1.02466 3.68509 0.446153 5.24233 0.879828C6.77188 1.30579 8.21081 2.75746 7.70997 4.62662L7.08576 6.95622L6.41003 6.77545L5.73438 6.5944L6.35867 4.26454C6.58539 3.4184 5.97437 2.5359 4.86701 2.22752ZM6.22899 7.45111C5.85584 7.35112 5.6344 6.96755 5.73438 6.5944L6.41003 6.77545L7.08576 6.95622C6.98577 7.32937 6.60214 7.55109 6.22899 7.45111Z" fill="#64748B"/>
</g>
</g>
<g clip-path="url(#clip2_944_20083)">
<mask id="path-5-inside-2_944_20083" fill="white">
<path fill-rule="evenodd" clip-rule="evenodd" d="M18.7803 8.37949C18.7803 6.83422 20.033 5.58154 21.5782 5.58154H26.7831C28.3284 5.58154 29.5811 6.83423 29.5811 8.37949V11.8987C29.5811 13.4439 28.3284 14.6966 26.7831 14.6966H23.304C22.8405 14.6966 22.5132 14.2287 22.5132 13.7651C22.5132 12.218 21.259 10.9638 19.7119 10.9638C19.2483 10.9638 18.7803 10.6365 18.7803 10.1729V8.37949ZM24.8802 9.41553C24.8802 9.02921 24.567 8.71604 24.1807 8.71604C23.7943 8.71604 23.4812 9.02921 23.4812 9.41553L23.4812 10.8618C23.4812 11.2482 23.7943 11.5613 24.1807 11.5613C24.567 11.5613 24.8802 11.2482 24.8802 10.8618V9.41553Z"/>
</mask>
<path fill-rule="evenodd" clip-rule="evenodd" d="M18.7803 8.37949C18.7803 6.83422 20.033 5.58154 21.5782 5.58154H26.7831C28.3284 5.58154 29.5811 6.83423 29.5811 8.37949V11.8987C29.5811 13.4439 28.3284 14.6966 26.7831 14.6966H23.304C22.8405 14.6966 22.5132 14.2287 22.5132 13.7651C22.5132 12.218 21.259 10.9638 19.7119 10.9638C19.2483 10.9638 18.7803 10.6365 18.7803 10.1729V8.37949ZM24.8802 9.41553C24.8802 9.02921 24.567 8.71604 24.1807 8.71604C23.7943 8.71604 23.4812 9.02921 23.4812 9.41553L23.4812 10.8618C23.4812 11.2482 23.7943 11.5613 24.1807 11.5613C24.567 11.5613 24.8802 11.2482 24.8802 10.8618V9.41553Z" fill="#64748B"/>
<path d="M23.4812 9.41553H23.5511H23.4812ZM23.4812 10.8618H23.4112H23.4812ZM21.5782 5.51159C19.9943 5.51159 18.7103 6.79559 18.7103 8.37949H18.8502C18.8502 6.87286 20.0716 5.65149 21.5782 5.65149V5.51159ZM26.7831 5.51159H21.5782V5.65149H26.7831V5.51159ZM29.651 8.37949C29.651 6.79559 28.367 5.51159 26.7831 5.51159V5.65149C28.2897 5.65149 29.5111 6.87286 29.5111 8.37949H29.651ZM29.651 11.8987V8.37949H29.5111V11.8987H29.651ZM26.7831 14.7666C28.367 14.7666 29.651 13.4826 29.651 11.8987H29.5111C29.5111 13.4053 28.2897 14.6267 26.7831 14.6267V14.7666ZM23.304 14.7666H26.7831V14.6267H23.304V14.7666ZM19.7119 11.0338C21.2204 11.0338 22.4432 12.2567 22.4432 13.7651H22.5831C22.5831 12.1794 21.2976 10.8939 19.7119 10.8939V11.0338ZM18.7103 8.37949V10.1729H18.8502V8.37949H18.7103ZM24.1807 8.78599C24.5283 8.78599 24.8102 9.06784 24.8102 9.41553H24.9501C24.9501 8.99058 24.6056 8.64609 24.1807 8.64609V8.78599ZM23.5511 9.41553C23.5511 9.06784 23.833 8.78599 24.1807 8.78599V8.64609C23.7557 8.64609 23.4112 8.99058 23.4112 9.41553H23.5511ZM23.5511 10.8618L23.5511 9.41553H23.4112L23.4112 10.8618H23.5511ZM24.1807 11.4914C23.833 11.4914 23.5511 11.2095 23.5511 10.8618H23.4112C23.4112 11.2868 23.7557 11.6313 24.1807 11.6313V11.4914ZM24.8102 10.8618C24.8102 11.2095 24.5283 11.4914 24.1807 11.4914V11.6313C24.6056 11.6313 24.9501 11.2868 24.9501 10.8618H24.8102ZM24.8102 9.41553V10.8618H24.9501V9.41553H24.8102ZM19.7119 10.8939C19.4957 10.8939 19.2783 10.8173 19.1159 10.6876C18.9541 10.5583 18.8502 10.3793 18.8502 10.1729H18.7103C18.7103 10.4301 18.8405 10.6466 19.0286 10.7969C19.2161 10.9467 19.4645 11.0338 19.7119 11.0338V10.8939ZM23.304 14.6267C23.0976 14.6267 22.9187 14.5229 22.7894 14.361C22.6597 14.1987 22.5831 13.9813 22.5831 13.7651H22.4432C22.4432 14.0125 22.5303 14.2609 22.6801 14.4484C22.8304 14.6364 23.0469 14.7666 23.304 14.7666V14.6267Z" fill="#64748B" mask="url(#path-5-inside-2_944_20083)"/>
<circle cx="19.7126" cy="13.7647" r="1.80207" fill="#FE6D34"/>
<path fill-rule="evenodd" clip-rule="evenodd" d="M24.2004 1.79629C23.0479 1.78499 22.1926 2.52274 22.1927 3.37779V5.7899H20.7937V3.37788C20.7937 3.37787 20.7937 3.3779 20.7937 3.37788C20.7936 1.4639 22.5977 0.381534 24.2141 0.397389C25.8018 0.412961 27.5674 1.44275 27.5674 3.37784V5.7899H26.1685V3.37784C26.1685 2.50185 25.3499 1.80757 24.2004 1.79629Z" fill="#64748B"/>
</g>
<g clip-path="url(#clip3_944_20083)">
<g clip-path="url(#clip4_944_20083)">
<mask id="path-9-inside-3_944_20083" fill="white">
<path fill-rule="evenodd" clip-rule="evenodd" d="M34.7803 8.37949C34.7803 6.83422 36.033 5.58154 37.5782 5.58154H42.7831C44.3284 5.58154 45.5811 6.83423 45.5811 8.37949V11.8987C45.5811 13.4439 44.3284 14.6966 42.7831 14.6966H39.3055C38.842 14.6966 38.5146 14.2287 38.5146 13.7651C38.5146 12.2175 37.26 10.9629 35.7124 10.9629C35.2485 10.9629 34.7803 10.6354 34.7803 10.1715V8.37949ZM40.8802 9.41553C40.8802 9.02921 40.567 8.71604 40.1807 8.71604C39.7943 8.71604 39.4812 9.02921 39.4812 9.41553L39.4812 10.8618C39.4812 11.2482 39.7943 11.5613 40.1807 11.5613C40.567 11.5613 40.8802 11.2482 40.8802 10.8618V9.41553Z"/>
</mask>
<path fill-rule="evenodd" clip-rule="evenodd" d="M34.7803 8.37949C34.7803 6.83422 36.033 5.58154 37.5782 5.58154H42.7831C44.3284 5.58154 45.5811 6.83423 45.5811 8.37949V11.8987C45.5811 13.4439 44.3284 14.6966 42.7831 14.6966H39.3055C38.842 14.6966 38.5146 14.2287 38.5146 13.7651C38.5146 12.2175 37.26 10.9629 35.7124 10.9629C35.2485 10.9629 34.7803 10.6354 34.7803 10.1715V8.37949ZM40.8802 9.41553C40.8802 9.02921 40.567 8.71604 40.1807 8.71604C39.7943 8.71604 39.4812 9.02921 39.4812 9.41553L39.4812 10.8618C39.4812 11.2482 39.7943 11.5613 40.1807 11.5613C40.567 11.5613 40.8802 11.2482 40.8802 10.8618V9.41553Z" fill="white"/>
<path d="M39.4812 9.41553H39.5511H39.4812ZM39.4812 10.8618H39.4112H39.4812ZM37.5782 5.51159C35.9943 5.51159 34.7103 6.79559 34.7103 8.37949H34.8502C34.8502 6.87286 36.0716 5.65149 37.5782 5.65149V5.51159ZM42.7831 5.51159H37.5782V5.65149H42.7831V5.51159ZM45.651 8.37949C45.651 6.79559 44.367 5.51159 42.7831 5.51159V5.65149C44.2897 5.65149 45.5111 6.87286 45.5111 8.37949H45.651ZM45.651 11.8987V8.37949H45.5111V11.8987H45.651ZM42.7831 14.7666C44.367 14.7666 45.651 13.4826 45.651 11.8987H45.5111C45.5111 13.4053 44.2897 14.6267 42.7831 14.6267V14.7666ZM39.3055 14.7666H42.7831V14.6267H39.3055V14.7666ZM35.7124 11.0328C37.2214 11.0328 38.4447 12.2561 38.4447 13.7651H38.5846C38.5846 12.1789 37.2987 10.8929 35.7124 10.8929V11.0328ZM34.7103 8.37949V10.1715H34.8502V8.37949H34.7103ZM40.1807 8.78599C40.5283 8.78599 40.8102 9.06784 40.8102 9.41553H40.9501C40.9501 8.99058 40.6056 8.64609 40.1807 8.64609V8.78599ZM39.5511 9.41553C39.5511 9.06784 39.833 8.78599 40.1807 8.78599V8.64609C39.7557 8.64609 39.4112 8.99058 39.4112 9.41553H39.5511ZM39.5511 10.8618L39.5511 9.41553H39.4112L39.4112 10.8618H39.5511ZM40.1807 11.4914C39.833 11.4914 39.5511 11.2095 39.5511 10.8618H39.4112C39.4112 11.2868 39.7557 11.6313 40.1807 11.6313V11.4914ZM40.8102 10.8618C40.8102 11.2095 40.5283 11.4914 40.1807 11.4914V11.6313C40.6056 11.6313 40.9501 11.2868 40.9501 10.8618H40.8102ZM40.8102 9.41553V10.8618H40.9501V9.41553H40.8102ZM35.7124 10.8929C35.4961 10.8929 35.2785 10.8163 35.116 10.6865C34.9541 10.5571 34.8502 10.3781 34.8502 10.1715H34.7103C34.7103 10.4288 34.8406 10.6455 35.0287 10.7958C35.2164 10.9457 35.4648 11.0328 35.7124 11.0328V10.8929ZM39.3055 14.6267C39.0991 14.6267 38.9202 14.5229 38.7909 14.361C38.6612 14.1987 38.5846 13.9813 38.5846 13.7651H38.4447C38.4447 14.0125 38.5318 14.2609 38.6816 14.4484C38.8319 14.6364 39.0484 14.7666 39.3055 14.7666V14.6267Z" fill="white" mask="url(#path-9-inside-3_944_20083)"/>
<circle cx="35.7126" cy="13.7647" r="1.8006" fill="#00A4F0"/>
<path fill-rule="evenodd" clip-rule="evenodd" d="M36.867 2.22752C35.7567 1.91831 34.7396 2.40955 34.5184 3.23548C34.4588 3.45781 34.3633 3.87924 34.2799 4.25948C34.2389 4.4465 34.2018 4.61878 34.175 4.74435L34.1433 4.89336L34.132 4.947C34.0525 5.32506 33.6815 5.56794 33.3034 5.48849C32.9254 5.40904 32.6833 5.03816 32.7627 4.6601L32.7747 4.60366L32.8069 4.45215C32.8341 4.32485 32.8717 4.14995 32.9134 3.95974C32.9955 3.58551 33.0977 3.13219 33.167 2.87349C33.6623 1.02466 35.6851 0.446153 37.2423 0.879828C38.7719 1.30579 40.2108 2.75746 39.71 4.62662L39.0858 6.95622L38.41 6.77545L37.7344 6.5944L38.3587 4.26454C38.5854 3.4184 37.9744 2.5359 36.867 2.22752ZM38.229 7.45111C37.8558 7.35112 37.6344 6.96755 37.7344 6.5944L38.41 6.77545L39.0858 6.95622C38.9858 7.32937 38.6021 7.55109 38.229 7.45111Z" fill="white"/>
</g>
</g>
<g clip-path="url(#clip5_944_20083)">
<mask id="path-13-inside-4_944_20083" fill="white">
<path fill-rule="evenodd" clip-rule="evenodd" d="M50.7803 8.37949C50.7803 6.83422 52.033 5.58154 53.5782 5.58154H58.7831C60.3284 5.58154 61.5811 6.83423 61.5811 8.37949V11.8987C61.5811 13.4439 60.3284 14.6966 58.7831 14.6966H55.304C54.8405 14.6966 54.5132 14.2287 54.5132 13.7651C54.5132 12.218 53.259 10.9638 51.7119 10.9638C51.2483 10.9638 50.7803 10.6365 50.7803 10.1729V8.37949ZM56.8802 9.41553C56.8802 9.02921 56.567 8.71604 56.1807 8.71604C55.7943 8.71604 55.4812 9.02921 55.4812 9.41553L55.4812 10.8618C55.4812 11.2482 55.7943 11.5613 56.1807 11.5613C56.567 11.5613 56.8802 11.2482 56.8802 10.8618V9.41553Z"/>
</mask>
<path fill-rule="evenodd" clip-rule="evenodd" d="M50.7803 8.37949C50.7803 6.83422 52.033 5.58154 53.5782 5.58154H58.7831C60.3284 5.58154 61.5811 6.83423 61.5811 8.37949V11.8987C61.5811 13.4439 60.3284 14.6966 58.7831 14.6966H55.304C54.8405 14.6966 54.5132 14.2287 54.5132 13.7651C54.5132 12.218 53.259 10.9638 51.7119 10.9638C51.2483 10.9638 50.7803 10.6365 50.7803 10.1729V8.37949ZM56.8802 9.41553C56.8802 9.02921 56.567 8.71604 56.1807 8.71604C55.7943 8.71604 55.4812 9.02921 55.4812 9.41553L55.4812 10.8618C55.4812 11.2482 55.7943 11.5613 56.1807 11.5613C56.567 11.5613 56.8802 11.2482 56.8802 10.8618V9.41553Z" fill="white"/>
<path d="M55.4812 9.41553H55.5511H55.4812ZM55.4812 10.8618H55.4112H55.4812ZM53.5782 5.51159C51.9943 5.51159 50.7103 6.79559 50.7103 8.37949H50.8502C50.8502 6.87286 52.0716 5.65149 53.5782 5.65149V5.51159ZM58.7831 5.51159H53.5782V5.65149H58.7831V5.51159ZM61.651 8.37949C61.651 6.79559 60.367 5.51159 58.7831 5.51159V5.65149C60.2897 5.65149 61.5111 6.87286 61.5111 8.37949H61.651ZM61.651 11.8987V8.37949H61.5111V11.8987H61.651ZM58.7831 14.7666C60.367 14.7666 61.651 13.4826 61.651 11.8987H61.5111C61.5111 13.4053 60.2897 14.6267 58.7831 14.6267V14.7666ZM55.304 14.7666H58.7831V14.6267H55.304V14.7666ZM51.7119 11.0338C53.2204 11.0338 54.4432 12.2567 54.4432 13.7651H54.5831C54.5831 12.1794 53.2976 10.8939 51.7119 10.8939V11.0338ZM50.7103 8.37949V10.1729H50.8502V8.37949H50.7103ZM56.1807 8.78599C56.5283 8.78599 56.8102 9.06784 56.8102 9.41553H56.9501C56.9501 8.99058 56.6056 8.64609 56.1807 8.64609V8.78599ZM55.5511 9.41553C55.5511 9.06784 55.833 8.78599 56.1807 8.78599V8.64609C55.7557 8.64609 55.4112 8.99058 55.4112 9.41553H55.5511ZM55.5511 10.8618L55.5511 9.41553H55.4112L55.4112 10.8618H55.5511ZM56.1807 11.4914C55.833 11.4914 55.5511 11.2095 55.5511 10.8618H55.4112C55.4112 11.2868 55.7557 11.6313 56.1807 11.6313V11.4914ZM56.8102 10.8618C56.8102 11.2095 56.5283 11.4914 56.1807 11.4914V11.6313C56.6056 11.6313 56.9501 11.2868 56.9501 10.8618H56.8102ZM56.8102 9.41553V10.8618H56.9501V9.41553H56.8102ZM51.7119 10.8939C51.4957 10.8939 51.2783 10.8173 51.1159 10.6876C50.9541 10.5583 50.8502 10.3793 50.8502 10.1729H50.7103C50.7103 10.4301 50.8405 10.6466 51.0286 10.7969C51.2161 10.9467 51.4645 11.0338 51.7119 11.0338V10.8939ZM55.304 14.6267C55.0976 14.6267 54.9187 14.5229 54.7894 14.361C54.6597 14.1987 54.5831 13.9813 54.5831 13.7651H54.4432C54.4432 14.0125 54.5303 14.2609 54.6801 14.4484C54.8304 14.6364 55.0469 14.7666 55.304 14.7666V14.6267Z" fill="white" mask="url(#path-13-inside-4_944_20083)"/>
<circle cx="51.7126" cy="13.7647" r="1.80207" fill="#FE6D34"/>
<path fill-rule="evenodd" clip-rule="evenodd" d="M56.2004 1.79629C55.0479 1.78499 54.1926 2.52274 54.1927 3.37779V5.7899H52.7937V3.37788C52.7937 3.37787 52.7937 3.3779 52.7937 3.37788C52.7936 1.4639 54.5977 0.381534 56.2141 0.397389C57.8018 0.412961 59.5674 1.44275 59.5674 3.37784V5.7899H58.1685V3.37784C58.1685 2.50185 57.3499 1.80757 56.2004 1.79629Z" fill="white"/>
</g>
<defs>
<clipPath id="clip0_944_20083">
<rect width="16" height="16" fill="white"/>
</clipPath>
<clipPath id="clip1_944_20083">
<rect width="16" height="16" fill="white"/>
</clipPath>
<clipPath id="clip2_944_20083">
<rect width="16" height="16" fill="white" transform="translate(16)"/>
</clipPath>
<clipPath id="clip3_944_20083">
<rect width="16" height="16" fill="white" transform="translate(32)"/>
</clipPath>
<clipPath id="clip4_944_20083">
<rect width="16" height="16" fill="white" transform="translate(32)"/>
</clipPath>
<clipPath id="clip5_944_20083">
<rect width="16" height="16" fill="white" transform="translate(48)"/>
</clipPath>
</defs>
</svg>
