<svg width="80" height="16" viewBox="0 0 80 16" fill="none" xmlns="http://www.w3.org/2000/svg">
<g clip-path="url(#clip0_2894_63845)">
<path d="M14.9901 5.17559C15.3045 4.82574 15.2598 4.27267 14.8934 3.97972L11.4623 1.2366C11.3553 1.15106 11.2269 1.09872 11.0922 1.08575L8.16509 0.803905C7.41421 0.731603 7.00387 1.68147 7.55762 2.21011L9.10053 3.68307L8.70277 4.12823C8.07005 4.83643 8.10469 5.93748 8.78077 6.60484C9.47581 7.29091 10.5807 7.25644 11.2312 6.52839L11.5985 6.11722L12.535 6.97068C12.7923 7.20514 13.1837 7.18547 13.4165 6.92639L14.9901 5.17559Z" fill="#64748B"/>
<path d="M5.42801 10.4372C4.74301 9.75752 3.6538 9.77832 2.99517 10.4836L1.23824 12.3651C0.959903 12.6632 0.847279 13.0866 0.939095 13.4896L1.08525 14.1313C1.19184 14.5992 1.55487 14.9594 2.01257 15.0514L2.64012 15.1774C3.03437 15.2566 3.44048 15.1245 3.71881 14.8264L5.47575 12.9449C6.13437 12.2396 6.113 11.1168 5.42801 10.4372Z" fill="#64748B"/>
<path d="M6.12204 3.20139C7.14067 4.20377 6.84748 5.45892 6.66999 5.96037L12.9565 12.3145C13.5609 12.9255 13.5657 13.9274 12.9672 14.5444C12.3768 15.1529 11.4213 15.1578 10.8252 14.5553L4.53313 8.19555C4.26536 8.32187 3.80586 8.50091 3.2858 8.53187C2.74107 8.56435 2.10844 8.43363 1.58399 7.8928C1.14846 7.44366 0.94462 6.87253 0.857692 6.34089C0.770744 5.80914 0.795958 5.28953 0.841052 4.90625C0.877004 4.60069 1.07809 4.37801 1.32979 4.29957C1.57628 4.22275 1.85482 4.28799 2.05424 4.49357L2.80341 5.26586C3.01628 5.4853 3.3614 5.4853 3.57427 5.26586C3.78716 5.04641 3.78713 4.69059 3.57423 4.47116L2.82822 3.70231C2.62801 3.49597 2.56512 3.20765 2.64076 2.95309C2.71797 2.69321 2.93565 2.48643 3.23312 2.45121C3.60341 2.40735 4.10325 2.38447 4.61651 2.47338C5.12945 2.56225 5.681 2.76739 6.12204 3.20139Z" fill="#64748B"/>
</g>
<g clip-path="url(#clip1_2894_63845)">
<path d="M30.9901 5.17559C31.3045 4.82574 31.2598 4.27267 30.8934 3.97972L27.4623 1.2366C27.3553 1.15106 27.2269 1.09872 27.0922 1.08575L24.1651 0.803905C23.4142 0.731603 23.0039 1.68147 23.5576 2.21011L25.1005 3.68307L24.7028 4.12823C24.0701 4.83643 24.1047 5.93748 24.7808 6.60484C25.4758 7.29091 26.5807 7.25644 27.2312 6.52839L27.5985 6.11722L28.535 6.97068C28.7923 7.20514 29.1837 7.18547 29.4165 6.92639L30.9901 5.17559Z" fill="#CBD5E1"/>
<path d="M21.428 10.4372C20.743 9.75752 19.6538 9.77832 18.9952 10.4836L17.2382 12.3651C16.9599 12.6632 16.8473 13.0866 16.9391 13.4896L17.0852 14.1313C17.1918 14.5992 17.5549 14.9594 18.0126 15.0514L18.6401 15.1774C19.0344 15.2566 19.4405 15.1245 19.7188 14.8264L21.4758 12.9449C22.1344 12.2396 22.113 11.1168 21.428 10.4372Z" fill="#CBD5E1"/>
<path d="M22.122 3.20139C23.1407 4.20377 22.8475 5.45892 22.67 5.96037L28.9565 12.3145C29.5609 12.9255 29.5657 13.9274 28.9672 14.5444C28.3768 15.1529 27.4213 15.1578 26.8252 14.5553L20.5331 8.19555C20.2654 8.32187 19.8059 8.50091 19.2858 8.53187C18.7411 8.56435 18.1084 8.43363 17.584 7.8928C17.1485 7.44366 16.9446 6.87253 16.8577 6.34089C16.7707 5.80914 16.796 5.28953 16.8411 4.90625C16.877 4.60069 17.0781 4.37801 17.3298 4.29957C17.5763 4.22275 17.8548 4.28799 18.0542 4.49357L18.8034 5.26586C19.0163 5.4853 19.3614 5.4853 19.5743 5.26586C19.7872 5.04641 19.7871 4.69059 19.5742 4.47116L18.8282 3.70231C18.628 3.49597 18.5651 3.20765 18.6408 2.95309C18.718 2.69321 18.9357 2.48643 19.2331 2.45121C19.6034 2.40735 20.1033 2.38447 20.6165 2.47338C21.1295 2.56225 21.681 2.76739 22.122 3.20139Z" fill="#CBD5E1"/>
</g>
<g clip-path="url(#clip2_2894_63845)">
<path d="M46.9901 5.17559C47.3045 4.82574 47.2598 4.27267 46.8934 3.97972L43.4623 1.2366C43.3553 1.15106 43.2269 1.09872 43.0922 1.08575L40.1651 0.803905C39.4142 0.731603 39.0039 1.68147 39.5576 2.21011L41.1005 3.68307L40.7028 4.12823C40.0701 4.83643 40.1047 5.93748 40.7808 6.60484C41.4758 7.29091 42.5807 7.25644 43.2312 6.52839L43.5985 6.11722L44.535 6.97068C44.7923 7.20514 45.1837 7.18547 45.4165 6.92639L46.9901 5.17559Z" fill="#2968F9"/>
<path d="M37.428 10.4372C36.743 9.75752 35.6538 9.77832 34.9952 10.4836L33.2382 12.3651C32.9599 12.6632 32.8473 13.0866 32.9391 13.4896L33.0852 14.1313C33.1918 14.5992 33.5549 14.9594 34.0126 15.0514L34.6401 15.1774C35.0344 15.2566 35.4405 15.1245 35.7188 14.8264L37.4758 12.9449C38.1344 12.2396 38.113 11.1168 37.428 10.4372Z" fill="#2968F9"/>
<path d="M38.122 3.20139C39.1407 4.20377 38.8475 5.45892 38.67 5.96037L44.9565 12.3145C45.5609 12.9255 45.5657 13.9274 44.9672 14.5444C44.3768 15.1529 43.4213 15.1578 42.8252 14.5553L36.5331 8.19555C36.2654 8.32187 35.8059 8.50091 35.2858 8.53187C34.7411 8.56435 34.1084 8.43363 33.584 7.8928C33.1485 7.44366 32.9446 6.87253 32.8577 6.34089C32.7707 5.80914 32.796 5.28953 32.8411 4.90625C32.877 4.60069 33.0781 4.37801 33.3298 4.29957C33.5763 4.22275 33.8548 4.28799 34.0542 4.49357L34.8034 5.26586C35.0163 5.4853 35.3614 5.4853 35.5743 5.26586C35.7872 5.04641 35.7871 4.69059 35.5742 4.47116L34.8282 3.70231C34.628 3.49597 34.5651 3.20765 34.6408 2.95309C34.718 2.69321 34.9357 2.48643 35.2331 2.45121C35.6034 2.40735 36.1033 2.38447 36.6165 2.47338C37.1295 2.56225 37.681 2.76739 38.122 3.20139Z" fill="#2968F9"/>
</g>
<g clip-path="url(#clip3_2894_63845)">
<path d="M62.9901 5.17559C63.3045 4.82574 63.2598 4.27267 62.8934 3.97972L59.4623 1.2366C59.3553 1.15106 59.2269 1.09872 59.0922 1.08575L56.1651 0.803905C55.4142 0.731603 55.0039 1.68147 55.5576 2.21011L57.1005 3.68307L56.7028 4.12823C56.0701 4.83643 56.1047 5.93748 56.7808 6.60484C57.4758 7.29091 58.5807 7.25644 59.2312 6.52839L59.5985 6.11722L60.535 6.97068C60.7923 7.20514 61.1837 7.18547 61.4165 6.92639L62.9901 5.17559Z" fill="white"/>
<path d="M53.428 10.4372C52.743 9.75752 51.6538 9.77832 50.9952 10.4836L49.2382 12.3651C48.9599 12.6632 48.8473 13.0866 48.9391 13.4896L49.0852 14.1313C49.1918 14.5992 49.5549 14.9594 50.0126 15.0514L50.6401 15.1774C51.0344 15.2566 51.4405 15.1245 51.7188 14.8264L53.4758 12.9449C54.1344 12.2396 54.113 11.1168 53.428 10.4372Z" fill="white"/>
<path d="M54.122 3.20139C55.1407 4.20377 54.8475 5.45892 54.67 5.96037L60.9565 12.3145C61.5609 12.9255 61.5657 13.9274 60.9672 14.5444C60.3768 15.1529 59.4213 15.1578 58.8252 14.5553L52.5331 8.19555C52.2654 8.32187 51.8059 8.50091 51.2858 8.53187C50.7411 8.56435 50.1084 8.43363 49.584 7.8928C49.1485 7.44366 48.9446 6.87253 48.8577 6.34089C48.7707 5.80914 48.796 5.28953 48.8411 4.90625C48.877 4.60069 49.0781 4.37801 49.3298 4.29957C49.5763 4.22275 49.8548 4.28799 50.0542 4.49357L50.8034 5.26586C51.0163 5.4853 51.3614 5.4853 51.5743 5.26586C51.7872 5.04641 51.7871 4.69059 51.5742 4.47116L50.8282 3.70231C50.628 3.49597 50.5651 3.20765 50.6408 2.95309C50.718 2.69321 50.9357 2.48643 51.2331 2.45121C51.6034 2.40735 52.1033 2.38447 52.6165 2.47338C53.1295 2.56225 53.681 2.76739 54.122 3.20139Z" fill="white"/>
</g>
<defs>
<clipPath id="clip0_2894_63845">
<rect width="16" height="16" fill="white"/>
</clipPath>
<clipPath id="clip1_2894_63845">
<rect width="16" height="16" fill="white" transform="translate(16)"/>
</clipPath>
<clipPath id="clip2_2894_63845">
<rect width="16" height="16" fill="white" transform="translate(32)"/>
</clipPath>
<clipPath id="clip3_2894_63845">
<rect width="16" height="16" fill="white" transform="translate(48)"/>
</clipPath>
</defs>
</svg>
