<svg width="80" height="16" viewBox="0 0 80 16" fill="none" xmlns="http://www.w3.org/2000/svg">
<g clip-path="url(#clip0_944_20167)">
<path d="M8 8.66667C8 7.33333 10 8 10 6C10 4 6 4 6 6M14 8C14 9.18669 13.6481 10.3467 12.9888 11.3334C12.3295 12.3201 11.3925 13.0892 10.2961 13.5433C9.19975 13.9974 7.99335 14.1162 6.82946 13.8847C5.66558 13.6532 4.59648 13.0818 3.75736 12.2426C2.91825 11.4035 2.3468 10.3344 2.11529 9.17054C1.88378 8.00666 2.0026 6.80026 2.45673 5.7039C2.91085 4.60754 3.67989 3.67047 4.66658 3.01118C5.65328 2.35189 6.81331 2 8 2C9.5913 2 11.1174 2.63214 12.2426 3.75736C13.3679 4.88258 14 6.4087 14 8V8Z" stroke="#64748B" stroke-width="1.2" stroke-linecap="round" stroke-linejoin="round"/>
<path d="M8.03346 11.3333H7.9668" stroke="#64748B" stroke-width="1.2" stroke-linecap="round" stroke-linejoin="round"/>
</g>
<g clip-path="url(#clip1_944_20167)">
<path d="M24 8.66667C24 7.33333 26 8 26 6C26 4 22 4 22 6M30 8C30 9.18669 29.6481 10.3467 28.9888 11.3334C28.3295 12.3201 27.3925 13.0892 26.2961 13.5433C25.1997 13.9974 23.9933 14.1162 22.8295 13.8847C21.6656 13.6532 20.5965 13.0818 19.7574 12.2426C18.9182 11.4035 18.3468 10.3344 18.1153 9.17054C17.8838 8.00666 18.0026 6.80026 18.4567 5.7039C18.9109 4.60754 19.6799 3.67047 20.6666 3.01118C21.6533 2.35189 22.8133 2 24 2C25.5913 2 27.1174 2.63214 28.2426 3.75736C29.3679 4.88258 30 6.4087 30 8V8Z" stroke="#CBD5E1" stroke-width="1.2" stroke-linecap="round" stroke-linejoin="round"/>
<path d="M24.0335 11.3333H23.9668" stroke="#CBD5E1" stroke-width="1.2" stroke-linecap="round" stroke-linejoin="round"/>
</g>
<g clip-path="url(#clip2_944_20167)">
<path d="M40 8.66667C40 7.33333 42 8 42 6C42 4 38 4 38 6M46 8C46 9.18669 45.6481 10.3467 44.9888 11.3334C44.3295 12.3201 43.3925 13.0892 42.2961 13.5433C41.1997 13.9974 39.9933 14.1162 38.8295 13.8847C37.6656 13.6532 36.5965 13.0818 35.7574 12.2426C34.9182 11.4035 34.3468 10.3344 34.1153 9.17054C33.8838 8.00666 34.0026 6.80026 34.4567 5.7039C34.9109 4.60754 35.6799 3.67047 36.6666 3.01118C37.6533 2.35189 38.8133 2 40 2C41.5913 2 43.1174 2.63214 44.2426 3.75736C45.3679 4.88258 46 6.4087 46 8V8Z" stroke="#2968F9" stroke-width="1.2" stroke-linecap="round" stroke-linejoin="round"/>
<path d="M40.0335 11.3333H39.9668" stroke="#2968F9" stroke-width="1.2" stroke-linecap="round" stroke-linejoin="round"/>
</g>
<g clip-path="url(#clip3_944_20167)">
<path d="M56 8.66667C56 7.33333 58 8 58 6C58 4 54 4 54 6M62 8C62 9.18669 61.6481 10.3467 60.9888 11.3334C60.3295 12.3201 59.3925 13.0892 58.2961 13.5433C57.1997 13.9974 55.9933 14.1162 54.8295 13.8847C53.6656 13.6532 52.5965 13.0818 51.7574 12.2426C50.9182 11.4035 50.3468 10.3344 50.1153 9.17054C49.8838 8.00666 50.0026 6.80026 50.4567 5.7039C50.9109 4.60754 51.6799 3.67047 52.6666 3.01118C53.6533 2.35189 54.8133 2 56 2C57.5913 2 59.1174 2.63214 60.2426 3.75736C61.3679 4.88258 62 6.4087 62 8V8Z" stroke="white" stroke-width="1.2" stroke-linecap="round" stroke-linejoin="round"/>
<path d="M56.0335 11.3333H55.9668" stroke="white" stroke-width="1.2" stroke-linecap="round" stroke-linejoin="round"/>
</g>
<defs>
<clipPath id="clip0_944_20167">
<rect width="16" height="16" fill="white"/>
</clipPath>
<clipPath id="clip1_944_20167">
<rect width="16" height="16" fill="white" transform="translate(16)"/>
</clipPath>
<clipPath id="clip2_944_20167">
<rect width="16" height="16" fill="white" transform="translate(32)"/>
</clipPath>
<clipPath id="clip3_944_20167">
<rect width="16" height="16" fill="white" transform="translate(48)"/>
</clipPath>
</defs>
</svg>
