<svg width="80" height="16" viewBox="0 0 80 16" fill="none" xmlns="http://www.w3.org/2000/svg">
<g clip-path="url(#clip0_944_20755)">
<path d="M7.10394 3.15062C7.47078 2.40745 8.53052 2.40745 8.89736 3.15061L9.82821 5.03641C9.97374 5.33126 10.2549 5.53571 10.5803 5.58327L12.6635 5.88777C13.4834 6.00761 13.8102 7.01545 13.2166 7.59361L11.7108 9.06033C11.4749 9.29007 11.3672 9.6212 11.4229 9.94573L11.7781 12.0166C11.9182 12.8336 11.0606 13.4565 10.327 13.0707L8.4661 12.0921C8.17472 11.9389 7.82658 11.9389 7.5352 12.0921L5.67428 13.0707C4.94065 13.4565 4.0831 12.8336 4.22322 12.0166L4.5784 9.94573C4.63406 9.6212 4.5264 9.29007 4.29053 9.06033L2.78466 7.59361C2.19107 7.01545 2.51785 6.00761 3.33777 5.88777L5.42102 5.58327C5.74637 5.53572 6.02756 5.33126 6.1731 5.03641L7.10394 3.15062Z" fill="#64748B" stroke="#64748B" stroke-width="1.2" stroke-linecap="round" stroke-linejoin="round"/>
</g>
<g clip-path="url(#clip1_944_20755)">
<path d="M23.1039 3.15062C23.4708 2.40745 24.5305 2.40745 24.8974 3.15061L25.8282 5.03641C25.9737 5.33126 26.2549 5.53571 26.5803 5.58327L28.6635 5.88777C29.4834 6.00761 29.8102 7.01545 29.2166 7.59361L27.7108 9.06033C27.4749 9.29007 27.3672 9.6212 27.4229 9.94573L27.7781 12.0166C27.9182 12.8336 27.0606 13.4565 26.327 13.0707L24.4661 12.0921C24.1747 11.9389 23.8266 11.9389 23.5352 12.0921L21.6743 13.0707C20.9407 13.4565 20.0831 12.8336 20.2232 12.0166L20.5784 9.94573C20.6341 9.6212 20.5264 9.29007 20.2905 9.06033L18.7847 7.59361C18.1911 7.01545 18.5179 6.00761 19.3378 5.88777L21.421 5.58327C21.7464 5.53572 22.0276 5.33126 22.1731 5.03641L23.1039 3.15062Z" fill="#CBD5E1" stroke="#CBD5E1" stroke-width="1.2" stroke-linecap="round" stroke-linejoin="round"/>
</g>
<g clip-path="url(#clip2_944_20755)">
<path d="M39.1039 3.15062C39.4708 2.40745 40.5305 2.40745 40.8974 3.15061L41.8282 5.03641C41.9737 5.33126 42.2549 5.53571 42.5803 5.58327L44.6635 5.88777C45.4834 6.00761 45.8102 7.01545 45.2166 7.59361L43.7108 9.06033C43.4749 9.29007 43.3672 9.6212 43.4229 9.94573L43.7781 12.0166C43.9182 12.8336 43.0606 13.4565 42.327 13.0707L40.4661 12.0921C40.1747 11.9389 39.8266 11.9389 39.5352 12.0921L37.6743 13.0707C36.9407 13.4565 36.0831 12.8336 36.2232 12.0166L36.5784 9.94573C36.6341 9.6212 36.5264 9.29007 36.2905 9.06033L34.7847 7.59361C34.1911 7.01545 34.5179 6.00761 35.3378 5.88777L37.421 5.58327C37.7464 5.53572 38.0276 5.33126 38.1731 5.03641L39.1039 3.15062Z" fill="#2968F9" stroke="#2968F9" stroke-width="1.2" stroke-linecap="round" stroke-linejoin="round"/>
</g>
<g clip-path="url(#clip3_944_20755)">
<path d="M55.1039 3.15062C55.4708 2.40745 56.5305 2.40745 56.8974 3.15061L57.8282 5.03641C57.9737 5.33126 58.2549 5.53571 58.5803 5.58327L60.6635 5.88777C61.4834 6.00761 61.8102 7.01545 61.2166 7.59361L59.7108 9.06033C59.4749 9.29007 59.3672 9.6212 59.4229 9.94573L59.7781 12.0166C59.9182 12.8336 59.0606 13.4565 58.327 13.0707L56.4661 12.0921C56.1747 11.9389 55.8266 11.9389 55.5352 12.0921L53.6743 13.0707C52.9407 13.4565 52.0831 12.8336 52.2232 12.0166L52.5784 9.94573C52.6341 9.6212 52.5264 9.29007 52.2905 9.06033L50.7847 7.59361C50.1911 7.01545 50.5179 6.00761 51.3378 5.88777L53.421 5.58327C53.7464 5.53572 54.0276 5.33126 54.1731 5.03641L55.1039 3.15062Z" fill="white" stroke="white" stroke-width="1.2" stroke-linecap="round" stroke-linejoin="round"/>
</g>
<g clip-path="url(#clip4_944_20755)">
<path d="M71.1039 3.15062C71.4708 2.40745 72.5305 2.40745 72.8974 3.15061L73.8282 5.03641C73.9737 5.33126 74.2549 5.53571 74.5803 5.58327L76.6635 5.88777C77.4834 6.00761 77.8102 7.01545 77.2166 7.59361L75.7108 9.06033C75.4749 9.29007 75.3672 9.6212 75.4229 9.94573L75.7781 12.0166C75.9182 12.8336 75.0606 13.4565 74.327 13.0707L72.4661 12.0921C72.1747 11.9389 71.8266 11.9389 71.5352 12.0921L69.6743 13.0707C68.9407 13.4565 68.0831 12.8336 68.2232 12.0166L68.5784 9.94573C68.6341 9.6212 68.5264 9.29007 68.2905 9.06033L66.7847 7.59361C66.1911 7.01545 66.5179 6.00761 67.3378 5.88777L69.421 5.58327C69.7464 5.53572 70.0276 5.33126 70.1731 5.03641L71.1039 3.15062Z" fill="#FDD33A" stroke="#FDD33A" stroke-width="1.2" stroke-linecap="round" stroke-linejoin="round"/>
</g>
<defs>
<clipPath id="clip0_944_20755">
<rect width="16" height="16" fill="white"/>
</clipPath>
<clipPath id="clip1_944_20755">
<rect width="16" height="16" fill="white" transform="translate(16)"/>
</clipPath>
<clipPath id="clip2_944_20755">
<rect width="16" height="16" fill="white" transform="translate(32)"/>
</clipPath>
<clipPath id="clip3_944_20755">
<rect width="16" height="16" fill="white" transform="translate(48)"/>
</clipPath>
<clipPath id="clip4_944_20755">
<rect width="16" height="16" fill="white" transform="translate(64)"/>
</clipPath>
</defs>
</svg>
