<svg width="80" height="16" viewBox="0 0 80 16" fill="none" xmlns="http://www.w3.org/2000/svg">
<g clip-path="url(#clip0_1154_50622)">
<path d="M12 2H4C2.5 2 2 3 2 4V12C2 13 3 14 4 14H12C13.5 14 14 13 14 12V4C14 3 13.5 2 12 2Z" stroke="#64748B" stroke-width="1.2" stroke-linecap="round" stroke-linejoin="round"/>
<path d="M13.7637 11.9775L10.585 8.22697L10.5841 8.22594C10.3022 7.89329 10.161 7.72669 9.99352 7.66664C9.84641 7.61389 9.68579 7.61512 9.53942 7.66993C9.37261 7.73239 9.23366 7.90089 8.95576 8.23817L7.17498 10.3994C6.91773 10.7116 6.78836 10.8686 6.63128 10.9317C6.49272 10.9872 6.33993 10.9935 6.19696 10.9508C6.03423 10.9023 5.89098 10.7574 5.60452 10.4677L5.27313 10.1325C4.98147 9.83754 4.83564 9.69016 4.67057 9.64198C4.5256 9.59966 4.37061 9.60875 4.23114 9.667C4.07234 9.73332 3.94356 9.89566 3.68589 10.2214L2.14881 12.284" stroke="#64748B" stroke-width="1.2" stroke-linecap="round" stroke-linejoin="round"/>
<path d="M5.66797 6.66699C6.22025 6.66699 6.66797 6.21928 6.66797 5.66699C6.66797 5.11471 6.22025 4.66699 5.66797 4.66699C5.11568 4.66699 4.66797 5.11471 4.66797 5.66699C4.66797 6.21928 5.11568 6.66699 5.66797 6.66699Z" stroke="#64748B" stroke-width="1.2" stroke-linecap="round" stroke-linejoin="round"/>
</g>
<g clip-path="url(#clip1_1154_50622)">
<path d="M28 2H20C18.5 2 18 3 18 4V12C18 13 19 14 20 14H28C29.5 14 30 13 30 12V4C30 3 29.5 2 28 2Z" stroke="#CBD5E1" stroke-width="1.2" stroke-linecap="round" stroke-linejoin="round"/>
<path d="M29.7637 11.9775L26.585 8.22697L26.5841 8.22594C26.3022 7.89329 26.161 7.72669 25.9935 7.66664C25.8464 7.61389 25.6858 7.61512 25.5394 7.66993C25.3726 7.73239 25.2337 7.90089 24.9558 8.23817L23.175 10.3994C22.9177 10.7116 22.7884 10.8686 22.6313 10.9317C22.4927 10.9872 22.3399 10.9935 22.197 10.9508C22.0342 10.9023 21.891 10.7574 21.6045 10.4677L21.2731 10.1325C20.9815 9.83754 20.8356 9.69016 20.6706 9.64198C20.5256 9.59966 20.3706 9.60875 20.2311 9.667C20.0723 9.73332 19.9436 9.89566 19.6859 10.2214L18.1488 12.284" stroke="#CBD5E1" stroke-width="1.2" stroke-linecap="round" stroke-linejoin="round"/>
<path d="M21.668 6.66699C22.2203 6.66699 22.668 6.21928 22.668 5.66699C22.668 5.11471 22.2203 4.66699 21.668 4.66699C21.1157 4.66699 20.668 5.11471 20.668 5.66699C20.668 6.21928 21.1157 6.66699 21.668 6.66699Z" stroke="#CBD5E1" stroke-width="1.2" stroke-linecap="round" stroke-linejoin="round"/>
</g>
<g clip-path="url(#clip2_1154_50622)">
<path d="M44 2H36C34.5 2 34 3 34 4V12C34 13 35 14 36 14H44C45.5 14 46 13 46 12V4C46 3 45.5 2 44 2Z" stroke="#2968F9" stroke-width="1.2" stroke-linecap="round" stroke-linejoin="round"/>
<path d="M45.7637 11.9775L42.585 8.22697L42.5841 8.22594C42.3022 7.89329 42.161 7.72669 41.9935 7.66664C41.8464 7.61389 41.6858 7.61512 41.5394 7.66993C41.3726 7.73239 41.2337 7.90089 40.9558 8.23817L39.175 10.3994C38.9177 10.7116 38.7884 10.8686 38.6313 10.9317C38.4927 10.9872 38.3399 10.9935 38.197 10.9508C38.0342 10.9023 37.891 10.7574 37.6045 10.4677L37.2731 10.1325C36.9815 9.83754 36.8356 9.69016 36.6706 9.64198C36.5256 9.59966 36.3706 9.60875 36.2311 9.667C36.0723 9.73332 35.9436 9.89566 35.6859 10.2214L34.1488 12.284" stroke="#2968F9" stroke-width="1.2" stroke-linecap="round" stroke-linejoin="round"/>
<path d="M37.668 6.66699C38.2203 6.66699 38.668 6.21928 38.668 5.66699C38.668 5.11471 38.2203 4.66699 37.668 4.66699C37.1157 4.66699 36.668 5.11471 36.668 5.66699C36.668 6.21928 37.1157 6.66699 37.668 6.66699Z" stroke="#2968F9" stroke-width="1.2" stroke-linecap="round" stroke-linejoin="round"/>
</g>
<g clip-path="url(#clip3_1154_50622)">
<path d="M60 2H52C50.5 2 50 3 50 4V12C50 13 51 14 52 14H60C61.5 14 62 13 62 12V4C62 3 61.5 2 60 2Z" stroke="white" stroke-width="1.2" stroke-linecap="round" stroke-linejoin="round"/>
<path d="M61.7637 11.9775L58.585 8.22697L58.5841 8.22594C58.3022 7.89329 58.161 7.72669 57.9935 7.66664C57.8464 7.61389 57.6858 7.61512 57.5394 7.66993C57.3726 7.73239 57.2337 7.90089 56.9558 8.23817L55.175 10.3994C54.9177 10.7116 54.7884 10.8686 54.6313 10.9317C54.4927 10.9872 54.3399 10.9935 54.197 10.9508C54.0342 10.9023 53.891 10.7574 53.6045 10.4677L53.2731 10.1325C52.9815 9.83754 52.8356 9.69016 52.6706 9.64198C52.5256 9.59966 52.3706 9.60875 52.2311 9.667C52.0723 9.73332 51.9436 9.89566 51.6859 10.2214L50.1488 12.284" stroke="white" stroke-width="1.2" stroke-linecap="round" stroke-linejoin="round"/>
<path d="M53.668 6.66699C54.2203 6.66699 54.668 6.21928 54.668 5.66699C54.668 5.11471 54.2203 4.66699 53.668 4.66699C53.1157 4.66699 52.668 5.11471 52.668 5.66699C52.668 6.21928 53.1157 6.66699 53.668 6.66699Z" stroke="white" stroke-width="1.2" stroke-linecap="round" stroke-linejoin="round"/>
</g>
<defs>
<clipPath id="clip0_1154_50622">
<rect width="16" height="16" fill="white"/>
</clipPath>
<clipPath id="clip1_1154_50622">
<rect width="16" height="16" fill="white" transform="translate(16)"/>
</clipPath>
<clipPath id="clip2_1154_50622">
<rect width="16" height="16" fill="white" transform="translate(32)"/>
</clipPath>
<clipPath id="clip3_1154_50622">
<rect width="16" height="16" fill="white" transform="translate(48)"/>
</clipPath>
</defs>
</svg>
