<svg width="80" height="16" viewBox="0 0 80 16" fill="none" xmlns="http://www.w3.org/2000/svg">
<g clip-path="url(#clip0_2894_63912)">
<path fill-rule="evenodd" clip-rule="evenodd" d="M7.19184 0.800009C6.77982 0.79981 6.47616 0.799665 6.21188 0.864065C5.39439 1.06329 4.75611 1.70157 4.55688 2.51907C4.51853 2.67645 4.50307 2.84779 4.49688 3.04766C4.33637 3.05702 4.18455 3.06908 4.04087 3.08464C3.38538 3.15563 2.83815 3.30418 2.35946 3.64467C1.97646 3.91709 1.64761 4.26715 1.39169 4.67487C1.07184 5.18444 0.932292 5.76697 0.865612 6.46475C0.83754 6.75854 0.821572 7.0843 0.8125 7.44617H7.44669V7.26148C7.44669 6.9556 7.69466 6.70763 8.00054 6.70763C8.30646 6.70763 8.55438 6.9556 8.55438 7.26148V7.44617H15.1886C15.1795 7.0843 15.1636 6.75854 15.1355 6.46475C15.0688 5.76697 14.9293 5.18444 14.6094 4.67487C14.3535 4.26715 14.0246 3.91709 13.6416 3.64467C13.1629 3.30418 12.6157 3.15563 11.9602 3.08464C11.8165 3.06908 11.6647 3.05702 11.5042 3.04766C11.498 2.84779 11.4825 2.67645 11.4442 2.51907C11.2449 1.70157 10.6067 1.06329 9.78918 0.864065C9.52494 0.799665 9.22126 0.79981 8.80926 0.800009H7.19184ZM10.3946 3.01747C10.39 2.905 10.3819 2.83839 10.368 2.78133C10.2668 2.36588 9.94238 2.04151 9.52694 1.94027C9.40966 1.91169 9.25206 1.90772 8.73902 1.90772H7.26208C6.74902 1.90772 6.59141 1.91169 6.47415 1.94027C6.0587 2.04151 5.73432 2.36588 5.63308 2.78133C5.61918 2.83839 5.6111 2.905 5.60647 3.01747C5.8825 3.01537 6.17749 3.01537 6.49291 3.01537H9.50814C9.82358 3.01537 10.1185 3.01537 10.3946 3.01747Z" fill="#64748B"/>
<path d="M0.799805 9.07089C0.799805 8.89225 0.799805 8.71977 0.800109 8.55313H7.44596V8.73769C7.44596 9.04361 7.69392 9.29153 7.9998 9.29153C8.30572 9.29153 8.55364 9.04361 8.55364 8.73769V8.55313H15.1995C15.1998 8.71993 15.1998 8.89273 15.1998 9.07161V9.13969C15.1998 10.216 15.1998 11.0689 15.1348 11.7499C15.068 12.4477 14.9285 13.0303 14.6087 13.5398C14.3528 13.9475 14.0239 14.2976 13.6408 14.57C13.1622 14.9105 12.615 15.0591 11.9595 15.13C11.3197 15.1993 10.5186 15.1993 9.50748 15.1993H6.49216C5.48108 15.1993 4.67989 15.1993 4.04013 15.13C3.38464 15.0591 2.83741 14.9105 2.35872 14.57C1.97572 14.2976 1.64688 13.9475 1.39096 13.5398C1.07111 13.0303 0.931557 12.4477 0.864877 11.7499C0.799794 11.0689 0.799798 10.216 0.799805 9.13969V9.07089Z" fill="#64748B"/>
</g>
<g clip-path="url(#clip1_2894_63912)">
<path fill-rule="evenodd" clip-rule="evenodd" d="M23.1918 0.800009C22.7798 0.79981 22.4762 0.799665 22.2119 0.864065C21.3944 1.06329 20.7561 1.70157 20.5569 2.51907C20.5185 2.67645 20.5031 2.84779 20.4969 3.04766C20.3364 3.05702 20.1845 3.06908 20.0409 3.08464C19.3854 3.15563 18.8381 3.30418 18.3595 3.64467C17.9765 3.91709 17.6476 4.26715 17.3917 4.67487C17.0718 5.18444 16.9323 5.76697 16.8656 6.46475C16.8375 6.75854 16.8216 7.0843 16.8125 7.44617H23.4467V7.26148C23.4467 6.9556 23.6947 6.70763 24.0005 6.70763C24.3065 6.70763 24.5544 6.9556 24.5544 7.26148V7.44617H31.1886C31.1795 7.0843 31.1636 6.75854 31.1355 6.46475C31.0688 5.76697 30.9293 5.18444 30.6094 4.67487C30.3535 4.26715 30.0246 3.91709 29.6416 3.64467C29.1629 3.30418 28.6157 3.15563 27.9602 3.08464C27.8165 3.06908 27.6647 3.05702 27.5042 3.04766C27.498 2.84779 27.4825 2.67645 27.4442 2.51907C27.2449 1.70157 26.6067 1.06329 25.7892 0.864065C25.5249 0.799665 25.2213 0.79981 24.8093 0.800009H23.1918ZM26.3946 3.01747C26.39 2.905 26.3819 2.83839 26.368 2.78133C26.2668 2.36588 25.9424 2.04151 25.5269 1.94027C25.4097 1.91169 25.2521 1.90772 24.739 1.90772H23.2621C22.749 1.90772 22.5914 1.91169 22.4741 1.94027C22.0587 2.04151 21.7343 2.36588 21.6331 2.78133C21.6192 2.83839 21.6111 2.905 21.6065 3.01747C21.8825 3.01537 22.1775 3.01537 22.4929 3.01537H25.5081C25.8236 3.01537 26.1185 3.01537 26.3946 3.01747Z" fill="#CBD5E1"/>
<path d="M16.7998 9.07089C16.7998 8.89225 16.7998 8.71977 16.8001 8.55313H23.446V8.73769C23.446 9.04361 23.6939 9.29153 23.9998 9.29153C24.3057 9.29153 24.5536 9.04361 24.5536 8.73769V8.55313H31.1995C31.1998 8.71993 31.1998 8.89273 31.1998 9.07161V9.13969C31.1998 10.216 31.1998 11.0689 31.1348 11.7499C31.068 12.4477 30.9285 13.0303 30.6087 13.5398C30.3528 13.9475 30.0239 14.2976 29.6408 14.57C29.1622 14.9105 28.615 15.0591 27.9595 15.13C27.3197 15.1993 26.5186 15.1993 25.5075 15.1993H22.4922C21.4811 15.1993 20.6799 15.1993 20.0401 15.13C19.3846 15.0591 18.8374 14.9105 18.3587 14.57C17.9757 14.2976 17.6469 13.9475 17.391 13.5398C17.0711 13.0303 16.9316 12.4477 16.8649 11.7499C16.7998 11.0689 16.7998 10.216 16.7998 9.13969V9.07089Z" fill="#CBD5E1"/>
</g>
<g clip-path="url(#clip2_2894_63912)">
<path fill-rule="evenodd" clip-rule="evenodd" d="M39.1918 0.800009C38.7798 0.79981 38.4762 0.799665 38.2119 0.864065C37.3944 1.06329 36.7561 1.70157 36.5569 2.51907C36.5185 2.67645 36.5031 2.84779 36.4969 3.04766C36.3364 3.05702 36.1845 3.06908 36.0409 3.08464C35.3854 3.15563 34.8381 3.30418 34.3595 3.64467C33.9765 3.91709 33.6476 4.26715 33.3917 4.67487C33.0718 5.18444 32.9323 5.76697 32.8656 6.46475C32.8375 6.75854 32.8216 7.0843 32.8125 7.44617H39.4467V7.26148C39.4467 6.9556 39.6947 6.70763 40.0005 6.70763C40.3065 6.70763 40.5544 6.9556 40.5544 7.26148V7.44617H47.1886C47.1795 7.0843 47.1636 6.75854 47.1355 6.46475C47.0688 5.76697 46.9293 5.18444 46.6094 4.67487C46.3535 4.26715 46.0246 3.91709 45.6416 3.64467C45.1629 3.30418 44.6157 3.15563 43.9602 3.08464C43.8165 3.06908 43.6647 3.05702 43.5042 3.04766C43.498 2.84779 43.4825 2.67645 43.4442 2.51907C43.2449 1.70157 42.6067 1.06329 41.7892 0.864065C41.5249 0.799665 41.2213 0.79981 40.8093 0.800009H39.1918ZM42.3946 3.01747C42.39 2.905 42.3819 2.83839 42.368 2.78133C42.2668 2.36588 41.9424 2.04151 41.5269 1.94027C41.4097 1.91169 41.2521 1.90772 40.739 1.90772H39.2621C38.749 1.90772 38.5914 1.91169 38.4741 1.94027C38.0587 2.04151 37.7343 2.36588 37.6331 2.78133C37.6192 2.83839 37.6111 2.905 37.6065 3.01747C37.8825 3.01537 38.1775 3.01537 38.4929 3.01537H41.5081C41.8236 3.01537 42.1185 3.01537 42.3946 3.01747Z" fill="#2968F9"/>
<path d="M32.7998 9.07089C32.7998 8.89225 32.7998 8.71977 32.8001 8.55313H39.446V8.73769C39.446 9.04361 39.6939 9.29153 39.9998 9.29153C40.3057 9.29153 40.5536 9.04361 40.5536 8.73769V8.55313H47.1995C47.1998 8.71993 47.1998 8.89273 47.1998 9.07161V9.13969C47.1998 10.216 47.1998 11.0689 47.1348 11.7499C47.068 12.4477 46.9285 13.0303 46.6087 13.5398C46.3528 13.9475 46.0239 14.2976 45.6408 14.57C45.1622 14.9105 44.615 15.0591 43.9595 15.13C43.3197 15.1993 42.5186 15.1993 41.5075 15.1993H38.4922C37.4811 15.1993 36.6799 15.1993 36.0401 15.13C35.3846 15.0591 34.8374 14.9105 34.3587 14.57C33.9757 14.2976 33.6469 13.9475 33.391 13.5398C33.0711 13.0303 32.9316 12.4477 32.8649 11.7499C32.7998 11.0689 32.7998 10.216 32.7998 9.13969V9.07089Z" fill="#2968F9"/>
</g>
<g clip-path="url(#clip3_2894_63912)">
<path fill-rule="evenodd" clip-rule="evenodd" d="M55.1918 0.800009C54.7798 0.79981 54.4762 0.799665 54.2119 0.864065C53.3944 1.06329 52.7561 1.70157 52.5569 2.51907C52.5185 2.67645 52.5031 2.84779 52.4969 3.04766C52.3364 3.05702 52.1845 3.06908 52.0409 3.08464C51.3854 3.15563 50.8381 3.30418 50.3595 3.64467C49.9765 3.91709 49.6476 4.26715 49.3917 4.67487C49.0718 5.18444 48.9323 5.76697 48.8656 6.46475C48.8375 6.75854 48.8216 7.0843 48.8125 7.44617H55.4467V7.26148C55.4467 6.9556 55.6947 6.70763 56.0005 6.70763C56.3065 6.70763 56.5544 6.9556 56.5544 7.26148V7.44617H63.1886C63.1795 7.0843 63.1636 6.75854 63.1355 6.46475C63.0688 5.76697 62.9293 5.18444 62.6094 4.67487C62.3535 4.26715 62.0246 3.91709 61.6416 3.64467C61.1629 3.30418 60.6157 3.15563 59.9602 3.08464C59.8165 3.06908 59.6647 3.05702 59.5042 3.04766C59.498 2.84779 59.4825 2.67645 59.4442 2.51907C59.2449 1.70157 58.6067 1.06329 57.7892 0.864065C57.5249 0.799665 57.2213 0.79981 56.8093 0.800009H55.1918ZM58.3946 3.01747C58.39 2.905 58.3819 2.83839 58.368 2.78133C58.2668 2.36588 57.9424 2.04151 57.5269 1.94027C57.4097 1.91169 57.2521 1.90772 56.739 1.90772H55.2621C54.749 1.90772 54.5914 1.91169 54.4741 1.94027C54.0587 2.04151 53.7343 2.36588 53.6331 2.78133C53.6192 2.83839 53.6111 2.905 53.6065 3.01747C53.8825 3.01537 54.1775 3.01537 54.4929 3.01537H57.5081C57.8236 3.01537 58.1185 3.01537 58.3946 3.01747Z" fill="white"/>
<path d="M48.7998 9.07089C48.7998 8.89225 48.7998 8.71977 48.8001 8.55313H55.446V8.73769C55.446 9.04361 55.6939 9.29153 55.9998 9.29153C56.3057 9.29153 56.5536 9.04361 56.5536 8.73769V8.55313H63.1995C63.1998 8.71993 63.1998 8.89273 63.1998 9.07161V9.13969C63.1998 10.216 63.1998 11.0689 63.1348 11.7499C63.068 12.4477 62.9285 13.0303 62.6087 13.5398C62.3528 13.9475 62.0239 14.2976 61.6408 14.57C61.1622 14.9105 60.615 15.0591 59.9595 15.13C59.3197 15.1993 58.5186 15.1993 57.5075 15.1993H54.4922C53.4811 15.1993 52.6799 15.1993 52.0401 15.13C51.3846 15.0591 50.8374 14.9105 50.3587 14.57C49.9757 14.2976 49.6469 13.9475 49.391 13.5398C49.0711 13.0303 48.9316 12.4477 48.8649 11.7499C48.7998 11.0689 48.7998 10.216 48.7998 9.13969V9.07089Z" fill="white"/>
</g>
<defs>
<clipPath id="clip0_2894_63912">
<rect width="16" height="16" fill="white"/>
</clipPath>
<clipPath id="clip1_2894_63912">
<rect width="16" height="16" fill="white" transform="translate(16)"/>
</clipPath>
<clipPath id="clip2_2894_63912">
<rect width="16" height="16" fill="white" transform="translate(32)"/>
</clipPath>
<clipPath id="clip3_2894_63912">
<rect width="16" height="16" fill="white" transform="translate(48)"/>
</clipPath>
</defs>
</svg>
