<svg width="80" height="16" viewBox="0 0 80 16" fill="none" xmlns="http://www.w3.org/2000/svg">
<g clip-path="url(#clip0_944_20131)">
<path d="M12.4992 4.10059L12.1274 10.1153C12.0324 11.6521 11.9849 12.4205 11.5997 12.9729C11.4093 13.246 11.1641 13.4765 10.8797 13.6497C10.3046 14.0001 9.53476 14.0001 7.99509 14.0001C6.45339 14.0001 5.68254 14.0001 5.10702 13.6491C4.82248 13.4755 4.57721 13.2446 4.38683 12.9711C4.00176 12.4177 3.95531 11.6483 3.86241 10.1094L3.49966 4.10059" stroke="#64748B" stroke-width="1.2" stroke-linecap="round"/>
<path d="M2.60025 4.0999H13.3997M10.4333 4.0999L10.0237 3.25497C9.75165 2.69372 9.61561 2.41309 9.38095 2.23807C9.3289 2.19925 9.27378 2.16472 9.21614 2.13481C8.95629 2 8.64443 2 8.0207 2C7.38131 2 7.06162 2 6.79745 2.14046C6.73891 2.1716 6.68304 2.20753 6.63043 2.24789C6.39305 2.43 6.26045 2.7209 5.99525 3.30269L5.63186 4.0999" stroke="#64748B" stroke-width="1.2" stroke-linecap="round"/>
<path d="M6.4989 10.6997L6.4989 7.09988" stroke="#64748B" stroke-width="1.2" stroke-linecap="round"/>
<path d="M9.50064 10.6999L9.50064 7.1001" stroke="#64748B" stroke-width="1.2" stroke-linecap="round"/>
</g>
<g clip-path="url(#clip1_944_20131)">
<path d="M28.4992 4.10059L28.1274 10.1153C28.0324 11.6521 27.9849 12.4205 27.5997 12.9729C27.4093 13.246 27.1641 13.4765 26.8797 13.6497C26.3046 14.0001 25.5348 14.0001 23.9951 14.0001C22.4534 14.0001 21.6825 14.0001 21.107 13.6491C20.8225 13.4755 20.5772 13.2446 20.3868 12.9711C20.0018 12.4177 19.9553 11.6483 19.8624 10.1094L19.4997 4.10059" stroke="#CBD5E1" stroke-width="1.2" stroke-linecap="round"/>
<path d="M18.6003 4.0999H29.3997M26.4333 4.0999L26.0237 3.25497C25.7516 2.69372 25.6156 2.41309 25.3809 2.23807C25.3289 2.19925 25.2738 2.16472 25.2161 2.13481C24.9563 2 24.6444 2 24.0207 2C23.3813 2 23.0616 2 22.7975 2.14046C22.7389 2.1716 22.683 2.20753 22.6304 2.24789C22.393 2.43 22.2604 2.7209 21.9952 3.30269L21.6319 4.0999" stroke="#CBD5E1" stroke-width="1.2" stroke-linecap="round"/>
<path d="M22.4989 10.6997L22.4989 7.09988" stroke="#CBD5E1" stroke-width="1.2" stroke-linecap="round"/>
<path d="M25.5006 10.6999L25.5006 7.1001" stroke="#CBD5E1" stroke-width="1.2" stroke-linecap="round"/>
</g>
<g clip-path="url(#clip2_944_20131)">
<path d="M44.4992 4.10059L44.1274 10.1153C44.0324 11.6521 43.9849 12.4205 43.5997 12.9729C43.4093 13.246 43.1641 13.4765 42.8797 13.6497C42.3046 14.0001 41.5348 14.0001 39.9951 14.0001C38.4534 14.0001 37.6825 14.0001 37.107 13.6491C36.8225 13.4755 36.5772 13.2446 36.3868 12.9711C36.0018 12.4177 35.9553 11.6483 35.8624 10.1094L35.4997 4.10059" stroke="#2968F9" stroke-width="1.2" stroke-linecap="round"/>
<path d="M34.6003 4.0999H45.3997M42.4333 4.0999L42.0237 3.25497C41.7516 2.69372 41.6156 2.41309 41.3809 2.23807C41.3289 2.19925 41.2738 2.16472 41.2161 2.13481C40.9563 2 40.6444 2 40.0207 2C39.3813 2 39.0616 2 38.7975 2.14046C38.7389 2.1716 38.683 2.20753 38.6304 2.24789C38.393 2.43 38.2604 2.7209 37.9952 3.30269L37.6319 4.0999" stroke="#2968F9" stroke-width="1.2" stroke-linecap="round"/>
<path d="M38.4989 10.6997L38.4989 7.09988" stroke="#2968F9" stroke-width="1.2" stroke-linecap="round"/>
<path d="M41.5006 10.6999L41.5006 7.1001" stroke="#2968F9" stroke-width="1.2" stroke-linecap="round"/>
</g>
<g clip-path="url(#clip3_944_20131)">
<path d="M60.4992 4.10059L60.1274 10.1153C60.0324 11.6521 59.9849 12.4205 59.5997 12.9729C59.4093 13.246 59.1641 13.4765 58.8797 13.6497C58.3046 14.0001 57.5348 14.0001 55.9951 14.0001C54.4534 14.0001 53.6825 14.0001 53.107 13.6491C52.8225 13.4755 52.5772 13.2446 52.3868 12.9711C52.0018 12.4177 51.9553 11.6483 51.8624 10.1094L51.4997 4.10059" stroke="white" stroke-width="1.2" stroke-linecap="round"/>
<path d="M50.6003 4.0999H61.3997M58.4333 4.0999L58.0237 3.25497C57.7516 2.69372 57.6156 2.41309 57.3809 2.23807C57.3289 2.19925 57.2738 2.16472 57.2161 2.13481C56.9563 2 56.6444 2 56.0207 2C55.3813 2 55.0616 2 54.7975 2.14046C54.7389 2.1716 54.683 2.20753 54.6304 2.24789C54.393 2.43 54.2604 2.7209 53.9952 3.30269L53.6319 4.0999" stroke="white" stroke-width="1.2" stroke-linecap="round"/>
<path d="M54.4989 10.6997L54.4989 7.09988" stroke="white" stroke-width="1.2" stroke-linecap="round"/>
<path d="M57.5006 10.6999L57.5006 7.1001" stroke="white" stroke-width="1.2" stroke-linecap="round"/>
</g>
<defs>
<clipPath id="clip0_944_20131">
<rect width="16" height="16" fill="white"/>
</clipPath>
<clipPath id="clip1_944_20131">
<rect width="16" height="16" fill="white" transform="translate(16)"/>
</clipPath>
<clipPath id="clip2_944_20131">
<rect width="16" height="16" fill="white" transform="translate(32)"/>
</clipPath>
<clipPath id="clip3_944_20131">
<rect width="16" height="16" fill="white" transform="translate(48)"/>
</clipPath>
</defs>
</svg>
