<svg width="80" height="16" viewBox="0 0 80 16" fill="none" xmlns="http://www.w3.org/2000/svg">
<g clip-path="url(#clip0_944_20203)">
<path d="M3.33333 14H12.6667C13.0203 14 13.3594 13.8595 13.6095 13.6095C13.8595 13.3594 14 13.0203 14 12.6667V3.33333C14 2.97971 13.8595 2.64057 13.6095 2.39052C13.3594 2.14048 13.0203 2 12.6667 2H3.33333C2.97971 2 2.64057 2.14048 2.39052 2.39052C2.14048 2.64057 2 2.97971 2 3.33333V12.6667C2 13.0203 2.14048 13.3594 2.39052 13.6095C2.64057 13.8595 2.97971 14 3.33333 14Z" stroke="#64748B" stroke-width="1.2" stroke-linecap="round" stroke-linejoin="round"/>
<path d="M4.66649 5.71315C4.84481 6.427 5.14718 7.10397 5.55983 7.71315L6.77316 6.85982C6.9648 6.72042 7.09625 6.51333 7.14082 6.28058C7.18539 6.04782 7.13975 5.80683 7.01316 5.60648C6.91983 5.45315 6.82649 5.29315 6.73982 5.12648C6.67943 5.01171 6.59561 4.91089 6.49379 4.83054C6.39197 4.7502 6.27442 4.69213 6.14874 4.66008C6.02306 4.62803 5.89206 4.62273 5.7642 4.6445C5.63634 4.66627 5.51448 4.71464 5.40649 4.78648L4.96649 5.07315C4.84882 5.12705 4.75408 5.22095 4.69914 5.33814C4.64421 5.45534 4.63264 5.58822 4.66649 5.71315Z" fill="#64748B"/>
<path d="M10.8932 11.0198L11.1798 10.5798C11.2517 10.4718 11.3 10.35 11.3218 10.2221C11.3436 10.0943 11.3383 9.96325 11.3062 9.83757C11.2742 9.71189 11.2161 9.59434 11.1358 9.49252C11.0554 9.3907 10.9546 9.30688 10.8398 9.24648C10.6732 9.15982 10.5132 9.06648 10.3598 8.97315C10.1595 8.84656 9.91849 8.80092 9.68573 8.84549C9.45298 8.89006 9.24589 9.0215 9.10649 9.21315L8.25316 10.4265C8.86234 10.8391 9.53931 11.1415 10.2532 11.3198C10.3781 11.3537 10.511 11.3421 10.6282 11.2872C10.7454 11.2322 10.8393 11.1375 10.8932 11.0198Z" fill="#64748B"/>
<path d="M4.66649 5.71315C4.84481 6.427 5.14718 7.10397 5.55983 7.71315L6.77316 6.85982C6.9648 6.72042 7.09625 6.51333 7.14082 6.28058C7.18539 6.04782 7.13975 5.80683 7.01316 5.60648C6.91983 5.45315 6.82649 5.29315 6.73982 5.12648C6.67943 5.01171 6.59561 4.91089 6.49379 4.83054C6.39197 4.7502 6.27442 4.69213 6.14874 4.66008C6.02306 4.62803 5.89206 4.62273 5.7642 4.6445C5.63634 4.66627 5.51448 4.71464 5.40649 4.78648L4.96649 5.07315C4.84882 5.12705 4.75408 5.22095 4.69914 5.33814C4.64421 5.45534 4.63264 5.58822 4.66649 5.71315Z" stroke="#64748B" stroke-width="1.2" stroke-linecap="round" stroke-linejoin="round"/>
<path d="M10.8932 11.0198L11.1798 10.5798C11.2517 10.4718 11.3 10.35 11.3218 10.2221C11.3436 10.0943 11.3383 9.96325 11.3062 9.83757C11.2742 9.71189 11.2161 9.59434 11.1358 9.49252C11.0554 9.3907 10.9546 9.30688 10.8398 9.24648C10.6732 9.15982 10.5132 9.06648 10.3598 8.97315C10.1595 8.84656 9.91849 8.80092 9.68573 8.84549C9.45298 8.89006 9.24589 9.0215 9.10649 9.21315L8.25316 10.4265C8.86234 10.8391 9.53931 11.1415 10.2532 11.3198C10.3781 11.3537 10.511 11.3421 10.6282 11.2872C10.7454 11.2322 10.8393 11.1375 10.8932 11.0198Z" stroke="#64748B" stroke-width="1.2" stroke-linecap="round" stroke-linejoin="round"/>
<path d="M8.25422 10.4271C7.71967 10.0808 7.22353 9.6785 6.77422 9.22707C6.32279 8.77776 5.92052 8.28162 5.57422 7.74707" stroke="#64748B" stroke-width="1.2" stroke-linecap="round" stroke-linejoin="round"/>
</g>
<g clip-path="url(#clip1_944_20203)">
<path d="M19.3333 14H28.6667C29.0203 14 29.3594 13.8595 29.6095 13.6095C29.8595 13.3594 30 13.0203 30 12.6667V3.33333C30 2.97971 29.8595 2.64057 29.6095 2.39052C29.3594 2.14048 29.0203 2 28.6667 2H19.3333C18.9797 2 18.6406 2.14048 18.3905 2.39052C18.1405 2.64057 18 2.97971 18 3.33333V12.6667C18 13.0203 18.1405 13.3594 18.3905 13.6095C18.6406 13.8595 18.9797 14 19.3333 14Z" stroke="#CBD5E1" stroke-width="1.2" stroke-linecap="round" stroke-linejoin="round"/>
<path d="M20.6665 5.71315C20.8448 6.427 21.1472 7.10397 21.5598 7.71315L22.7732 6.85982C22.9648 6.72042 23.0962 6.51333 23.1408 6.28058C23.1854 6.04782 23.1397 5.80683 23.0132 5.60648C22.9198 5.45315 22.8265 5.29315 22.7398 5.12648C22.6794 5.01171 22.5956 4.91089 22.4938 4.83054C22.392 4.7502 22.2744 4.69213 22.1487 4.66008C22.0231 4.62803 21.8921 4.62273 21.7642 4.6445C21.6363 4.66627 21.5145 4.71464 21.4065 4.78648L20.9665 5.07315C20.8488 5.12705 20.7541 5.22095 20.6991 5.33814C20.6442 5.45534 20.6326 5.58822 20.6665 5.71315Z" fill="#CBD5E1"/>
<path d="M26.8932 11.0198L27.1798 10.5798C27.2517 10.4718 27.3 10.35 27.3218 10.2221C27.3436 10.0943 27.3383 9.96325 27.3062 9.83757C27.2742 9.71189 27.2161 9.59434 27.1358 9.49252C27.0554 9.3907 26.9546 9.30688 26.8398 9.24648C26.6732 9.15982 26.5132 9.06648 26.3598 8.97315C26.1595 8.84656 25.9185 8.80092 25.6857 8.84549C25.453 8.89006 25.2459 9.0215 25.1065 9.21315L24.2532 10.4265C24.8623 10.8391 25.5393 11.1415 26.2532 11.3198C26.3781 11.3537 26.511 11.3421 26.6282 11.2872C26.7454 11.2322 26.8393 11.1375 26.8932 11.0198Z" fill="#CBD5E1"/>
<path d="M20.6665 5.71315C20.8448 6.427 21.1472 7.10397 21.5598 7.71315L22.7732 6.85982C22.9648 6.72042 23.0962 6.51333 23.1408 6.28058C23.1854 6.04782 23.1397 5.80683 23.0132 5.60648C22.9198 5.45315 22.8265 5.29315 22.7398 5.12648C22.6794 5.01171 22.5956 4.91089 22.4938 4.83054C22.392 4.7502 22.2744 4.69213 22.1487 4.66008C22.0231 4.62803 21.8921 4.62273 21.7642 4.6445C21.6363 4.66627 21.5145 4.71464 21.4065 4.78648L20.9665 5.07315C20.8488 5.12705 20.7541 5.22095 20.6991 5.33814C20.6442 5.45534 20.6326 5.58822 20.6665 5.71315Z" stroke="#CBD5E1" stroke-width="1.2" stroke-linecap="round" stroke-linejoin="round"/>
<path d="M26.8932 11.0198L27.1798 10.5798C27.2517 10.4718 27.3 10.35 27.3218 10.2221C27.3436 10.0943 27.3383 9.96325 27.3062 9.83757C27.2742 9.71189 27.2161 9.59434 27.1358 9.49252C27.0554 9.3907 26.9546 9.30688 26.8398 9.24648C26.6732 9.15982 26.5132 9.06648 26.3598 8.97315C26.1595 8.84656 25.9185 8.80092 25.6857 8.84549C25.453 8.89006 25.2459 9.0215 25.1065 9.21315L24.2532 10.4265C24.8623 10.8391 25.5393 11.1415 26.2532 11.3198C26.3781 11.3537 26.511 11.3421 26.6282 11.2872C26.7454 11.2322 26.8393 11.1375 26.8932 11.0198Z" stroke="#CBD5E1" stroke-width="1.2" stroke-linecap="round" stroke-linejoin="round"/>
<path d="M24.2542 10.4271C23.7197 10.0808 23.2235 9.6785 22.7742 9.22707C22.3228 8.77776 21.9205 8.28162 21.5742 7.74707" stroke="#CBD5E1" stroke-width="1.2" stroke-linecap="round" stroke-linejoin="round"/>
</g>
<g clip-path="url(#clip2_944_20203)">
<path d="M35.3333 14H44.6667C45.0203 14 45.3594 13.8595 45.6095 13.6095C45.8595 13.3594 46 13.0203 46 12.6667V3.33333C46 2.97971 45.8595 2.64057 45.6095 2.39052C45.3594 2.14048 45.0203 2 44.6667 2H35.3333C34.9797 2 34.6406 2.14048 34.3905 2.39052C34.1405 2.64057 34 2.97971 34 3.33333V12.6667C34 13.0203 34.1405 13.3594 34.3905 13.6095C34.6406 13.8595 34.9797 14 35.3333 14Z" stroke="#2968F9" stroke-width="1.2" stroke-linecap="round" stroke-linejoin="round"/>
<path d="M36.6665 5.71315C36.8448 6.427 37.1472 7.10397 37.5598 7.71315L38.7732 6.85982C38.9648 6.72042 39.0962 6.51333 39.1408 6.28058C39.1854 6.04782 39.1397 5.80683 39.0132 5.60648C38.9198 5.45315 38.8265 5.29315 38.7398 5.12648C38.6794 5.01171 38.5956 4.91089 38.4938 4.83054C38.392 4.7502 38.2744 4.69213 38.1487 4.66008C38.0231 4.62803 37.8921 4.62273 37.7642 4.6445C37.6363 4.66627 37.5145 4.71464 37.4065 4.78648L36.9665 5.07315C36.8488 5.12705 36.7541 5.22095 36.6991 5.33814C36.6442 5.45534 36.6326 5.58822 36.6665 5.71315Z" fill="#2968F9"/>
<path d="M42.8932 11.0198L43.1798 10.5798C43.2517 10.4718 43.3 10.35 43.3218 10.2221C43.3436 10.0943 43.3383 9.96325 43.3062 9.83757C43.2742 9.71189 43.2161 9.59434 43.1358 9.49252C43.0554 9.3907 42.9546 9.30688 42.8398 9.24648C42.6732 9.15982 42.5132 9.06648 42.3598 8.97315C42.1595 8.84656 41.9185 8.80092 41.6857 8.84549C41.453 8.89006 41.2459 9.0215 41.1065 9.21315L40.2532 10.4265C40.8623 10.8391 41.5393 11.1415 42.2532 11.3198C42.3781 11.3537 42.511 11.3421 42.6282 11.2872C42.7454 11.2322 42.8393 11.1375 42.8932 11.0198Z" fill="#2968F9"/>
<path d="M36.6665 5.71315C36.8448 6.427 37.1472 7.10397 37.5598 7.71315L38.7732 6.85982C38.9648 6.72042 39.0962 6.51333 39.1408 6.28058C39.1854 6.04782 39.1397 5.80683 39.0132 5.60648C38.9198 5.45315 38.8265 5.29315 38.7398 5.12648C38.6794 5.01171 38.5956 4.91089 38.4938 4.83054C38.392 4.7502 38.2744 4.69213 38.1487 4.66008C38.0231 4.62803 37.8921 4.62273 37.7642 4.6445C37.6363 4.66627 37.5145 4.71464 37.4065 4.78648L36.9665 5.07315C36.8488 5.12705 36.7541 5.22095 36.6991 5.33814C36.6442 5.45534 36.6326 5.58822 36.6665 5.71315Z" stroke="#2968F9" stroke-width="1.2" stroke-linecap="round" stroke-linejoin="round"/>
<path d="M42.8932 11.0198L43.1798 10.5798C43.2517 10.4718 43.3 10.35 43.3218 10.2221C43.3436 10.0943 43.3383 9.96325 43.3062 9.83757C43.2742 9.71189 43.2161 9.59434 43.1358 9.49252C43.0554 9.3907 42.9546 9.30688 42.8398 9.24648C42.6732 9.15982 42.5132 9.06648 42.3598 8.97315C42.1595 8.84656 41.9185 8.80092 41.6857 8.84549C41.453 8.89006 41.2459 9.0215 41.1065 9.21315L40.2532 10.4265C40.8623 10.8391 41.5393 11.1415 42.2532 11.3198C42.3781 11.3537 42.511 11.3421 42.6282 11.2872C42.7454 11.2322 42.8393 11.1375 42.8932 11.0198Z" stroke="#2968F9" stroke-width="1.2" stroke-linecap="round" stroke-linejoin="round"/>
<path d="M40.2542 10.4271C39.7197 10.0808 39.2235 9.6785 38.7742 9.22707C38.3228 8.77776 37.9205 8.28162 37.5742 7.74707" stroke="#2968F9" stroke-width="1.2" stroke-linecap="round" stroke-linejoin="round"/>
</g>
<g clip-path="url(#clip3_944_20203)">
<path d="M51.3333 14H60.6667C61.0203 14 61.3594 13.8595 61.6095 13.6095C61.8595 13.3594 62 13.0203 62 12.6667V3.33333C62 2.97971 61.8595 2.64057 61.6095 2.39052C61.3594 2.14048 61.0203 2 60.6667 2H51.3333C50.9797 2 50.6406 2.14048 50.3905 2.39052C50.1405 2.64057 50 2.97971 50 3.33333V12.6667C50 13.0203 50.1405 13.3594 50.3905 13.6095C50.6406 13.8595 50.9797 14 51.3333 14Z" stroke="white" stroke-width="1.2" stroke-linecap="round" stroke-linejoin="round"/>
<path d="M52.6665 5.71315C52.8448 6.427 53.1472 7.10397 53.5598 7.71315L54.7732 6.85982C54.9648 6.72042 55.0962 6.51333 55.1408 6.28058C55.1854 6.04782 55.1397 5.80683 55.0132 5.60648C54.9198 5.45315 54.8265 5.29315 54.7398 5.12648C54.6794 5.01171 54.5956 4.91089 54.4938 4.83054C54.392 4.7502 54.2744 4.69213 54.1487 4.66008C54.0231 4.62803 53.8921 4.62273 53.7642 4.6445C53.6363 4.66627 53.5145 4.71464 53.4065 4.78648L52.9665 5.07315C52.8488 5.12705 52.7541 5.22095 52.6991 5.33814C52.6442 5.45534 52.6326 5.58822 52.6665 5.71315Z" fill="white"/>
<path d="M58.8932 11.0198L59.1798 10.5798C59.2517 10.4718 59.3 10.35 59.3218 10.2221C59.3436 10.0943 59.3383 9.96325 59.3062 9.83757C59.2742 9.71189 59.2161 9.59434 59.1358 9.49252C59.0554 9.3907 58.9546 9.30688 58.8398 9.24648C58.6732 9.15982 58.5132 9.06648 58.3598 8.97315C58.1595 8.84656 57.9185 8.80092 57.6857 8.84549C57.453 8.89006 57.2459 9.0215 57.1065 9.21315L56.2532 10.4265C56.8623 10.8391 57.5393 11.1415 58.2532 11.3198C58.3781 11.3537 58.511 11.3421 58.6282 11.2872C58.7454 11.2322 58.8393 11.1375 58.8932 11.0198Z" fill="white"/>
<path d="M52.6665 5.71315C52.8448 6.427 53.1472 7.10397 53.5598 7.71315L54.7732 6.85982C54.9648 6.72042 55.0962 6.51333 55.1408 6.28058C55.1854 6.04782 55.1397 5.80683 55.0132 5.60648C54.9198 5.45315 54.8265 5.29315 54.7398 5.12648C54.6794 5.01171 54.5956 4.91089 54.4938 4.83054C54.392 4.7502 54.2744 4.69213 54.1487 4.66008C54.0231 4.62803 53.8921 4.62273 53.7642 4.6445C53.6363 4.66627 53.5145 4.71464 53.4065 4.78648L52.9665 5.07315C52.8488 5.12705 52.7541 5.22095 52.6991 5.33814C52.6442 5.45534 52.6326 5.58822 52.6665 5.71315Z" stroke="white" stroke-width="1.2" stroke-linecap="round" stroke-linejoin="round"/>
<path d="M58.8932 11.0198L59.1798 10.5798C59.2517 10.4718 59.3 10.35 59.3218 10.2221C59.3436 10.0943 59.3383 9.96325 59.3062 9.83757C59.2742 9.71189 59.2161 9.59434 59.1358 9.49252C59.0554 9.3907 58.9546 9.30688 58.8398 9.24648C58.6732 9.15982 58.5132 9.06648 58.3598 8.97315C58.1595 8.84656 57.9185 8.80092 57.6857 8.84549C57.453 8.89006 57.2459 9.0215 57.1065 9.21315L56.2532 10.4265C56.8623 10.8391 57.5393 11.1415 58.2532 11.3198C58.3781 11.3537 58.511 11.3421 58.6282 11.2872C58.7454 11.2322 58.8393 11.1375 58.8932 11.0198Z" stroke="white" stroke-width="1.2" stroke-linecap="round" stroke-linejoin="round"/>
<path d="M56.2542 10.4271C55.7197 10.0808 55.2235 9.6785 54.7742 9.22707C54.3228 8.77776 53.9205 8.28162 53.5742 7.74707" stroke="white" stroke-width="1.2" stroke-linecap="round" stroke-linejoin="round"/>
</g>
<defs>
<clipPath id="clip0_944_20203">
<rect width="16" height="16" fill="white"/>
</clipPath>
<clipPath id="clip1_944_20203">
<rect width="16" height="16" fill="white" transform="translate(16)"/>
</clipPath>
<clipPath id="clip2_944_20203">
<rect width="16" height="16" fill="white" transform="translate(32)"/>
</clipPath>
<clipPath id="clip3_944_20203">
<rect width="16" height="16" fill="white" transform="translate(48)"/>
</clipPath>
</defs>
</svg>
