<svg width="48" height="16" viewBox="0 0 48 16" fill="none" xmlns="http://www.w3.org/2000/svg">
<g clip-path="url(#clip0_2751_103639)">
<path d="M15.1673 3.33333V9.5C15.1543 9.96953 14.9609 10.416 14.6273 10.7467L11.414 13.96C11.0833 14.2936 10.6368 14.487 10.1673 14.5H2.66732C2.18109 14.5 1.71477 14.3068 1.37096 13.963C1.02714 13.6192 0.833984 13.1529 0.833984 12.6667V3.33333C0.833984 2.8471 1.02714 2.38079 1.37096 2.03697C1.71477 1.69315 2.18109 1.5 2.66732 1.5H13.334C13.8202 1.5 14.2865 1.69315 14.6303 2.03697C14.9742 2.38079 15.1673 2.8471 15.1673 3.33333Z" fill="#CBD5E1"/>
<path d="M11.3346 6.5H4.66797C4.53536 6.5 4.40818 6.44732 4.31442 6.35355C4.22065 6.25978 4.16797 6.13261 4.16797 6C4.16797 5.86739 4.22065 5.74022 4.31442 5.64645C4.40818 5.55268 4.53536 5.5 4.66797 5.5H11.3346C11.4672 5.5 11.5944 5.55268 11.6882 5.64645C11.782 5.74022 11.8346 5.86739 11.8346 6C11.8346 6.13261 11.782 6.25978 11.6882 6.35355C11.5944 6.44732 11.4672 6.5 11.3346 6.5Z" fill="white"/>
<path d="M8.66797 9.16699H4.66797C4.53536 9.16699 4.40818 9.11431 4.31442 9.02055C4.22065 8.92678 4.16797 8.7996 4.16797 8.66699C4.16797 8.53438 4.22065 8.40721 4.31442 8.31344C4.40818 8.21967 4.53536 8.16699 4.66797 8.16699H8.66797C8.80058 8.16699 8.92775 8.21967 9.02152 8.31344C9.11529 8.40721 9.16797 8.53438 9.16797 8.66699C9.16797 8.7996 9.11529 8.92678 9.02152 9.02055C8.92775 9.11431 8.80058 9.16699 8.66797 9.16699Z" fill="white"/>
<path d="M15.168 9.5C15.1549 9.96953 14.9616 10.416 14.628 10.7467L11.4146 13.96C11.084 14.2936 10.6375 14.487 10.168 14.5V10.6667C10.1697 10.3578 10.2932 10.0621 10.5116 9.84364C10.73 9.62523 11.0258 9.50175 11.3346 9.5H15.168Z" fill="#64748B"/>
</g>
<g clip-path="url(#clip1_2751_103639)">
<path d="M31.1673 3.33333V9.5C31.1543 9.96953 30.9609 10.416 30.6273 10.7467L27.414 13.96C27.0833 14.2936 26.6368 14.487 26.1673 14.5H18.6673C18.1811 14.5 17.7148 14.3068 17.371 13.963C17.0271 13.6192 16.834 13.1529 16.834 12.6667V3.33333C16.834 2.8471 17.0271 2.38079 17.371 2.03697C17.7148 1.69315 18.1811 1.5 18.6673 1.5H29.334C29.8202 1.5 30.2865 1.69315 30.6303 2.03697C30.9742 2.38079 31.1673 2.8471 31.1673 3.33333Z" fill="#FDD33A"/>
<path d="M27.3346 6.5H20.668C20.5354 6.5 20.4082 6.44732 20.3144 6.35355C20.2206 6.25978 20.168 6.13261 20.168 6C20.168 5.86739 20.2206 5.74022 20.3144 5.64645C20.4082 5.55268 20.5354 5.5 20.668 5.5H27.3346C27.4672 5.5 27.5944 5.55268 27.6882 5.64645C27.782 5.74022 27.8346 5.86739 27.8346 6C27.8346 6.13261 27.782 6.25978 27.6882 6.35355C27.5944 6.44732 27.4672 6.5 27.3346 6.5Z" fill="white"/>
<path d="M24.668 9.16699H20.668C20.5354 9.16699 20.4082 9.11431 20.3144 9.02055C20.2206 8.92678 20.168 8.7996 20.168 8.66699C20.168 8.53438 20.2206 8.40721 20.3144 8.31344C20.4082 8.21967 20.5354 8.16699 20.668 8.16699H24.668C24.8006 8.16699 24.9278 8.21967 25.0215 8.31344C25.1153 8.40721 25.168 8.53438 25.168 8.66699C25.168 8.7996 25.1153 8.92678 25.0215 9.02055C24.9278 9.11431 24.8006 9.16699 24.668 9.16699Z" fill="white"/>
<path d="M31.168 9.5C31.1549 9.96953 30.9616 10.416 30.628 10.7467L27.4146 13.96C27.084 14.2936 26.6375 14.487 26.168 14.5V10.6667C26.1697 10.3578 26.2932 10.0621 26.5116 9.84364C26.73 9.62523 27.0258 9.50175 27.3346 9.5H31.168Z" fill="#FE6D34"/>
</g>
<defs>
<clipPath id="clip0_2751_103639">
<rect width="16" height="16" fill="white"/>
</clipPath>
<clipPath id="clip1_2751_103639">
<rect width="16" height="16" fill="white" transform="translate(16)"/>
</clipPath>
</defs>
</svg>
