<svg width="80" height="16" viewBox="0 0 80 16" fill="none" xmlns="http://www.w3.org/2000/svg">
<g clip-path="url(#clip0_5260_62361)">
<path d="M6.45606 11.6995L10.2757 8.42638C10.3372 8.37363 10.3866 8.30818 10.4205 8.23454C10.4543 8.1609 10.4719 8.0808 10.4719 7.99974C10.4719 7.91869 10.4543 7.83859 10.4205 7.76495C10.3866 7.69131 10.3372 7.62586 10.2757 7.5731L6.45606 4.30001C6.09148 3.98764 5.52832 4.24662 5.52832 4.72665V11.2738C5.52832 11.7538 6.09148 12.0128 6.45606 11.6995Z" fill="#64748B"/>
</g>
<g clip-path="url(#clip1_5260_62361)">
<path d="M21.9033 11.2739V4.72705C21.9033 4.56737 22.0902 4.48054 22.2119 4.58447L26.0322 7.85791C26.0525 7.87541 26.0689 7.89704 26.0801 7.92139C26.0913 7.94586 26.0976 7.97257 26.0977 7.99951C26.0977 8.02642 26.0913 8.05317 26.0801 8.07764C26.0688 8.10212 26.0527 8.12453 26.0322 8.14209L22.2119 11.4146V11.4155C22.0904 11.5199 21.9034 11.4336 21.9033 11.2739Z" fill="#CBD5E1" stroke="#CBD5E1" stroke-width="0.749314"/>
</g>
<g clip-path="url(#clip2_5260_62361)">
<path d="M37.9033 11.2739V4.72705C37.9033 4.56737 38.0902 4.48054 38.2119 4.58447L42.0322 7.85791C42.0525 7.87541 42.0689 7.89704 42.0801 7.92139C42.0913 7.94586 42.0976 7.97257 42.0977 7.99951C42.0977 8.02642 42.0913 8.05317 42.0801 8.07764C42.0688 8.10212 42.0527 8.12453 42.0322 8.14209L38.2119 11.4146V11.4155C38.0904 11.5199 37.9034 11.4336 37.9033 11.2739Z" fill="#2968F9" stroke="#2968F9" stroke-width="0.749314"/>
</g>
<g clip-path="url(#clip3_5260_62361)">
<path d="M53.9033 11.2739V4.72705C53.9033 4.56737 54.0902 4.48054 54.2119 4.58447L58.0322 7.85791C58.0525 7.87541 58.0689 7.89704 58.0801 7.92139C58.0913 7.94586 58.0976 7.97257 58.0977 7.99951C58.0977 8.02642 58.0913 8.05317 58.0801 8.07764C58.0688 8.10212 58.0527 8.12453 58.0322 8.14209L54.2119 11.4146V11.4155C54.0904 11.5199 53.9034 11.4336 53.9033 11.2739Z" fill="white" stroke="white" stroke-width="0.749314"/>
</g>
<defs>
<clipPath id="clip0_5260_62361">
<rect width="16" height="16" fill="white"/>
</clipPath>
<clipPath id="clip1_5260_62361">
<rect width="16" height="16" fill="white" transform="translate(16)"/>
</clipPath>
<clipPath id="clip2_5260_62361">
<rect width="16" height="16" fill="white" transform="translate(32)"/>
</clipPath>
<clipPath id="clip3_5260_62361">
<rect width="16" height="16" fill="white" transform="translate(48)"/>
</clipPath>
</defs>
</svg>
