<svg width="81" height="78" viewBox="0 0 81 78" fill="none" xmlns="http://www.w3.org/2000/svg">
<path fill-rule="evenodd" clip-rule="evenodd" d="M19.8225 0.966721C17.644 2.05597 16.0277 3.91823 15.2547 6.23728L0.707968 49.9829C-0.0650474 52.2844 0.110638 54.7616 1.21746 56.9401C2.30671 59.101 4.16897 60.7173 6.47045 61.4903L54.2217 77.5304C56.5408 78.3034 59.0004 78.1102 61.1789 77.0385C63.3574 75.9492 64.9737 74.087 65.7291 71.7679L80.2934 28.0223C81.8922 23.2612 79.292 18.096 74.531 16.4973L26.7797 0.474802C24.4606 -0.298214 22.001 -0.122529 19.8225 0.966721ZM43.1691 42.9934L43.1587 43.0049L43.1515 42.9934H43.1691ZM43.1587 43.0049C40.5603 45.8984 37.3313 48.2307 33.5942 49.6694L31.4508 50.5127V30.2386L33.5766 31.0644C37.3363 32.505 40.5689 34.824 43.1866 37.7053C45.0489 34.7186 46.1908 31.2576 46.4368 27.4979C47.0341 17.765 40.9379 8.85772 32.5752 5.74809L25.6884 3.44661C22.5787 2.41006 19.2583 4.13178 18.2393 7.22384L3.58714 51.0222C2.5506 54.1318 4.28988 57.5226 7.41708 58.5415L40.5513 69.6097C43.9245 66.0082 46.1206 61.2471 46.4368 55.9414C46.7352 51.2028 45.4907 46.7447 43.1587 43.0049ZM24.0194 29.0264V51.7601H20.734V29.0264H24.0194ZM43.0625 9.24121L73.4736 19.4134L73.4561 19.3958C76.5657 20.4324 78.3226 23.8055 77.286 26.9152L62.669 70.696C61.6324 73.8056 58.3471 75.5273 55.2199 74.4908L43.8004 70.6784C47.4722 66.3038 49.6858 60.6468 49.6858 54.4978C49.6683 49.3502 48.052 44.4486 45.2586 40.3375C48.052 36.2265 49.6507 31.3073 49.6507 26.1597C49.6331 19.6594 47.1384 13.7036 43.0625 9.24121ZM65.3966 51.6868H61.2986L52.8482 40.3375L61.4392 28.9707H65.5854L56.9768 40.3551L65.3966 51.6868Z" fill="white"/>
<path d="M41.2613 40.3545C39.4157 38.1936 37.1834 36.3665 34.5996 35.0312V45.7129C37.1834 44.3777 39.4333 42.533 41.2613 40.3545Z" fill="#F1E8F0"/>
</svg>
