<svg width="80" height="16" viewBox="0 0 80 16" fill="none" xmlns="http://www.w3.org/2000/svg">
<g clip-path="url(#clip0_944_20131)">
<path d="M13 3.66675L12.5868 10.3501C12.4813 12.0577 12.4285 12.9115 12.0005 13.5253C11.7889 13.8288 11.5164 14.0849 11.2005 14.2774C10.5614 14.6667 9.70599 14.6667 7.99516 14.6667C6.28208 14.6667 5.42554 14.6667 4.78604 14.2767C4.46987 14.0839 4.19733 13.8273 3.98579 13.5233C3.55792 12.9085 3.5063 12.0535 3.40307 10.3435L3 3.66675" stroke="#64748B" stroke-width="1.2" stroke-linecap="round"/>
<path d="M2 3.66659H14M10.7038 3.66659L10.2487 2.72774C9.94638 2.10409 9.79522 1.79227 9.53448 1.59779C9.47664 1.55465 9.4154 1.51628 9.35135 1.48305C9.06261 1.33325 8.71608 1.33325 8.02302 1.33325C7.31255 1.33325 6.95732 1.33325 6.66379 1.48933C6.59873 1.52392 6.53666 1.56385 6.4782 1.6087C6.21443 1.81105 6.06709 2.13429 5.7724 2.78076L5.36862 3.66659" stroke="#64748B" stroke-width="1.2" stroke-linecap="round"/>
<path d="M6.3335 11L6.3335 7" stroke="#64748B" stroke-width="1.2" stroke-linecap="round"/>
<path d="M9.6665 11L9.6665 7" stroke="#64748B" stroke-width="1.2" stroke-linecap="round"/>
</g>
<g clip-path="url(#clip1_944_20131)">
<path d="M29 3.66675L28.5868 10.3501C28.4813 12.0577 28.4285 12.9115 28.0005 13.5253C27.7889 13.8288 27.5164 14.0849 27.2005 14.2774C26.5614 14.6667 25.706 14.6667 23.9952 14.6667C22.2821 14.6667 21.4255 14.6667 20.786 14.2767C20.4699 14.0839 20.1973 13.8273 19.9858 13.5233C19.5579 12.9085 19.5063 12.0535 19.4031 10.3435L19 3.66675" stroke="#CBD5E1" stroke-width="1.2" stroke-linecap="round"/>
<path d="M18 3.66659H30M26.7038 3.66659L26.2487 2.72774C25.9464 2.10409 25.7952 1.79227 25.5345 1.59779C25.4766 1.55465 25.4154 1.51628 25.3513 1.48305C25.0626 1.33325 24.7161 1.33325 24.023 1.33325C23.3126 1.33325 22.9573 1.33325 22.6638 1.48933C22.5987 1.52392 22.5367 1.56385 22.4782 1.6087C22.2144 1.81105 22.0671 2.13429 21.7724 2.78076L21.3686 3.66659" stroke="#CBD5E1" stroke-width="1.2" stroke-linecap="round"/>
<path d="M22.3335 11L22.3335 7" stroke="#CBD5E1" stroke-width="1.2" stroke-linecap="round"/>
<path d="M25.6665 11L25.6665 7" stroke="#CBD5E1" stroke-width="1.2" stroke-linecap="round"/>
</g>
<g clip-path="url(#clip2_944_20131)">
<path d="M45 3.66675L44.5868 10.3501C44.4813 12.0577 44.4285 12.9115 44.0005 13.5253C43.7889 13.8288 43.5164 14.0849 43.2005 14.2774C42.5614 14.6667 41.706 14.6667 39.9952 14.6667C38.2821 14.6667 37.4255 14.6667 36.786 14.2767C36.4699 14.0839 36.1973 13.8273 35.9858 13.5233C35.5579 12.9085 35.5063 12.0535 35.4031 10.3435L35 3.66675" stroke="#2968F9" stroke-width="1.2" stroke-linecap="round"/>
<path d="M34 3.66659H46M42.7038 3.66659L42.2487 2.72774C41.9464 2.10409 41.7952 1.79227 41.5345 1.59779C41.4766 1.55465 41.4154 1.51628 41.3513 1.48305C41.0626 1.33325 40.7161 1.33325 40.023 1.33325C39.3126 1.33325 38.9573 1.33325 38.6638 1.48933C38.5987 1.52392 38.5367 1.56385 38.4782 1.6087C38.2144 1.81105 38.0671 2.13429 37.7724 2.78076L37.3686 3.66659" stroke="#2968F9" stroke-width="1.2" stroke-linecap="round"/>
<path d="M38.3335 11L38.3335 7" stroke="#2968F9" stroke-width="1.2" stroke-linecap="round"/>
<path d="M41.6665 11L41.6665 7" stroke="#2968F9" stroke-width="1.2" stroke-linecap="round"/>
</g>
<g clip-path="url(#clip3_944_20131)">
<path d="M61 3.66675L60.5868 10.3501C60.4813 12.0577 60.4285 12.9115 60.0005 13.5253C59.7889 13.8288 59.5164 14.0849 59.2005 14.2774C58.5614 14.6667 57.706 14.6667 55.9952 14.6667C54.2821 14.6667 53.4255 14.6667 52.786 14.2767C52.4699 14.0839 52.1973 13.8273 51.9858 13.5233C51.5579 12.9085 51.5063 12.0535 51.4031 10.3435L51 3.66675" stroke="white" stroke-width="1.2" stroke-linecap="round"/>
<path d="M50 3.66659H62M58.7038 3.66659L58.2487 2.72774C57.9464 2.10409 57.7952 1.79227 57.5345 1.59779C57.4766 1.55465 57.4154 1.51628 57.3513 1.48305C57.0626 1.33325 56.7161 1.33325 56.023 1.33325C55.3126 1.33325 54.9573 1.33325 54.6638 1.48933C54.5987 1.52392 54.5367 1.56385 54.4782 1.6087C54.2144 1.81105 54.0671 2.13429 53.7724 2.78076L53.3686 3.66659" stroke="white" stroke-width="1.2" stroke-linecap="round"/>
<path d="M54.3335 11L54.3335 7" stroke="white" stroke-width="1.2" stroke-linecap="round"/>
<path d="M57.6665 11L57.6665 7" stroke="white" stroke-width="1.2" stroke-linecap="round"/>
</g>
<defs>
<clipPath id="clip0_944_20131">
<rect width="16" height="16" fill="white"/>
</clipPath>
<clipPath id="clip1_944_20131">
<rect width="16" height="16" fill="white" transform="translate(16)"/>
</clipPath>
<clipPath id="clip2_944_20131">
<rect width="16" height="16" fill="white" transform="translate(32)"/>
</clipPath>
<clipPath id="clip3_944_20131">
<rect width="16" height="16" fill="white" transform="translate(48)"/>
</clipPath>
</defs>
</svg>
