<svg width="80" height="16" viewBox="0 0 80 16" fill="none" xmlns="http://www.w3.org/2000/svg">
<g clip-path="url(#clip0_944_20083)">
<path d="M8.00049 10.7092V9.50513" stroke="#64748B" stroke-width="1.2" stroke-linecap="round"/>
<path d="M3.3458 12.1207C3.48119 13.1263 4.31406 13.914 5.32761 13.9606C6.18046 13.9998 7.0468 14.0203 8.00084 14.0203C8.95489 14.0203 9.82123 13.9998 10.6741 13.9606C11.6876 13.914 12.5205 13.1263 12.6559 12.1207C12.7442 11.4645 12.8171 10.792 12.8171 10.1071C12.8171 9.42218 12.7442 8.74967 12.6559 8.09342C12.5205 7.08788 11.6876 6.3001 10.6741 6.25351C9.82123 6.2143 8.95489 6.19385 8.00085 6.19385C7.0468 6.19385 6.18046 6.2143 5.32761 6.25351C4.31406 6.3001 3.48119 7.08788 3.3458 8.09342C3.25744 8.74967 3.18457 9.42218 3.18457 10.1071C3.18457 10.792 3.25744 11.4645 3.3458 12.1207Z" stroke="#64748B" stroke-width="1.2"/>
<path d="M5.2915 6.19398V4.68889C5.2915 3.19267 6.50443 1.97974 8.00066 1.97974C9.49688 1.97974 10.7098 3.19267 10.7098 4.68889V6.19398" stroke="#64748B" stroke-width="1.2" stroke-linecap="round" stroke-linejoin="round"/>
</g>
<g clip-path="url(#clip1_944_20083)">
<path d="M24.0005 10.7092V9.50513" stroke="#CBD5E1" stroke-width="1.2" stroke-linecap="round"/>
<path d="M19.3458 12.1207C19.4812 13.1263 20.3141 13.914 21.3276 13.9606C22.1805 13.9998 23.0468 14.0203 24.0008 14.0203C24.9549 14.0203 25.8212 13.9998 26.6741 13.9606C27.6876 13.914 28.5205 13.1263 28.6559 12.1207C28.7442 11.4645 28.8171 10.792 28.8171 10.1071C28.8171 9.42218 28.7442 8.74967 28.6559 8.09342C28.5205 7.08788 27.6876 6.3001 26.6741 6.25351C25.8212 6.2143 24.9549 6.19385 24.0008 6.19385C23.0468 6.19385 22.1805 6.2143 21.3276 6.25351C20.3141 6.3001 19.4812 7.08788 19.3458 8.09342C19.2574 8.74967 19.1846 9.42218 19.1846 10.1071C19.1846 10.792 19.2574 11.4645 19.3458 12.1207Z" stroke="#CBD5E1" stroke-width="1.2"/>
<path d="M21.2915 6.19398V4.68889C21.2915 3.19267 22.5044 1.97974 24.0007 1.97974C25.4969 1.97974 26.7098 3.19267 26.7098 4.68889V6.19398" stroke="#CBD5E1" stroke-width="1.2" stroke-linecap="round" stroke-linejoin="round"/>
</g>
<g clip-path="url(#clip2_944_20083)">
<path d="M40.0005 10.7092V9.50513" stroke="#2968F9" stroke-width="1.2" stroke-linecap="round"/>
<path d="M35.3458 12.1207C35.4812 13.1263 36.3141 13.914 37.3276 13.9606C38.1805 13.9998 39.0468 14.0203 40.0008 14.0203C40.9549 14.0203 41.8212 13.9998 42.6741 13.9606C43.6876 13.914 44.5205 13.1263 44.6559 12.1207C44.7442 11.4645 44.8171 10.792 44.8171 10.1071C44.8171 9.42218 44.7442 8.74967 44.6559 8.09342C44.5205 7.08788 43.6876 6.3001 42.6741 6.25351C41.8212 6.2143 40.9549 6.19385 40.0008 6.19385C39.0468 6.19385 38.1805 6.2143 37.3276 6.25351C36.3141 6.3001 35.4812 7.08788 35.3458 8.09342C35.2574 8.74967 35.1846 9.42218 35.1846 10.1071C35.1846 10.792 35.2574 11.4645 35.3458 12.1207Z" stroke="#2968F9" stroke-width="1.2"/>
<path d="M37.2915 6.19398V4.68889C37.2915 3.19267 38.5044 1.97974 40.0007 1.97974C41.4969 1.97974 42.7098 3.19267 42.7098 4.68889V6.19398" stroke="#2968F9" stroke-width="1.2" stroke-linecap="round" stroke-linejoin="round"/>
</g>
<g clip-path="url(#clip3_944_20083)">
<path d="M56.0005 10.7092V9.50513" stroke="white" stroke-width="1.2" stroke-linecap="round"/>
<path d="M51.3458 12.1207C51.4812 13.1263 52.3141 13.914 53.3276 13.9606C54.1805 13.9998 55.0468 14.0203 56.0008 14.0203C56.9549 14.0203 57.8212 13.9998 58.6741 13.9606C59.6876 13.914 60.5205 13.1263 60.6559 12.1207C60.7442 11.4645 60.8171 10.792 60.8171 10.1071C60.8171 9.42218 60.7442 8.74967 60.6559 8.09342C60.5205 7.08788 59.6876 6.3001 58.6741 6.25351C57.8212 6.2143 56.9549 6.19385 56.0008 6.19385C55.0468 6.19385 54.1805 6.2143 53.3276 6.25351C52.3141 6.3001 51.4812 7.08788 51.3458 8.09342C51.2574 8.74967 51.1846 9.42218 51.1846 10.1071C51.1846 10.792 51.2574 11.4645 51.3458 12.1207Z" stroke="white" stroke-width="1.2"/>
<path d="M53.2915 6.19398V4.68889C53.2915 3.19267 54.5044 1.97974 56.0007 1.97974C57.4969 1.97974 58.7098 3.19267 58.7098 4.68889V6.19398" stroke="white" stroke-width="1.2" stroke-linecap="round" stroke-linejoin="round"/>
</g>
<defs>
<clipPath id="clip0_944_20083">
<rect width="16" height="16" fill="white"/>
</clipPath>
<clipPath id="clip1_944_20083">
<rect width="16" height="16" fill="white" transform="translate(16)"/>
</clipPath>
<clipPath id="clip2_944_20083">
<rect width="16" height="16" fill="white" transform="translate(32)"/>
</clipPath>
<clipPath id="clip3_944_20083">
<rect width="16" height="16" fill="white" transform="translate(48)"/>
</clipPath>
</defs>
</svg>
