<svg width="192" height="192" viewBox="0 0 192 192" fill="none" xmlns="http://www.w3.org/2000/svg">
<path d="M46.7018 5.30526C41.5078 7.9027 37.6543 12.3435 35.8112 17.8735L1.12913 122.19C-0.713878 127.678 -0.295012 133.585 2.34384 138.78C4.94081 143.933 9.38079 147.787 14.8679 149.631L128.716 187.88C134.245 189.724 140.109 189.263 145.303 186.707C150.497 184.11 154.35 179.669 156.151 174.139L190.875 69.8223C194.687 58.469 188.488 46.1521 177.137 42.3397L63.2888 4.13222C57.7598 2.28887 51.8957 2.70782 46.7018 5.30526Z" fill="white"/>
<path d="M102.363 105.521C96.164 112.434 88.4568 118.006 79.535 121.441L74.4248 123.452V75.1061L79.4931 77.0751C88.4568 80.5104 96.164 86.0404 102.405 92.9111C106.845 85.7891 109.568 77.5359 110.154 68.5706C111.578 45.3612 97.0436 24.1208 77.1056 16.7055L60.686 11.2174C53.2721 8.74565 45.3555 12.8513 42.9261 20.2247L7.99267 124.667C5.52136 132.082 9.66814 140.168 17.124 142.598L96.1221 168.991C104.164 160.403 109.4 149.049 110.154 136.397C110.866 125.086 107.892 114.445 102.321 105.521M56.7068 72.2154V126.426H48.874V72.2154H56.7068Z" fill="#0099DA"/>
<path d="M174.617 49.2914L102.111 25.0347C111.829 35.6758 117.777 49.8779 117.818 65.3788C117.818 77.6538 114.007 89.3842 107.347 99.1874C114.007 108.991 117.86 120.679 117.902 132.954C117.902 147.617 112.624 161.107 103.87 171.539L131.096 180.63C138.552 183.101 146.385 178.996 148.856 171.581L183.706 67.1802C186.177 59.765 181.989 51.7213 174.575 49.2495M155.391 126.251H145.589L125.442 99.1874L145.924 72.0819H155.81L135.285 99.2293L155.391 126.293V126.251Z" fill="#0056A2"/>
<path d="M97.8142 99.2281C93.414 94.0751 88.0919 89.7181 81.9316 86.5342V112.006C88.0919 108.822 93.4559 104.423 97.8142 99.2281Z" fill="#F15A22"/>
</svg>
