<svg width="20" height="20" viewBox="0 0 20 20" fill="none" xmlns="http://www.w3.org/2000/svg">
<path d="M5.72488 12.0513C5.72488 11.4385 5.22813 10.9418 4.61537 10.9418C4.0026 10.9418 3.50586 11.4385 3.50586 12.0513C3.50586 12.664 4.0026 13.1608 4.61537 13.1608C5.22813 13.1608 5.72488 12.664 5.72488 12.0513Z" fill="black"/>
<path d="M10.6608 12.0513C10.6608 11.4385 10.164 10.9418 9.55127 10.9418C8.9385 10.9418 8.44176 11.4385 8.44176 12.0513C8.44176 12.6641 8.9385 13.1608 9.55127 13.1608C10.164 13.1608 10.6608 12.6641 10.6608 12.0513Z" fill="black"/>
<path fill-rule="evenodd" clip-rule="evenodd" d="M0.833333 5.83333C0.833333 4.91286 1.57953 4.16667 2.5 4.16667H17.5C18.4205 4.16667 19.1667 4.91286 19.1667 5.83333V14.1667C19.1667 15.0871 18.4205 15.8333 17.5 15.8333H2.5C1.57952 15.8333 0.833333 15.0871 0.833333 14.1667V5.83333ZM10.8333 5.83333H12.5V7.5H10.8333V5.83333ZM15 5.83333H13.3333V7.5H15V5.83333ZM15.8333 5.83333H17.5V7.5H15.8333V5.83333ZM6.73077 12.0513C6.73077 13.2196 5.78368 14.1667 4.61538 14.1667C3.44709 14.1667 2.5 13.2196 2.5 12.0513C2.5 10.883 3.44709 9.93589 4.61538 9.93589C5.78368 9.93589 6.73077 10.883 6.73077 12.0513ZM11.6667 12.0513C11.6667 13.2196 10.7196 14.1667 9.5513 14.1667C8.383 14.1667 7.43591 13.2196 7.43591 12.0513C7.43591 10.883 8.383 9.93589 9.5513 9.93589C10.7196 9.93589 11.6667 10.883 11.6667 12.0513Z" fill="black"/>
</svg>
