<svg xmlns="http://www.w3.org/2000/svg" width="20" height="20" viewBox="0 0 20 20">
<g>
<path fill-rule="evenodd" clip-rule="evenodd" d="M2 5C2 4.44772 2.44772 4 3 4H17C17.5523 4 18 4.44772 18 5V13C18 13.5523 17.5523 14 17 14H15V15C15 15.5523 14.5523 16 14 16H6C5.44772 16 5 15.5523 5 15V14H3C2.44772 14 2 13.5523 2 13V5ZM5 10C5.55228 10 6 9.55228 6 9C6 8.44772 5.55228 8 5 8C4.44772 8 4 8.44772 4 9C4 9.55228 4.44772 10 5 10ZM8.33333 10C8.88562 10 9.33333 9.55228 9.33333 9C9.33333 8.44772 8.88562 8 8.33333 8C7.78105 8 7.33333 8.44772 7.33333 9C7.33333 9.55228 7.78105 10 8.33333 10ZM12.6673 9C12.6673 9.55228 12.2196 10 11.6673 10C11.115 10 10.6673 9.55228 10.6673 9C10.6673 8.44772 11.115 8 11.6673 8C12.2196 8 12.6673 8.44772 12.6673 9ZM15.0013 10C15.5536 10 16.0013 9.55228 16.0013 9C16.0013 8.44772 15.5536 8 15.0013 8C14.449 8 14.0013 8.44772 14.0013 9C14.0013 9.55228 14.449 10 15.0013 10Z" fill="black"/>
</g>
</svg>