<svg width="20" height="20" viewBox="0 0 20 20" fill="none" xmlns="http://www.w3.org/2000/svg">
<path d="M8.33334 12.5C9.71405 12.5 10.8333 11.3807 10.8333 10C10.8333 8.61929 9.71405 7.5 8.33334 7.5C6.95262 7.5 5.83334 8.61929 5.83334 10C5.83334 11.3807 6.95262 12.5 8.33334 12.5Z" fill="black"/>
<path fill-rule="evenodd" clip-rule="evenodd" d="M15.6111 9.25C15.7222 7.45 16.1333 6.1 16.8333 5.15C17.5333 4.225 18.3111 3.75 19.1667 3.75V16.25C18.3111 16.25 17.5333 15.8 16.8333 14.875C16.1333 13.95 15.7222 12.625 15.6111 10.875C14.6667 13.125 13.5556 14.8 12.2889 15.875C11.0222 16.95 9.7 17.5 8.33334 17.5C6.86667 17.5 5.46667 16.925 4.11111 15.775C2.75556 14.625 1.66667 12.7 0.833336 10C1.66667 7.3 2.75556 5.375 4.11111 4.225C5.46667 3.075 6.86667 2.5 8.33334 2.5C9.71111 2.5 11.0222 3.075 12.2667 4.25C13.5111 5.425 14.6333 7.075 15.6111 9.25ZM12.5 10C12.5 12.3012 10.6345 14.1667 8.33334 14.1667C6.03215 14.1667 4.16667 12.3012 4.16667 10C4.16667 7.69881 6.03215 5.83333 8.33334 5.83333C10.6345 5.83333 12.5 7.69881 12.5 10Z" fill="black"/>
</svg>
