<svg width="20" height="20" viewBox="0 0 20 20" fill="none" xmlns="http://www.w3.org/2000/svg">
<path d="M0.999954 4.00001C0.999954 3.72387 1.22381 3.50001 1.49995 3.50001H18.5C18.7761 3.50001 19 3.72387 19 4.00001V6.00001C19 6.27615 18.7761 6.50001 18.5 6.50001H1.49996C1.22381 6.50001 0.999954 6.27615 0.999954 6.00001V4.00001Z" fill="black"/>
<path d="M10 12C10.8284 12 11.5 12.6716 11.5 13.5C11.5 14.3284 10.8284 15 10 15C9.17157 15 8.5 14.3284 8.5 13.5C8.5 12.6716 9.17157 12 10 12Z" fill="black"/>
<path fill-rule="evenodd" clip-rule="evenodd" d="M2.12499 7.5H17.875V8.625C17.875 12.9742 14.3492 16.5 9.99999 16.5C5.65075 16.5 2.12499 12.9742 2.12499 8.625V7.5ZM10 8.5C8.89547 8.5 8.00004 9.39543 8.00004 10.5V13.5C8.00004 14.6046 8.89547 15.5 10 15.5C11.1046 15.5 12 14.6046 12 13.5V10.5C12 9.39543 11.1046 8.5 10 8.5Z" fill="black"/>
</svg>
