<svg width="24" height="24" viewBox="0 0 24 24" fill="none" xmlns="http://www.w3.org/2000/svg">
    <rect width="24" height="24" rx="8" fill="#F3F3F3"/>
    <path fill-rule="evenodd" clip-rule="evenodd" d="M5.8 6.494c0-.383.312-.694.695-.694h2.778c.319 0 .596.217.674.526l.694 2.778a.694.694 0 0 1-.222.695l-2.032 1.742c.83 1.693 2.151 3.285 4.161 4.287l1.743-2.134c.17-.208.445-.3.706-.235l2.778.695c.309.077.526.355.526.674v2.777c0 .384-.311.695-.695.695-2 0-3.7-.36-5.135-.977-2.866-1.233-4.599-3.455-5.57-5.69-.806-1.851-1.1-3.734-1.1-5.139z" fill="#3180F3"/>
</svg>
