<svg xmlns="http://www.w3.org/2000/svg" width="60" height="24" viewBox="0 0 60 24" color="#0056A2" fill="none">
<path d="M6.32989 1.27501C5.70989 1.58501 5.24989 2.11501 5.02989 2.77501L0.889889 15.225C0.669889 15.88 0.719889 16.585 1.03489 17.205C1.34489 17.82 1.87489 18.28 2.52989 18.5L16.1199 23.065C16.7799 23.285 17.4799 23.23 18.0999 22.925C18.7199 22.615 19.1799 22.085 19.3949 21.425L23.5399 8.97501C23.9949 7.62001 23.2549 6.15001 21.8999 5.69501L8.30989 1.13501C7.64989 0.915006 6.94989 0.965006 6.32989 1.27501Z" fill="white"/>
<path d="M12.975 13.235C12.235 14.06 11.315 14.725 10.25 15.135L9.64001 15.375V9.60501L10.245 9.84001C11.315 10.25 12.235 10.91 12.98 11.73C13.51 10.88 13.835 9.89501 13.905 8.82501C14.075 6.05501 12.34 3.52001 9.96001 2.63501L8.00001 1.98001C7.11501 1.68501 6.17001 2.17501 5.88001 3.05501L1.71001 15.52C1.41501 16.405 1.91001 17.37 2.80001 17.66L12.23 20.81C13.19 19.785 13.815 18.43 13.905 16.92C13.99 15.57 13.635 14.3 12.97 13.235M7.52501 9.26001V15.73H6.59001V9.26001H7.52501Z" fill="#0099DA"/>
<path d="M21.6 6.525L12.945 3.63C14.105 4.9 14.815 6.595 14.82 8.445C14.82 9.91 14.365 11.31 13.57 12.48C14.365 13.65 14.825 15.045 14.83 16.51C14.83 18.26 14.2 19.87 13.155 21.115L16.405 22.2C17.295 22.495 18.23 22.005 18.525 21.12L22.685 8.66C22.98 7.775 22.48 6.815 21.595 6.52M19.305 15.71H18.135L15.73 12.48L18.175 9.245H19.355L16.905 12.485L19.305 15.715V15.71Z" fill="#0056A2"/>
<path d="M12.4309 12.485C11.9057 11.87 11.2704 11.35 10.535 10.97V14.01C11.2704 13.63 11.9107 13.105 12.4309 12.485Z" fill="#F15A22"/>
<path d="M31.11 5.94H28.63V20.74H31.11V5.94Z" fill="currentColor"/>
<path d="M34.535 5.94V20.74H39.04C42.875 20.73 44.685 19.38 44.69 16.675C44.69 14.98 43.73 13.69 42.14 13.215L41.995 13.17L42.135 13.11C43.61 12.485 44.32 11.42 44.32 9.81C44.32 7.28 42.595 5.945 39.1 5.94H34.53M38.615 14.195C40.385 14.195 42.085 14.48 42.09 16.49C42.09 17.215 41.84 17.8 41.3 18.135C40.76 18.475 39.95 18.625 38.815 18.625H37.01V14.195H38.61M39.43 8.05C40.14 8.05 41.84 8.295 41.845 10.015C41.845 10.965 41.465 11.5 40.84 11.77C40.22 12.05 39.37 12.08 38.41 12.085H37.015V8.05H39.43Z" fill="currentColor"/>
<path d="M58.585 5.94C57.805 6.755 51.925 12.955 51.925 12.955C51.925 12.955 58.3 19.875 59.105 20.74H55.65C55.33 20.37 49.865 14.07 49.865 14.07V20.74H47.39V5.94H49.865V11.925C49.865 11.925 55.08 6.27 55.39 5.94H58.585Z" fill="currentColor"/>
</svg>
