<svg xmlns="http://www.w3.org/2000/svg" width="175" height="24" viewBox="0 0 175 24" color="#0056A2" fill="none">
<path d="M6.32989 1.27501C5.70989 1.58501 5.24989 2.11501 5.02989 2.77501L0.889886 15.225C0.669886 15.88 0.719886 16.585 1.03489 17.205C1.34489 17.82 1.87489 18.28 2.52989 18.5L16.1199 23.065C16.7799 23.285 17.4799 23.23 18.0999 22.925C18.7199 22.615 19.1799 22.085 19.3949 21.425L23.5399 8.97501C23.9949 7.62001 23.2549 6.15001 21.8999 5.69501L8.30989 1.13501C7.64989 0.915006 6.94989 0.965006 6.32989 1.27501Z" fill="white"/>
<path d="M12.975 13.235C12.235 14.06 11.315 14.725 10.25 15.135L9.64 15.375V9.60501L10.245 9.84001C11.315 10.25 12.235 10.91 12.98 11.73C13.51 10.88 13.835 9.89501 13.905 8.82501C14.075 6.05501 12.34 3.52001 9.96 2.63501L8 1.98001C7.115 1.68501 6.17 2.17501 5.88 3.05501L1.71 15.52C1.415 16.405 1.91 17.37 2.8 17.66L12.23 20.81C13.19 19.785 13.815 18.43 13.905 16.92C13.99 15.57 13.635 14.3 12.97 13.235M7.525 9.26001V15.73H6.59V9.26001H7.525Z" fill="#0099DA"/>
<path d="M21.6 6.52501L12.945 3.63001C14.105 4.90001 14.815 6.59501 14.82 8.44501C14.82 9.91001 14.365 11.31 13.57 12.48C14.365 13.65 14.825 15.045 14.83 16.51C14.83 18.26 14.2 19.87 13.155 21.115L16.405 22.2C17.295 22.495 18.23 22.005 18.525 21.12L22.685 8.66001C22.98 7.77501 22.48 6.81501 21.595 6.52001M19.305 15.71H18.135L15.73 12.48L18.175 9.24501H19.355L16.905 12.485L19.305 15.715V15.71Z" fill="#0056A2"/>
<path d="M12.4309 12.485C11.9057 11.87 11.2704 11.35 10.535 10.97V14.01C11.2704 13.63 11.9107 13.105 12.4309 12.485Z" fill="#F15A22"/>
<path d="M31.11 5.94H28.63V20.74H31.11V5.94Z" fill="currentColor"/>
<path d="M34.535 5.94V20.74H39.04C42.875 20.73 44.685 19.38 44.69 16.675C44.69 14.98 43.73 13.69 42.14 13.215L41.995 13.17L42.135 13.11C43.61 12.485 44.32 11.42 44.32 9.81C44.32 7.28 42.595 5.945 39.1 5.94H34.53M38.615 14.195C40.385 14.195 42.085 14.48 42.09 16.49C42.09 17.215 41.84 17.8 41.3 18.135C40.76 18.475 39.95 18.625 38.815 18.625H37.01V14.195H38.61M39.43 8.05C40.14 8.05 41.84 8.295 41.845 10.015C41.845 10.965 41.465 11.5 40.84 11.77C40.22 12.05 39.37 12.08 38.41 12.085H37.015V8.05H39.43Z" fill="currentColor"/>
<path d="M58.585 5.94C57.805 6.755 51.925 12.955 51.925 12.955C51.925 12.955 58.3 19.875 59.105 20.74H55.65C55.33 20.37 49.865 14.07 49.865 14.07V20.74H47.39V5.94H49.865V11.925C49.865 11.925 55.08 6.27 55.39 5.94H58.585Z" fill="currentColor"/>
<path d="M67.897 6.04258C68.543 6.04258 69.1097 6.12191 69.597 6.28058C70.0843 6.42791 70.498 6.63758 70.838 6.90958C71.178 7.17025 71.45 7.48191 71.654 7.84458C71.858 8.19591 71.9997 8.57558 72.079 8.98358H74.578V5.88958H76.975V13.0806C76.975 13.3412 76.8447 13.5339 76.584 13.6586C76.3347 13.7832 76.057 13.8456 75.751 13.8456C75.4563 13.8456 75.1843 13.7832 74.935 13.6586C74.697 13.5339 74.578 13.3412 74.578 13.0806V10.4796H72.113C72.045 10.9102 71.909 11.3126 71.705 11.6866C71.501 12.0492 71.2233 12.3666 70.872 12.6386C70.532 12.9106 70.1127 13.1259 69.614 13.2846C69.1267 13.4432 68.5543 13.5226 67.897 13.5226C67.1717 13.5226 66.5427 13.4262 66.01 13.2336C65.4773 13.0296 65.0353 12.7576 64.684 12.4176C64.3327 12.0776 64.0663 11.6809 63.885 11.2276C63.715 10.7742 63.63 10.2926 63.63 9.78258C63.63 9.28391 63.715 8.80791 63.885 8.35458C64.0663 7.90125 64.3327 7.50458 64.684 7.16458C65.0353 6.82458 65.4773 6.55258 66.01 6.34858C66.554 6.14458 67.183 6.04258 67.897 6.04258ZM66.673 14.6956H69.036V16.7016H74.629V14.6956H76.958V19.3536C76.958 19.7842 76.822 20.1412 76.55 20.4246C76.2893 20.7079 75.9267 20.9346 75.462 21.1046C75.0087 21.2859 74.476 21.4162 73.864 21.4956C73.252 21.5749 72.606 21.6202 71.926 21.6316C71.688 21.6316 71.3593 21.6202 70.94 21.5976C70.5207 21.5862 70.0617 21.5522 69.563 21.4956C69.0757 21.4389 68.577 21.3652 68.067 21.2746C67.557 21.1952 67.0923 21.0876 66.673 20.9516V14.6956ZM69.75 9.78258C69.75 9.02325 69.6027 8.45658 69.308 8.08258C69.0133 7.70858 68.543 7.52158 67.897 7.52158C67.1943 7.52158 66.707 7.70858 66.435 8.08258C66.1743 8.45658 66.044 9.02325 66.044 9.78258C66.044 10.5306 66.1743 11.0972 66.435 11.4826C66.707 11.8566 67.1943 12.0436 67.897 12.0436C68.5543 12.0436 69.0247 11.8509 69.308 11.4656C69.6027 11.0802 69.75 10.5192 69.75 9.78258ZM74.629 18.1466H69.036V19.8976C69.2173 19.9429 69.4383 19.9769 69.699 19.9996C69.971 20.0336 70.243 20.0562 70.515 20.0676C70.787 20.0902 71.042 20.1016 71.28 20.1016C71.5293 20.1129 71.7333 20.1186 71.892 20.1186C72.2207 20.1072 72.5437 20.0902 72.861 20.0676C73.1897 20.0562 73.4843 20.0222 73.745 19.9656C74.0057 19.9202 74.2153 19.8522 74.374 19.7616C74.544 19.6709 74.629 19.5519 74.629 19.4046V18.1466Z" fill="currentColor"/>
<path d="M81.4153 6.53558H92.1423V10.1566C92.1423 10.7006 92.0743 11.1709 91.9383 11.5676C91.8136 11.9642 91.604 12.2929 91.3093 12.5536C91.0146 12.8029 90.6293 12.9899 90.1533 13.1146C89.6773 13.2392 89.0993 13.3129 88.4193 13.3356H81.4153V6.53558ZM94.1993 16.4636H87.9943V21.6316H85.5463V16.4636H79.9193C79.6813 16.4636 79.5 16.3899 79.3753 16.2426C79.2506 16.0952 79.1883 15.9252 79.1883 15.7326C79.1883 15.5399 79.2506 15.3699 79.3753 15.2226C79.5 15.0639 79.6813 14.9846 79.9193 14.9846H94.1993V16.4636ZM89.7283 8.01458H83.8293V11.8566H88.4533C88.7593 11.8566 88.9973 11.8056 89.1673 11.7036C89.3486 11.5902 89.479 11.4486 89.5583 11.2786C89.6377 11.1086 89.683 10.9272 89.6943 10.7346C89.717 10.5306 89.7283 10.3379 89.7283 10.1566V8.01458Z" fill="currentColor"/>
<path d="M95.7666 16.9736C96.5826 16.3049 97.2513 15.6022 97.7726 14.8656C98.294 14.1289 98.702 13.3866 98.9966 12.6386C99.3026 11.8906 99.5123 11.1539 99.6256 10.4286C99.739 9.70325 99.807 9.01191 99.8296 8.35458H97.0926C96.8433 8.35458 96.6733 8.28091 96.5826 8.13358C96.492 7.98625 96.4466 7.81625 96.4466 7.62358C96.4466 7.43091 96.492 7.25525 96.5826 7.09658C96.6733 6.93791 96.8433 6.85858 97.0926 6.85858H105.457V8.35458H102.295C102.283 8.89858 102.244 9.47091 102.176 10.0716C102.119 10.6722 101.994 11.3012 101.802 11.9586C102.119 12.2646 102.465 12.6159 102.839 13.0126C103.213 13.4092 103.581 13.8286 103.944 14.2706C104.318 14.7012 104.669 15.1432 104.998 15.5966C105.326 16.0499 105.61 16.4862 105.848 16.9056L104.624 17.8576C104.08 17.1549 103.479 16.4806 102.822 15.8346C102.176 15.1886 101.53 14.6162 100.884 14.1176C100.487 14.8089 99.977 15.5002 99.3536 16.1916C98.7416 16.8829 97.971 17.5686 97.0416 18.2486L95.7666 16.9736ZM106.681 5.88958H109.078V20.8666C109.078 21.1272 108.953 21.3142 108.704 21.4276C108.454 21.5522 108.182 21.6146 107.888 21.6146C107.593 21.6146 107.315 21.5522 107.055 21.4276C106.805 21.3142 106.681 21.1272 106.681 20.8666V5.88958Z" fill="currentColor"/>
<path d="M117.326 11.9926C115.977 11.9926 114.935 11.7319 114.198 11.2106C113.461 10.6892 113.093 9.95825 113.093 9.01758C113.093 8.07691 113.461 7.34591 114.198 6.82458C114.935 6.30325 115.977 6.04258 117.326 6.04258C118.663 6.04258 119.7 6.30325 120.437 6.82458C121.185 7.34591 121.559 8.07691 121.559 9.01758C121.559 9.95825 121.185 10.6892 120.437 11.2106C119.7 11.7319 118.663 11.9926 117.326 11.9926ZM119.808 15.1376H123.174V5.88958H125.571V17.5176C125.571 17.7669 125.441 17.9539 125.18 18.0786C124.931 18.2032 124.653 18.2656 124.347 18.2656C124.052 18.2656 123.78 18.2032 123.531 18.0786C123.293 17.9539 123.174 17.7669 123.174 17.5176V16.6166H119.808V15.1376ZM114.827 21.3936V17.3476H117.275V19.8806H123.123C123.576 19.8806 124.007 19.8466 124.415 19.7786C124.834 19.7106 125.276 19.6029 125.741 19.4556L125.911 20.7986C125.752 20.8892 125.565 20.9686 125.35 21.0366C125.146 21.1159 124.931 21.1782 124.704 21.2236C124.477 21.2689 124.245 21.3029 124.007 21.3256C123.78 21.3596 123.565 21.3822 123.361 21.3936H114.827ZM115.15 16.4296C115.343 16.1009 115.496 15.7552 115.609 15.3926C115.734 15.0299 115.83 14.6559 115.898 14.2706H112.6C112.373 14.2706 112.198 14.1969 112.073 14.0496C111.96 13.8909 111.903 13.7152 111.903 13.5226C111.903 13.3299 111.96 13.1599 112.073 13.0126C112.198 12.8652 112.373 12.7916 112.6 12.7916H117.836C118.119 12.7916 118.459 12.7802 118.856 12.7576C119.264 12.7236 119.689 12.6726 120.131 12.6046C120.584 12.5366 121.032 12.4572 121.474 12.3666C121.916 12.2646 122.318 12.1456 122.681 12.0096V13.3696C122.126 13.6756 121.451 13.8966 120.658 14.0326C119.865 14.1686 119.06 14.2479 118.244 14.2706C118.176 14.7806 118.04 15.2622 117.836 15.7156C117.632 16.1576 117.445 16.5032 117.275 16.7526L115.15 16.4296ZM117.326 10.5646C117.949 10.5646 118.42 10.4512 118.737 10.2246C119.066 9.99791 119.23 9.59558 119.23 9.01758C119.23 8.43958 119.066 8.03725 118.737 7.81058C118.42 7.58391 117.949 7.47058 117.326 7.47058C116.703 7.47058 116.227 7.58391 115.898 7.81058C115.581 8.03725 115.422 8.43958 115.422 9.01758C115.422 9.59558 115.581 9.99791 115.898 10.2246C116.227 10.4512 116.703 10.5646 117.326 10.5646Z" fill="currentColor"/>
<path d="M127.325 17.1266C128.243 16.2312 129.008 15.3359 129.62 14.4406C130.232 13.5339 130.725 12.6442 131.099 11.7716C131.473 10.8876 131.74 10.0206 131.898 9.17058C132.057 8.32058 132.136 7.49891 132.136 6.70558H134.635C134.635 7.45358 134.573 8.28091 134.448 9.18758C134.324 10.0829 134.052 11.0292 133.632 12.0266C133.95 12.3212 134.295 12.6499 134.669 13.0126C135.043 13.3752 135.406 13.7606 135.757 14.1686C136.12 14.5766 136.46 15.0016 136.777 15.4436C137.106 15.8742 137.384 16.2992 137.61 16.7186L136.42 17.6876C135.842 17.0076 135.225 16.3446 134.567 15.6986C133.91 15.0526 133.247 14.4916 132.578 14.0156C132.136 14.7069 131.592 15.4039 130.946 16.1066C130.312 16.7979 129.547 17.4949 128.651 18.1976L127.325 17.1266ZM141.095 20.8666C141.095 21.1272 140.971 21.3142 140.721 21.4276C140.472 21.5522 140.2 21.6146 139.905 21.6146C139.599 21.6146 139.322 21.5522 139.072 21.4276C138.823 21.3142 138.698 21.1272 138.698 20.8666V5.88958H141.095V20.8666Z" fill="currentColor"/>
<path d="M153.067 6.68858C153.021 7.26658 152.925 7.81058 152.778 8.32058C152.63 8.81925 152.438 9.30091 152.2 9.76558C152.574 9.96958 153.016 10.2246 153.526 10.5306C154.047 10.8366 154.574 11.1766 155.107 11.5506C155.639 11.9132 156.155 12.2929 156.654 12.6896C157.152 13.0749 157.566 13.4489 157.895 13.8116L156.926 14.9506C156.484 14.6672 156.008 14.3612 155.498 14.0326C154.999 13.7039 154.489 13.3866 153.968 13.0806C153.446 12.7746 152.925 12.4912 152.404 12.2306C151.894 11.9586 151.412 11.7376 150.959 11.5676C150.562 12.0322 150.131 12.4516 149.667 12.8256C149.202 13.1996 148.726 13.5396 148.239 13.8456C147.751 14.1402 147.258 14.3952 146.76 14.6106C146.272 14.8259 145.802 15.0016 145.349 15.1376L144.72 13.7606C145.32 13.5452 145.938 13.2166 146.573 12.7746C147.219 12.3326 147.814 11.8056 148.358 11.1936C148.902 10.5702 149.366 9.87891 149.752 9.11958C150.148 8.34891 150.403 7.53858 150.517 6.68858H153.067ZM158.813 17.1946V18.6906H144.533C144.272 18.6906 144.085 18.6169 143.972 18.4696C143.858 18.3109 143.802 18.1352 143.802 17.9426C143.802 17.7612 143.858 17.5912 143.972 17.4326C144.085 17.2739 144.272 17.1946 144.533 17.1946H158.813Z" fill="currentColor"/>
<path d="M163.525 15.5626H173.793V19.0646C173.793 19.6312 173.629 20.0789 173.3 20.4076C172.971 20.7476 172.541 21.0082 172.008 21.1896C171.487 21.3709 170.897 21.4842 170.24 21.5296C169.583 21.5862 168.925 21.6202 168.268 21.6316C167.985 21.6316 167.628 21.6146 167.197 21.5806C166.766 21.5466 166.324 21.4899 165.871 21.4106C165.418 21.3312 164.976 21.2292 164.545 21.1046C164.126 20.9912 163.786 20.8552 163.525 20.6966V15.5626ZM161.162 6.36558H167.095V7.84458H163.542V9.37458H166.245V10.8536H163.542V12.5366C163.735 12.5932 163.967 12.6329 164.239 12.6556C164.511 12.6782 164.794 12.6896 165.089 12.6896C165.508 12.6896 165.973 12.6442 166.483 12.5536C166.993 12.4629 167.52 12.3326 168.064 12.1626V13.5736C167.611 13.7436 167.095 13.8852 166.517 13.9986C165.95 14.1006 165.395 14.1516 164.851 14.1516C164.613 14.1516 164.341 14.1459 164.035 14.1346C163.729 14.1119 163.412 14.0836 163.083 14.0496C162.766 14.0042 162.437 13.9476 162.097 13.8796C161.768 13.8002 161.457 13.7039 161.162 13.5906V6.36558ZM166.908 9.25558H168.761V6.05958H170.954V13.9816C170.954 14.2309 170.841 14.4179 170.614 14.5426C170.399 14.6672 170.144 14.7296 169.849 14.7296C169.554 14.7296 169.299 14.6672 169.084 14.5426C168.869 14.4179 168.761 14.2309 168.761 13.9816V10.8196H166.908V9.25558ZM171.821 5.88958H174.048V14.0496C174.048 14.2989 173.935 14.4859 173.708 14.6106C173.493 14.7352 173.232 14.7976 172.926 14.7976C172.631 14.7976 172.371 14.7352 172.144 14.6106C171.929 14.4859 171.821 14.2989 171.821 14.0496V5.88958ZM171.379 17.0076H165.922V19.8296C166.103 19.8862 166.302 19.9372 166.517 19.9826C166.732 20.0279 166.948 20.0619 167.163 20.0846C167.39 20.1186 167.611 20.1412 167.826 20.1526C168.041 20.1639 168.234 20.1696 168.404 20.1696C168.721 20.1696 169.056 20.1526 169.407 20.1186C169.758 20.0959 170.081 20.0449 170.376 19.9656C170.671 19.8976 170.909 19.7956 171.09 19.6596C171.283 19.5236 171.379 19.3536 171.379 19.1496V17.0076Z" fill="currentColor"/>
</svg>
