<svg width="16" height="16" viewBox="0 0 16 16" fill="none" xmlns="http://www.w3.org/2000/svg">
    <g clip-path="url(#g8yfa9usoa)" stroke="#8C949E" stroke-width="1.2" stroke-linecap="round" stroke-linejoin="round">
        <path d="M6 10c0-1.886 0-2.828.586-3.414C7.172 6 8.114 6 10 6h.667c1.885 0 2.828 0 3.414.586.586.586.586 1.528.586 3.414v.667c0 1.885 0 2.828-.586 3.414-.586.586-1.529.586-3.414.586H10c-1.886 0-2.828 0-3.414-.586C6 13.495 6 12.552 6 10.667V10z"/>
        <path d="M11.334 6c-.002-1.972-.031-2.993-.605-3.692a2.662 2.662 0 0 0-.37-.37c-.738-.605-1.833-.605-4.025-.605s-3.287 0-4.025.605c-.135.111-.259.235-.37.37-.605.738-.605 1.833-.605 4.025s0 3.287.605 4.025c.111.135.235.259.37.37.7.574 1.72.603 3.692.605"/>
    </g>
    <defs>
        <clipPath id="g8yfa9usoa">
            <path fill="#fff" d="M0 0h16v16H0z"/>
        </clipPath>
    </defs>
</svg>
