<svg width="24" height="24" viewBox="0 0 24 24" fill="none" xmlns="http://www.w3.org/2000/svg">
<g clip-path="url(#clip0_2241_3802)">
<rect width="24" height="24" rx="8" fill="#F3F3F3"/>
<path d="M18.5 12C18.5 15.5899 15.5899 18.5 12 18.5C8.41015 18.5 5.5 15.5899 5.5 12C5.5 8.41015 8.41015 5.5 12 5.5C15.5899 5.5 18.5 8.41015 18.5 12Z" fill="#F56570" stroke="#F56570" stroke-width="1.5" stroke-linecap="round" stroke-linejoin="round"/>
<path d="M9 12H15" stroke="white" stroke-width="1.5" stroke-linecap="round" stroke-linejoin="round"/>
<path fill-rule="evenodd" clip-rule="evenodd" d="M21.2924 18.5277C21.4804 18.7157 21.4804 19.0206 21.2924 19.2086L19.9305 20.5705C19.7743 20.7267 19.5318 20.7565 19.3423 20.6429L17.64 19.6215C17.4837 19.5277 17.3937 19.3535 17.4077 19.1717L17.55 17.3216C16.313 16.8984 14.8849 16.7657 13.4082 17.2595L13.6004 19.1602C13.6191 19.3458 13.529 19.5255 13.3691 19.6215L11.6668 20.6429C11.4773 20.7565 11.2348 20.7267 11.0786 20.5705L9.71676 19.2086C9.52873 19.0206 9.52873 18.7157 9.71676 18.5277C10.6971 17.5474 11.7068 16.8901 12.7133 16.4889C14.7227 15.688 16.6614 15.9281 18.2345 16.5477C19.5363 17.0604 20.6037 17.839 21.2924 18.5277Z" fill="#E32939" stroke="#E32939" stroke-linecap="round" stroke-linejoin="round"/>
</g>
<defs>
<clipPath id="clip0_2241_3802">
<rect width="24" height="24" rx="8" fill="white"/>
</clipPath>
</defs>
</svg>
