<svg width="24" height="24" viewBox="0 0 24 24" fill="none" xmlns="http://www.w3.org/2000/svg">
<rect width="24" height="24" rx="8" fill="#F3F3F3"/>
<path d="M12.0005 4.25C8.75341 4.25 6.12109 6.88232 6.12109 10.1294C6.12109 11.5687 6.63821 12.8871 7.49679 13.9091L10.634 18.2971C11.304 19.2343 12.697 19.2343 13.3671 18.2971L16.5043 13.9091C17.3629 12.8871 17.88 11.5687 17.88 10.1294C17.88 6.88232 15.2477 4.25 12.0005 4.25Z" fill="#5A81FF"/>
<path d="M14.52 10.1291C14.52 11.5208 13.3919 12.6489 12.0002 12.6489C10.6086 12.6489 9.48047 11.5208 9.48047 10.1291C9.48047 8.73751 10.6086 7.60938 12.0002 7.60938C13.3919 7.60938 14.52 8.73751 14.52 10.1291Z" fill="white"/>
<path fill-rule="evenodd" clip-rule="evenodd" d="M21.3459 18.0256C21.5195 18.1991 21.5195 18.4805 21.3459 18.6541L20.0888 19.9112C19.9446 20.0554 19.7208 20.083 19.5459 19.978L17.9745 19.0352C17.8302 18.9486 17.7471 18.7879 17.7601 18.62L17.8914 16.9123C16.7495 16.5216 15.4314 16.3991 14.0682 16.8549L14.2456 18.6094C14.2629 18.7807 14.1797 18.9466 14.0321 19.0352L12.4607 19.978C12.2859 20.083 12.062 20.0554 11.9178 19.9112L10.6607 18.6541C10.4872 18.4805 10.4872 18.1991 10.6607 18.0256C11.5656 17.1207 12.4976 16.5139 13.4268 16.1436C15.2816 15.4043 17.0712 15.6259 18.5232 16.1978C19.7249 16.6712 20.7102 17.3899 21.3459 18.0256Z" fill="#E32939" stroke="#E32939" stroke-linecap="round" stroke-linejoin="round"/>
</svg>
